<svg height="512pt" viewBox="0 -21 512 512" width="512pt" xmlns="http://www.w3.org/2000/svg"><path d="m439.949219 293.566406v43.59375h-23.003907v-117.101562c0-13.835938-11.242187-25.078125-25.078124-25.078125-13.832032 0-25.078126 11.242187-25.078126 25.078125v67.738281h-23.003906v-67.738281c0-26.519532 21.566406-48.085938 48.082032-48.085938 26.519531 0 48.082031 21.566406 48.082031 48.085938zm0 0" fill="#fed974"/><path d="m355.519531 220.058594c0-24.53125 18.457031-44.808594 42.214844-47.714844-1.925781-.234375-3.878906-.367188-5.867187-.367188-26.515626 0-48.082032 21.566407-48.082032 48.082032v67.738281h11.734375zm0 0" fill="#fcc53a"/><path d="m428.679688 220.058594c0-13.835938-11.246094-25.078125-25.078126-25.078125-2.019531 0-3.984374.246093-5.867187.699219 11.007813 2.648437 19.210937 12.566406 19.210937 24.378906v117.101562h11.734376zm0 0" fill="#fcc53a"/><path d="m453.304688 303.699219v25.328125h-49.703126v-25.328125c0-5.601563 4.53125-10.132813 10.132813-10.132813h29.4375c5.589844 0 10.132813 4.53125 10.132813 10.132813zm0 0" fill="#acacac"/><path d="m436.570312 293.566406h-22.835937c-5.601563 0-10.132813 4.53125-10.132813 10.132813v25.328125h22.835938v-25.328125c0-5.601563 4.53125-10.132813 10.132812-10.132813zm0 0" fill="#9f9fa0"/><path d="m379.363281 455.601562v5.792969h-115.992187v-247.449219c0-5.230468 5.703125-8.480468 10.203125-5.8125l100.339843 59.378907c3.378907 2 5.449219 5.640625 5.449219 9.570312zm0 0" fill="#6285a4"/><path d="m336.230469 457.378906v-149.007812c0-3.929688-2.070313-7.570313-5.449219-9.570313l-67.410156-39.886719v193.875zm0 0" fill="#537996"/><path d="m318.347656 317.074219v144.53125l-133.785156-.210938v-218.21875h19.625l108.707031 64.324219c3.382813 2.003906 5.453125 5.644531 5.453125 9.574219zm0 0" fill="#acacac"/><path d="m231.792969 259.511719-27.605469-16.335938h-19.625v218.21875l53.421875.082031zm0 0" fill="#9d9fa0"/><path d="m127.234375 243.703125v50.496094h-24.40625v-81.3125c0-9.273438-7.542969-16.816407-16.8125-16.816407-9.273437 0-16.816406 7.542969-16.816406 16.816407v104.386719h-24.40625v-104.386719c0-11.382813 4.609375-21.6875 12.074219-29.148438 7.460937-7.460937 17.761718-12.074219 29.148437-12.074219 22.765625 0 41.21875 18.457032 41.21875 41.222657zm0 0" fill="#1a94fa"/><path d="m58.089844 212.886719c0-11.382813 4.613281-21.6875 12.074218-29.148438 5.976563-5.976562 13.78125-10.117187 22.5-11.53125-2.167968-.351562-4.386718-.542969-6.648437-.542969-11.386719 0-21.6875 4.613282-29.148437 12.074219-7.464844 7.460938-12.074219 17.765625-12.074219 29.148438v104.386719h13.296875zm0 0" fill="#0587e0"/><path d="m116.128906 212.886719c0-9.273438-7.542968-16.816407-16.816406-16.816407-2.363281 0-4.609375.496094-6.648438 1.378907 5.972657 2.582031 10.164063 8.527343 10.164063 15.4375v81.3125h13.300781zm0 0" fill="#0587e0"/><path d="m173.667969 231.101562v230.503907h-138.238281v-159.726563c0-6.582031 3.671874-12.601562 9.511718-15.625l106.671875-55.152344zm0 0" fill="#6285a4"/><path d="m148.660156 269.78125-80.519531 43.613281c-2.28125 1.234375-3.703125 3.621094-3.703125 6.214844v141.785156h97.128906v-191.613281zm0 0" fill="#e7e7e7"/><path d="m93.519531 461.394531h26.960938v-176.351562l-26.960938 14.605469zm0 0" fill="#acacac"/><path d="m199.035156 90.53125 11.371094 371.074219h-65.367188l11.375-371.074219c.070313-2.378906 2.007813-4.269531 4.390626-4.269531h33.839843c2.378907 0 4.320313 1.890625 4.390625 4.269531zm0 0" fill="#d4d5d6"/><path d="m187.714844 86.261719h-26.910156c-2.382813 0-4.320313 1.890625-4.390626 4.269531l-11.375 371.074219h26.914063l11.371094-371.074219c.070312-2.378906 2.011719-4.269531 4.390625-4.269531zm0 0" fill="#c6c6c6"/><path d="m153.003906 201.792969h49.441406l-1.082031-35.355469h-47.277343zm0 0" fill="#f64446"/><path d="m181 166.4375h-26.914062l-1.082032 35.355469h26.910156zm0 0" fill="#e01e31"/><path d="m150.140625 295.125h55.164063l-1.082032-35.355469h-52.996094zm0 0" fill="#f64446"/><path d="m150.140625 295.125h26.914063l1.082031-35.355469h-26.910157zm0 0" fill="#e01e31"/><path d="m147.28125 388.453125h60.882812l-1.082031-35.351563h-58.71875zm0 0" fill="#f64446"/><path d="m147.28125 388.453125h26.914062l1.082032-35.351563h-26.914063zm0 0" fill="#e01e31"/><path d="m477.53125 336.988281v124.617188h-98.167969v-124.617188c0-10.472656 8.492188-18.964843 18.976563-18.964843h60.226562c10.472656 0 18.964844 8.492187 18.964844 18.964843zm0 0" fill="#d4d5d6"/><path d="m432.808594 318.023438h-34.46875c-10.484375 0-18.976563 8.492187-18.976563 18.964843v124.617188h34.46875v-124.617188c0-10.472656 8.492188-18.964843 18.976563-18.964843zm0 0" fill="#c6c6c6"/><path d="m379.363281 351.164062h98.167969v28.417969h-98.167969zm0 0" fill="#f64446"/><path d="m379.363281 351.164062h34.46875v28.417969h-34.46875zm0 0" fill="#e01e31"/><path d="m379.363281 406.386719h98.167969v28.417969h-98.167969zm0 0" fill="#f64446"/><path d="m379.363281 406.386719h34.46875v28.417969h-34.46875zm0 0" fill="#e01e31"/><path d="m504.496094 469.300781h-496.992188c-4.144531 0-7.503906-3.355469-7.503906-7.5s3.359375-7.503906 7.503906-7.503906h496.992188c4.144531 0 7.503906 3.359375 7.503906 7.503906s-3.359375 7.5-7.503906 7.5zm0 0" fill="#acacac"/><g fill="#3dcff3"><path d="m359.320312 386.113281v16.484375c0 1.5-1.210937 2.710938-2.703124 2.710938h-16.492188c-1.492188 0-2.703125-1.210938-2.703125-2.710938v-16.484375c0-1.5 1.210937-2.710937 2.703125-2.710937h16.492188c1.492187 0 2.703124 1.210937 2.703124 2.710937zm0 0"/><path d="m359.320312 338.109375v16.484375c0 1.5-1.210937 2.710938-2.703124 2.710938h-16.492188c-1.492188 0-2.703125-1.210938-2.703125-2.710938v-16.484375c0-1.5 1.210937-2.710937 2.703125-2.710937h16.492188c1.492187 0 2.703124 1.210937 2.703124 2.710937zm0 0"/><path d="m249.488281 386.894531v14.921875c0 1.921875-1.558593 3.492188-3.492187 3.492188h-14.914063c-1.929687 0-3.488281-1.570313-3.488281-3.492188v-14.921875c0-1.929687 1.558594-3.492187 3.488281-3.492187h14.914063c1.933594 0 3.492187 1.5625 3.492187 3.492187zm0 0"/><path d="m296.179688 386.894531v14.921875c0 1.921875-1.558594 3.492188-3.488282 3.492188h-14.925781c-1.917969 0-3.488281-1.570313-3.488281-3.492188v-14.921875c0-1.929687 1.570312-3.492187 3.488281-3.492187h14.925781c1.929688 0 3.488282 1.5625 3.488282 3.492187zm0 0"/><path d="m296.179688 338.890625v14.921875c0 1.933594-1.558594 3.492188-3.488282 3.492188h-14.925781c-1.917969 0-3.488281-1.558594-3.488281-3.492188v-14.921875c0-1.921875 1.570312-3.492187 3.488281-3.492187h14.925781c1.929688 0 3.488282 1.570312 3.488282 3.492187zm0 0"/><path d="m249.488281 338.890625v14.921875c0 1.933594-1.558593 3.492188-3.492187 3.492188h-14.914063c-1.929687 0-3.488281-1.558594-3.488281-3.492188v-14.921875c0-1.921875 1.558594-3.492187 3.488281-3.492187h14.914063c1.933594 0 3.492187 1.570312 3.492187 3.492187zm0 0"/></g><path d="m177.722656 68.101562c-4.144531 0-7.5-3.359374-7.5-7.5v-11.621093c0-10.78125 8.769532-19.550781 19.550782-19.550781h10.777343c3.976563 0 7.210938-3.238282 7.210938-7.214844 0-3.976563-3.234375-7.210938-7.210938-7.210938h-42.878906c-4.144531 0-7.503906-3.359375-7.503906-7.5 0-4.144531 3.359375-7.503906 7.503906-7.503906h42.878906c12.25 0 22.214844 9.964844 22.214844 22.214844s-9.964844 22.21875-22.214844 22.21875h-10.777343c-2.507813 0-4.546876 2.039062-4.546876 4.546875v11.621093c0 4.140626-3.359374 7.5-7.503906 7.5zm0 0" fill="#acacac"/></svg>