<?xml version="1.0" encoding="UTF-8"?>
<svg width="64px" height="64px" viewBox="0 0 64 64" version="1.1" xmlns="http://www.w3.org/2000/svg" xmlns:xlink="http://www.w3.org/1999/xlink">
    <!-- Generator: Sketch 50.2 (55047) - http://www.bohemiancoding.com/sketch -->
    <title>jkl/core/elements/icons/approval</title>
    <desc>Created with Sketch.</desc>
    <defs>
        <path d="M31.0437177,45.1943584 C31.4325398,45.2564045 31.8296346,45.1612672 32.1481378,44.9275603 C32.4625046,44.700058 32.681734,44.3484636 32.7396437,43.9575734 L33.0891699,41.6349821 C33.1594888,41.1675684 33.4511053,40.7704735 33.8730186,40.5574487 L35.9763804,39.5068019 C36.3321112,39.3268682 36.5989093,39.0187061 36.718865,38.6443615 C36.8429572,38.2658804 36.8036613,37.8605128 36.6257959,37.5089184 L35.5420579,35.4138293 C35.329033,35.0043253 35.329033,34.5058885 35.5420579,34.092248 L36.6257959,31.9992272 C36.8036613,31.6476328 36.840889,31.2422651 36.718865,30.8637841 C36.5968411,30.4873713 36.330043,30.1812773 35.9763804,30.0013437 L33.8730186,28.9506969 C33.4511053,28.7376721 33.1594888,28.3405772 33.0891699,27.8731635 L32.7396437,25.5505722 C32.681734,25.1596819 32.4625046,24.8101557 32.1481378,24.5826535 C31.8296346,24.3468784 31.4325398,24.2517411 31.0437177,24.3158554 L28.71699,24.7046774 C28.2557809,24.7812009 27.7883672,24.6281539 27.4574548,24.2951734 L25.8049611,22.615793 C25.5257538,22.3365857 25.1514091,22.1794023 24.7543143,22.1794023 C24.363424,22.1794023 23.9808066,22.3386539 23.7036675,22.615793 L22.0511738,24.2951734 C21.7223296,24.6302221 21.2528477,24.7812009 20.7916385,24.7046774 L18.4690473,24.32206 C18.0802252,24.2579457 17.6831303,24.353083 17.362559,24.5888581 C17.046124,24.8163604 16.8289628,25.1658866 16.7710531,25.5567768 L16.4235951,27.8793681 C16.351208,28.3467818 16.0616597,28.7438767 15.6397464,28.9569015 L13.5343164,30.0075483 C13.1847902,30.1874819 12.9138557,30.4935759 12.7938999,30.8699887 C12.671876,31.2484698 12.7070354,31.6538374 12.8849008,32.0054318 L13.9686389,34.0984526 C14.1837319,34.5100249 14.1837319,35.0084617 13.9686389,35.420034 L12.8849008,37.515123 C12.7070354,37.8667174 12.671876,38.272085 12.7938999,38.6505661 C12.9159239,39.0249107 13.182722,39.3330729 13.5343164,39.5130065 L15.6397464,40.5636533 C16.0616597,40.7766781 16.351208,41.173773 16.4235951,41.6411867 L16.7710531,43.963778 C16.8289628,44.3526 17.046124,44.7041944 17.362559,44.9337649 C17.6810621,45.1674718 18.078157,45.2626091 18.4690473,45.200563 L20.7916385,44.8179456 C21.2528477,44.7372857 21.7223296,44.8924009 22.0511738,45.2253814 L23.7036675,46.9006254 C23.9828748,47.1860373 24.3613558,47.3432207 24.7543143,47.3432207 C25.1493409,47.3432207 25.527822,47.1860373 25.8049611,46.9006254 L27.4574548,45.2253814 C27.7883672,44.8924009 28.2578491,44.7372857 28.71699,44.8179456 L31.0437177,45.1943584 Z M24.7522461,43.4984324 C19.8092424,43.4984324 15.7907252,39.4799152 15.7907252,34.5389797 C15.7907252,29.5980443 19.8113106,25.5753906 24.7522461,25.5753906 C29.6952498,25.5753906 33.713767,29.6001125 33.713767,34.5389797 C33.713767,39.477847 29.697318,43.4984324 24.7522461,43.4984324 Z M38.1004242,46.8716705 C38.3093127,47.0764226 38.3879044,47.3845847 38.3010399,47.6679284 C38.2162436,47.9512722 37.9825367,48.1601606 37.6929884,48.2139339 L35.0436211,48.7103024 L34.5534572,51.3513969 C34.4955475,51.6430134 34.2887273,51.8767203 34.0074517,51.965653 C33.7261762,52.0504493 33.4221505,51.975994 33.2111938,51.7650374 L27.7676851,46.3235969 L28.16478,45.9244338 C28.2495763,45.8375693 28.3653956,45.7837961 28.5577385,45.7962053 L30.8865343,46.1767545 C31.5442227,46.2843011 32.2039793,46.1209131 32.7313709,45.7362274 C33.2628989,45.35361 33.6227661,44.7558995 33.7220398,44.1085522 L33.9329964,42.7021745 L38.1004242,46.8716705 Z M21.0253454,45.7858643 C21.1432329,45.7858643 21.2590523,45.8334329 21.3459168,45.9223656 L21.7430116,46.3235969 L16.3015712,51.7671056 C16.0947509,51.975994 15.788657,52.0504493 15.5094496,51.965653 C15.2281741,51.8767203 15.0192857,51.6430134 14.9655124,51.3513969 L14.4691438,48.706166 L11.8218448,48.2118657 C11.5364329,48.153956 11.3006578,47.949204 11.2117251,47.6658602 C11.1269288,47.3845847 11.2034523,47.0784908 11.4102725,46.8716705 L15.5756321,42.7021745 L15.7865888,44.1023475 C15.8858625,44.7538313 16.2457297,45.3494736 16.7731213,45.7300228 C17.3025811,46.1188449 17.9540649,46.2801646 18.6262306,46.1767545 L21.0253454,45.7858643 Z M27.1286106,8.72160944 C27.827663,8.72160944 28.4005551,9.29450149 28.4005551,9.9976903 C28.4005551,10.7008791 27.8297312,11.2675666 27.1286106,11.2675666 L7.61512116,11.2675666 C6.90986415,11.2675666 6.3411085,10.7008791 6.3431767,9.9935539 C6.3431767,9.29036509 6.91193235,8.72160944 7.61512116,8.72160944 L27.1286106,8.72160944 Z M27.1286106,15.2447197 C27.827663,15.2447197 28.4005551,15.8134754 28.4005551,16.514596 C28.4005551,17.219853 27.8297312,17.7865405 27.1286106,17.7865405 L7.61512116,17.7865405 C6.90986415,17.7865405 6.3411085,17.2157166 6.3431767,16.5125278 C6.3431767,15.8134754 6.91193235,15.2447197 7.61512116,15.2447197 L27.1286106,15.2447197 Z M13.5860214,41.8107793 L11.8094356,43.5915016 L3.7331053,43.5915016 C1.67731213,43.5915016 0,41.9162576 0,39.8563281 L0,3.7331053 C0,1.67731213 1.67524393,0 3.7331053,0 L31.0706043,0 C33.1284657,0 34.8037096,1.67524393 34.7995732,3.7331053 L34.7582092,25.2568875 C34.6196396,24.3303328 34.1046572,23.4803016 33.3601044,22.9487736 C32.9795551,22.6654299 32.5452326,22.4668825 32.0902281,22.3593359 L32.0902281,3.73103709 C32.0902281,3.16641784 31.6310872,2.70934512 31.0706043,2.70934512 L3.7331053,2.70934512 C3.17055425,2.70934512 2.71348152,3.16641784 2.71348152,3.73103709 L2.71348152,39.8521917 C2.71348152,40.4106063 3.17055425,40.8697472 3.7331053,40.8697472 L11.9480051,40.8697472 C12.1548254,41.0476126 12.3781912,41.2068642 12.6243073,41.3309564 L13.5860214,41.8107793 Z" id="path-1"></path>
    </defs>
    <g id="jkl/core/elements/icons/approval" stroke="none" stroke-width="1" fill="none" fill-rule="evenodd">
        <g id="jkl/core/colors/primary" transform="translate(13.000000, 6.000000)">
            <mask id="mask-2" fill="white">
                <use xlink:href="#path-1"></use>
            </mask>
            <use id="Mask" fill="#030104" fill-rule="nonzero" xlink:href="#path-1"></use>
            <g mask="url(#mask-2)" fill="#ffffff" id="Rectangle-2">
                <g transform="translate(-23.000000, -15.000000)">
                    <rect x="0" y="0" width="84" height="79"></rect>
                </g>
            </g>
        </g>
    </g>
</svg>