<?xml version="1.0" encoding="UTF-8"?>
<svg width="64px" height="64px" viewBox="0 0 64 64" version="1.1" xmlns="http://www.w3.org/2000/svg" xmlns:xlink="http://www.w3.org/1999/xlink">
    <!-- Generator: Sketch 50.2 (55047) - http://www.bohemiancoding.com/sketch -->
    <title>jkl/core/elements/icons/authorized</title>
    <desc>Created with Sketch.</desc>
    <defs>
        <path d="M50.9012744,37.1404568 L21.5730189,37.1404568 C20.0115717,37.1404568 19.1226014,35.3608066 20.0657683,34.1127079 C22.0988721,31.4219941 20.177091,27.5633024 16.8054782,27.5633024 L1.09857917,27.5633024 C0.491870514,27.5633024 0,28.0551596 0,28.6618519 C0,29.2685441 0.491870514,29.7604013 1.09857917,29.7604013 L16.8056247,29.7604013 C18.3669254,29.7604013 19.2560422,31.539905 18.3128753,32.7881502 C16.279918,35.4787176 18.2014062,39.3375558 21.5731654,39.3375558 L50.9014208,39.3375558 C51.5081295,39.3375558 52,38.8456985 52,38.2390063 C52,37.632314 51.507983,37.1404568 50.9012744,37.1404568 Z M9.79683609,24.6555151 L23.7192032,21.7169685 C24.1054636,21.6353829 24.4183389,21.3528359 24.5387432,20.9768391 L26.929105,13.5055308 C27.6023143,12.8323396 31.9638201,8.47109818 32.6778966,7.75689454 C33.1069284,7.32787435 33.1069284,6.63227282 32.6778966,6.2033991 L26.7961037,0.321765145 C26.3670719,-0.107255048 25.6714516,-0.107255048 25.2424198,0.321765145 C24.5320053,1.03216048 20.2205947,5.34360103 19.5491431,6.01503448 L11.9937015,8.43213629 C11.6176944,8.55253732 11.3349934,8.86525774 11.2535521,9.25165421 L8.31492603,23.1736451 C7.89951663,24.0934972 8.86597334,25.0760399 9.79683609,24.6555151 Z M26.0191885,2.65200832 L30.347444,6.98014682 L28.9601582,8.36739511 L24.6319027,4.03925661 L26.0191885,2.65200832 Z M23.0783653,5.59289853 L27.4066208,9.92103703 L26.019335,11.3082853 L21.691226,6.98029329 L23.0783653,5.59289853 Z M13.2714223,10.3301369 L19.8343343,8.23058908 L24.7402959,13.1364181 L22.6405449,19.6991528 L12.6978175,21.7978217 L18.5301011,15.9656957 C18.9591329,15.5366755 18.9591329,14.841074 18.5301011,14.4120538 C18.1010693,13.9830336 17.405449,13.9830336 16.9765636,14.4120538 L11.1880768,20.2003843 L13.2714223,10.3301369 Z" id="path-1"></path>
    </defs>
    <g id="jkl/core/elements/icons/authorized" stroke="none" stroke-width="1" fill="none" fill-rule="evenodd">
        <g id="jkl/core/colors/primary" transform="translate(6.000000, 12.000000)">
            <mask id="mask-2" fill="white">
                <use xlink:href="#path-1"></use>
            </mask>
            <use id="Mask" fill="#000000" fill-rule="nonzero" xlink:href="#path-1"></use>
            <g mask="url(#mask-2)" fill="#ffffff" id="Rectangle-2">
                <g transform="translate(-16.000000, -21.000000)">
                    <rect x="0" y="0" width="84" height="79"></rect>
                </g>
            </g>
        </g>
    </g>
</svg>