<?xml version="1.0" encoding="UTF-8"?>
<svg width="64px" height="64px" viewBox="0 0 64 64" version="1.1" xmlns="http://www.w3.org/2000/svg" xmlns:xlink="http://www.w3.org/1999/xlink">
    <!-- Generator: Sketch 50.2 (55047) - http://www.bohemiancoding.com/sketch -->
    <title>jkl/core/elements/icons/chat</title>
    <desc>Created with Sketch.</desc>
    <defs>
        <path d="M51.0567086,0.0660964936 L18.818616,0 C15.7309655,0 13.2192987,2.51166676 13.2192987,5.59931725 L13.2192987,10.4375806 L5.59931725,10.4536326 C2.51166676,10.4536326 0,12.9652993 0,16.0529498 L0,36.0150351 C0,39.1026856 2.51166676,41.6134081 5.59931725,41.6134081 L11.3308275,41.6134081 L11.3308275,51.0557644 C11.3308275,51.4457337 11.5706633,51.7960451 11.9351383,51.9367362 C12.0456138,51.9792268 12.1608106,52 12.2750631,52 C12.5356721,52 12.79156,51.8914129 12.9737975,51.691235 L22.1366599,41.6115197 L37.8355214,41.5473117 C40.9231719,41.5473117 43.4348387,39.0356449 43.4348387,35.9489386 L43.4348387,35.84224 L48.401518,41.3055873 C48.5837555,41.5057653 48.8396434,41.6143524 49.1002524,41.6143524 C49.2145049,41.6143524 49.3297017,41.5935792 49.4401772,41.5510886 C49.8046522,41.4103975 50.044488,41.0600861 50.044488,40.6701168 L50.044488,31.2277605 L51.0548201,31.2277605 C54.1424706,31.2277605 56.6541374,28.7160938 56.6541374,25.6293875 L56.6541374,5.66541374 C56.6541374,2.57870749 54.1434149,0.0670407292 51.0567086,0.0660964936 Z M41.5463674,35.9479944 C41.5463674,37.994153 39.88168,39.6578962 37.8317445,39.6578962 L21.7136424,39.7239927 C21.4492564,39.7249369 21.1962013,39.8373009 21.018685,40.0327577 L13.2192987,48.6130268 L13.2192987,40.6682283 C13.2192987,40.1470102 12.7972254,39.7239927 12.2750631,39.7239927 L5.59931725,39.7239927 C3.55315865,39.7239927 1.88847125,38.0593053 1.88847125,36.0140909 L1.88847125,16.0520056 C1.88847125,14.005847 3.55315865,12.3411596 5.60120572,12.3411596 L14.1635343,12.3232191 C14.1635343,12.3232191 14.1635343,12.3232191 14.1635343,12.3232191 C14.1644786,12.3232191 14.1644786,12.3232191 14.1654228,12.3232191 L37.8355214,12.2741189 C39.88168,12.2741189 41.5463674,13.9388063 41.5463674,15.9849649 L41.5463674,33.397614 L41.5463674,35.9479944 Z M54.7656661,25.627499 C54.7656661,27.6736576 53.1009787,29.3374008 51.0548201,29.3374008 L49.1002524,29.3374008 C48.5780901,29.3374008 48.1560168,29.7604184 48.1560168,30.2816364 L48.1560168,38.226435 L43.4348387,33.033139 L43.4348387,15.9859091 C43.4348387,12.8982586 40.9231719,10.3865919 37.8336329,10.3865919 L15.10777,10.4328594 L15.10777,5.59837301 C15.10777,3.55221441 16.7724574,1.88752701 18.8167275,1.88752701 L51.0538759,1.9536235 C51.0548201,1.9536235 51.0548201,1.9536235 51.0557644,1.9536235 C53.101923,1.9536235 54.7666104,3.61831091 54.7666104,5.6644695 L54.7666104,25.627499 L54.7656661,25.627499 Z M9.44235623,21.7174193 C8.92019393,21.7174193 8.49812061,21.2944018 8.49812061,20.7731837 C8.49812061,20.2519656 8.92019393,19.8289481 9.44235623,19.8289481 L21.7174193,19.8289481 C22.2395816,19.8289481 22.661655,20.2519656 22.661655,20.7731837 C22.661655,21.2944018 22.2395816,21.7174193 21.7174193,21.7174193 L9.44235623,21.7174193 Z M33.9924824,25.4943618 C34.5146447,25.4943618 34.9367181,25.9173794 34.9367181,26.4385974 C34.9367181,26.9598155 34.5146447,27.3828331 33.9924824,27.3828331 L9.44235623,27.3828331 C8.92019393,27.3828331 8.49812061,26.9598155 8.49812061,26.4385974 C8.49812061,25.9173794 8.92019393,25.4943618 9.44235623,25.4943618 L33.9924824,25.4943618 Z M33.9924824,31.1597756 C34.5146447,31.1597756 34.9367181,31.5827931 34.9367181,32.1040112 C34.9367181,32.6252292 34.5146447,33.0482468 33.9924824,33.0482468 L9.44235623,33.0482468 C8.92019393,33.0482468 8.49812061,32.6252292 8.49812061,32.1040112 C8.49812061,31.5827931 8.92019393,31.1597756 9.44235623,31.1597756 L33.9924824,31.1597756 Z" id="path-1"></path>
    </defs>
    <g id="jkl/core/elements/icons/chat" stroke="none" stroke-width="1" fill="none" fill-rule="evenodd">
        <g id="jkl/core/colors/primary" transform="translate(4.000000, 6.000000)">
            <mask id="mask-2" fill="white">
                <use xlink:href="#path-1"></use>
            </mask>
            <use id="Mask" fill="#000000" fill-rule="nonzero" xlink:href="#path-1"></use>
            <g mask="url(#mask-2)" fill="#ffffff" id="Rectangle-2">
                <g transform="translate(-15.000000, -15.000000)">
                    <rect x="0" y="0" width="84" height="79"></rect>
                </g>
            </g>
        </g>
    </g>
</svg>