<?xml version="1.0" encoding="UTF-8"?>
<svg width="64px" height="64px" viewBox="0 0 64 64" version="1.1" xmlns="http://www.w3.org/2000/svg" xmlns:xlink="http://www.w3.org/1999/xlink">
    <!-- Generator: Sketch 50.2 (55047) - http://www.bohemiancoding.com/sketch -->
    <title>jkl/core/elements/icons/check-list</title>
    <desc>Created with Sketch.</desc>
    <defs>
        <path d="M36.4201715,19.8275088 C36.8689123,19.8275088 37.2328109,19.4638129 37.2328109,19.0148694 L37.2328109,11.2139571 C37.2328109,10.765115 36.8690136,10.4013177 36.4201715,10.4013177 L32.8988694,10.4013177 L32.8988694,7.74688499 C32.8988694,7.29804288 32.5350721,6.93424561 32.08623,6.93424561 L22.2345107,6.93424561 L22.4558908,6.27030799 C22.5384016,6.02247173 22.4969435,5.7500039 22.3441871,5.53805068 C22.1914308,5.32619883 21.9461287,5.20060819 21.6849123,5.20060819 L19.0303782,5.20060819 L19.0303782,3.65905653 L20.6273762,1.26350877 C20.9811384,0.732662768 20.5870331,0 19.9512749,0 L13.0170292,0 C12.381271,0 11.9871657,0.732662768 12.3409279,1.26330604 L13.9379259,3.65895517 L13.9379259,5.20060819 L11.2833918,5.20060819 C11.0221754,5.20060819 10.7768733,5.32619883 10.6242183,5.53805068 C10.471462,5.7500039 10.4299025,6.02247173 10.5125146,6.27030799 L10.7337934,6.93424561 L0.88197271,6.93424561 C0.433231969,6.93424561 0.0693333333,7.29794152 0.0693333333,7.74688499 L0.0693333333,46.7521559 C0.0693333333,47.2009981 0.433130604,47.5647953 0.88197271,47.5647953 L3.53650682,47.5647953 L3.53650682,51.0860975 C3.53650682,51.5349396 3.90030409,51.8987368 4.3491462,51.8987368 L36.4200702,51.8987368 C36.8688109,51.8987368 37.2327096,51.5350409 37.2327096,51.0860975 L37.2327096,22.482347 C37.2327096,22.0335049 36.8689123,21.6697076 36.4200702,21.6697076 C35.9713294,21.6697076 35.6074308,22.0334035 35.6074308,22.482347 L35.6074308,50.2734581 L5.16178558,50.2734581 L5.16178558,47.5647953 L9.54985575,47.5647953 C9.99859649,47.5647953 10.3624951,47.2010994 10.3624951,46.7521559 C10.3624951,46.3033138 9.99869786,45.9395166 9.54985575,45.9395166 L1.69461209,45.9395166 L1.69461209,8.55952437 L11.2754854,8.55952437 L12.2459493,11.4710175 C12.356538,11.802885 12.6671189,12.0265965 13.0168265,12.0265965 L19.9510721,12.0265965 C20.3007797,12.0265965 20.6113606,11.802885 20.7219493,11.4710175 L21.692616,8.55952437 L31.2734893,8.55952437 L31.2734893,45.9395166 L13.0170292,45.9395166 C12.5682885,45.9395166 12.2043899,46.3032125 12.2043899,46.7521559 C12.2043899,47.2009981 12.5681871,47.5647953 13.0170292,47.5647953 L32.08623,47.5647953 C32.5349708,47.5647953 32.8988694,47.2010994 32.8988694,46.7521559 L32.8988694,12.0266979 L35.6075322,12.0266979 L35.6075322,19.0150721 C35.6075322,19.4638129 35.9713294,19.8275088 36.4201715,19.8275088 Z M13.9379259,10.4014191 L13.6027135,10.4014191 L12.4108694,6.82588694 L13.9379259,6.82588694 L13.9379259,10.4014191 Z M17.4050994,10.4014191 L15.5632047,10.4014191 L15.5632047,6.82588694 L17.4050994,6.82588694 L17.4050994,10.4014191 Z M17.5415361,2.9622768 C17.452538,3.09567251 17.4049981,3.25268616 17.4049981,3.41304483 L17.4049981,5.20081092 L15.5631033,5.20081092 L15.5631033,3.41294347 C15.5631033,3.2525848 15.5156647,3.09557115 15.4265653,2.96217544 L14.5352671,1.62517739 L18.4328343,1.62517739 L17.5415361,2.9622768 Z M19.3654893,10.4014191 L19.0302768,10.4014191 L19.0302768,6.82588694 L20.5573333,6.82588694 L19.3654893,10.4014191 Z M29.2803587,13.3420039 C29.0194464,12.9766862 28.5118129,12.8920468 28.1467992,13.1531618 L25.9645224,14.7118441 L25.9645224,13.8143626 C25.9645224,13.3655205 25.6007251,13.0017232 25.151883,13.0017232 L18.2176374,13.0017232 C17.7688967,13.0017232 17.4049981,13.3654191 17.4049981,13.8143626 L17.4049981,20.7486082 C17.4049981,21.1974503 17.7687953,21.5612476 18.2176374,21.5612476 L25.151883,21.5612476 C25.6006238,21.5612476 25.9645224,21.1975517 25.9645224,20.7486082 L25.9645224,16.7089279 L29.0913138,14.475462 C29.4566316,14.2147524 29.5411696,13.7072203 29.2803587,13.3420039 Z M24.339345,15.8727719 L22.639462,17.0870175 L21.3926784,15.8401326 C21.075306,15.5228616 20.5607797,15.5228616 20.2435088,15.8401326 C19.9261365,16.1576062 19.9261365,16.6720312 20.2435088,16.9894035 L21.9770448,18.7229396 C22.2542768,19.0001715 22.7047407,19.0374737 23.024039,18.8095049 L24.3392437,17.8699571 L24.3392437,19.9360702 L19.0301754,19.9360702 L19.0301754,14.6270019 L24.3392437,14.6270019 L24.3392437,15.8727719 L24.339345,15.8727719 Z M13.0170292,14.7353606 C13.46577,14.7353606 13.8295673,15.0990565 13.8296686,15.548 C13.8296686,15.9969435 13.46577,16.3606394 13.0170292,16.3606394 L5.21601559,16.3606394 C4.76717349,16.3606394 4.40337622,15.9968421 4.40337622,15.548 C4.40337622,15.0990565 4.76727485,14.7353606 5.21601559,14.7353606 L13.0170292,14.7353606 Z M9.54985575,18.2024327 C9.99859649,18.2024327 10.3624951,18.5661287 10.3624951,19.0150721 C10.3624951,19.4640156 9.99859649,19.8277115 9.54985575,19.8277115 L5.21591423,19.8277115 C4.76707212,19.8277115 4.40327485,19.4640156 4.40327485,19.0150721 C4.40327485,18.5661287 4.76717349,18.2024327 5.21591423,18.2024327 L9.54985575,18.2024327 Z M25.1519844,24.2699103 L18.2177388,24.2699103 C17.7689981,24.2699103 17.4050994,24.6336062 17.4050994,25.0825497 L17.4050994,32.0167953 C17.4050994,32.4656374 17.7688967,32.8294347 18.2177388,32.8294347 L25.1519844,32.8294347 C25.6007251,32.8294347 25.9646238,32.4657388 25.9646238,32.0167953 L25.9646238,25.0825497 C25.9645224,24.6336062 25.6007251,24.2699103 25.1519844,24.2699103 Z M24.339345,31.2041559 L19.0302768,31.2041559 L19.0302768,25.8950877 L24.339345,25.8950877 L24.339345,31.2041559 Z M13.0170292,26.0034464 C13.46577,26.0034464 13.8295673,26.3672437 13.8296686,26.8160858 C13.8296686,27.2650292 13.46577,27.6287251 13.0170292,27.6287251 L5.21601559,27.6287251 C4.76717349,27.6287251 4.40337622,27.2649279 4.40337622,26.8160858 C4.40337622,26.3671423 4.76727485,26.0034464 5.21601559,26.0034464 L13.0170292,26.0034464 Z M10.4166238,29.4706199 C10.8653645,29.4706199 11.2292632,29.8343158 11.2292632,30.2832593 C11.2292632,30.7322027 10.8653645,31.0958986 10.4166238,31.0958986 L5.21591423,31.0958986 C4.76707212,31.0958986 4.40327485,30.7321014 4.40327485,30.2832593 C4.40327485,29.8343158 4.76717349,29.4706199 5.21591423,29.4706199 L10.4166238,29.4706199 Z M25.1519844,35.5380975 L18.2177388,35.5380975 C17.7689981,35.5380975 17.4050994,35.9017934 17.4050994,36.3507368 L17.4050994,43.2849825 C17.4050994,43.7338246 17.7688967,44.0976218 18.2177388,44.0976218 L25.1519844,44.0976218 C25.6007251,44.0976218 25.9646238,43.7339259 25.9646238,43.2849825 L25.9646238,36.3507368 C25.9645224,35.9017934 25.6007251,35.5380975 25.1519844,35.5380975 Z M24.339345,42.4723431 L19.0302768,42.4723431 L19.0302768,37.1632749 L24.339345,37.1632749 L24.339345,42.4723431 Z M13.0170292,37.2716335 C13.46577,37.2716335 13.8295673,37.6354308 13.8296686,38.0842729 C13.8296686,38.5332164 13.46577,38.8969123 13.0170292,38.8969123 L5.21601559,38.8969123 C4.76717349,38.8969123 4.40337622,38.533115 4.40337622,38.0842729 C4.40337622,37.6353294 4.76727485,37.2716335 5.21601559,37.2716335 L13.0170292,37.2716335 Z M9.54985575,40.738807 C9.99859649,40.738807 10.3624951,41.1025029 10.3624951,41.5514464 C10.3624951,42.0003899 9.99859649,42.3640858 9.54985575,42.3640858 L5.21591423,42.3640858 C4.76707212,42.3640858 4.40327485,42.0002885 4.40327485,41.5514464 C4.40327485,41.1025029 4.76717349,40.738807 5.21591423,40.738807 L9.54985575,40.738807 Z" id="path-1"></path>
    </defs>
    <g id="jkl/core/elements/icons/check-list" stroke="none" stroke-width="1" fill="none" fill-rule="evenodd">
        <g id="jkl/core/colors/primary" transform="translate(13.000000, 6.000000)">
            <mask id="mask-2" fill="white">
                <use xlink:href="#path-1"></use>
            </mask>
            <use id="Mask" fill="#000000" fill-rule="nonzero" xlink:href="#path-1"></use>
            <g mask="url(#mask-2)" fill="#ffffff" id="Rectangle-2">
                <g transform="translate(-23.000000, -14.000000)">
                    <rect x="0" y="0" width="84" height="79"></rect>
                </g>
            </g>
        </g>
    </g>
</svg>