<?xml version="1.0" encoding="UTF-8"?>
<svg width="64px" height="64px" viewBox="0 0 64 64" version="1.1" xmlns="http://www.w3.org/2000/svg" xmlns:xlink="http://www.w3.org/1999/xlink">
    <!-- Generator: Sketch 50.2 (55047) - http://www.bohemiancoding.com/sketch -->
    <title>jkl/core/elements/icons/dashboard</title>
    <desc>Created with Sketch.</desc>
    <defs>
        <path d="M50.1942109,18.8564687 C49.5039922,18.1663516 48.420625,18.0645859 47.6138125,18.6143437 C44.5744531,20.6860156 29.3295156,31.1033828 27.6911094,32.7416875 C25.3151563,35.1177422 25.3151563,38.9836172 27.6911094,41.3596719 C28.8790859,42.5475469 30.4396953,43.1415859 32.0001016,43.1415859 C33.5605078,43.1415859 35.1210156,42.5475469 36.3090938,41.3596719 C37.9473984,39.7212656 48.3646641,24.4763281 50.4364375,21.4369687 C50.9859922,20.6302578 50.8843281,19.5467891 50.1942109,18.8564687 Z M33.4362969,38.4869766 C32.6444141,39.2790625 31.3556875,39.2790625 30.5638047,38.4869766 C29.7718203,37.6950937 29.7717187,36.4067734 30.5633984,35.6147891 C31.1999922,34.9857109 35.5282812,31.8988203 40.8536094,28.1971719 C37.1520625,33.5225 34.0651719,37.8505859 33.4362969,38.4869766 Z M15.3672109,46.4984297 C16.3755234,46.0067656 17.5916328,46.4253047 18.0835,47.4335156 C18.5753672,48.4418281 18.1567266,49.6578359 17.1484141,50.1497031 L12.9843516,52.1809531 C12.6988594,52.3201953 12.3949844,52.3867188 12.0949687,52.3867188 C11.4350156,52.3867188 10.7932422,52.0646641 10.4050703,51.4842344 C7.52323437,47.1738203 6,42.1826328 6,37.0506797 C6,30.1058359 8.70450781,23.5766875 13.6151562,18.6658359 C18.5260078,13.7550859 25.0551562,11.0506797 32,11.0506797 C35.7231797,11.0506797 39.3188984,11.8217422 42.6873203,13.3422344 C43.7098516,13.8038359 44.1645469,15.0068437 43.7029453,16.029375 C43.2413437,17.0516016 42.0381328,17.5065 41.0159062,17.0448984 C38.7930078,16.0414609 36.4513828,15.4251797 34.0313516,15.2048906 L34.0313516,18.2615156 C34.0313516,19.383375 33.1219609,20.2927656 32.0001016,20.2927656 C30.8782422,20.2927656 29.9688516,19.383375 29.9688516,18.2615156 L29.9688516,15.2064141 C22.9103594,15.8574297 16.8098047,19.8666094 13.2838594,25.6170781 L16.1207031,26.9778125 C17.1322656,27.4629766 17.5588281,28.6763438 17.0737656,29.6878047 C16.7244922,30.4160078 15.9978125,30.8410469 15.2408672,30.8410469 C14.9462344,30.8410469 14.6471328,30.7766563 14.3637734,30.6407656 L11.4904687,29.2625625 C10.5679766,31.6839141 10.0625,34.3094063 10.0625,37.0506797 C10.0625,40.7921406 11.0248047,44.4470703 12.8596328,47.7216484 L15.3672109,46.4984297 Z M55.7083438,26.3634609 C57.2289375,29.7317812 58,33.3275 58,37.0506797 C58,42.1826328 56.4767656,47.1738203 53.5948281,51.4843359 C53.2071641,52.0643594 52.5652891,52.3868203 51.9051328,52.3868203 C51.6110078,52.3868203 51.3135313,52.3229375 51.0329141,52.1893828 L46.7672891,50.1581328 C45.7544063,49.6758125 45.3242891,48.4636641 45.8066094,47.4508828 C46.2890313,46.4378984 47.5011797,46.0079844 48.5138594,46.4902031 L51.1318359,47.7368828 C52.9720469,44.4585469 53.9375,40.7977266 53.9375,37.0506797 C53.9375,33.9077266 53.2876016,30.8743594 52.0056797,28.034875 C51.5440781,27.0124453 51.9987734,25.8094375 53.0212031,25.3478359 C54.0440391,24.8860312 55.2468438,25.3410312 55.7083438,26.3634609 Z" id="path-1"></path>
    </defs>
    <g id="jkl/core/elements/icons/dashboard" stroke="none" stroke-width="1" fill="none" fill-rule="evenodd">
        <mask id="mask-2" fill="white">
            <use xlink:href="#path-1" fill="none" stroke="white" stroke-width="2"></use>
        </mask>
        <use id="Mask" fill="#000000" fill-rule="nonzero" xlink:href="#path-1"></use>
        <g id="jkl/core/colors/primary" mask="url(#mask-2)" fill="#ffffff">
            <g transform="translate(6.000000, 11.000000)" id="Rectangle-2">
                <rect x="0" y="0" width="52" height="41"></rect>
            </g>
        </g>
    </g>
</svg>