<?xml version="1.0" encoding="UTF-8"?>
<svg width="64px" height="64px" viewBox="0 0 64 64" version="1.1" xmlns="http://www.w3.org/2000/svg" xmlns:xlink="http://www.w3.org/1999/xlink">
    <!-- Generator: Sketch 50.2 (55047) - http://www.bohemiancoding.com/sketch -->
    <title>jkl/core/elements/icons/disposal</title>
    <desc>Created with Sketch.</desc>
    <defs>
        <path d="M49.3051228,20.8186511 L48.4376452,20.8186511 L48.4376452,16.0371852 C48.4371384,15.6342612 48.3431735,15.2370136 48.1631501,14.8765614 L45.7549318,10.0646862 C45.751384,10.0562729 45.7474308,10.0481637 45.7430721,10.0401559 L44.4962885,7.54831189 C44.0589006,6.66664327 43.1583782,6.11045614 42.17423,6.1140039 L34.5870955,6.1140039 C33.6319376,6.11491618 32.8578168,6.88883431 32.8567018,7.8439922 L32.8567018,8.70893567 L31.1237739,8.70893567 L31.1237739,6.97894737 C31.1217466,6.36346199 30.7918051,5.7957193 30.2579181,5.48939571 L30.2579181,2.74748538 C30.2618713,1.95501754 29.9199688,1.20015595 29.321614,0.680561404 C28.7622846,0.196444444 28.0198908,-0.0200701754 27.288039,0.0875789474 L11.0849201,2.5245848 C10.8368811,2.56178558 10.6172242,2.70501365 10.4830175,2.91696686 L9.00633918,5.24906043 L8.06253411,5.24906043 C6.99638207,5.24520858 6.03737232,5.89677973 5.64833528,6.8894425 L0.214791423,20.6196725 C-0.193910331,21.7225185 -0.0118596491,22.9577466 0.697590643,23.8958752 L5.32234698,29.9802807 C5.33988304,30.0044055 5.35883821,30.0275166 5.37890838,30.0495127 C5.40445224,30.0775906 5.43182066,30.1040468 5.46081092,30.1284756 C5.59197661,30.240078 5.75375439,30.3097154 5.92495906,30.3282651 L5.9262768,30.3282651 C5.95729435,30.3316101 5.98841326,30.3333333 6.01963353,30.3333333 C6.05348928,30.333232 6.08734503,30.331306 6.12099805,30.3274542 C6.30193372,30.306269 6.47151657,30.2283197 6.6054191,30.1048577 L6.60663548,30.1036413 L6.60704094,30.1036413 L6.63278752,30.0783002 L6.75178947,29.9593996 L7.89518129,31.6686082 C5.84974659,33.85646 5.44499805,37.1122885 6.89238207,39.7342846 C8.33986745,42.3563821 11.3105575,43.7488265 14.2518519,43.1838207 C17.1931462,42.6188148 19.4365458,40.2248889 19.8095673,37.2531852 L21.6025029,37.2531852 C21.6034152,38.2082417 22.3774347,38.9821598 23.3324912,38.9831735 L28.5278285,38.9831735 C29.482885,38.9822612 30.2568031,38.2082417 30.2578168,37.2531852 L32.0508538,37.2531852 C32.4001559,40.0781131 34.4435634,42.4010838 37.2008811,43.1078986 C39.9581988,43.8147135 42.8670565,42.7611306 44.5322729,40.452655 C46.1974893,38.144078 46.2793918,35.0514464 44.7387524,32.6579259 L47.0651696,30.3334347 L49.3051228,30.3334347 C50.7376062,30.3319142 51.8985341,29.1709864 51.9000546,27.7385029 L51.9000546,23.4135828 C51.8985341,21.9810994 50.7377076,20.8202729 49.3051228,20.8186511 Z M31.1237739,10.438924 L32.8567018,10.438924 L32.8567018,27.3794698 L31.6319142,28.6034464 L31.1237739,28.6034464 L31.1237739,10.438924 Z M11.7331462,4.17631969 L27.5452008,1.7980039 C27.7791501,1.76353996 28.0163431,1.8342924 28.1930214,1.99140741 C28.4094347,2.1825809 28.5317817,2.45859649 28.5279298,2.74738402 L28.5280312,5.24895906 L11.0539025,5.24895906 L11.7331462,4.17631969 Z M6.15769201,19.430768 C6.07589084,19.6482963 6.02378947,19.8758596 6.00270565,20.1073762 L5.35985185,27.1712671 L2.07776998,22.8531384 C1.7271501,22.3910175 1.63419883,21.7829318 1.83064327,21.2371852 L7.25668616,7.52631579 C7.38663548,7.19505653 7.70674464,6.97773099 8.06253411,6.97894737 L11.6212398,6.97894229 L9.39517349,12.0523431 L8.44305653,10.7843743 C8.15578947,10.403345 7.61430019,10.3268148 7.23276413,10.6133723 C6.85122807,10.8999298 6.77368421,11.4412164 7.0594308,11.8233606 L8.5971306,13.8711267 L6.15769201,19.430768 Z M7.75205458,26.5149318 L7.0974425,27.1687329 L7.72590253,20.2636803 C7.73127485,20.2024561 7.74252632,20.1419415 7.75925146,20.082846 L9.78897466,15.4582924 L11.5610292,17.8181598 C11.3368109,18.2042573 11.2173021,18.6422534 11.2144639,19.0886628 C11.2052398,20.2390487 11.9485458,21.260499 13.0460195,21.6054425 C14.1434932,21.950386 15.3375673,21.5379337 15.9881248,20.5891618 C16.6386823,19.6403899 16.5930682,18.3778947 15.8758129,17.4784873 C15.1585575,16.5790799 13.9378246,16.2538012 12.8680234,16.6770994 L10.5871189,13.6396101 L13.5103704,6.97894737 L29.3937856,6.97894737 L29.3937856,28.603345 L20.2283041,28.6029396 L18.1384717,26.5152359 C17.8147135,26.1895517 17.3740819,26.0070955 16.9149006,26.0084133 L8.97522027,26.0084133 C8.51664717,26.0096296 8.0771306,26.1915789 7.75205458,26.5149318 Z M12.9444522,19.0886628 C12.9455673,18.6109318 13.3329825,18.2241248 13.8107135,18.2237193 C14.2882417,18.2244288 14.674846,18.6119454 14.6744405,19.089575 C14.6739337,19.5671033 14.2866199,19.9539103 13.8090916,19.9537076 C13.331462,19.9534035 12.9444522,19.5662924 12.9444522,19.0886628 Z M12.9452632,41.5781053 C10.0795867,41.5755712 7.75833918,39.2508772 7.76006238,36.3850994 C7.76178558,33.519423 10.08577,31.1974659 12.9514464,31.1983782 C15.8171228,31.1992904 18.1397895,33.5225653 18.1397895,36.3882417 C18.1352281,39.254425 15.8114464,41.576078 12.9452632,41.5781053 Z M23.3325926,37.2531852 L23.3325926,33.7933099 L28.5279298,33.7933099 L28.5288421,36.3835789 L28.5279298,36.3882417 L28.5288421,36.3929045 L28.5291462,37.2531852 L23.3325926,37.2531852 Z M38.9157661,41.5781053 C36.0500897,41.5755712 33.7288421,39.2508772 33.7305653,36.3850994 C33.7322885,33.519423 36.0562729,31.1974659 38.9219493,31.1983782 C41.7876257,31.1992904 44.1102924,33.5225653 44.1102924,36.3882417 C44.1056296,39.254425 41.7819493,41.576078 38.9157661,41.5781053 Z M43.622425,31.3273138 C41.7243743,29.5553606 38.9930058,28.9971462 36.5519454,29.8823626 C34.110885,30.7675789 32.372078,32.9466121 32.0508538,35.5232982 L30.2578168,35.5232982 L30.2578168,33.7933099 C30.2569045,32.8382534 29.482885,32.0643353 28.5278285,32.0633216 L23.3324912,32.0633216 C22.3774347,32.0642339 21.6035166,32.8382534 21.6025029,33.7933099 L21.6025029,35.5232982 L19.8096686,35.5232982 C19.5167251,33.1700195 18.0372086,31.1314776 15.8907135,30.1235088 C13.744117,29.11554 11.2305809,29.2791423 9.23278752,30.5567407 L7.99948538,28.7131228 L8.97522027,27.7384016 L16.9159142,27.738807 L19.0057466,29.8265107 C19.3295049,30.1521949 19.7701365,30.3346511 20.2293177,30.3333333 L31.9901365,30.3333333 C32.219423,30.333232 32.439384,30.242308 32.6016686,30.0803275 L34.3329747,28.3502378 L34.3335828,28.3496296 L34.9453177,27.7384016 L42.8864172,27.7384016 L45.0500429,29.9009123 L43.622425,31.3273138 Z M46.7076569,28.6034464 L46.1991111,28.6034464 L43.8558674,26.2615205 C43.6934815,26.0996413 43.4736218,26.0087173 43.2443353,26.0085146 L34.5869942,26.0085146 L34.5865887,26.0085146 L34.5869942,7.84389084 L42.1741287,7.84389084 C42.502347,7.84277583 42.8026901,8.02807018 42.9487563,8.32202729 L43.5754932,9.57387914 L38.9156647,9.57387914 C37.9604055,9.57458869 37.1860819,10.3486082 37.1848655,11.3038674 L37.1848655,16.493731 C37.1860819,17.4489903 37.9604055,18.2230097 38.9156647,18.2237193 L42.3785809,18.2237193 C42.5551579,18.2237193 46.7076569,18.2630487 46.7076569,21.6835945 L46.7076569,28.6034464 Z M46.7077585,17.9133411 C45.4542846,16.9881871 43.9365536,16.4905887 42.3786823,16.4938324 L38.9148538,16.4938324 L38.9157661,11.3039688 L44.440538,11.3039688 L46.6165302,15.6521014 C46.676538,15.7716101 46.7078596,15.9034854 46.7077583,16.0372865 L46.7077585,17.9133411 Z M50.1701676,27.7385029 C50.1696608,28.2160312 49.7827524,28.6030409 49.3052242,28.6034464 L48.4377466,28.6034464 L48.4377466,22.5486394 L49.3052242,22.5486394 C49.7827524,22.5491462 50.1697622,22.9360546 50.1701676,23.4135828 L50.1701676,27.7385029 Z M39.781115,20.8186511 C40.258846,20.8186511 40.6460585,21.2058635 40.6460585,21.6835945 C40.6460585,22.1613255 40.258846,22.548538 39.781115,22.548538 L37.1840546,22.548538 C36.7063236,22.548538 36.3191111,22.1613255 36.3191111,21.6835945 C36.3191111,21.2058635 36.7063236,20.8186511 37.1840546,20.8186511 L39.781115,20.8186511 Z M12.9452632,32.9283665 C11.0346433,32.9294815 9.48670565,34.4791423 9.48751657,36.3896608 C9.48832749,38.3002807 11.0375828,39.8485224 12.9481014,39.848117 C14.8586199,39.8477115 16.4072671,38.2987602 16.4072671,36.3882417 C16.4045302,34.4777232 14.855883,32.9298869 12.9452632,32.9283665 Z M12.9452632,38.11823 C11.9901053,38.1170136 11.216694,37.3419805 11.2174035,36.3868226 C11.2182144,35.4316647 11.9929435,34.657848 12.9481014,34.6582534 C13.9032593,34.6586589 14.6773801,35.4330838 14.6773801,36.3882417 C14.6757583,37.3438051 13.9008265,38.1177232 12.9452632,38.11823 Z M38.9157661,32.9283665 C37.0051462,32.9294815 35.4572086,34.4791423 35.4580195,36.3896608 C35.4588304,38.3002807 37.0080858,39.8485224 38.9186043,39.848117 C40.8292242,39.8477115 42.37777,38.2987602 42.37777,36.3882417 C42.3750331,34.4777232 40.8262846,32.9298869 38.9157661,32.9283665 Z M38.9157661,38.11823 C37.9606082,38.1170136 37.1871969,37.3419805 37.1879064,36.3868226 C37.1887173,35.4316647 37.9634464,34.657848 38.9186043,34.6582534 C39.8737622,34.6586589 40.647883,35.4330838 40.647883,36.3882417 C40.6461598,37.3438051 39.8713294,38.1177232 38.9157661,38.11823 Z M19.8705887,11.3038674 C19.3928577,11.3038674 19.0056452,10.916655 19.0056452,10.438924 L19.0056452,9.57398051 C19.0056452,9.09635088 19.3928577,8.70903704 19.8705887,8.70903704 C20.3483197,8.70903704 20.7355322,9.09624951 20.7355322,9.57398051 L20.7355322,10.438924 C20.7355322,10.916655 20.3483197,11.3038674 19.8705887,11.3038674 Z M19.8705887,26.8734581 C19.3928577,26.8734581 19.0056452,26.4862456 19.0056452,26.0085146 L19.0056452,13.8987992 C19.0056452,13.4211696 19.3928577,13.0338558 19.8705887,13.0338558 C20.3483197,13.0338558 20.7355322,13.4210682 20.7355322,13.8987992 L20.7355322,26.0085146 C20.7355322,26.4862456 20.3483197,26.8734581 19.8705887,26.8734581 Z M23.3335049,11.3038674 C22.8557739,11.3038674 22.46846,10.916655 22.4685614,10.438924 L22.4685614,9.57398051 C22.4685614,9.09635088 22.8557739,8.70903704 23.3335049,8.70903704 C23.8112359,8.70903704 24.1984483,9.09624951 24.1984483,9.57398051 L24.1984483,10.438924 C24.1984483,10.916655 23.8112359,11.3038674 23.3335049,11.3038674 Z M23.3335049,26.8734581 C22.8557739,26.8734581 22.46846,26.4862456 22.4685614,26.0085146 L22.4685614,13.8987992 C22.4685614,13.4211696 22.8557739,13.0338558 23.3335049,13.0338558 C23.8112359,13.0338558 24.1984483,13.4210682 24.1984483,13.8987992 L24.1984483,26.0085146 C24.1984483,26.4862456 23.8112359,26.8734581 23.3335049,26.8734581 Z M26.7959142,11.3038674 C26.3181832,11.3038674 25.9309708,10.916655 25.9309708,10.438924 L25.9309708,9.57398051 C25.9309708,9.09635088 26.3181832,8.70903704 26.7959142,8.70903704 C27.2736452,8.70903704 27.6608577,9.09624951 27.6608577,9.57398051 L27.6608577,10.438924 C27.6608577,10.916655 27.2736452,11.3038674 26.7959142,11.3038674 Z M26.7959142,26.8734581 C26.3181832,26.8734581 25.9309708,26.4862456 25.9309708,26.0085146 L25.9309708,13.8987992 C25.9309708,13.4210682 26.3181832,13.0338558 26.7959142,13.0338558 C27.2736452,13.0338558 27.6608577,13.4210682 27.6608577,13.8987992 L27.6608577,26.0085146 C27.6608577,26.4862456 27.2736452,26.8734581 26.7959142,26.8734581 Z" id="path-1"></path>
    </defs>
    <g id="jkl/core/elements/icons/disposal" stroke="none" stroke-width="1" fill="none" fill-rule="evenodd">
        <g id="jkl/core/colors/primary" transform="translate(6.000000, 10.000000)">
            <mask id="mask-2" fill="white">
                <use xlink:href="#path-1"></use>
            </mask>
            <use id="Mask" fill="#000000" fill-rule="nonzero" xlink:href="#path-1"></use>
            <g mask="url(#mask-2)" fill="#ffffff" id="Rectangle-2">
                <g transform="translate(-16.000000, -19.000000)">
                    <rect x="0" y="0" width="84" height="79"></rect>
                </g>
            </g>
        </g>
    </g>
</svg>