<?xml version="1.0" encoding="UTF-8"?>
<svg width="64px" height="64px" viewBox="0 0 64 64" version="1.1" xmlns="http://www.w3.org/2000/svg" xmlns:xlink="http://www.w3.org/1999/xlink">
    <!-- Generator: Sketch 50.2 (55047) - http://www.bohemiancoding.com/sketch -->
    <title>jkl/core/elements/icons/export</title>
    <desc>Created with Sketch.</desc>
    <defs>
        <path d="M51.1857734,27.8327969 L50.2629766,27.8327969 L50.2629766,19.9622109 C50.2629766,19.5125937 49.8984687,19.1479844 49.44875,19.1479844 L47.6574922,19.1479844 L47.6574922,13.0144219 C47.6574922,12.5648047 47.2929844,12.2001953 46.8432656,12.2001953 L40.7097031,12.2001953 L40.7097031,8.67201562 C40.7097031,8.22239844 40.3451953,7.85778906 39.8954766,7.85778906 L38.1585547,7.85778906 C36.7518125,7.85778906 35.6074062,9.00219531 35.6074062,10.4089375 L35.6074062,13.0143203 C35.6074062,13.4639375 35.9719141,13.8285469 36.4216328,13.8285469 C36.8713516,13.8285469 37.2358594,13.4640391 37.2358594,13.0143203 L37.2358594,10.4089375 C37.2358594,9.90010937 37.6498281,9.48614062 38.1586562,9.48614062 L39.0814531,9.48614062 L39.0814531,28.6469219 C39.0814531,29.0965391 39.4459609,29.4611484 39.8956797,29.4611484 L50.3716484,29.4611484 L50.3716484,30.3839453 C50.3716484,30.8927734 49.9576797,31.3067422 49.4488516,31.3067422 L37.2358594,31.3067422 L37.2358594,16.4883672 C37.2358594,16.03875 36.8713516,15.6741406 36.4216328,15.6741406 C35.9719141,15.6741406 35.6074062,16.0386484 35.6074062,16.4883672 L35.6074062,27.8327969 L34.630375,27.8327969 L34.630375,19.9622109 C34.630375,18.5554687 33.4859687,17.4110625 32.0792266,17.4110625 L24.8405625,17.4110625 L19.7662969,2.91301562 C19.16525,1.19549219 17.538625,0.0415390625 15.7190312,0.0415390625 L7.76201562,0.0415390625 C6.35527344,0.0415390625 5.21086719,1.18594531 5.21086719,2.5926875 L5.21086719,17.4110625 L2.55114844,17.4110625 C1.14440625,17.4110625 0,18.5554687 0,19.9622109 L0,32.1208672 C0,32.5704844 0.364507812,32.9350937 0.814226562,32.9350937 L2.60690625,32.9350937 C2.60670312,32.9531719 2.60548437,32.9711484 2.60548437,32.9893281 C2.60548437,35.8325703 4.91877344,38.1458594 7.76201562,38.1458594 C10.6052578,38.1458594 12.9185469,35.8325703 12.9185469,32.9893281 C12.9185469,32.9710469 12.9173281,32.9531719 12.917125,32.9350937 L20.8446875,32.9350937 C20.8444844,32.9531719 20.8432656,32.9711484 20.8432656,32.9893281 C20.8432656,35.8325703 23.1565547,38.1458594 25.9997969,38.1458594 C28.8430391,38.1458594 31.1563281,35.8325703 31.1563281,32.9893281 C31.1563281,32.9710469 31.1551094,32.9531719 31.1549062,32.9350937 L49.44875,32.9350937 C50.8554922,32.9350937 51.9998984,31.7906875 51.9998984,30.3839453 L51.9998984,28.6470234 C52,28.1973047 51.6354922,27.8327969 51.1857734,27.8327969 Z M40.7098047,13.8286484 L46.0292422,13.8286484 L46.0292422,19.1480859 L40.7098047,19.1480859 L40.7098047,13.8286484 Z M48.634625,27.8327969 L40.7098047,27.8327969 L40.7098047,20.7764375 L48.634625,20.7764375 L48.634625,27.8327969 Z M2.88874219,31.3067422 L1.62835156,31.3067422 L1.62835156,29.46125 L4.0064375,29.46125 C3.51355469,29.9856172 3.12924219,30.6125625 2.88874219,31.3067422 Z M7.76201563,36.5175078 C5.81658594,36.5175078 4.23383594,34.9347578 4.23383594,32.9893281 C4.23383594,31.0438984 5.81658594,29.4611484 7.76201563,29.4611484 C9.70744531,29.4611484 11.2901953,31.0438984 11.2901953,32.9893281 C11.2901953,34.9347578 9.70734375,36.5175078 7.76201563,36.5175078 Z M9.44470312,27.8327969 L9.44470312,22.5133594 L16.4468281,22.5133594 C16.8964453,22.5133594 17.2610547,22.1488516 17.2610547,21.6991328 L17.2610547,19.9622109 C17.2610547,18.5554687 16.1166484,17.4110625 14.7099062,17.4110625 L12.9186484,17.4110625 L12.9186484,13.8828828 C12.9186484,12.4761406 11.7742422,11.3317344 10.3675,11.3317344 L9.44470312,11.3317344 L9.44470312,4.275375 L15.7190312,4.275375 C15.7416797,4.275375 15.7628047,4.29040625 15.7703203,4.31173437 L19.552,15.1165625 L17.2610547,14.2000625 L17.2610547,13.0144219 C17.2610547,12.5648047 16.8965469,12.2001953 16.4468281,12.2001953 C15.9971094,12.2001953 15.6326016,12.5647031 15.6326016,13.0144219 L15.6326016,14.7652578 C15.6326016,14.7661719 15.6326016,14.7669844 15.6326016,14.7678984 L15.6326016,16.4883672 C15.6326016,16.9379844 15.9971094,17.3025937 16.4468281,17.3025937 C16.8965469,17.3025937 17.2610547,16.9380859 17.2610547,16.4883672 L17.2610547,15.9540469 L20.2658828,17.1559375 L20.8435703,18.8064297 L20.8435703,27.8327969 L9.44470312,27.8327969 Z M12.1044219,19.0395156 L14.7098047,19.0395156 C15.2186328,19.0395156 15.6326016,19.4534844 15.6326016,19.9623125 L15.6326016,20.8851094 L9.44470313,20.8851094 L9.44470313,12.9602891 L10.3675,12.9602891 C10.8763281,12.9602891 11.2902969,13.3742578 11.2902969,13.8830859 L11.2902969,18.2254922 C11.2901953,18.6749062 11.6547031,19.0395156 12.1044219,19.0395156 Z M21.1267266,31.3067422 L12.6350859,31.3067422 C12.3946875,30.6125625 12.010375,29.9857187 11.5173906,29.46125 L22.2445234,29.46125 C21.7515391,29.9856172 21.3672266,30.6125625 21.1267266,31.3067422 Z M26,36.5175078 C24.0545703,36.5175078 22.4718203,34.9347578 22.4718203,32.9893281 C22.4718203,31.0438984 24.0545703,29.4611484 26,29.4611484 C27.9454297,29.4611484 29.5281797,31.0438984 29.5281797,32.9893281 C29.5281797,34.9347578 27.9454297,36.5175078 26,36.5175078 Z M22.4718203,27.8327969 L22.4718203,18.6681016 C22.4718203,18.5764922 22.4562813,18.4855937 22.4261172,18.3990625 L17.3073672,3.77385937 C17.0714375,3.09989062 16.4331172,2.64702344 15.7191328,2.64702344 L8.63047656,2.64702344 C8.18085938,2.64702344 7.81625,3.01153125 7.81625,3.46125 L7.81625,27.8328984 L1.62835156,27.8328984 L1.62835156,19.9623125 C1.62835156,19.4534844 2.04232031,19.0395156 2.55114844,19.0395156 L6.02509375,19.0395156 C6.47471094,19.0395156 6.83932031,18.6750078 6.83932031,18.2252891 L6.83932031,2.5926875 C6.83932031,2.08385937 7.25328906,1.66989062 7.76211719,1.66989062 L15.7192344,1.66989062 C16.8478984,1.66989062 17.8566172,2.38560156 18.2295547,3.45089062 L23.4946562,18.494125 C23.6090156,18.8206484 23.9171562,19.0393125 24.2631797,19.0393125 L32.0794297,19.0393125 C32.5882578,19.0393125 33.0022266,19.4532812 33.0022266,19.9621094 L33.0022266,27.8328984 L22.4718203,27.8327969 Z M35.6075078,31.3067422 L30.8851563,31.3067422 C30.8810938,31.3067422 30.8773359,31.30725 30.8732734,31.30725 C30.632875,30.6128672 30.2485625,29.9857187 29.7554766,29.4611484 L35.6075078,29.4611484 L35.6075078,31.3067422 Z M44.2379844,14.8056797 C44.6876016,14.8056797 45.0522109,15.1701875 45.0522109,15.6199062 C45.0522109,16.069625 44.6876016,16.4341328 44.2379844,16.4341328 L42.5010625,16.4341328 C42.0513437,16.4341328 41.6868359,16.069625 41.6868359,15.6199062 C41.6868359,15.1701875 42.0514453,14.8056797 42.5010625,14.8056797 L44.2379844,14.8056797 Z M45.9749063,22.6219297 C46.424625,22.6219297 46.7891328,22.9864375 46.7891328,23.4361562 C46.7891328,23.885875 46.4245234,24.2503828 45.9749063,24.2503828 L42.5009609,24.2503828 C42.0512422,24.2503828 41.6867344,23.885875 41.6867344,23.4361562 C41.6867344,22.9864375 42.0513438,22.6219297 42.5009609,22.6219297 L45.9749063,22.6219297 Z M26,30.4381797 C24.5932578,30.4381797 23.4488516,31.5825859 23.4488516,32.9893281 C23.4488516,34.3960703 24.5932578,35.5404766 26,35.5404766 C27.4067422,35.5404766 28.5511484,34.3960703 28.5511484,32.9893281 C28.5511484,31.5826875 27.4067422,30.4381797 26,30.4381797 Z M26,33.912125 C25.4911719,33.912125 25.0772031,33.4981562 25.0772031,32.9893281 C25.0772031,32.4805 25.4911719,32.0665312 26,32.0665312 C26.5088281,32.0665312 26.9227969,32.4805 26.9227969,32.9893281 C26.9227969,33.4981562 26.5088281,33.912125 26,33.912125 Z M7.76201562,30.4381797 C6.35527344,30.4381797 5.21086719,31.5825859 5.21086719,32.9893281 C5.21086719,34.3960703 6.35527344,35.5404766 7.76201562,35.5404766 C9.16875781,35.5404766 10.3131641,34.3960703 10.3131641,32.9893281 C10.3131641,31.5826875 9.16875781,30.4381797 7.76201562,30.4381797 Z M7.76201562,33.912125 C7.2531875,33.912125 6.83921875,33.4981562 6.83921875,32.9893281 C6.83921875,32.4805 7.2531875,32.0665312 7.76201562,32.0665312 C8.27084375,32.0665312 8.6848125,32.4805 8.6848125,32.9893281 C8.68471094,33.4981562 8.27084375,33.912125 7.76201562,33.912125 Z" id="path-1"></path>
    </defs>
    <g id="jkl/core/elements/icons/export" stroke="none" stroke-width="1" fill="none" fill-rule="evenodd">
        <g id="jkl/core/colors/primary" transform="translate(6.000000, 13.000000)">
            <mask id="mask-2" fill="white">
                <use xlink:href="#path-1"></use>
            </mask>
            <use id="Mask" fill="#000000" fill-rule="nonzero" xlink:href="#path-1"></use>
            <g mask="url(#mask-2)" fill="#ffffff" id="Rectangle-2">
                <g transform="translate(-16.000000, -22.000000)">
                    <rect x="0" y="0" width="84" height="79"></rect>
                </g>
            </g>
        </g>
    </g>
</svg>