<?xml version="1.0" encoding="UTF-8"?>
<svg width="64px" height="64px" viewBox="0 0 64 64" version="1.1" xmlns="http://www.w3.org/2000/svg" xmlns:xlink="http://www.w3.org/1999/xlink">
    <!-- Generator: Sketch 50.2 (55047) - http://www.bohemiancoding.com/sketch -->
    <title>jkl/core/elements/icons/feedback</title>
    <desc>Created with Sketch.</desc>
    <defs>
        <path d="M32.5,3.6985 L32.5,7.58326562 C32.5,8.18157031 32.9850625,8.66663281 33.5833672,8.66663281 L35.75,8.66663281 L35.75,10.8332656 L33.5833672,10.8332656 C31.7884531,10.8332656 30.3333672,9.37817969 30.3333672,7.58326562 L30.3333672,2.16663281 L3.25,2.16663281 C2.65169531,2.16663281 2.16663281,2.65169531 2.16663281,3.25 L2.16663281,48.75 C2.16663281,49.3483047 2.65169531,49.8333672 3.25,49.8333672 L37.9166328,49.8333672 C38.5149375,49.8333672 39,49.3483047 39,48.75 L39,46.5833672 L41.1666328,46.5833672 L41.1666328,48.75 C41.1666328,50.5449141 39.7115469,52 37.9166328,52 L3.25,52 C1.45508594,52 0,50.5449141 0,48.75 L0,3.25 C0,1.45508594 1.45508594,0 3.25,0 L31.4167344,0 C31.7039531,0 31.9794922,0.114257812 32.1826172,0.317382812 L40.84925,8.98411719 C41.052375,9.18724219 41.1665312,9.46267969 41.1666328,9.75 L41.1666328,14.0833672 L39,14.0833672 L39,10.1985 L32.5,3.6985 Z M10.8333672,10.8333672 L13,10.8333672 L13,13 L10.8333672,13 L10.8333672,10.8333672 Z M26,22.75 C24.2050859,22.75 22.75,24.2050859 22.75,26 C22.75,27.7949141 24.2050859,29.25 26,29.25 C27.7949141,29.25 29.25,27.7949141 29.25,26 C29.25,24.2050859 27.7949141,22.75 26,22.75 Z M26,27.0833672 C25.4016953,27.0833672 24.9166328,26.5983047 24.9166328,26 C24.9166328,25.4016953 25.4016953,24.9166328 26,24.9166328 C26.5983047,24.9166328 27.0833672,25.4016953 27.0833672,26 C27.0833672,26.5983047 26.5983047,27.0833672 26,27.0833672 Z M34.6666328,22.75 C32.8717187,22.75 31.4166328,24.2050859 31.4166328,26 C31.4166328,27.7949141 32.8717187,29.25 34.6666328,29.25 C36.4615469,29.25 37.9166328,27.7949141 37.9166328,26 C37.9166328,24.2050859 36.4615469,22.75 34.6666328,22.75 Z M17.3333672,19.9485 L17.3333672,30.3332656 C17.3333672,37.5129219 23.1537109,43.3332656 30.3333672,43.3332656 C37.5130234,43.3332656 43.3333672,37.5129219 43.3333672,30.3332656 C43.3333672,23.1536094 37.5130234,17.3332656 30.3333672,17.3332656 L30.3333672,15.1666328 C38.7096328,15.1666328 45.5,21.9571016 45.5,30.3333672 C45.5,38.7096328 38.7096328,45.5 30.3333672,45.4998984 C21.9607578,45.4909609 15.1756719,38.705875 15.1667344,30.3332656 L15.1667344,19.9483984 L12.6825156,22.4326172 L11.1506484,20.90075 L15.4840156,16.5673828 C15.907125,16.1444766 16.592875,16.1444766 17.0158828,16.5673828 L21.34925,20.9006484 L19.8173828,22.4325156 L17.3333672,19.9485 Z M34.6666328,27.0833672 C34.0683281,27.0833672 33.5832656,26.5983047 33.5832656,26 C33.5832656,25.4016953 34.0683281,24.9166328 34.6666328,24.9166328 C35.2649375,24.9166328 35.75,25.4016953 35.75,26 C35.75,26.5983047 35.2649375,27.0833672 34.6666328,27.0833672 Z M35.75,31.4166328 L37.9167344,31.4166328 C37.9119609,35.6028359 34.5195703,38.9952266 30.3333672,39 C26.1471641,38.9952266 22.7547734,35.6028359 22.75,31.4166328 L24.9167344,31.4166328 C24.9167344,34.4081563 27.3418438,36.8332656 30.3333672,36.8332656 C33.3248906,36.8332656 35.75,34.4081563 35.75,31.4166328 Z M6.5,6.5 L17.3333672,6.5 L17.3333672,8.66663281 L6.5,8.66663281 L6.5,6.5 Z M6.5,10.8333672 L8.66663281,10.8333672 L8.66663281,13 L6.5,13 L6.5,10.8333672 Z" id="path-1"></path>
    </defs>
    <g id="jkl/core/elements/icons/feedback" stroke="none" stroke-width="1" fill="none" fill-rule="evenodd">
        <g id="jkl/core/colors/primary" transform="translate(9.000000, 6.000000)">
            <mask id="mask-2" fill="white">
                <use xlink:href="#path-1"></use>
            </mask>
            <use id="Mask" fill="#000000" fill-rule="nonzero" xlink:href="#path-1"></use>
            <g mask="url(#mask-2)" fill="#ffffff" id="Rectangle-2">
                <g transform="translate(-19.000000, -15.000000)">
                    <rect x="0" y="0" width="84" height="79"></rect>
                </g>
            </g>
        </g>
    </g>
</svg>