<?xml version="1.0" encoding="UTF-8"?>
<svg width="64px" height="64px" viewBox="0 0 64 64" version="1.1" xmlns="http://www.w3.org/2000/svg" xmlns:xlink="http://www.w3.org/1999/xlink">
    <!-- Generator: Sketch 50.2 (55047) - http://www.bohemiancoding.com/sketch -->
    <title>jkl/core/elements/icons/items</title>
    <desc>Created with Sketch.</desc>
    <defs>
        <path d="M51.7461953,0.253804687 C51.5836953,0.0913046875 51.3632031,-1.92532726e-14 51.1332656,-1.92532726e-14 L0.866632812,-1.92532726e-14 C0.636796875,-0.0001015625 0.416304687,0.091203125 0.253804687,0.253804687 C0.091203125,0.416304687 -0.0001015625,0.636796875 -7.60849717e-14,0.866632812 L-7.60849717e-14,51.1332656 C-0.0001015625,51.3631016 0.091203125,51.5835937 0.253804687,51.7461953 C0.416304687,51.9086953 0.636796875,52 0.866734375,52 L51.1333672,52 C51.3632031,52.0001016 51.5836953,51.9087969 51.7462969,51.7461953 C51.9087969,51.5836953 52.0001016,51.3632031 52.0001016,51.1332656 L52.0001016,0.866632812 C52.0001016,0.636796875 51.9087969,0.416304687 51.7461953,0.253804687 Z M1.73336719,8.66663281 L6.93336719,8.66663281 L6.93336719,43.3332656 L1.73336719,43.3332656 L1.73336719,8.66663281 Z M50.2667344,50.2666328 L1.73336719,50.2666328 L1.73336719,45.0666328 L50.2667344,45.0666328 L50.2667344,50.2666328 Z M14.47875,33.8412344 L14.4801719,33.8399141 L20.5454844,27.7746016 L20.5469062,27.7732812 L26.6122187,21.7079687 L26.6136406,21.7066484 L32.6789531,15.6413359 L32.680375,15.6400156 L39.6535547,8.66683594 L43.3334687,8.66683594 L43.3334687,12.34675 L37.5213516,18.1589687 L37.5199297,18.1602891 L31.4546172,24.2256016 L31.4531953,24.2269219 L25.3878828,30.2922344 L25.3864609,30.2935547 L19.3211484,36.3588672 L19.3197266,36.3601875 L12.3465469,43.3333672 L8.66663281,43.3333672 L8.66663281,39.6534531 L14.47875,33.8412344 Z M8.66663281,37.2023437 L8.66663281,8.66663281 L13,8.66663281 L13,32.8689766 L8.66663281,37.2023437 Z M14.7333672,31.1357109 L14.7333672,8.66663281 L19.0667344,8.66663281 L19.0667344,26.8023437 L14.7333672,31.1357109 Z M20.8,25.0689766 L20.8,8.66663281 L25.1333672,8.66663281 L25.1333672,20.7356094 L20.8,25.0689766 Z M26.8666328,19.0023437 L26.8666328,8.66663281 L31.2,8.66663281 L31.2,14.6689766 L26.8666328,19.0023437 Z M32.9333672,12.9357109 L32.9333672,8.66663281 L37.2023437,8.66663281 L32.9333672,12.9357109 Z M43.3333672,14.7976562 L43.3333672,43.3333672 L39,43.3333672 L39,19.1310234 L43.3333672,14.7976562 Z M37.2666328,20.8642891 L37.2666328,43.3332656 L32.9332656,43.3332656 L32.9332656,25.1976562 L37.2666328,20.8642891 Z M31.2,26.9310234 L31.2,43.3333672 L26.8666328,43.3333672 L26.8666328,31.2642891 L31.2,26.9310234 Z M25.1333672,32.9976562 L25.1333672,43.3333672 L20.8,43.3333672 L20.8,37.3310234 L25.1333672,32.9976562 Z M19.0666328,39.0642891 L19.0666328,43.3332656 L14.7976562,43.3332656 L19.0666328,39.0642891 Z M50.2666328,43.3333672 L45.0666328,43.3333672 L45.0666328,8.66663281 L50.2666328,8.66663281 L50.2666328,43.3333672 Z M50.2667344,6.93336719 L1.73336719,6.93336719 L1.73336719,1.73336719 L50.2667344,1.73336719 L50.2667344,6.93336719 Z M4.33336719,48.5333672 C3.85470313,48.5333672 3.46673438,48.1453984 3.46673438,47.6667344 C3.46673438,47.1880703 3.85470313,46.8001016 4.33336719,46.8001016 L5.2,46.8001016 C5.67866406,46.8001016 6.06663281,47.1880703 6.06663281,47.6667344 C6.06663281,48.1453984 5.67866406,48.5333672 5.2,48.5333672 L4.33336719,48.5333672 Z M46.8,48.5333672 C46.3213359,48.5333672 45.9333672,48.1453984 45.9333672,47.6667344 C45.9333672,47.1880703 46.3213359,46.8001016 46.8,46.8001016 L47.6666328,46.8001016 C48.1452969,46.8001016 48.5332656,47.1880703 48.5332656,47.6667344 C48.5332656,48.1453984 48.1452969,48.5333672 47.6666328,48.5333672 L46.8,48.5333672 Z" id="path-1"></path>
    </defs>
    <g id="jkl/core/elements/icons/items" stroke="none" stroke-width="1" fill="none" fill-rule="evenodd">
        <g id="jkl/core/colors/primary" transform="translate(6.000000, 6.000000)">
            <mask id="mask-2" fill="white">
                <use xlink:href="#path-1"></use>
            </mask>
            <use id="Mask" fill="#000000" fill-rule="nonzero" xlink:href="#path-1"></use>
            <g mask="url(#mask-2)" fill="#ffffff" id="Rectangle-2">
                <g transform="translate(-16.000000, -14.000000)">
                    <rect x="0" y="0" width="84" height="79"></rect>
                </g>
            </g>
        </g>
    </g>
</svg>