<?xml version="1.0" encoding="UTF-8"?>
<svg width="64px" height="64px" viewBox="0 0 64 64" version="1.1" xmlns="http://www.w3.org/2000/svg" xmlns:xlink="http://www.w3.org/1999/xlink">
    <!-- Generator: Sketch 50.2 (55047) - http://www.bohemiancoding.com/sketch -->
    <title>jkl/core/elements/icons/overall</title>
    <desc>Created with Sketch.</desc>
    <defs>
        <path d="M26.0043333,6.93333333 C15.4908,6.93333333 6.93766667,15.4864667 6.93766667,26 C6.93766667,36.5135333 15.4908,45.0666667 26.0043333,45.0666667 C36.5178667,45.0666667 45.071,36.5135333 45.071,26 C45.071,15.4864667 36.5178667,6.93333333 26.0043333,6.93333333 Z M26.0043333,43.3333333 C16.4467333,43.3333333 8.671,35.5576 8.671,26 C8.671,16.4424 16.4467333,8.66666667 26.0043333,8.66666667 C35.5619333,8.66666667 43.3376667,16.4424 43.3376667,26 C43.3376667,35.5576 35.5619333,43.3333333 26.0043333,43.3333333 Z M10.3081333,45.6386667 C10.595,45.2486667 11.1401333,45.1706667 11.5214667,45.4566667 C11.9028,45.7426667 11.9808,46.2886667 11.7034667,46.6691333 C11.5301333,46.9031333 11.2701333,47.0158 11.0014667,47.0158 C10.8194667,47.0158 10.6374667,46.9638 10.4901333,46.8511333 C10.1001333,46.5651333 10.0221333,46.0191333 10.3081333,45.6386667 Z M6.27033333,40.1006667 C6.54766667,40.4906667 6.46013333,41.0366667 6.071,41.3148667 C5.915,41.4266667 5.74166667,41.4786667 5.56833333,41.4786667 C5.291,41.4786667 5.031,41.3495333 4.85766667,41.1146667 C4.58033333,40.7255333 4.667,40.1882 5.057,39.9022 C5.447,39.624 5.993,39.7202 6.27033333,40.1006667 Z M6.60746667,41.99 C6.97233333,41.678 7.51833333,41.704 7.82946667,42.068 C8.15013333,42.4233333 8.11546667,42.9693333 7.76013333,43.29 C7.59546667,43.4373333 7.38746667,43.5066667 7.18813333,43.5066667 C6.94546667,43.5066667 6.7028,43.4104667 6.53813333,43.2111333 C6.21746667,42.8566667 6.25213333,42.3098 6.60746667,41.99 Z M9.58966667,43.8533333 C9.58966667,43.8533333 9.58966667,43.8533333 9.58966667,43.8628667 C9.945,44.1835333 9.96233333,44.7295333 9.64166667,45.0848667 C9.46833333,45.2668667 9.23433333,45.3622 9.00033333,45.3622 C8.79233333,45.3622 8.58433333,45.2842 8.41966667,45.1368667 C8.06433333,44.8075333 8.03833333,44.2606667 8.36766667,43.9062 C8.68833333,43.5586667 9.243,43.5326667 9.58966667,43.8533333 Z M4.91833333,37.9946667 C5.15233333,38.4098 5.005,38.9393333 4.589,39.1733333 C4.459,39.2513333 4.303,39.286 4.16433333,39.286 C3.861,39.286 3.56633333,39.1291333 3.41033333,38.8526667 C3.16766667,38.4366667 3.315,37.9088667 3.731,37.674 C4.147,37.4313333 4.67566667,37.5786667 4.90966667,37.9946667 C4.90966667,37.9946667 4.90966667,37.9946667 4.91833333,37.9946667 Z M51.0856667,27.8373333 C50.6081333,27.82 50.2363333,27.4126667 50.2536667,26.936 C50.271,26.4593333 50.6783333,26.0858 51.155,26.104 C51.6316667,26.1204667 52.0043333,26.5191333 51.987,27.0053333 C51.9696667,27.4638 51.5883333,27.8373333 51.1203333,27.8373333 C51.1116667,27.8373333 51.103,27.8373333 51.0856667,27.8373333 Z M1.09633333,29.458 C1.06166667,29.458 1.03566667,29.458 1.001,29.4571333 C0.567666667,29.4571333 0.186333333,29.1278 0.143,28.6771333 C0.091,28.2091333 0.437666667,27.7758 0.914333333,27.7324667 C1.391,27.6804667 1.81566667,28.0271333 1.86766667,28.5038 C1.91966667,28.9804667 1.573,29.4051333 1.09633333,29.458 Z M1.58166667,32.006 C1.521,32.0233333 1.45946667,32.0233333 1.39966667,32.0233333 C1.001,32.0233333 0.637,31.746 0.559,31.3386667 C0.455,30.8706667 0.758333333,30.4104667 1.22633333,30.3151333 C1.69433333,30.2111333 2.15366667,30.5153333 2.249,30.9833333 C2.353,31.4513333 2.04966667,31.9106667 1.58166667,32.006 Z M3.783,35.75 C3.9728,36.192 3.77346667,36.7033333 3.341,36.8931333 C3.22833333,36.946 3.107,36.972 2.99433333,36.972 C2.65633333,36.972 2.34433333,36.7718 2.197,36.4511333 C2.00633333,36.01 2.20566667,35.4986667 2.639,35.308 C3.081,35.1173333 3.59233333,35.3166667 3.783,35.75 Z M2.88946667,33.41 C3.03766667,33.8598 2.78633333,34.3546667 2.3348,34.502 C2.24813333,34.528 2.1528,34.5366667 2.06613333,34.5366667 C1.70213333,34.5366667 1.36413333,34.3035333 1.2428,33.9395333 C1.09546667,33.4793333 1.3468,32.994 1.80613333,32.8466667 C2.2568,32.6993333 2.7508,32.9506667 2.88946667,33.41 Z M25.5363333,50.258 C26.013,50.2666667 26.3934667,50.6653333 26.3856667,51.142 C26.377,51.6178 25.9956667,51.9913333 25.519,51.9913333 C25.519,51.9913333 25.5103333,51.9913333 25.5016667,51.9913333 C25.025,51.9818 24.6436667,51.5926667 24.6523333,51.1064667 C24.661,50.6306667 25.0596667,50.2484667 25.5363333,50.258 Z M45.1836667,40.8546667 C45.4783333,40.4733333 46.0156667,40.4048667 46.397,40.6986667 C46.7783333,40.9924667 46.8476667,41.5384667 46.553,41.9111333 C46.3796667,42.1373333 46.1196667,42.25 45.8683333,42.25 C45.6776667,42.25 45.4956667,42.1893333 45.331,42.068 C44.9583333,41.7742 44.889,41.2273333 45.1836667,40.8546667 Z M39.7228,46.0026667 C40.1223333,45.734 40.6588,45.8293333 40.9274667,46.228 C41.2048,46.6188667 41.1008,47.164 40.7108,47.4326667 C40.5548,47.5366667 40.3901333,47.58 40.2168,47.58 C39.9394667,47.58 39.6708,47.45 39.5061333,47.2073333 C39.2288,46.8164667 39.3328,46.2713333 39.7228,46.0026667 Z M41.717,44.4764667 C42.081,44.1653333 42.6261333,44.2086667 42.939,44.5726667 C43.251,44.9366667 43.2076667,45.4826667 42.8436667,45.7946667 C42.679,45.9333333 42.4796667,46.0026667 42.2803333,46.0026667 C42.0376667,46.0026667 41.795,45.8978 41.6216667,45.6984667 C41.3096667,45.3344667 41.353,44.7884667 41.717,44.4764667 Z M47.8088,38.5138 C48.217,38.7651333 48.3383333,39.3033333 48.0861333,39.7089333 C47.9214667,39.9784667 47.6354667,40.1171333 47.3494667,40.1171333 C47.1934667,40.1171333 47.0374667,40.0746667 46.8901333,39.9871333 C46.4828,39.7358 46.3614667,39.1984667 46.6128,38.7911333 C46.8641333,38.3924667 47.4014667,38.2624667 47.8088,38.5138 Z M43.5456667,42.7526667 C43.8741333,42.406 44.421,42.3964667 44.7676667,42.7258 C45.1143333,43.0551333 45.123,43.6011333 44.7936667,43.9478 C44.629,44.1298 44.395,44.2164667 44.1696667,44.2164667 C43.953,44.2164667 43.7363333,44.1384667 43.5716667,43.9746667 C43.225,43.6444667 43.2076667,43.0984667 43.5456667,42.7526667 Z M51.0068,28.6944667 C51.4843333,28.7638 51.8136667,29.2066667 51.7434667,29.6755333 C51.6828,30.1088667 51.3101333,30.42 50.8854667,30.42 C50.8508,30.42 50.8074667,30.42 50.7641333,30.4113333 C50.2874667,30.342 49.9581333,29.9086667 50.0274667,29.432 C50.0968,28.964 50.5388,28.626 51.0068,28.6944667 Z M50.6003333,31.2598 C51.0588,31.382 51.3456667,31.85 51.2243333,32.3171333 C51.129,32.7071333 50.7736667,32.9758 50.3836667,32.9758 C50.3143333,32.9758 50.245,32.968 50.1756667,32.9498 C49.7163333,32.8284667 49.4303333,32.3604667 49.543,31.8924667 C49.6643333,31.4331333 50.1323333,31.1471333 50.6003333,31.2598 Z M13.6101333,46.852 C14.0183333,47.1033333 14.1561333,47.632 13.9048,48.0402 C13.7401333,48.3175333 13.4541333,48.4648667 13.1594667,48.4648667 C13.0121333,48.4648667 12.8561333,48.4302 12.7174667,48.3435333 C12.3101333,48.1008667 12.1714667,47.5635333 12.4228,47.1562 C12.6654667,46.7393333 13.1941333,46.6102 13.6101333,46.852 Z M49.9234667,33.774 C50.3741333,33.9386667 50.6003333,34.4318 50.4348,34.8842 C50.3134667,35.2395333 49.9754667,35.4562 49.6201333,35.4562 C49.5248,35.4562 49.4208,35.438 49.3254667,35.4033333 C48.8748,35.2395333 48.6494667,34.7455333 48.8141333,34.294 C48.9701333,33.8433333 49.4728,33.6102 49.9234667,33.774 Z M48.9883333,36.2006667 C49.4216667,36.4086667 49.595,36.9278 49.387,37.362 C49.2396667,37.6662 48.9276667,37.8482 48.607,37.8482 C48.477,37.8482 48.347,37.8213333 48.2256667,37.7606667 C47.801,37.5535333 47.619,37.0326667 47.827,36.5993333 C48.035,36.166 48.5636667,35.9935333 48.9883333,36.2006667 Z M23.0316667,50.0846667 C23.5074667,50.1444667 23.8463333,50.57 23.7856667,51.0458 C23.7336667,51.4886667 23.361,51.8093333 22.9276667,51.8093333 C22.893,51.8093333 22.8583333,51.8093333 22.8236667,51.8093333 L22.8236667,51.7998 C22.347,51.7486667 22.009,51.3153333 22.0696667,50.8386667 C22.1303333,50.3611333 22.555,50.024 23.0316667,50.0846667 Z M18.1523333,48.9666667 C18.603,49.114 18.8456667,49.608 18.6896667,50.0673333 C18.5683333,50.4226667 18.2303333,50.648 17.875,50.648 C17.7796667,50.648 17.6843333,50.6306667 17.589,50.6046667 C17.1383333,50.4486667 16.8956667,49.9546667 17.0516667,49.504 C17.2076667,49.0446667 17.7016667,48.8098 18.1523333,48.9666667 Z M20.5616667,49.6513333 C21.0296667,49.7553333 21.3234667,50.2233333 21.2116667,50.6913333 C21.125,51.09 20.761,51.3586667 20.371,51.3586667 C20.3016667,51.3586667 20.241,51.3586667 20.1716667,51.3413333 C19.7123333,51.2373333 19.4176667,50.7693333 19.5216667,50.3013333 C19.6343333,49.8333333 20.0936667,49.5473333 20.5616667,49.6513333 Z M15.8296667,48.0306667 C16.263,48.2291333 16.445,48.7413333 16.2456667,49.1746667 C16.0983333,49.4944667 15.7863333,49.6764667 15.457,49.6764667 C15.3356667,49.6764667 15.2143333,49.6513333 15.093,49.5984667 C14.6596667,49.4 14.4776667,48.8791333 14.677,48.4458 C14.8763333,48.0124667 15.3876667,47.8226667 15.8296667,48.0306667 Z M30.5283333,49.842 C30.9963333,49.7553333 31.4556667,50.0586667 31.5423333,50.5353333 C31.629,51.0033333 31.317,51.4548667 30.849,51.5493333 C30.797,51.5588667 30.745,51.5588667 30.693,51.5588667 C30.2856667,51.5588667 29.913,51.272 29.835,50.856 C29.7483333,50.388 30.0603333,49.9286667 30.5283333,49.842 Z M32.9636667,49.2526667 C33.423,49.114 33.9074667,49.374 34.047,49.8246667 C34.1856667,50.2831333 33.9256667,50.7693333 33.4663333,50.908 C33.3796667,50.9331333 33.293,50.9426667 33.215,50.9426667 C32.8423333,50.9426667 32.4956667,50.7 32.383,50.3264667 C32.2443333,49.868 32.5043333,49.3818 32.9636667,49.2526667 Z M35.3296667,48.4033333 C35.7716667,48.2213333 36.2734667,48.4293333 36.465,48.8713333 C36.647,49.3133333 36.439,49.816 35.997,50.0075333 C35.8843333,50.05 35.7716667,50.0673333 35.659,50.0673333 C35.321,50.0673333 35.0003333,49.8688667 34.8616667,49.5395333 C34.6796667,49.0966667 34.8876667,48.5853333 35.3296667,48.4033333 Z M28.0401333,50.1791333 C28.5176667,50.1444667 28.9414667,50.5006667 28.9761333,50.9764667 C29.0194667,51.4531333 28.6641333,51.8691333 28.1874667,51.9038 L28.1874667,51.9124667 C28.1614667,51.9124667 28.1354667,51.9124667 28.1181333,51.9124667 C27.6674667,51.9124667 27.2861333,51.5666667 27.2514667,51.1151333 C27.2081333,50.6384667 27.5634667,50.2233333 28.0401333,50.1791333 Z M37.5908,47.32 C38.0068,47.086 38.5363333,47.242 38.7608,47.6666667 C38.9948,48.0826667 38.8388,48.6113333 38.4141333,48.8366667 C38.2841333,48.9146667 38.1454667,48.9493333 38.0068,48.9493333 C37.6948,48.9493333 37.4001333,48.7855333 37.2441333,48.4908667 C37.0101333,48.074 37.1661333,47.5453333 37.5908,47.32 Z M26.871,21.7897333 L26.871,17.3333333 C26.871,16.8540667 26.4827333,16.4666667 26.0043333,16.4666667 C25.5259333,16.4666667 25.1376667,16.8540667 25.1376667,17.3333333 L25.1376667,21.7897333 C23.647,22.1771333 22.5376667,23.5222 22.5376667,25.1333333 C22.5376667,25.7746667 22.724,26.3674667 23.0290667,26.8831333 L15.8582667,34.0539333 C15.5194,34.3928 15.5194,34.9405333 15.8582667,35.2794 C16.0272667,35.4484 16.2491333,35.5333333 16.471,35.5333333 C16.6928667,35.5333333 16.9147333,35.4484 17.0837333,35.2794 L24.2545333,28.1086 C24.7702,28.4136667 25.363,28.6 26.0043333,28.6 C27.9162,28.6 29.471,27.0452 29.471,25.1333333 C29.471,23.5222 28.3616667,22.1771333 26.871,21.7897333 Z M26.0043333,26.8666667 C25.0484,26.8666667 24.271,26.0892667 24.271,25.1333333 C24.271,24.1774 25.0484,23.4 26.0043333,23.4 C26.9602667,23.4 27.7376667,24.1774 27.7376667,25.1333333 C27.7376667,26.0892667 26.9602667,26.8666667 26.0043333,26.8666667 Z M0.871,26.8666667 C0.3926,26.8666667 0.00433333333,26.4792667 0.00433333333,26 C0.00433333333,11.6636 11.6679333,0 26.0043333,0 C32.0545333,0 37.8282667,2.08693333 42.4701333,5.902 L42.4701333,0.866666667 C42.4701333,0.3874 42.8584,0 43.3368,0 C43.8152,0 44.2034667,0.3874 44.2034667,0.866666667 L44.2034667,8.66666667 L43.4312667,8.66666667 C43.3749333,8.67273333 43.3212,8.67186667 43.264,8.66666667 L36.4043333,8.66666667 C35.9259333,8.66666667 35.5376667,8.27926667 35.5376667,7.8 C35.5376667,7.32073333 35.9259333,6.93333333 36.4043333,6.93333333 L40.9994,6.93333333 C36.7319333,3.56633333 31.4877333,1.73333333 26.0043333,1.73333333 C12.6238667,1.73333333 1.73766667,12.6195333 1.73766667,26 C1.73766667,26.4792667 1.3494,26.8666667 0.871,26.8666667 Z" id="path-1"></path>
    </defs>
    <g id="jkl/core/elements/icons/overall" stroke="none" stroke-width="1" fill="none" fill-rule="evenodd">
        <g id="jkl/core/colors/primary" transform="translate(6.000000, 6.000000)">
            <mask id="mask-2" fill="white">
                <use xlink:href="#path-1"></use>
            </mask>
            <use id="Mask" fill="#000000" fill-rule="nonzero" xlink:href="#path-1"></use>
            <g mask="url(#mask-2)" fill="#ffffff" id="Rectangle-2">
                <g transform="translate(-16.000000, -15.000000)">
                    <rect x="0" y="0" width="84" height="79"></rect>
                </g>
            </g>
        </g>
    </g>
</svg>