<?xml version="1.0" encoding="UTF-8"?>
<svg width="64px" height="64px" viewBox="0 0 64 64" version="1.1" xmlns="http://www.w3.org/2000/svg" xmlns:xlink="http://www.w3.org/1999/xlink">
    <!-- Generator: Sketch 50.2 (55047) - http://www.bohemiancoding.com/sketch -->
    <title>jkl/core/elements/icons/recommended</title>
    <desc>Created with Sketch.</desc>
    <defs>
        <path d="M48.953125,29.1484375 C48.953125,26.6283672 46.9028828,24.578125 44.3828125,24.578125 L37.5950859,24.578125 C38.4360234,22.3044453 38.9575469,19.6037969 39.2624375,17.5580234 C39.570375,15.4928516 38.9659766,13.4023906 37.6042266,11.8224844 C36.2465391,10.24725 34.2750078,9.34375 32.1953125,9.34375 C31.3539687,9.34375 30.671875,10.0258437 30.671875,10.8671875 C30.671875,14.5475078 28.5568359,20.1033828 26.0885625,21.3409219 C23.3102187,22.7336484 17.8445312,24.2770937 16.7558828,24.578125 C16.0762266,24.578125 2.18044531,24.578125 1.52353906,24.578125 C0.682195312,24.578125 0.0001015625,25.2602187 0.0001015625,26.1015625 L0.0001015625,47.4296875 C-1.78261011e-13,48.2710313 0.68209375,48.953125 1.5234375,48.953125 L6.09375,48.953125 L6.09375,50.4765625 C6.09375,51.3179063 6.77584375,52 7.6171875,52 L13.9140625,52 C15.7747891,52 17.3781562,50.8816953 18.0905156,49.2823906 L28.7789531,51.9545 C28.8998125,51.9846641 29.0239219,52 29.1484375,52 L38.2890625,52 C40.8091328,52 42.859375,49.9497578 42.859375,47.4296875 C42.859375,46.8353437 42.7453203,46.2672031 42.5380312,45.7458828 C44.4766562,45.2167422 45.90625,43.4401094 45.90625,41.3359375 C45.90625,40.7415938 45.7921953,40.1734531 45.5849062,39.6521328 C47.5235312,39.1229922 48.953125,37.3463594 48.953125,35.2421875 C48.953125,34.0726953 48.5116328,33.0044609 47.7865781,32.1953125 C48.5116328,31.3861641 48.953125,30.3179297 48.953125,29.1484375 Z M6.09364844,45.90625 L3.04677344,45.90625 L3.04677344,27.625 L6.09364844,27.625 L6.09364844,45.90625 Z M15.4373984,47.4296875 C15.4373984,48.2697109 14.7539844,48.953125 13.9139609,48.953125 L9.14052344,48.953125 L9.14052344,27.625 L15.4373984,27.625 L15.4373984,47.4296875 Z M35.2421875,33.71875 L44.3828125,33.71875 C45.2228359,33.71875 45.90625,34.4021641 45.90625,35.2421875 C45.90625,36.0822109 45.2228359,36.765625 44.3828125,36.765625 C43.2341406,36.765625 36.1810312,36.765625 35.2421875,36.765625 C34.4008437,36.765625 33.71875,37.4477187 33.71875,38.2890625 C33.71875,39.1304062 34.4008437,39.8125 35.2421875,39.8125 L41.3359375,39.8125 C42.1759609,39.8125 42.859375,40.4959141 42.859375,41.3359375 C42.859375,42.1759609 42.1759609,42.859375 41.3359375,42.859375 C40.6901016,42.859375 35.8880234,42.859375 35.2421875,42.859375 C34.4008437,42.859375 33.71875,43.5414687 33.71875,44.3828125 C33.71875,45.2241562 34.4008437,45.90625 35.2421875,45.90625 L38.2890625,45.90625 C39.1290859,45.90625 39.8125,46.5896641 39.8125,47.4296875 C39.8125,48.2697109 39.1290859,48.953125 38.2890625,48.953125 L29.3360234,48.953125 L18.484375,46.2402891 L18.484375,27.2569375 C20.5397969,26.6667578 24.8995703,25.3453281 27.4539687,24.0647266 C30.9527969,22.3106406 33.0952578,16.7624844 33.6020547,12.6395547 C34.250125,12.8766016 34.835125,13.2765547 35.2965234,13.8117891 C36.0789609,14.7194531 36.4261016,15.9211406 36.2489766,17.1087109 C35.527375,21.9485703 34.6221484,23.9352344 33.879625,25.4201797 C33.6434922,25.8924453 33.6686797,26.4532734 33.94625,26.9023828 C34.2238203,27.3514922 34.7141641,27.625 35.2421875,27.625 L44.3828125,27.625 C45.2228359,27.625 45.90625,28.3084141 45.90625,29.1484375 C45.90625,29.9884609 45.2228359,30.671875 44.3828125,30.671875 L35.2421875,30.671875 C34.4008437,30.671875 33.71875,31.3539687 33.71875,32.1953125 C33.71875,33.0366562 34.4008437,33.71875 35.2421875,33.71875 Z M33.71875,0 C34.5600938,0 35.2421875,0.68209375 35.2421875,1.5234375 L35.2421875,4.7734375 C35.2421875,5.61478125 34.5600938,6.296875 33.71875,6.296875 C32.8774062,6.296875 32.1953125,5.61478125 32.1953125,4.7734375 L32.1953125,1.5234375 C32.1953125,0.68209375 32.8774062,0 33.71875,0 Z M25.1008672,7.71204688 C25.6958203,8.307 25.6958203,9.27153906 25.1008672,9.86649219 C24.5060156,10.4614453 23.5412734,10.4614453 22.9464219,9.86649219 L20.7919766,7.71204688 C20.1970234,7.11709375 20.1970234,6.15255469 20.7919766,5.55760156 C21.3869297,4.96264844 22.3515703,4.96264844 22.9464219,5.55760156 L25.1008672,7.71204688 Z M20.0077109,16.9609375 C20.8490547,16.9609375 21.5311484,17.6430312 21.5311484,18.484375 C21.5311484,19.3257188 20.8490547,20.0078125 20.0077109,20.0078125 L16.9608359,20.0078125 C16.1194922,20.0078125 15.4373984,19.3257188 15.4373984,18.484375 C15.4373984,17.6430312 16.1194922,16.9609375 16.9608359,16.9609375 L20.0077109,16.9609375 Z M50.4765625,16.9609375 C51.3179063,16.9609375 52,17.6430312 52,18.484375 C52,19.3257188 51.3179063,20.0078125 50.4765625,20.0078125 L47.4296875,20.0078125 C46.5883437,20.0078125 45.90625,19.3257188 45.90625,18.484375 C45.90625,17.6430312 46.5883437,16.9609375 47.4296875,16.9609375 L50.4765625,16.9609375 Z M46.6455234,5.55760156 C47.2404766,6.15255469 47.2404766,7.11709375 46.6455234,7.71204688 L44.4910781,9.86649219 C43.8962266,10.4614453 42.9314844,10.4614453 42.3366328,9.86649219 C41.7416797,9.27153906 41.7416797,8.307 42.3366328,7.71204688 L44.4910781,5.55760156 C45.0860313,4.96264844 46.0506719,4.96264844 46.6455234,5.55760156 Z" id="path-1"></path>
    </defs>
    <g id="jkl/core/elements/icons/recommended" stroke="none" stroke-width="1" fill="none" fill-rule="evenodd">
        <g id="jkl/core/colors/primary" transform="translate(6.000000, 6.000000)">
            <mask id="mask-2" fill="white">
                <use xlink:href="#path-1"></use>
            </mask>
            <use id="Mask" fill="#000000" fill-rule="nonzero" xlink:href="#path-1"></use>
            <g mask="url(#mask-2)" fill="#ffffff" id="Rectangle-2">
                <g transform="translate(-16.000000, -15.000000)">
                    <rect x="0" y="0" width="84" height="79"></rect>
                </g>
            </g>
        </g>
    </g>
</svg>