<?xml version="1.0" encoding="UTF-8" standalone="no"?>
<!DOCTYPE svg PUBLIC "-//W3C//DTD SVG 1.1//EN" "http://www.w3.org/Graphics/SVG/1.1/DTD/svg11.dtd">
<svg version="1.1" xmlns="http://www.w3.org/2000/svg" xmlns:xlink="http://www.w3.org/1999/xlink" preserveAspectRatio="xMidYMid meet" viewBox="0 0 640 640" width="64" height="64" fill="none"><defs><path d="M462.51 34.24L466.49 34.62L470.42 35.14L474.29 35.81L478.11 36.62L481.88 37.56L485.58 38.64L489.22 39.86L492.8 41.2L496.3 42.66L499.73 44.25L503.08 45.95L506.36 47.78L509.55 49.71L512.66 51.76L515.67 53.91L518.6 56.17L521.42 58.53L524.15 60.99L526.78 63.54L529.3 66.19L531.72 68.93L534.02 71.75L536.21 74.65L538.28 77.64L540.23 80.7L542.05 83.84L543.75 87.05L545.31 90.33L546.75 93.67L548.04 97.07L549.2 100.54L550.21 104.06L551.07 107.64L551.79 111.26L552.35 114.94L552.75 118.65L553 122.41L553.08 126.21L553.08 157.83L553.51 158.28L553.92 158.73L554.33 159.19L554.74 159.65L555.13 160.12L555.51 160.6L555.89 161.09L556.25 161.58L556.61 162.08L556.95 162.58L557.29 163.1L557.62 163.61L557.93 164.13L558.24 164.66L558.54 165.2L558.83 165.74L559.1 166.28L559.37 166.83L559.62 167.39L559.87 167.95L560.1 168.52L560.33 169.09L560.54 169.67L560.74 170.25L560.93 170.83L561.11 171.42L561.28 172.02L561.43 172.62L561.58 173.22L561.71 173.83L561.83 174.44L561.94 175.05L562.03 175.67L562.11 176.29L562.19 176.92L562.24 177.55L562.29 178.18L562.32 178.82L562.34 179.46L562.35 180.1L562.32 181.35L562.25 182.58L562.13 183.8L561.96 185.02L561.74 186.21L561.48 187.39L561.17 188.56L560.82 189.71L560.43 190.84L559.99 191.95L559.52 193.05L559 194.12L558.44 195.18L557.85 196.21L557.21 197.22L556.54 198.2L555.84 199.17L555.1 200.11L554.32 201.02L553.52 201.9L552.68 202.76L551.81 203.59L550.9 204.39L549.97 205.17L549.01 205.91L548.02 206.62L547.01 207.29L545.97 207.94L544.9 208.55L543.81 209.12L542.7 209.66L541.56 210.17L540.4 210.63L539.22 211.06L538.02 211.45L536.8 211.8L535.57 212.11L534.31 212.38L533.04 212.6L531.76 212.79L531.45 214.44L531.1 216.08L530.72 217.71L530.29 219.32L529.82 220.92L529.32 222.5L528.77 224.07L528.19 225.62L527.57 227.15L526.91 228.66L526.21 230.16L525.48 231.64L524.72 233.1L523.91 234.54L523.08 235.96L522.21 237.37L521.3 238.75L520.37 240.11L519.4 241.44L518.4 242.76L517.37 244.05L516.3 245.32L515.21 246.57L514.09 247.79L512.94 248.99L511.75 250.16L510.55 251.3L509.31 252.42L508.04 253.52L506.75 254.59L505.44 255.62L504.09 256.64L502.73 257.62L501.33 258.57L499.92 259.5L498.48 260.39L497.02 261.25L495.53 262.09L494.02 262.89L492.49 263.66L492.49 272.28L519.97 289.25L559.21 304.54L559.4 304.61L559.62 304.68L559.88 304.78L560.18 304.88L560.5 305.01L560.86 305.14L561.25 305.29L561.67 305.46L562.11 305.64L562.59 305.84L563.09 306.05L563.61 306.28L564.16 306.52L564.74 306.78L565.34 307.06L565.96 307.35L566.6 307.67L567.26 307.99L567.95 308.34L568.65 308.7L569.37 309.09L570.1 309.49L570.85 309.9L571.62 310.34L572.4 310.8L573.19 311.27L574 311.77L574.82 312.28L575.64 312.82L576.48 313.37L577.32 313.94L578.18 314.54L579.04 315.15L579.9 315.79L580.77 316.45L581.65 317.13L582.52 317.83L583.4 318.55L584.28 319.29L585.16 320.06L586.05 320.86L586.95 321.69L587.85 322.55L588.75 323.44L589.66 324.36L590.57 325.32L591.47 326.31L592.38 327.33L593.28 328.39L594.18 329.48L595.06 330.6L595.94 331.76L596.82 332.95L597.67 334.18L598.52 335.44L599.35 336.74L600.17 338.07L600.97 339.44L601.75 340.85L602.51 342.29L603.24 343.77L603.96 345.29L604.64 346.84L605.3 348.43L605.94 350.06L606.54 351.73L607.11 353.44L607.65 355.18L608.16 356.97L608.63 358.79L609.06 360.66L609.45 362.56L609.8 364.5L610.11 366.49L610.38 368.51L610.6 370.58L610.78 372.68L610.9 374.83L610.98 377.02L611.01 379.26L611.01 431.51L611 431.86L610.97 432.21L610.94 432.56L610.89 432.9L610.82 433.24L610.74 433.57L610.64 433.9L610.54 434.23L610.42 434.54L610.28 434.85L610.14 435.16L609.98 435.46L609.81 435.75L609.63 436.04L609.44 436.32L609.23 436.59L609.02 436.85L608.79 437.11L608.56 437.35L608.31 437.59L608.06 437.82L607.8 438.04L607.52 438.25L607.24 438.45L606.95 438.64L606.66 438.82L606.35 438.99L606.04 439.15L605.72 439.3L605.39 439.44L605.06 439.56L604.72 439.68L604.37 439.78L604.02 439.87L603.67 439.94L603.31 440L602.94 440.05L602.57 440.09L602.19 440.11L601.82 440.12L486.42 440.12L486.55 440.62L486.67 441.12L486.79 441.63L486.91 442.14L487.03 442.65L487.14 443.17L487.25 443.69L487.36 444.21L487.47 444.74L487.57 445.27L487.67 445.8L487.76 446.33L487.86 446.87L487.95 447.41L488.04 447.95L488.12 448.49L488.2 449.04L488.28 449.59L488.35 450.15L488.43 450.7L488.49 451.26L488.56 451.83L488.62 452.39L488.68 452.96L488.74 453.53L488.79 454.11L488.84 454.68L488.88 455.26L488.92 455.85L488.96 456.44L489 457.02L489.03 457.62L489.06 458.21L489.08 458.81L489.1 459.41L489.12 460.02L489.13 460.63L489.14 461.24L489.15 461.85L489.15 462.47L489.15 517.52L489.14 517.88L489.12 518.23L489.08 518.58L489.03 518.92L488.96 519.26L488.88 519.59L488.79 519.92L488.68 520.24L488.56 520.56L488.43 520.87L488.28 521.18L488.12 521.48L487.95 521.77L487.77 522.06L487.58 522.33L487.38 522.61L487.16 522.87L486.94 523.12L486.7 523.37L486.46 523.61L486.2 523.84L485.94 524.06L485.67 524.27L485.39 524.47L485.1 524.66L484.8 524.84L484.49 525.01L484.18 525.17L483.86 525.32L483.54 525.46L483.2 525.58L482.86 525.69L482.52 525.79L482.17 525.88L481.81 525.96L481.45 526.02L481.08 526.07L480.71 526.1L480.34 526.13L479.96 526.13L264.05 526.13L263.67 526.13L263.29 526.1L262.92 526.07L262.56 526.02L262.19 525.96L261.84 525.88L261.49 525.8L261.14 525.69L260.8 525.58L260.47 525.46L260.14 525.32L259.82 525.17L259.51 525.01L259.21 524.85L258.91 524.67L258.62 524.47L258.34 524.27L258.07 524.06L257.8 523.84L257.55 523.62L257.3 523.38L257.07 523.13L256.84 522.88L256.63 522.61L256.43 522.34L256.23 522.07L256.05 521.78L255.88 521.49L255.72 521.19L255.58 520.88L255.45 520.57L255.33 520.25L255.22 519.93L255.12 519.6L255.04 519.27L254.98 518.93L254.93 518.59L254.89 518.24L254.86 517.89L254.86 517.54L254.86 517.18L254.89 516.83L254.93 516.48L254.98 516.14L255.04 515.8L255.12 515.47L255.22 515.14L255.33 514.82L255.45 514.5L255.58 514.19L255.72 513.88L255.88 513.59L256.05 513.29L256.23 513.01L256.43 512.73L256.63 512.46L256.84 512.2L257.07 511.94L257.3 511.7L257.55 511.46L257.8 511.23L258.07 511.01L258.34 510.8L258.62 510.6L258.91 510.41L259.21 510.23L259.51 510.06L259.82 509.9L260.14 509.75L260.47 509.62L260.8 509.49L261.14 509.38L261.49 509.28L261.84 509.19L262.19 509.11L262.56 509.05L262.92 509L263.29 508.97L263.67 508.95L264.05 508.94L283.73 508.94L294.82 444.59L290.48 433.79L283.93 438.3L283.81 438.38L283.69 438.46L283.56 438.54L283.44 438.61L283.32 438.69L283.19 438.76L283.06 438.83L282.94 438.9L282.81 438.96L282.68 439.02L282.55 439.09L282.42 439.15L282.28 439.2L282.15 439.26L282.02 439.31L281.88 439.36L281.75 439.41L281.61 439.46L281.47 439.51L281.33 439.55L281.2 439.59L281.06 439.63L280.92 439.67L280.78 439.7L280.64 439.73L280.5 439.76L280.35 439.79L280.21 439.82L280.07 439.84L279.93 439.87L279.78 439.89L279.64 439.9L279.5 439.92L279.35 439.93L279.21 439.95L279.06 439.96L278.92 439.96L278.77 439.97L278.63 439.97L278.48 439.97L278.43 439.97L278.37 439.97L278.32 439.97L278.26 439.97L278.21 439.97L278.15 439.97L278.1 439.97L278.04 439.96L277.99 439.96L277.93 439.96L277.87 439.95L277.82 439.95L277.76 439.95L277.71 439.94L277.65 439.94L277.6 439.93L277.54 439.93L277.49 439.92L277.43 439.92L277.38 439.91L277.32 439.9L277.27 439.9L277.21 439.89L277.16 439.88L277.1 439.88L277.05 439.87L276.99 439.86L276.94 439.85L276.88 439.84L276.83 439.83L276.77 439.82L276.72 439.81L276.66 439.8L276.61 439.79L276.55 439.78L276.5 439.77L276.45 439.76L276.39 439.75L276.34 439.74L276.28 439.72L276.08 439.68L275.89 439.62L275.69 439.57L275.5 439.51L275.31 439.44L275.12 439.38L274.93 439.31L274.75 439.23L274.57 439.15L274.38 439.07L274.21 438.99L274.03 438.9L273.86 438.8L273.68 438.71L273.51 438.61L273.35 438.51L273.18 438.4L273.02 438.29L272.86 438.18L272.7 438.06L272.55 437.94L272.4 437.82L272.25 437.69L272.11 437.57L271.96 437.44L271.82 437.3L271.69 437.16L271.55 437.02L271.42 436.88L271.3 436.74L271.17 436.59L271.05 436.44L270.94 436.28L270.82 436.13L270.71 435.97L270.61 435.81L270.5 435.64L270.41 435.48L270.31 435.31L270.22 435.14L245.26 387.15L211.96 400.13L211.95 400.14L211.92 400.15L211.9 400.15L211.89 400.16L211.86 400.17L211.84 400.18L211.81 400.19L211.8 400.19L211.77 400.2L211.75 400.21L211.72 400.22L211.71 400.22L211.69 400.23L211.66 400.24L211.65 400.25L211.61 400.26L211.6 400.26L211.57 400.27L211.55 400.28L211.52 400.29L211.51 400.29L211.49 400.3L211.46 400.31L211.45 400.31L211.42 400.32L211.4 400.33L211.37 400.34L211.35 400.34L211.25 400.38L210.99 400.47L210.6 400.61L210.07 400.81L209.42 401.07L208.66 401.39L207.79 401.77L206.81 402.22L205.75 402.73L204.59 403.31L203.37 403.96L202.07 404.69L200.71 405.49L199.3 406.36L197.84 407.32L196.35 408.35L194.82 409.47L193.27 410.67L191.71 411.96L190.14 413.33L188.57 414.8L187 416.36L185.46 418.01L183.94 419.76L182.45 421.61L181 423.56L179.6 425.61L178.25 427.76L176.97 430.02L175.75 432.39L174.62 434.87L173.57 437.46L172.62 440.17L171.77 442.99L171.03 445.93L170.4 448.99L169.9 452.17L169.53 455.48L169.31 458.91L169.23 462.47L169.23 508.94L207.36 508.94L207.36 459.96L207.36 459.61L207.39 459.26L207.42 458.91L207.48 458.57L207.54 458.23L207.62 457.9L207.72 457.57L207.82 457.25L207.94 456.93L208.08 456.62L208.22 456.31L208.38 456.01L208.55 455.72L208.73 455.44L208.92 455.16L209.13 454.89L209.34 454.62L209.57 454.37L209.8 454.12L210.05 453.88L210.3 453.66L210.56 453.44L210.84 453.23L211.12 453.03L211.41 452.84L211.7 452.66L212.01 452.49L212.32 452.33L212.64 452.18L212.97 452.04L213.3 451.92L213.64 451.81L213.98 451.71L214.34 451.62L214.69 451.54L215.05 451.48L215.42 451.43L215.79 451.4L216.17 451.37L216.54 451.37L216.92 451.37L217.3 451.4L217.67 451.43L218.04 451.48L218.4 451.54L218.75 451.62L219.1 451.71L219.45 451.81L219.79 451.92L220.12 452.04L220.45 452.18L220.77 452.33L221.08 452.49L221.39 452.66L221.68 452.84L221.97 453.03L222.25 453.23L222.53 453.44L222.79 453.66L223.04 453.88L223.29 454.12L223.52 454.37L223.75 454.62L223.96 454.89L224.16 455.16L224.36 455.44L224.54 455.72L224.71 456.01L224.87 456.31L225.01 456.62L225.15 456.93L225.27 457.25L225.37 457.57L225.47 457.9L225.55 458.23L225.61 458.57L225.67 458.91L225.7 459.26L225.73 459.61L225.73 459.96L225.73 508.94L235.45 508.94L235.83 508.95L236.21 508.97L236.58 509L236.95 509.05L237.31 509.11L237.66 509.19L238.01 509.28L238.36 509.38L238.7 509.49L239.03 509.62L239.36 509.75L239.68 509.9L239.99 510.06L240.3 510.23L240.59 510.41L240.88 510.6L241.16 510.8L241.44 511.01L241.7 511.23L241.95 511.46L242.2 511.7L242.43 511.94L242.66 512.2L242.87 512.46L243.07 512.73L243.27 513.01L243.45 513.29L243.62 513.59L243.78 513.88L243.92 514.19L244.05 514.5L244.18 514.82L244.28 515.14L244.38 515.47L244.46 515.8L244.52 516.14L244.58 516.48L244.61 516.83L244.64 517.18L244.64 517.54L244.64 517.89L244.61 518.24L244.58 518.59L244.52 518.93L244.46 519.27L244.38 519.6L244.28 519.93L244.18 520.25L244.05 520.57L243.92 520.88L243.78 521.19L243.62 521.49L243.45 521.78L243.27 522.07L243.07 522.34L242.87 522.61L242.66 522.88L242.43 523.13L242.2 523.38L241.95 523.62L241.7 523.84L241.44 524.06L241.16 524.27L240.88 524.47L240.59 524.67L240.3 524.85L239.99 525.01L239.68 525.17L239.36 525.32L239.03 525.46L238.7 525.58L238.36 525.69L238.01 525.8L237.66 525.88L237.31 525.96L236.95 526.02L236.58 526.07L236.21 526.1L235.83 526.13L235.45 526.13L160.04 526.13L159.66 526.13L159.29 526.1L158.92 526.07L158.55 526.02L158.19 525.95L157.83 525.88L157.48 525.79L157.14 525.68L156.8 525.57L156.46 525.44L156.14 525.3L155.82 525.15L155.51 524.99L155.2 524.81L154.9 524.63L154.61 524.44L154.33 524.23L154.06 524.02L153.8 523.79L153.54 523.56L153.3 523.32L153.06 523.07L152.84 522.81L152.63 522.54L152.42 522.27L152.23 521.99L152.05 521.7L151.88 521.4L151.72 521.1L151.57 520.79L151.44 520.48L151.32 520.16L151.21 519.83L151.12 519.5L151.04 519.17L150.97 518.83L150.92 518.48L150.88 518.13L150.86 517.78L150.85 517.43L150.85 462.47L150.85 461.85L150.86 461.24L150.87 460.62L150.88 460.02L150.9 459.41L150.92 458.81L150.94 458.21L150.97 457.62L151 457.02L151.04 456.43L151.08 455.85L151.12 455.26L151.16 454.68L151.21 454.1L151.26 453.53L151.32 452.96L151.38 452.39L151.44 451.82L151.51 451.26L151.57 450.7L151.65 450.14L151.72 449.59L151.8 449.04L151.88 448.49L151.97 447.95L152.05 447.4L152.14 446.86L152.24 446.33L152.33 445.79L152.43 445.26L152.53 444.74L152.64 444.21L152.75 443.69L152.86 443.17L152.97 442.65L153.09 442.14L153.21 441.63L153.33 441.12L153.45 440.62L153.58 440.11L38.18 440.11L37.81 440.11L37.43 440.08L37.06 440.05L36.69 440L36.33 439.93L35.98 439.86L35.62 439.77L35.28 439.66L34.94 439.55L34.61 439.42L34.28 439.28L33.96 439.13L33.65 438.97L33.34 438.8L33.05 438.61L32.76 438.42L32.48 438.21L32.2 438L31.94 437.78L31.69 437.54L31.44 437.3L31.21 437.05L30.98 436.79L30.77 436.53L30.56 436.25L30.37 435.97L30.19 435.68L30.02 435.39L29.86 435.09L29.72 434.78L29.58 434.46L29.46 434.14L29.36 433.82L29.26 433.49L29.18 433.15L29.11 432.81L29.06 432.47L29.03 432.12L29 431.77L28.99 431.42L28.99 379.26L29.02 377.02L29.1 374.83L29.23 372.68L29.4 370.58L29.62 368.51L29.89 366.49L30.2 364.5L30.55 362.56L30.94 360.65L31.38 358.79L31.84 356.97L32.35 355.18L32.89 353.44L33.46 351.73L34.06 350.06L34.7 348.43L35.36 346.84L36.05 345.29L36.76 343.77L37.5 342.29L38.26 340.85L39.03 339.44L39.83 338.07L40.65 336.74L41.48 335.44L42.33 334.18L43.19 332.95L44.06 331.76L44.94 330.6L45.83 329.48L46.72 328.39L47.62 327.33L48.53 326.31L49.44 325.32L50.34 324.36L51.25 323.44L52.15 322.55L53.06 321.69L53.95 320.86L54.84 320.06L55.72 319.3L56.6 318.55L57.48 317.83L58.36 317.13L59.23 316.45L60.1 315.79L60.97 315.16L61.82 314.54L62.68 313.95L63.52 313.37L64.36 312.82L65.19 312.28L66 311.77L66.81 311.27L67.6 310.8L68.38 310.34L69.15 309.91L69.9 309.49L70.64 309.09L71.35 308.71L72.05 308.34L72.74 308L73.4 307.67L74.04 307.36L74.66 307.06L75.26 306.78L75.84 306.52L76.39 306.28L76.92 306.05L77.42 305.84L77.89 305.64L78.34 305.46L78.75 305.29L79.14 305.14L79.5 305.01L79.83 304.89L80.12 304.78L80.38 304.69L80.61 304.61L80.8 304.54L120.03 289.25L147.51 272.28L147.51 263.66L145.98 262.89L144.47 262.09L142.99 261.25L141.52 260.39L140.08 259.5L138.67 258.57L137.28 257.62L135.91 256.64L134.57 255.62L133.25 254.59L131.96 253.52L130.69 252.42L129.46 251.3L128.25 250.16L127.07 248.99L125.91 247.79L124.79 246.57L123.7 245.32L122.64 244.05L121.6 242.76L120.6 241.44L119.63 240.11L118.7 238.75L117.79 237.37L116.92 235.96L116.09 234.54L115.29 233.1L114.52 231.64L113.79 230.16L113.1 228.66L112.44 227.15L111.82 225.62L111.23 224.07L110.69 222.5L110.18 220.92L109.71 219.32L109.29 217.71L108.9 216.08L108.55 214.44L108.25 212.79L106.96 212.6L105.69 212.38L104.44 212.11L103.2 211.8L101.98 211.45L100.78 211.06L99.6 210.63L98.44 210.17L97.31 209.66L96.19 209.12L95.1 208.55L94.03 207.94L92.99 207.29L91.98 206.62L90.99 205.91L90.03 205.17L89.1 204.39L88.2 203.59L87.32 202.76L86.48 201.9L85.68 201.02L84.9 200.1L84.16 199.17L83.46 198.2L82.79 197.22L82.16 196.21L81.56 195.17L81 194.12L80.49 193.05L80.01 191.95L79.57 190.84L79.18 189.71L78.83 188.56L78.52 187.39L78.26 186.21L78.05 185.02L77.88 183.8L77.75 182.58L77.68 181.35L77.65 180.1L77.66 179.46L77.68 178.82L77.71 178.18L77.76 177.55L77.82 176.92L77.89 176.29L77.97 175.67L78.07 175.05L78.17 174.44L78.29 173.83L78.43 173.22L78.57 172.62L78.73 172.02L78.89 171.42L79.07 170.83L79.26 170.25L79.46 169.67L79.67 169.09L79.9 168.52L80.13 167.95L80.38 167.39L80.63 166.83L80.9 166.28L81.18 165.74L81.46 165.2L81.76 164.66L82.07 164.13L82.38 163.61L82.71 163.1L83.05 162.58L83.39 162.08L83.75 161.58L84.12 161.09L84.49 160.6L84.87 160.12L85.27 159.65L85.67 159.19L86.08 158.73L86.5 158.28L86.92 157.83L86.92 126.21L87.01 122.41L87.25 118.65L87.66 114.94L88.22 111.26L88.93 107.64L89.79 104.06L90.81 100.54L91.96 97.08L93.25 93.67L94.69 90.33L96.25 87.05L97.95 83.84L99.77 80.7L101.72 77.64L103.79 74.65L105.98 71.75L108.28 68.93L110.7 66.19L113.22 63.55L115.85 60.99L118.58 58.53L121.41 56.17L124.33 53.92L127.35 51.76L130.45 49.71L133.64 47.78L136.92 45.96L140.27 44.25L143.7 42.66L147.21 41.2L150.78 39.86L154.42 38.65L158.12 37.57L161.89 36.62L165.71 35.81L169.59 35.14L173.51 34.62L177.49 34.24L181.51 34.01L185.57 33.93L193.02 33.93L196.37 33.99L199.69 34.14L202.99 34.4L206.26 34.76L209.5 35.22L212.71 35.78L215.89 36.43L219.03 37.18L222.13 38.03L225.19 38.96L228.21 39.99L231.19 41.1L234.12 42.3L237 43.59L239.83 44.96L242.61 46.42L245.34 47.96L248.01 49.57L250.62 51.27L253.17 53.05L255.66 54.89L258.08 56.82L260.44 58.81L262.73 60.88L264.94 63.02L267.09 65.22L269.16 67.5L271.15 69.83L273.07 72.24L274.9 74.7L276.65 77.22L278.32 79.81L279.9 82.45L281.39 85.15L282.79 87.9L284.09 90.71L285.3 93.56L286.41 96.47L287.43 99.43L288.34 102.43L288.99 102.27L289.63 102.11L290.28 101.96L290.94 101.81L291.59 101.66L292.24 101.52L292.9 101.38L293.56 101.25L294.22 101.11L294.88 100.99L295.54 100.86L296.2 100.74L296.87 100.63L297.54 100.52L298.2 100.41L298.87 100.31L299.54 100.21L300.22 100.11L300.89 100.02L301.56 99.93L302.24 99.85L302.92 99.77L303.6 99.69L304.28 99.62L304.96 99.56L305.64 99.49L306.33 99.44L307.01 99.38L307.7 99.33L308.39 99.29L309.08 99.24L309.77 99.21L310.46 99.17L311.15 99.15L311.85 99.12L312.54 99.1L313.24 99.09L313.94 99.08L314.64 99.07L315.34 99.07L323.19 99.07L323.93 99.07L324.66 99.08L325.4 99.09L326.13 99.11L326.86 99.13L327.59 99.16L328.32 99.19L329.05 99.22L329.78 99.26L330.5 99.31L331.23 99.36L331.95 99.42L332.67 99.48L333.39 99.54L334.11 99.61L334.83 99.69L335.54 99.76L336.25 99.85L336.97 99.94L337.68 100.03L338.39 100.12L339.09 100.23L339.8 100.33L340.51 100.44L341.21 100.56L341.91 100.68L342.61 100.8L343.31 100.93L344 101.06L344.7 101.2L345.39 101.34L346.08 101.48L346.77 101.63L347.46 101.79L348.15 101.94L348.83 102.11L349.52 102.27L350.2 102.44L350.88 102.62L351.55 102.8L352.46 99.78L353.46 96.8L354.57 93.88L355.77 91.01L357.07 88.19L358.46 85.42L359.95 82.71L361.52 80.06L363.18 77.46L364.93 74.92L366.76 72.45L368.68 70.03L370.67 67.68L372.74 65.4L374.89 63.18L377.11 61.03L379.4 58.95L381.76 56.95L384.19 55.01L386.68 53.15L389.23 51.37L391.85 49.66L394.52 48.04L397.25 46.49L400.04 45.03L402.88 43.64L405.77 42.35L408.7 41.14L411.69 40.02L414.72 38.99L417.79 38.05L420.9 37.2L424.05 36.45L427.23 35.79L430.45 35.23L433.7 34.77L436.98 34.4L440.29 34.14L443.62 33.99L446.98 33.93L454.44 33.93L458.5 34.01L462.51 34.24ZM368.96 435.31L368.86 435.48L368.76 435.64L368.66 435.81L368.55 435.97L368.44 436.13L368.33 436.28L368.21 436.44L368.09 436.59L367.97 436.74L367.84 436.88L367.71 437.02L367.58 437.16L367.44 437.3L367.3 437.44L367.16 437.57L367.01 437.69L366.87 437.82L366.71 437.94L366.56 438.06L366.4 438.18L366.24 438.29L366.08 438.4L365.92 438.51L365.75 438.61L365.58 438.71L365.41 438.8L365.24 438.9L365.06 438.99L364.88 439.07L364.7 439.15L364.52 439.23L364.33 439.31L364.15 439.38L363.96 439.44L363.77 439.51L363.57 439.57L363.38 439.62L363.18 439.68L362.98 439.72L362.93 439.74L362.88 439.75L362.82 439.76L362.77 439.77L362.71 439.78L362.66 439.79L362.6 439.8L362.55 439.81L362.49 439.82L362.44 439.83L362.38 439.84L362.33 439.85L362.27 439.86L362.22 439.87L362.16 439.88L362.11 439.88L362.05 439.89L362 439.9L361.94 439.9L361.89 439.91L361.83 439.92L361.78 439.92L361.72 439.93L361.67 439.93L361.61 439.94L361.56 439.94L361.5 439.95L361.45 439.95L361.39 439.95L361.34 439.96L361.28 439.96L361.23 439.96L361.17 439.97L361.12 439.97L361.06 439.97L361.01 439.97L360.95 439.97L360.9 439.97L360.84 439.97L360.78 439.97L360.64 439.97L360.49 439.97L360.35 439.96L360.2 439.96L360.06 439.95L359.91 439.93L359.77 439.92L359.63 439.9L359.48 439.89L359.34 439.87L359.2 439.84L359.05 439.82L358.91 439.79L358.77 439.76L358.63 439.73L358.49 439.7L358.35 439.67L358.21 439.63L358.07 439.59L357.93 439.55L357.79 439.51L357.66 439.46L357.52 439.41L357.38 439.36L357.25 439.31L357.12 439.26L356.98 439.2L356.85 439.15L356.72 439.09L356.59 439.02L356.46 438.96L356.33 438.9L356.2 438.83L356.07 438.76L355.95 438.69L355.82 438.61L355.7 438.54L355.58 438.46L355.46 438.38L355.34 438.3L348.41 433.53L343.38 444.77L354.45 508.94L414.27 508.94L414.27 459.96L414.27 459.61L414.3 459.26L414.34 458.91L414.39 458.57L414.45 458.23L414.53 457.9L414.63 457.57L414.74 457.25L414.86 456.93L414.99 456.62L415.14 456.31L415.29 456.01L415.46 455.72L415.64 455.44L415.84 455.16L416.04 454.89L416.25 454.62L416.48 454.37L416.71 454.12L416.96 453.88L417.21 453.66L417.48 453.44L417.75 453.23L418.03 453.03L418.32 452.84L418.62 452.66L418.92 452.49L419.23 452.33L419.55 452.18L419.88 452.04L420.21 451.92L420.55 451.81L420.9 451.71L421.25 451.62L421.6 451.54L421.97 451.48L422.33 451.43L422.7 451.4L423.08 451.37L423.46 451.37L423.84 451.37L424.21 451.4L424.58 451.43L424.95 451.48L425.31 451.54L425.66 451.62L426.02 451.71L426.36 451.81L426.7 451.92L427.03 452.04L427.36 452.18L427.68 452.33L427.99 452.49L428.3 452.66L428.59 452.84L428.88 453.03L429.16 453.23L429.44 453.44L429.7 453.66L429.95 453.89L430.2 454.12L430.43 454.37L430.66 454.62L430.87 454.89L431.08 455.16L431.27 455.44L431.45 455.72L431.62 456.01L431.78 456.31L431.92 456.62L432.06 456.93L432.18 457.25L432.28 457.57L432.38 457.9L432.46 458.23L432.53 458.57L432.58 458.91L432.62 459.26L432.64 459.61L432.65 459.96L432.65 508.94L470.77 508.94L470.77 462.47L470.7 458.94L470.48 455.54L470.12 452.26L469.64 449.1L469.03 446.06L468.31 443.15L467.48 440.35L466.55 437.66L465.53 435.09L464.42 432.62L463.24 430.27L461.99 428.02L460.67 425.88L459.3 423.84L457.89 421.9L456.43 420.06L454.94 418.31L453.42 416.66L451.88 415.11L450.34 413.64L448.79 412.26L447.25 410.97L445.71 409.77L444.2 408.65L442.71 407.61L441.26 406.64L439.85 405.76L438.49 404.95L437.18 404.21L435.94 403.54L434.77 402.94L433.67 402.41L432.67 401.95L431.75 401.54L430.94 401.2L430.23 400.92L429.65 400.7L429.18 400.53L428.84 400.41L428.65 400.34L428.63 400.34L428.6 400.33L428.59 400.32L428.57 400.32L428.54 400.31L428.52 400.3L428.49 400.29L428.48 400.29L428.45 400.28L428.43 400.27L428.4 400.26L428.39 400.26L428.36 400.25L428.34 400.24L428.31 400.23L428.3 400.23L428.27 400.21L428.25 400.21L428.22 400.2L428.19 400.19L428.17 400.18L428.14 400.17L428.13 400.16L428.1 400.15L428.07 400.14L428.05 400.14L428.04 400.13L394.13 386.91L369.05 435.14L368.96 435.31ZM302.34 508.94L335.83 508.94L326.06 452.31L312.11 452.31L302.34 508.94ZM310.65 435.11L327.77 435.11L333.18 423.04L319.63 413.72L305.87 423.2L310.65 435.11ZM87.63 320.5L87.61 320.51L87.58 320.52L87.57 320.53L87.54 320.54L87.52 320.54L87.49 320.55L87.48 320.56L87.46 320.57L87.43 320.58L87.42 320.58L87.39 320.59L87.37 320.6L87.34 320.61L87.33 320.61L87.3 320.63L87.28 320.63L87.25 320.64L87.23 320.65L87.2 320.66L87.19 320.66L87.16 320.67L87.14 320.68L87.11 320.69L87.1 320.69L87.07 320.7L87.05 320.71L87.04 320.71L86.93 320.74L86.69 320.83L86.32 320.96L85.83 321.15L85.22 321.39L84.5 321.69L83.68 322.05L82.76 322.47L81.76 322.96L80.67 323.51L79.52 324.12L78.29 324.8L77.02 325.55L75.69 326.38L74.31 327.28L72.9 328.25L71.47 329.31L70.01 330.44L68.54 331.65L67.06 332.95L65.58 334.33L64.11 335.8L62.66 337.36L61.22 339.01L59.82 340.75L58.46 342.58L57.14 344.51L55.87 346.55L54.66 348.68L53.52 350.91L52.45 353.25L51.46 355.69L50.57 358.24L49.76 360.9L49.07 363.67L48.48 366.55L48.01 369.55L47.66 372.67L47.45 375.9L47.38 379.26L47.38 422.92L82.62 422.92L82.62 376.88L82.63 376.53L82.65 376.18L82.69 375.83L82.74 375.49L82.81 375.15L82.89 374.81L82.98 374.49L83.09 374.16L83.21 373.85L83.34 373.53L83.49 373.23L83.65 372.93L83.82 372.64L84 372.35L84.19 372.07L84.39 371.8L84.61 371.54L84.83 371.29L85.07 371.04L85.31 370.8L85.57 370.57L85.83 370.35L86.1 370.14L86.38 369.94L86.67 369.75L86.97 369.57L87.27 369.4L87.59 369.24L87.91 369.1L88.23 368.96L88.57 368.83L88.9 368.72L89.25 368.62L89.6 368.53L89.96 368.46L90.32 368.4L90.69 368.35L91.06 368.31L91.43 368.29L91.81 368.28L92.19 368.29L92.56 368.31L92.93 368.35L93.3 368.4L93.66 368.46L94.02 368.53L94.37 368.62L94.71 368.72L95.05 368.84L95.39 368.96L95.71 369.1L96.03 369.24L96.35 369.4L96.65 369.57L96.95 369.75L97.24 369.94L97.52 370.14L97.79 370.35L98.05 370.57L98.31 370.8L98.55 371.04L98.79 371.29L99.01 371.54L99.23 371.8L99.43 372.07L99.62 372.35L99.8 372.64L99.97 372.93L100.13 373.23L100.28 373.53L100.41 373.85L100.53 374.16L100.64 374.49L100.73 374.81L100.81 375.15L100.88 375.49L100.93 375.83L100.97 376.18L100.99 376.53L101 376.88L101 422.92L155.17 422.92L165.62 362.34L161.76 352.73L156.04 356.67L155.92 356.75L155.79 356.83L155.67 356.91L155.55 356.99L155.42 357.06L155.3 357.13L155.17 357.2L155.04 357.27L154.92 357.33L154.79 357.4L154.66 357.46L154.52 357.52L154.39 357.58L154.26 357.63L154.12 357.68L153.99 357.74L153.85 357.79L153.72 357.83L153.58 357.88L153.44 357.92L153.3 357.96L153.17 358L153.03 358.04L152.89 358.07L152.75 358.11L152.6 358.14L152.46 358.17L152.32 358.19L152.18 358.22L152.04 358.24L151.89 358.26L151.75 358.28L151.6 358.29L151.46 358.31L151.32 358.32L151.17 358.33L151.03 358.34L150.88 358.34L150.74 358.34L150.59 358.35L150.53 358.35L150.48 358.35L150.42 358.34L150.37 358.34L150.31 358.34L150.26 358.34L150.2 358.34L150.15 358.34L150.09 358.33L150.04 358.33L149.98 358.33L149.93 358.32L149.87 358.32L149.82 358.32L149.76 358.31L149.71 358.31L149.65 358.3L149.6 358.3L149.54 358.29L149.49 358.28L149.43 358.28L149.38 358.27L149.32 358.26L149.27 358.26L149.21 358.25L149.16 358.24L149.1 358.23L149.05 358.22L148.99 358.21L148.94 358.21L148.88 358.2L148.83 358.19L148.77 358.18L148.72 358.17L148.66 358.15L148.61 358.14L148.55 358.13L148.5 358.12L148.44 358.11L148.39 358.1L148.19 358.05L148 358L147.8 357.94L147.61 357.88L147.42 357.82L147.23 357.75L147.04 357.68L146.86 357.6L146.67 357.53L146.49 357.44L146.31 357.36L146.14 357.27L145.96 357.18L145.79 357.08L145.62 356.98L145.45 356.88L145.29 356.77L145.13 356.66L144.97 356.55L144.81 356.43L144.66 356.32L144.51 356.19L144.36 356.07L144.21 355.94L144.07 355.81L143.93 355.67L143.79 355.54L143.66 355.4L143.53 355.25L143.4 355.11L143.28 354.96L143.16 354.81L143.04 354.66L142.93 354.5L142.82 354.34L142.71 354.18L142.61 354.02L142.51 353.85L142.42 353.68L142.33 353.51L118.84 308.34L87.64 320.5L87.63 320.5ZM497.59 353.68L497.49 353.85L497.39 354.02L497.29 354.18L497.18 354.34L497.07 354.5L496.96 354.66L496.84 354.81L496.72 354.96L496.6 355.11L496.47 355.25L496.34 355.4L496.21 355.54L496.07 355.67L495.93 355.81L495.79 355.94L495.64 356.07L495.5 356.19L495.35 356.31L495.19 356.43L495.03 356.55L494.88 356.66L494.71 356.77L494.55 356.88L494.38 356.98L494.21 357.08L494.04 357.18L493.87 357.27L493.69 357.36L493.51 357.44L493.33 357.53L493.15 357.6L492.96 357.68L492.78 357.75L492.59 357.82L492.4 357.88L492.2 357.94L492.01 358L491.81 358.05L491.62 358.1L491.56 358.11L491.51 358.12L491.45 358.13L491.4 358.14L491.34 358.15L491.29 358.17L491.23 358.18L491.18 358.19L491.12 358.2L491.07 358.21L491.01 358.21L490.96 358.22L490.9 358.23L490.85 358.24L490.79 358.25L490.74 358.26L490.68 358.26L490.63 358.27L490.57 358.28L490.52 358.28L490.46 358.29L490.41 358.3L490.35 358.3L490.3 358.31L490.24 358.31L490.19 358.32L490.13 358.32L490.08 358.32L490.02 358.33L489.97 358.33L489.91 358.33L489.86 358.34L489.8 358.34L489.75 358.34L489.69 358.34L489.64 358.34L489.58 358.34L489.53 358.35L489.47 358.35L489.42 358.35L489.27 358.34L489.12 358.34L488.98 358.34L488.83 358.33L488.69 358.32L488.54 358.31L488.4 358.29L488.26 358.28L488.11 358.26L487.97 358.24L487.83 358.22L487.68 358.19L487.54 358.17L487.4 358.14L487.26 358.11L487.12 358.07L486.98 358.04L486.84 358L486.7 357.96L486.56 357.92L486.42 357.88L486.29 357.83L486.15 357.79L486.02 357.74L485.88 357.68L485.75 357.63L485.61 357.58L485.48 357.52L485.35 357.46L485.22 357.4L485.09 357.33L484.96 357.27L484.83 357.2L484.71 357.13L484.58 357.06L484.46 356.99L484.33 356.91L484.21 356.83L484.09 356.75L483.97 356.67L478.24 352.73L474.39 362.34L484.84 422.92L539 422.92L539 376.88L539.01 376.53L539.03 376.18L539.07 375.83L539.12 375.49L539.19 375.15L539.27 374.81L539.36 374.49L539.47 374.16L539.59 373.85L539.73 373.53L539.87 373.23L540.03 372.93L540.2 372.64L540.38 372.35L540.57 372.07L540.78 371.8L540.99 371.54L541.22 371.29L541.45 371.04L541.7 370.8L541.95 370.57L542.21 370.35L542.49 370.14L542.77 369.94L543.06 369.75L543.35 369.57L543.66 369.4L543.97 369.24L544.29 369.1L544.62 368.96L544.95 368.83L545.29 368.72L545.63 368.62L545.98 368.53L546.34 368.46L546.7 368.4L547.07 368.35L547.44 368.31L547.81 368.29L548.19 368.28L548.57 368.29L548.95 368.31L549.32 368.35L549.68 368.4L550.04 368.46L550.4 368.53L550.75 368.62L551.1 368.72L551.44 368.83L551.77 368.96L552.1 369.1L552.42 369.24L552.73 369.4L553.03 369.57L553.33 369.75L553.62 369.94L553.9 370.14L554.17 370.35L554.44 370.57L554.69 370.8L554.93 371.04L555.17 371.29L555.39 371.54L555.61 371.8L555.81 372.07L556.01 372.35L556.19 372.64L556.36 372.93L556.51 373.23L556.66 373.53L556.79 373.85L556.91 374.16L557.02 374.49L557.12 374.81L557.2 375.15L557.26 375.49L557.31 375.83L557.35 376.18L557.37 376.53L557.38 376.88L557.38 422.92L592.63 422.92L592.63 379.26L592.56 375.93L592.35 372.73L592.02 369.64L591.56 366.66L590.99 363.8L590.31 361.05L589.53 358.41L588.65 355.88L587.69 353.46L586.65 351.14L585.54 348.92L584.36 346.8L583.12 344.78L581.83 342.86L580.49 341.03L579.12 339.29L577.72 337.65L576.29 336.1L574.84 334.63L573.39 333.25L571.93 331.95L570.48 330.73L569.04 329.6L567.61 328.54L566.21 327.56L564.84 326.65L563.51 325.82L562.23 325.05L561 324.36L559.83 323.73L558.73 323.16L557.7 322.66L556.75 322.22L555.89 321.84L555.13 321.52L554.46 321.26L553.91 321.04L553.47 320.88L553.15 320.77L552.97 320.71L552.95 320.71L552.92 320.7L552.91 320.69L552.89 320.69L552.86 320.68L552.85 320.67L552.82 320.66L552.8 320.66L552.77 320.65L552.75 320.64L552.72 320.63L552.71 320.63L552.68 320.62L552.66 320.61L552.63 320.6L552.62 320.59L552.59 320.58L552.57 320.58L552.54 320.57L552.51 320.56L552.5 320.55L552.47 320.54L552.45 320.53L552.42 320.52L552.39 320.51L552.38 320.5L552.36 320.5L521.17 308.34L497.68 353.51L497.59 353.68ZM362.14 370.62L362.12 371.04L362.09 371.45L362.06 371.85L362.02 372.24L361.97 372.62L361.91 372.98L361.85 373.34L361.79 373.69L361.71 374.02L361.63 374.35L361.55 374.66L361.46 374.97L361.36 375.26L361.25 375.55L361.14 375.82L361.02 376.08L360.9 376.33L360.76 376.58L360.63 376.81L360.48 377.03L360.33 377.24L360.18 377.44L360.01 377.63L359.84 377.81L359.67 377.98L333.44 401.88L357.35 418.34L377.64 379.31L362.17 369.75L362.16 370.19L362.14 370.62ZM281.92 418.33L289.16 413.35L289.17 413.34L289.18 413.33L289.19 413.33L289.21 413.32L289.22 413.31L289.22 413.31L289.22 413.31L305.67 401.98L278.3 375.4L278.14 375.24L277.98 375.07L277.83 374.91L277.69 374.74L277.55 374.57L277.41 374.39L277.28 374.22L277.16 374.04L277.04 373.86L276.93 373.68L276.82 373.49L276.71 373.3L276.62 373.12L276.52 372.93L276.44 372.73L276.35 372.54L276.28 372.35L276.2 372.15L276.14 371.95L276.08 371.75L276.02 371.55L275.97 371.35L275.92 371.15L275.88 370.95L275.85 370.75L275.82 370.54L261.62 379.3L281.92 418.33ZM441.73 387.01L443.22 387.81L444.68 388.61L446.1 389.41L447.48 390.2L448.82 391L450.13 391.79L451.4 392.58L452.64 393.37L453.83 394.16L454.99 394.95L456.12 395.73L457.2 396.52L458.25 397.3L459.26 398.09L460.24 398.87L461.17 399.65L462.07 400.43L462.09 400.45L462.11 400.46L462.13 400.48L462.15 400.5L462.17 400.51L462.19 400.53L462.2 400.55L462.28 400.61L462.3 400.63L462.31 400.65L462.33 400.66L462.35 400.68L462.37 400.7L462.39 400.71L457.1 370.05L444.66 370.05L441.73 387.01ZM177.61 400.71L177.65 400.68L177.69 400.65L177.78 400.56L177.82 400.53L177.85 400.5L177.87 400.48L177.89 400.46L177.91 400.45L177.93 400.43L179.25 399.29L180.57 398.19L181.89 397.14L183.2 396.14L184.5 395.18L185.78 394.27L187.05 393.4L188.3 392.58L189.53 391.8L190.74 391.06L191.92 390.36L193.07 389.71L194.19 389.09L195.27 388.51L196.31 387.98L197.31 387.48L198.27 387.01L195.34 370.05L182.9 370.05L177.61 400.71ZM342.97 346.92L342.42 347.02L341.87 347.13L341.32 347.23L340.77 347.33L340.22 347.42L339.66 347.51L339.11 347.6L338.55 347.68L337.99 347.76L337.43 347.84L336.87 347.91L336.31 347.98L335.75 348.04L335.18 348.1L334.62 348.16L334.05 348.22L333.48 348.27L332.91 348.31L332.34 348.35L331.77 348.39L331.2 348.43L330.62 348.46L330.05 348.48L329.47 348.5L328.89 348.52L328.32 348.54L327.74 348.55L327.16 348.55L326.57 348.56L311.59 348.56L311.03 348.55L310.47 348.55L309.9 348.54L309.34 348.52L308.78 348.51L308.22 348.49L307.67 348.46L307.11 348.43L306.55 348.4L306 348.37L305.45 348.33L304.89 348.28L304.34 348.24L303.79 348.19L303.24 348.13L302.69 348.07L302.15 348.01L301.6 347.95L301.05 347.88L300.51 347.81L299.97 347.73L299.43 347.66L298.89 347.57L298.35 347.49L297.81 347.4L297.27 347.31L296.74 347.21L296.21 347.11L295.67 347.01L295.14 346.91L294.61 346.8L294.59 346.8L294.56 346.8L294.53 346.8L294.51 346.8L294.48 346.79L294.46 346.79L294.43 346.79L294.4 346.79L294.35 346.79L294.32 346.79L294.25 346.78L294.21 346.78L294.19 346.78L294.16 346.78L294.12 346.78L294.11 346.78L294.11 365.97L319.47 390.6L344.09 368.17L344.09 368.15L344.09 368.12L344.08 368.11L344.08 368.08L344.08 368.01L344.08 367.98L344.07 367.95L344.07 367.94L344.07 367.91L344.07 367.87L344.07 367.86L344.07 367.84L344.07 367.83L344.07 367.81L344.06 367.8L344.06 367.78L344.06 367.76L344.06 367.75L344.06 367.73L344.06 367.72L344.06 367.7L344.06 367.69L344.06 346.69L343.52 346.8L342.97 346.92ZM236.86 353.69L236.76 353.87L236.66 354.04L236.55 354.21L236.43 354.38L236.32 354.55L236.2 354.71L236.07 354.87L235.95 355.03L235.81 355.18L235.68 355.34L235.54 355.48L235.4 355.63L235.25 355.77L235.1 355.91L234.95 356.05L234.79 356.18L234.63 356.31L234.47 356.43L234.31 356.55L234.14 356.67L233.97 356.79L233.79 356.9L233.62 357.01L233.44 357.11L233.26 357.21L233.07 357.31L232.89 357.4L232.7 357.49L232.51 357.57L232.31 357.65L232.12 357.73L231.92 357.8L231.72 357.87L231.51 357.93L231.31 357.99L231.1 358.04L230.9 358.09L230.84 358.11L230.78 358.12L230.72 358.13L230.67 358.14L230.61 358.16L230.55 358.17L230.49 358.18L230.44 358.19L230.38 358.2L230.32 358.21L230.26 358.22L230.2 358.23L230.15 358.24L230.09 358.25L230.03 358.25L229.97 358.26L229.91 358.27L229.86 358.28L229.8 358.28L229.74 358.29L229.68 358.29L229.62 358.3L229.57 358.31L229.51 358.31L229.45 358.32L229.39 358.32L229.33 358.32L229.28 358.33L229.22 358.33L229.16 358.33L229.1 358.34L229.04 358.34L228.99 358.34L228.93 358.34L228.87 358.34L228.81 358.34L228.75 358.34L228.7 358.34L228.54 358.34L228.39 358.34L228.24 358.33L228.08 358.33L227.93 358.31L227.78 358.3L227.63 358.29L227.48 358.27L227.32 358.25L227.17 358.23L227.02 358.2L226.87 358.17L226.73 358.14L226.58 358.11L226.43 358.08L226.28 358.04L226.13 358L225.99 357.96L225.84 357.92L225.7 357.87L225.55 357.83L225.41 357.78L225.27 357.72L225.13 357.67L224.98 357.61L224.84 357.55L224.71 357.49L224.57 357.43L224.43 357.36L224.29 357.29L224.16 357.22L224.03 357.15L223.89 357.08L223.76 357L223.63 356.92L223.5 356.84L223.38 356.76L223.25 356.67L217.15 352.47L212.66 362.51L215.69 380.05L246.52 368.03L275.7 350.02L275.7 350.02L275.71 350.01L275.73 350L275.73 340.38L275.03 340.04L274.34 339.69L273.66 339.34L272.98 338.98L272.3 338.61L271.63 338.24L270.96 337.87L270.3 337.48L269.64 337.09L268.98 336.7L268.33 336.3L267.69 335.89L267.05 335.48L266.41 335.06L265.78 334.64L265.15 334.21L264.53 333.77L263.91 333.33L263.3 332.88L262.69 332.43L262.08 331.97L261.49 331.51L260.89 331.04L260.31 330.57L259.72 330.09L259.14 329.6L258.57 329.11L258 328.62L257.44 328.12L256.88 327.61L256.33 327.1L255.79 326.59L255.25 326.06L254.71 325.54L254.18 325.01L253.66 324.47L253.14 323.93L252.62 323.39L236.96 353.51L236.86 353.69ZM385.68 323.26L385.15 323.83L384.61 324.39L384.07 324.94L383.53 325.49L382.97 326.03L382.41 326.57L381.85 327.1L381.28 327.63L380.7 328.15L380.12 328.67L379.53 329.18L378.94 329.69L378.34 330.18L377.74 330.68L377.13 331.17L376.51 331.65L375.89 332.13L375.27 332.6L374.64 333.06L374 333.52L373.36 333.97L372.71 334.42L372.06 334.86L371.4 335.3L370.74 335.73L370.08 336.15L369.41 336.56L368.73 336.97L368.05 337.38L367.37 337.78L366.68 338.17L365.98 338.55L365.28 338.93L364.58 339.3L363.87 339.67L363.16 340.02L362.44 340.38L362.44 349.32L391.9 367.51L391.93 367.52L391.96 367.53L391.99 367.53L392.02 367.54L392.06 367.55L392.09 367.56L392.12 367.57L392.15 367.57L392.18 367.58L392.21 367.59L392.24 367.6L392.27 367.61L392.3 367.62L392.33 367.62L392.36 367.63L392.39 367.64L392.42 367.65L392.45 367.66L392.48 367.67L392.51 367.68L392.54 367.69L392.57 367.7L392.61 367.71L392.64 367.72L392.67 367.73L392.7 367.74L392.73 367.75L392.76 367.76L392.79 367.77L392.82 367.78L392.85 367.79L392.88 367.8L392.91 367.81L392.94 367.82L392.97 367.83L393 367.84L393.03 367.85L393.06 367.87L393.09 367.88L424.31 380.05L427.34 362.51L422.85 352.47L416.75 356.67L416.63 356.75L416.5 356.83L416.38 356.91L416.25 356.99L416.12 357.07L415.99 357.14L415.86 357.21L415.73 357.28L415.6 357.35L415.47 357.41L415.33 357.47L415.2 357.53L415.06 357.59L414.92 357.65L414.79 357.7L414.65 357.75L414.51 357.8L414.37 357.85L414.23 357.9L414.09 357.94L413.94 357.98L413.8 358.02L413.66 358.06L413.51 358.09L413.37 358.12L413.22 358.15L413.08 358.18L412.93 358.21L412.79 358.23L412.64 358.25L412.49 358.27L412.34 358.29L412.2 358.3L412.05 358.31L411.9 358.32L411.75 358.33L411.6 358.34L411.45 358.34L411.3 358.34L411.25 358.34L411.19 358.34L411.13 358.34L411.08 358.34L411.02 358.34L410.96 358.34L410.91 358.33L410.85 358.33L410.79 358.33L410.74 358.33L410.68 358.32L410.63 358.32L410.57 358.31L410.51 358.31L410.46 358.31L410.4 358.3L410.34 358.3L410.29 358.29L410.23 358.28L410.17 358.28L410.12 358.27L410.06 358.26L410 358.26L409.95 358.25L409.89 358.24L409.83 358.23L409.78 358.22L409.72 358.21L409.67 358.2L409.61 358.19L409.55 358.18L409.5 358.17L409.44 358.16L409.38 358.15L409.33 358.14L409.27 358.13L409.22 358.12L409.16 358.11L409.1 358.09L408.9 358.04L408.7 357.99L408.5 357.93L408.3 357.87L408.11 357.81L407.91 357.74L407.72 357.66L407.53 357.59L407.35 357.5L407.16 357.42L406.98 357.33L406.8 357.24L406.62 357.14L406.44 357.04L406.27 356.94L406.1 356.83L405.93 356.72L405.77 356.61L405.61 356.49L405.45 356.37L405.29 356.25L405.14 356.12L404.99 355.99L404.84 355.86L404.7 355.72L404.55 355.58L404.42 355.44L404.28 355.29L404.15 355.14L404.02 354.99L403.9 354.84L403.78 354.68L403.66 354.52L403.55 354.36L403.44 354.19L403.33 354.02L403.23 353.85L403.14 353.68L403.04 353.51L386.72 322.12L386.2 322.69L385.68 323.26ZM181.44 352.85L197.06 352.85L201.92 341.99L189.64 333.53L177.14 342.14L181.44 352.85ZM442.94 352.85L458.56 352.85L462.86 342.14L450.36 333.53L438.08 341.99L442.94 352.85ZM401.16 297.51L401.04 297.83L400.93 298.16L400.81 298.48L400.7 298.81L400.58 299.13L400.46 299.45L400.33 299.78L400.21 300.1L400.08 300.42L399.96 300.74L399.83 301.06L399.7 301.38L399.57 301.7L399.43 302.01L399.3 302.33L399.16 302.65L399.02 302.96L398.88 303.28L398.74 303.59L398.6 303.9L398.46 304.22L398.31 304.53L398.17 304.84L414.74 336.71L436.53 321.7L412.04 299.38L411.79 299L411.56 298.63L411.33 298.26L411.12 297.9L410.92 297.55L410.73 297.2L410.56 296.86L410.39 296.53L410.24 296.21L410.1 295.89L409.97 295.58L409.85 295.28L409.74 294.98L409.65 294.69L409.56 294.41L409.49 294.14L409.43 293.87L409.38 293.61L409.35 293.35L409.32 293.11L409.31 292.87L409.31 292.64L409.32 292.41L409.34 292.2L401.27 297.18L401.16 297.51ZM492.1 293.24L492 293.47L491.91 293.7L491.81 293.92L491.72 294.13L491.62 294.34L491.52 294.54L491.43 294.74L491.33 294.93L491.23 295.11L491.13 295.29L491.03 295.46L490.94 295.62L490.84 295.78L490.74 295.93L490.64 296.08L490.54 296.22L490.43 296.35L490.33 296.48L490.23 296.6L490.13 296.72L490.03 296.83L489.92 296.93L464.32 321.8L485.98 336.71L504.81 300.49L492.28 292.76L492.19 293L492.1 293.24ZM230.72 292.84L230.73 293.16L230.73 293.48L230.71 293.81L230.68 294.13L230.64 294.45L230.59 294.77L230.52 295.09L230.44 295.4L230.34 295.71L230.24 296.02L230.12 296.33L229.99 296.63L229.84 296.93L229.68 297.23L229.51 297.52L229.33 297.8L229.14 298.08L228.93 298.35L228.7 298.62L228.47 298.88L228.22 299.14L227.96 299.38L203.47 321.7L225.26 336.71L240.89 306.66L240.67 306.23L240.45 305.79L240.24 305.35L240.03 304.91L239.82 304.47L239.61 304.02L239.41 303.58L239.22 303.13L239.02 302.68L238.83 302.23L238.64 301.78L238.46 301.33L238.27 300.87L238.09 300.42L237.92 299.96L237.75 299.5L237.58 299.04L237.41 298.58L237.25 298.12L237.08 297.65L236.93 297.19L236.77 296.72L236.62 296.25L236.47 295.78L230.67 292.2L230.7 292.52L230.72 292.84ZM154.03 336.71L175.69 321.8L150.08 296.93L149.93 296.78L149.78 296.62L149.64 296.47L149.5 296.31L149.37 296.15L149.24 295.98L149.11 295.82L148.99 295.65L148.88 295.48L148.77 295.31L148.67 295.14L148.56 294.96L148.47 294.79L148.38 294.61L148.29 294.43L148.21 294.25L148.13 294.06L148.06 293.88L147.99 293.69L147.93 293.51L147.87 293.32L147.81 293.13L147.76 292.94L147.72 292.75L135.19 300.49L154.03 336.71ZM287.74 193.69L287.25 194.63L286.73 195.57L286.19 196.53L285.64 197.49L285.06 198.46L284.46 199.44L283.83 200.42L283.19 201.41L282.52 202.4L281.82 203.39L281.11 204.38L280.37 205.37L279.6 206.36L278.81 207.34L278 208.32L277.16 209.29L276.3 210.26L275.4 211.21L274.49 212.16L273.55 213.1L272.58 214.02L271.58 214.94L270.56 215.83L269.51 216.72L268.43 217.58L267.32 218.43L266.18 219.25L265.02 220.06L263.83 220.85L262.6 221.61L261.35 222.35L260.07 223.06L258.76 223.74L257.41 224.4L256.04 225.03L254.63 225.63L253.2 226.19L251.73 226.73L251.73 275.36L251.73 275.36L251.78 277.67L251.93 279.95L252.18 282.2L252.52 284.43L252.95 286.63L253.47 288.8L254.09 290.94L254.79 293.04L255.57 295.11L256.44 297.14L257.39 299.13L258.42 301.08L259.53 302.98L260.71 304.84L261.97 306.65L263.3 308.41L264.69 310.13L266.16 311.79L267.69 313.39L269.28 314.94L270.94 316.43L272.66 317.86L274.43 319.24L276.26 320.54L278.15 321.78L280.08 322.96L282.07 324.07L284.11 325.1L286.19 326.06L288.31 326.95L290.48 327.77L292.69 328.5L294.94 329.16L297.22 329.73L299.54 330.22L301.9 330.63L304.28 330.95L306.69 331.18L309.13 331.31L311.59 331.36L326.57 331.36L329.04 331.31L331.48 331.18L333.89 330.95L336.27 330.63L338.62 330.22L340.94 329.73L343.23 329.16L345.47 328.5L347.68 327.77L349.85 326.95L351.98 326.06L354.06 325.1L356.1 324.07L358.08 322.96L360.02 321.78L361.9 320.54L363.74 319.24L365.51 317.87L367.23 316.43L368.88 314.94L370.48 313.39L372.01 311.79L373.47 310.13L374.87 308.41L376.2 306.65L377.45 304.84L378.64 302.98L379.74 301.08L380.77 299.13L381.72 297.14L382.59 295.11L383.38 293.04L384.08 290.94L384.69 288.8L385.22 286.63L385.65 284.43L385.99 282.2L386.24 279.95L386.39 277.67L386.44 275.36L386.44 228.57L384.91 228.46L383.28 228.33L381.56 228.18L379.76 228.01L377.86 227.81L375.89 227.58L373.84 227.33L371.72 227.04L369.52 226.72L367.26 226.37L364.94 225.99L362.56 225.56L360.13 225.1L357.65 224.6L355.12 224.06L352.55 223.47L349.95 222.84L347.31 222.16L344.64 221.43L341.94 220.65L339.22 219.82L336.49 218.93L333.74 217.99L330.98 216.99L328.21 215.94L325.44 214.82L322.68 213.64L319.92 212.39L317.16 211.09L314.43 209.71L311.71 208.26L309.01 206.75L306.33 205.16L303.69 203.49L301.08 201.75L298.51 199.94L295.97 198.04L293.49 196.07L291.05 194.01L288.66 191.86L288.21 192.77L287.74 193.69ZM473.04 270.14L472.49 270.25L471.95 270.34L471.41 270.44L470.86 270.53L470.32 270.62L469.77 270.7L469.22 270.78L468.67 270.86L468.12 270.93L467.57 271L467.01 271.07L466.46 271.13L465.9 271.19L465.34 271.24L464.78 271.29L464.22 271.34L463.66 271.38L463.1 271.42L462.54 271.46L461.97 271.49L461.4 271.51L460.84 271.53L460.27 271.55L459.7 271.57L459.13 271.58L458.56 271.58L457.99 271.59L443.77 271.59L443.31 271.59L442.86 271.58L442.4 271.57L441.94 271.57L441.49 271.55L441.03 271.54L440.58 271.52L440.12 271.5L439.67 271.48L439.22 271.46L438.76 271.43L438.31 271.4L437.85 271.37L437.4 271.33L436.95 271.3L436.49 271.26L436.04 271.21L435.59 271.17L435.14 271.12L434.69 271.07L434.24 271.02L433.79 270.97L433.34 270.91L432.89 270.85L432.44 270.79L431.99 270.72L431.54 270.65L431.09 270.58L430.65 270.51L430.55 270.65L430.46 270.79L430.36 270.94L430.27 271.08L430.17 271.22L430.07 271.36L429.97 271.5L429.88 271.64L429.78 271.78L429.68 271.91L429.57 272.05L429.47 272.19L429.37 272.33L429.27 272.46L429.16 272.6L429.06 272.73L428.95 272.87L428.85 273L428.74 273.14L428.64 273.27L428.53 273.4L428.42 273.53L428.31 273.67L428.2 273.8L428.09 273.93L427.98 274.06L427.87 274.19L427.75 274.32L427.64 274.44L427.64 289.3L427.64 289.31L427.64 289.32L427.64 289.34L427.64 289.36L427.64 289.38L427.64 289.4L427.64 289.42L427.63 289.49L427.63 289.52L427.63 289.54L427.63 289.56L427.63 289.58L427.63 289.59L450.5 310.43L474.11 287.5L474.11 269.93L473.58 270.04L473.04 270.14ZM189.5 310.43L212.38 289.58L212.38 289.56L212.37 289.54L212.37 289.52L212.37 289.51L212.37 289.49L212.37 289.44L212.36 289.41L212.36 289.39L212.36 289.38L212.36 289.37L212.36 289.36L212.36 289.35L212.36 289.33L212.36 289.32L212.36 289.31L212.36 289.3L212.36 276.35L212.17 276.17L211.99 275.98L211.8 275.79L211.62 275.61L211.44 275.42L211.26 275.23L211.08 275.03L210.9 274.84L210.72 274.65L210.55 274.45L210.38 274.26L210.21 274.06L210.04 273.86L209.87 273.66L209.7 273.46L209.54 273.26L209.37 273.05L209.21 272.85L209.05 272.64L208.89 272.43L208.74 272.23L208.58 272.02L208.43 271.81L208.27 271.6L208.12 271.38L207.98 271.17L207.83 270.95L207.68 270.74L207.28 270.8L206.87 270.85L206.47 270.9L206.06 270.96L205.65 271.01L205.25 271.05L204.84 271.1L204.43 271.14L204.02 271.19L203.62 271.23L203.21 271.26L202.8 271.3L202.39 271.33L201.98 271.37L201.57 271.39L201.16 271.42L200.75 271.45L200.34 271.47L199.93 271.49L199.52 271.51L199.11 271.53L198.7 271.54L198.29 271.56L197.88 271.57L197.47 271.57L197.06 271.58L196.64 271.58L196.23 271.58L182.02 271.58L181.42 271.58L180.83 271.58L180.24 271.56L179.65 271.55L179.06 271.53L178.48 271.51L177.89 271.48L177.31 271.44L176.72 271.41L176.14 271.37L175.56 271.32L174.98 271.27L174.4 271.22L173.82 271.16L173.25 271.1L172.67 271.03L172.1 270.96L171.53 270.89L170.96 270.81L170.39 270.73L169.82 270.64L169.26 270.55L168.69 270.46L168.13 270.36L167.57 270.26L167 270.15L166.45 270.04L165.89 269.93L165.89 287.5L189.5 310.43ZM230.5 237.38L229.16 238.08L227.9 238.88L226.72 239.78L225.62 240.76L224.61 241.83L223.7 242.97L222.89 244.18L222.18 245.46L221.6 246.79L221.13 248.18L220.79 249.62L220.58 251.1L220.5 252.62L220.53 253.48L220.6 254.33L220.71 255.17L220.87 255.99L221.06 256.8L221.3 257.6L221.58 258.38L221.9 259.14L222.26 259.89L222.65 260.61L223.07 261.32L223.53 262.01L224.03 262.67L224.55 263.31L225.11 263.92L225.45 264.07L225.78 264.22L226.1 264.38L226.42 264.56L226.72 264.75L227.02 264.95L227.31 265.16L227.59 265.38L227.86 265.61L228.12 265.85L228.37 266.1L228.61 266.36L228.84 266.63L229.06 266.9L229.26 267.19L229.52 267.33L229.78 267.47L230.04 267.61L230.3 267.74L230.57 267.87L230.84 268L231.11 268.12L231.38 268.24L231.65 268.36L231.93 268.47L232.21 268.57L232.49 268.67L232.78 268.77L233.07 268.86L233.35 268.95L233.35 236.29L231.9 236.78L230.5 237.38ZM406.28 268.46L407.68 267.86L409.01 267.15L410.27 266.35L411.45 265.45L412.55 264.47L413.56 263.4L414.48 262.26L415.29 261.05L415.99 259.77L416.58 258.44L417.05 257.05L417.39 255.61L417.6 254.13L417.67 252.62L417.6 251.1L417.39 249.62L417.05 248.18L416.58 246.79L415.99 245.46L415.29 244.18L414.48 242.97L413.56 241.83L412.55 240.76L411.45 239.78L410.27 238.88L409.01 238.08L407.68 237.37L406.28 236.77L404.82 236.28L404.82 268.95L406.28 268.46ZM159.51 124.91L159.04 125.78L158.55 126.67L158.04 127.57L157.5 128.48L156.95 129.39L156.38 130.3L155.79 131.22L155.17 132.15L154.54 133.07L153.88 134L153.2 134.93L152.5 135.85L151.78 136.77L151.03 137.69L150.26 138.61L149.47 139.52L148.66 140.42L147.82 141.31L146.96 142.2L146.07 143.07L145.16 143.93L144.23 144.78L143.26 145.62L142.28 146.45L141.27 147.25L140.23 148.04L139.17 148.82L138.08 149.57L136.96 150.31L135.82 151.02L134.65 151.71L133.45 152.38L132.22 153.02L130.97 153.64L129.69 154.23L128.38 154.8L127.04 155.33L125.67 155.84L125.67 201.68L125.67 201.68L126.94 204.29L128.21 206.82L129.5 209.29L130.78 211.7L132.08 214.04L133.38 216.31L134.7 218.52L136.01 220.66L137.34 222.73L138.67 224.74L140.01 226.69L141.36 228.56L142.71 230.38L144.07 232.12L145.44 233.8L146.82 235.42L148.2 236.96L149.59 238.45L150.99 239.86L152.4 241.21L153.81 242.5L155.23 243.72L156.65 244.87L158.09 245.96L159.53 246.98L160.98 247.93L162.43 248.82L163.9 249.65L165.37 250.41L166.84 251.1L168.33 251.72L169.82 252.28L171.32 252.78L172.83 253.21L174.34 253.57L175.86 253.86L177.39 254.09L178.92 254.26L180.47 254.36L182.02 254.39L196.23 254.39L196.38 254.39L196.53 254.39L196.68 254.39L196.83 254.39L196.98 254.39L197.13 254.38L197.27 254.38L197.42 254.38L197.57 254.37L197.72 254.37L197.87 254.37L198.02 254.36L198.17 254.36L198.32 254.35L198.46 254.35L198.61 254.34L198.76 254.33L198.91 254.33L199.06 254.32L199.21 254.31L199.35 254.3L199.5 254.29L199.65 254.29L199.8 254.28L199.95 254.27L200.1 254.26L200.24 254.25L200.39 254.24L200.54 254.23L200.69 254.22L200.84 254.2L200.98 254.19L201.13 254.18L201.28 254.17L201.43 254.16L201.57 254.14L201.72 254.13L201.87 254.12L202.02 254.1L202.16 254.09L202.16 254.05L202.16 254.01L202.16 253.98L202.16 253.9L202.16 253.87L202.15 253.83L202.15 253.79L202.15 253.76L202.15 253.72L202.15 253.68L202.15 253.65L202.15 253.61L202.14 253.57L202.14 253.54L202.14 253.5L202.14 253.46L202.14 253.43L202.14 253.39L202.14 253.35L202.14 253.32L202.14 253.28L202.13 253.24L202.13 253.21L202.13 253.17L202.13 253.13L202.13 253.09L202.13 253.06L202.13 253.02L202.13 252.98L202.13 252.95L202.13 252.91L202.13 252.87L202.13 252.84L202.13 252.8L202.13 252.76L202.13 252.73L202.13 252.69L202.13 252.65L202.13 252.61L202.13 251.94L202.15 251.27L202.19 250.61L202.24 249.95L202.3 249.29L202.37 248.63L202.46 247.98L202.56 247.33L202.67 246.69L202.8 246.05L202.94 245.42L203.09 244.78L203.26 244.16L203.43 243.54L203.62 242.92L203.82 242.31L204.03 241.7L204.26 241.1L204.49 240.5L204.74 239.91L205 239.32L205.27 238.74L205.55 238.16L205.84 237.59L206.14 237.03L206.45 236.47L206.78 235.91L207.11 235.37L207.46 234.83L207.81 234.3L208.18 233.77L208.55 233.25L208.94 232.73L209.33 232.23L209.73 231.73L210.15 231.24L210.57 230.75L211 230.27L211.44 229.8L211.89 229.34L211.89 195.83L211.9 194.69L211.92 193.55L211.96 192.41L212.01 191.27L212.07 190.14L212.15 189.01L212.24 187.88L212.35 186.76L212.46 185.64L212.6 184.53L212.74 183.42L212.9 182.31L213.08 181.21L213.26 180.11L213.46 179.02L213.67 177.93L213.9 176.84L214.14 175.76L214.39 174.68L214.65 173.61L214.93 172.54L215.22 171.47L215.52 170.42L215.84 169.36L216.17 168.31L216.51 167.27L216.86 166.23L217.22 165.19L217.6 164.16L217.98 163.14L218.38 162.12L218.8 161.11L219.22 160.1L219.65 159.1L220.1 158.1L220.56 157.11L221.03 156.12L221.51 155.14L222 154.17L222.5 153.2L220.99 152.85L219.46 152.48L217.91 152.1L216.36 151.7L214.8 151.29L213.23 150.85L211.65 150.4L210.06 149.93L208.47 149.44L206.87 148.94L205.27 148.41L203.66 147.87L202.05 147.3L200.44 146.71L198.82 146.11L197.21 145.48L195.59 144.83L193.98 144.16L192.37 143.47L190.76 142.75L189.15 142.02L187.55 141.25L185.95 140.47L184.36 139.66L182.78 138.83L181.2 137.97L179.64 137.09L178.08 136.18L176.53 135.25L174.99 134.29L173.47 133.3L171.95 132.29L170.45 131.25L168.97 130.18L167.5 129.09L166.05 127.96L164.61 126.81L163.19 125.63L161.79 124.42L160.4 123.18L159.97 124.04L159.51 124.91ZM426.44 126.11L426.18 126.61L425.91 127.11L425.63 127.61L425.35 128.11L425.06 128.62L424.76 129.13L424.46 129.64L424.15 130.15L423.83 130.67L423.51 131.19L423.18 131.7L422.84 132.22L422.5 132.75L422.15 133.27L421.79 133.79L421.43 134.31L421.06 134.84L420.68 135.36L420.29 135.88L419.9 136.4L419.49 136.93L419.09 137.45L418.67 137.97L418.25 138.49L417.82 139L417.38 139.52L416.93 140.03L416.48 140.54L416.01 141.05L415.54 141.56L415.07 142.06L414.58 142.56L414.09 143.06L413.58 143.55L413.07 144.04L412.56 144.53L412.03 145.01L411.5 145.49L412.21 146.59L412.9 147.71L413.59 148.83L414.25 149.96L414.9 151.11L415.54 152.26L416.15 153.42L416.76 154.59L417.34 155.77L417.91 156.95L418.46 158.15L419 159.35L419.52 160.56L420.02 161.78L420.5 163.01L420.97 164.24L421.42 165.48L421.85 166.73L422.27 167.99L422.66 169.25L423.04 170.52L423.4 171.8L423.75 173.09L424.07 174.38L424.38 175.67L424.66 176.98L424.93 178.29L425.18 179.6L425.41 180.93L425.62 182.26L425.81 183.59L425.98 184.93L426.13 186.27L426.27 187.62L426.38 188.98L426.47 190.34L426.54 191.71L426.59 193.08L426.62 194.45L426.63 195.83L426.63 229.7L427.07 230.16L427.49 230.62L427.91 231.1L428.32 231.58L428.72 232.07L429.11 232.56L429.49 233.06L429.86 233.57L430.22 234.09L430.57 234.61L430.91 235.13L431.25 235.67L431.57 236.2L431.88 236.75L432.18 237.3L432.47 237.86L432.75 238.42L433.03 238.98L433.28 239.56L433.53 240.13L433.77 240.72L434 241.31L434.21 241.9L434.42 242.5L434.61 243.1L434.79 243.7L434.96 244.32L435.12 244.93L435.26 245.55L435.4 246.17L435.52 246.8L435.63 247.43L435.73 248.07L435.81 248.71L435.88 249.35L435.94 250L435.99 250.65L436.02 251.3L436.04 251.95L436.05 252.61L436.05 252.65L436.05 252.68L436.05 252.71L436.05 252.74L436.05 252.77L436.05 252.8L436.05 252.84L436.05 252.87L436.04 252.9L436.04 252.93L436.04 252.96L436.04 252.99L436.04 253.02L436.04 253.06L436.04 253.09L436.04 253.12L436.04 253.15L436.04 253.18L436.04 253.21L436.04 253.25L436.03 253.28L436.03 253.31L436.03 253.37L436.03 253.4L436.03 253.47L436.03 253.53L436.02 253.59L436.02 253.65L436.02 253.81L436.01 253.87L436.21 253.9L436.4 253.92L436.59 253.95L436.78 253.97L436.98 253.99L437.17 254.01L437.36 254.03L437.55 254.05L437.75 254.07L437.94 254.09L438.13 254.11L438.33 254.13L438.52 254.15L438.71 254.17L438.91 254.18L439.1 254.2L439.3 254.21L439.49 254.23L439.68 254.24L439.88 254.26L440.07 254.27L440.27 254.28L440.46 254.29L440.65 254.3L440.85 254.31L441.04 254.32L441.24 254.33L441.43 254.34L441.63 254.35L441.82 254.36L442.01 254.36L442.21 254.37L442.4 254.37L442.6 254.38L442.79 254.38L442.99 254.38L443.18 254.39L443.38 254.39L443.57 254.39L443.77 254.39L457.99 254.39L460.31 254.35L462.6 254.22L464.87 254L467.11 253.7L469.33 253.32L471.51 252.86L473.66 252.32L475.78 251.7L477.86 251.01L479.9 250.24L481.9 249.41L483.86 248.5L485.77 247.52L487.64 246.48L489.47 245.38L491.24 244.21L492.96 242.98L494.63 241.69L496.25 240.34L497.81 238.94L499.31 237.48L500.75 235.97L502.13 234.4L503.44 232.79L504.69 231.13L505.88 229.43L506.99 227.68L508.03 225.89L509 224.05L509.9 222.18L510.71 220.27L511.45 218.33L512.11 216.35L512.69 214.33L513.18 212.29L513.59 210.22L513.91 208.12L514.14 206L514.28 203.85L514.33 201.68L514.33 157.7L512.93 157.59L511.45 157.47L509.89 157.33L508.25 157.16L506.54 156.98L504.76 156.77L502.92 156.53L501.01 156.27L499.04 155.98L497.02 155.66L494.95 155.31L492.82 154.92L490.65 154.5L488.44 154.05L486.18 153.56L483.9 153.03L481.57 152.46L479.22 151.86L476.85 151.2L474.45 150.51L472.03 149.77L469.6 148.98L467.15 148.14L464.7 147.26L462.24 146.32L459.78 145.33L457.32 144.28L454.86 143.18L452.41 142.03L449.97 140.81L447.55 139.54L445.14 138.2L442.76 136.8L440.4 135.34L438.07 133.81L435.77 132.22L433.5 130.55L431.28 128.82L429.09 127.01L426.95 125.14L426.7 125.62L426.44 126.11ZM315.34 116.26L311.84 116.33L308.37 116.52L304.94 116.85L301.56 117.3L298.22 117.88L294.92 118.58L291.67 119.39L288.48 120.32L285.34 121.37L282.26 122.52L279.24 123.79L276.28 125.15L273.39 126.63L270.56 128.2L267.81 129.87L265.13 131.63L262.53 133.49L260.01 135.44L257.57 137.47L255.21 139.59L252.95 141.79L250.77 144.08L248.69 146.44L246.71 148.87L244.82 151.37L243.03 153.95L241.35 156.59L239.78 159.3L238.32 162.06L236.97 164.89L235.73 167.77L234.61 170.71L233.62 173.7L232.75 176.73L232 179.82L231.39 182.94L230.9 186.11L230.55 189.32L230.34 192.56L230.27 195.84L230.27 219.26L230.35 219.25L230.43 219.23L230.51 219.21L230.59 219.19L230.67 219.18L230.75 219.16L230.83 219.14L230.91 219.13L231 219.11L231.08 219.09L231.16 219.08L231.24 219.06L231.32 219.04L231.4 219.03L231.48 219.01L231.56 219L231.64 218.98L231.72 218.97L231.81 218.95L231.89 218.94L231.97 218.92L232.05 218.91L232.13 218.89L232.21 218.88L232.3 218.87L232.38 218.85L232.46 218.84L232.54 218.82L232.62 218.81L232.71 218.8L232.79 218.79L232.87 218.77L232.95 218.76L233.03 218.75L233.12 218.74L233.2 218.72L233.28 218.71L233.36 218.7L233.45 218.69L233.53 218.68L233.53 218.66L233.54 218.64L233.54 218.62L233.55 218.59L233.55 218.59L233.56 218.56L233.56 218.54L233.57 218.52L233.59 218.44L233.6 218.4L233.6 218.38L233.61 218.35L233.62 218.33L233.63 218.29L233.63 218.28L233.63 218.27L233.64 218.24L233.65 218.21L233.65 218.18L233.66 218.17L233.67 218.14L233.67 218.12L233.68 218.1L233.69 218.06L233.7 218.03L233.71 218L233.71 217.98L233.72 217.96L233.73 217.92L233.73 217.9L233.74 217.88L233.75 217.86L233.75 217.84L233.76 217.83L233.77 217.81L233.77 217.79L233.78 217.77L233.79 217.74L233.8 217.72L233.81 217.68L233.81 217.67L233.83 217.63L233.85 217.58L233.87 217.52L233.88 217.5L233.89 217.47L233.92 217.4L233.93 217.36L233.94 217.35L233.95 217.31L233.96 217.29L233.97 217.26L233.98 217.23L233.99 217.2L234 217.18L234.02 217.15L234.02 217.14L234.03 217.12L234.04 217.1L234.05 217.07L234.06 217.05L234.06 217.04L234.07 217.03L234.08 217.01L234.09 216.99L234.1 216.97L234.11 216.93L234.12 216.91L234.13 216.89L234.14 216.88L234.15 216.85L234.16 216.83L234.18 216.8L234.19 216.79L234.2 216.75L234.22 216.72L234.22 216.71L234.25 216.66L234.26 216.63L234.28 216.61L234.28 216.6L234.3 216.57L234.3 216.55L234.32 216.53L234.32 216.51L234.33 216.5L234.34 216.48L234.35 216.45L234.36 216.45L234.36 216.44L234.37 216.42L234.39 216.4L234.4 216.37L234.41 216.35L234.43 216.33L234.44 216.31L234.45 216.28L234.47 216.26L234.47 216.25L234.48 216.24L234.5 216.21L234.51 216.19L234.52 216.17L234.54 216.13L234.56 216.1L234.56 216.09L234.58 216.06L234.6 216.03L234.62 216.01L234.64 215.97L234.69 215.9L234.71 215.86L234.73 215.83L234.74 215.81L234.75 215.8L234.75 215.8L234.77 215.77L234.78 215.76L234.8 215.73L234.8 215.72L234.82 215.7L234.83 215.69L234.85 215.65L234.86 215.63L234.87 215.63L234.88 215.62L234.9 215.59L234.91 215.57L234.93 215.54L234.94 215.54L234.94 215.53L234.96 215.5L234.98 215.48L234.99 215.46L235.01 215.44L235.04 215.4L235.07 215.36L235.1 215.31L235.13 215.28L235.15 215.26L235.19 215.21L235.19 215.2L235.22 215.17L235.24 215.14L235.26 215.12L235.28 215.09L235.29 215.08L235.3 215.06L235.32 215.05L235.33 215.03L235.34 215.01L235.36 215L235.36 214.99L235.38 214.98L235.4 214.95L235.42 214.93L235.44 214.91L235.46 214.88L235.48 214.86L235.5 214.84L235.51 214.82L235.53 214.8L235.56 214.77L235.57 214.76L235.59 214.73L235.61 214.71L235.64 214.69L235.68 214.65L235.69 214.63L235.71 214.61L235.72 214.6L235.74 214.58L235.75 214.56L235.77 214.55L235.79 214.53L235.8 214.51L235.82 214.5L235.83 214.48L235.85 214.47L235.87 214.45L235.88 214.43L235.91 214.41L235.92 214.39L235.94 214.38L235.95 214.37L235.96 214.35L235.98 214.34L236 214.32L236.02 214.3L236.03 214.29L236.04 214.28L236.04 214.28L236.05 214.27L236.06 214.27L236.06 214.26L236.07 214.25L236.08 214.25L236.09 214.24L236.1 214.23L236.11 214.22L236.13 214.2L236.13 214.2L236.2 214.14L236.23 214.11L236.3 214.05L236.32 214.03L236.35 214L236.38 213.98L236.41 213.96L236.44 213.93L236.46 213.92L236.47 213.9L236.49 213.88L236.51 213.87L236.53 213.85L236.55 213.84L236.56 213.83L236.57 213.82L236.58 213.81L236.59 213.81L236.6 213.8L236.62 213.78L236.63 213.77L236.65 213.76L236.67 213.74L236.7 213.72L236.74 213.69L236.77 213.66L236.82 213.63L236.87 213.6L236.89 213.58L236.9 213.57L236.93 213.55L236.95 213.54L236.98 213.51L237.01 213.49L237.03 213.48L237.05 213.46L237.07 213.45L237.09 213.43L237.12 213.41L237.14 213.4L237.16 213.38L237.18 213.37L237.2 213.36L237.21 213.35L237.22 213.34L237.25 213.33L237.27 213.31L237.28 213.31L237.29 213.3L237.3 213.29L237.31 213.29L237.32 213.28L237.32 213.28L237.33 213.27L237.35 213.26L237.37 213.25L237.39 213.24L237.41 213.22L237.41 213.22L237.44 213.2L237.46 213.19L237.49 213.17L237.51 213.16L237.54 213.15L237.58 213.12L237.6 213.11L237.63 213.09L237.64 213.09L237.66 213.07L237.69 213.06L237.72 213.04L237.75 213.02L237.78 213L237.79 213L237.8 212.99L237.81 212.98L237.85 212.97L237.87 212.95L237.89 212.94L237.91 212.93L237.94 212.91L237.95 212.91L237.96 212.9L237.99 212.88L238.01 212.87L238.04 212.86L238.06 212.85L238.08 212.83L238.1 212.82L238.12 212.81L238.13 212.81L238.14 212.8L238.16 212.79L238.18 212.78L238.21 212.77L238.24 212.76L238.25 212.75L238.28 212.74L238.31 212.73L238.33 212.72L238.38 212.69L238.44 212.66L238.47 212.65L238.49 212.64L238.57 212.61L238.6 212.59L238.62 212.58L238.63 212.57L238.67 212.56L238.69 212.55L238.71 212.54L238.74 212.53L238.75 212.52L238.75 212.52L238.78 212.51L238.8 212.5L238.82 212.49L238.83 212.49L238.85 212.48L238.87 212.47L238.88 212.47L238.9 212.46L238.92 212.45L238.94 212.44L238.95 212.44L238.98 212.43L238.99 212.42L239.01 212.42L239.03 212.41L239.04 212.4L239.06 212.4L239.08 212.39L239.11 212.38L239.12 212.38L239.16 212.36L239.2 212.35L239.22 212.34L239.24 212.33L239.29 212.32L239.35 212.29L239.41 212.27L239.44 212.26L239.48 212.25L239.5 212.24L239.51 212.24L239.54 212.23L239.56 212.22L239.58 212.21L239.61 212.2L239.62 212.2L239.64 212.19L239.66 212.19L239.68 212.18L239.71 212.17L239.74 212.16L239.75 212.16L239.76 212.16L239.78 212.15L239.81 212.14L239.84 212.14L239.85 212.13L239.88 212.12L239.91 212.12L239.93 212.11L239.96 212.1L239.97 212.1L239.99 212.1L240.02 212.09L240.03 212.08L240.05 212.08L240.08 212.07L240.11 212.07L240.12 212.06L240.15 212.06L240.2 212.04L240.23 212.04L240.28 212.02L240.29 212.02L240.32 212.01L240.34 212.01L240.4 211.99L240.42 211.99L240.43 211.98L240.45 211.98L240.46 211.97L240.47 211.97L240.49 211.97L240.5 211.97L242.52 211.48L244.47 210.9L246.35 210.23L248.17 209.47L249.91 208.64L251.59 207.73L253.21 206.76L254.76 205.72L256.24 204.63L257.67 203.49L259.03 202.3L260.33 201.07L261.57 199.81L262.76 198.52L263.89 197.21L264.96 195.88L265.97 194.54L266.94 193.19L267.84 191.85L268.7 190.5L269.5 189.17L270.26 187.85L270.96 186.56L271.62 185.29L272.23 184.05L272.8 182.85L273.31 181.7L273.79 180.59L274.22 179.54L274.61 178.55L274.96 177.63L275.26 176.78L275.53 176L275.76 175.31L275.95 174.7L276.11 174.19L276.23 173.78L276.32 173.47L276.37 173.27L276.39 173.19L276.46 172.94L276.53 172.7L276.6 172.46L276.69 172.22L276.78 171.99L276.88 171.76L276.99 171.53L277.1 171.31L277.22 171.09L277.34 170.87L277.48 170.66L277.61 170.45L277.76 170.25L277.91 170.05L278.06 169.85L278.22 169.66L278.39 169.47L278.56 169.29L278.74 169.12L278.93 168.94L279.11 168.78L279.31 168.61L279.51 168.45L279.71 168.3L279.92 168.16L280.13 168.01L280.35 167.88L280.57 167.75L280.79 167.62L281.02 167.5L281.25 167.39L281.49 167.29L281.73 167.18L281.98 167.09L282.22 167L282.48 166.92L282.73 166.85L282.99 166.78L283.25 166.72L283.51 166.66L283.78 166.62L284.04 166.58L284.31 166.54L284.58 166.52L284.84 166.5L285.11 166.49L285.37 166.49L285.63 166.49L285.9 166.5L286.16 166.52L286.42 166.55L286.68 166.58L286.94 166.62L287.19 166.66L287.45 166.71L287.7 166.77L287.95 166.84L288.2 166.91L288.45 166.99L288.69 167.07L288.93 167.17L289.17 167.26L289.4 167.37L289.64 167.48L289.87 167.59L290.09 167.72L290.31 167.85L290.53 167.98L290.74 168.12L290.95 168.27L291.16 168.42L291.36 168.58L291.56 168.74L291.75 168.91L291.94 169.09L292.12 169.27L292.3 169.46L292.47 169.65L292.64 169.84L292.8 170.05L295.26 173.07L297.86 175.94L300.58 178.67L303.41 181.25L306.34 183.7L309.37 186.01L312.47 188.19L315.65 190.24L318.89 192.18L322.19 193.99L325.52 195.69L328.89 197.27L332.27 198.75L335.68 200.12L339.08 201.39L342.47 202.57L345.85 203.65L349.2 204.65L352.51 205.56L355.77 206.39L358.98 207.14L362.11 207.82L365.17 208.43L368.15 208.97L371.02 209.45L373.78 209.87L376.43 210.23L378.95 210.55L381.33 210.82L383.57 211.04L385.65 211.23L387.55 211.38L389.28 211.5L390.83 211.59L392.17 211.65L393.31 211.7L394.23 211.73L394.92 211.74L395.38 211.75L395.58 211.75L395.63 211.75L395.65 211.75L395.67 211.75L395.7 211.75L395.72 211.75L395.75 211.75L395.77 211.75L395.79 211.75L395.82 211.75L395.84 211.75L395.86 211.75L395.89 211.76L395.91 211.76L395.93 211.76L395.96 211.76L395.98 211.76L396 211.76L396.03 211.76L396.05 211.76L396.08 211.76L396.1 211.76L396.12 211.76L396.15 211.77L396.17 211.77L396.19 211.77L396.22 211.77L396.24 211.77L396.26 211.77L396.29 211.77L396.31 211.78L396.33 211.78L396.36 211.78L396.38 211.78L396.4 211.78L396.43 211.78L396.45 211.79L396.47 211.79L396.5 211.79L396.52 211.79L396.54 211.79L396.58 211.8L396.58 211.8L396.6 211.8L396.61 211.8L396.62 211.8L396.63 211.8L396.65 211.81L396.68 211.81L396.71 211.82L396.73 211.82L396.75 211.82L396.77 211.82L396.78 211.83L396.83 211.83L396.87 211.84L396.9 211.84L396.94 211.85L396.97 211.85L396.99 211.85L397.02 211.86L397.04 211.86L397.08 211.86L397.09 211.87L397.13 211.87L397.16 211.88L397.18 211.88L397.2 211.88L397.22 211.88L397.25 211.89L397.27 211.89L397.29 211.89L397.3 211.9L397.32 211.9L397.36 211.9L397.37 211.91L397.39 211.91L397.41 211.91L397.42 211.92L397.44 211.92L397.46 211.92L397.48 211.93L397.49 211.93L397.5 211.93L397.52 211.94L397.54 211.94L397.55 211.94L397.58 211.95L397.61 211.96L397.65 211.97L397.67 211.97L397.7 211.98L397.71 211.98L397.73 211.99L397.79 212L397.82 212.01L397.87 212.02L397.92 212.03L397.95 212.04L397.98 212.04L398 212.05L398.01 212.05L398.04 212.06L398.06 212.06L398.09 212.07L398.12 212.08L398.14 212.08L398.17 212.09L398.2 212.1L398.23 212.1L398.26 212.11L398.29 212.12L398.32 212.13L398.34 212.13L398.36 212.14L398.36 212.14L398.38 212.14L398.4 212.15L398.41 212.15L398.44 212.16L398.44 212.17L398.47 212.17L398.49 212.18L398.51 212.19L398.58 212.21L398.6 212.22L398.62 212.23L398.64 212.23L398.66 212.24L398.68 212.25L398.69 212.25L398.7 212.25L398.76 212.27L398.85 212.3L398.87 212.31L398.91 212.32L398.94 212.33L398.95 212.34L398.96 212.34L398.99 212.35L399.02 212.36L399.04 212.37L399.06 212.37L399.07 212.38L399.09 212.39L399.11 212.39L399.13 212.4L399.15 212.4L399.17 212.41L399.2 212.42L399.21 212.43L399.22 212.43L399.24 212.44L399.26 212.45L399.27 212.45L399.29 212.46L399.31 212.47L399.32 212.47L399.33 212.48L399.36 212.49L399.38 212.5L399.41 212.52L399.43 212.52L399.44 212.53L399.48 212.55L399.52 212.57L399.56 212.59L399.57 212.59L399.58 212.6L399.59 212.6L399.6 212.61L399.63 212.62L399.66 212.63L399.72 212.66L399.75 212.67L399.76 212.67L399.8 212.69L399.83 212.7L399.86 212.72L399.87 212.72L399.89 212.73L399.91 212.74L399.92 212.75L399.93 212.75L399.95 212.76L399.96 212.76L399.97 212.77L399.99 212.78L400 212.78L400.01 212.79L400.02 212.79L400.03 212.8L400.05 212.81L400.07 212.82L400.08 212.83L400.09 212.83L400.1 212.84L400.13 212.85L400.15 212.87L400.17 212.88L400.2 212.89L400.22 212.91L400.23 212.92L400.3 212.96L400.31 212.96L400.32 212.97L400.33 212.97L400.34 212.98L400.35 212.98L400.37 213L400.4 213.01L400.42 213.02L400.44 213.04L400.45 213.04L400.48 213.06L400.5 213.07L400.55 213.09L400.57 213.11L400.59 213.12L400.61 213.13L400.64 213.14L400.65 213.15L400.66 213.15L400.67 213.17L400.69 213.18L400.7 213.18L400.71 213.19L400.72 213.19L400.74 213.2L400.74 213.21L400.75 213.21L400.77 213.23L400.79 213.24L400.81 213.25L400.82 213.26L400.83 213.26L400.84 213.27L400.85 213.28L400.87 213.29L400.89 213.3L400.9 213.32L400.92 213.33L400.94 213.34L400.96 213.35L400.99 213.37L401.06 213.43L401.08 213.44L401.11 213.46L401.13 213.47L401.14 213.49L401.16 213.5L401.18 213.51L401.21 213.53L401.26 213.57L401.29 213.58L401.31 213.6L401.33 213.61L401.34 213.62L401.35 213.62L401.35 213.63L401.36 213.63L401.37 213.64L401.38 213.65L401.39 213.65L401.39 213.66L401.4 213.66L401.41 213.67L401.42 213.68L401.43 213.68L401.44 213.69L401.46 213.71L401.47 213.71L401.48 213.72L401.49 213.73L401.49 213.73L401.5 213.74L401.51 213.75L401.53 213.76L401.55 213.78L401.56 213.79L401.59 213.81L401.61 213.83L401.64 213.86L401.66 213.88L401.69 213.9L401.71 213.92L401.73 213.94L401.75 213.95L401.76 213.96L401.78 213.98L401.8 213.99L401.81 214.01L401.83 214.02L401.85 214.03L401.87 214.05L401.89 214.07L401.93 214.1L401.96 214.12L401.97 214.14L401.99 214.15L402.01 214.16L402.02 214.18L402.04 214.19L402.05 214.2L402.07 214.22L402.08 214.23L402.09 214.24L402.1 214.25L402.11 214.25L402.11 214.26L402.13 214.27L402.14 214.29L402.16 214.3L402.17 214.31L402.17 214.32L402.18 214.33L402.19 214.33L402.2 214.34L402.2 214.35L402.23 214.37L402.25 214.39L402.26 214.41L402.28 214.43L402.29 214.44L402.31 214.46L402.34 214.49L402.35 214.5L402.37 214.53L402.4 214.55L402.41 214.56L402.43 214.59L402.46 214.61L402.49 214.64L402.52 214.67L402.55 214.7L402.57 214.72L402.59 214.74L402.61 214.76L402.62 214.78L402.63 214.78L402.63 214.79L402.64 214.8L402.65 214.81L402.66 214.81L402.66 214.82L402.67 214.83L402.68 214.84L402.69 214.84L402.69 214.85L402.7 214.86L402.71 214.88L402.73 214.89L402.74 214.91L402.75 214.92L402.76 214.93L402.77 214.94L402.77 214.95L402.78 214.96L402.8 214.98L402.81 215L402.83 215.01L402.85 215.04L402.91 215.12L402.92 215.13L402.92 215.14L402.93 215.14L402.93 215.15L402.95 215.17L402.96 215.18L402.98 215.21L402.99 215.22L402.99 215.23L403.01 215.24L403.04 215.28L403.08 215.33L403.1 215.35L403.1 215.36L403.11 215.37L403.12 215.38L403.12 215.38L403.14 215.41L403.16 215.43L403.17 215.44L403.18 215.46L403.19 215.47L403.2 215.48L403.2 215.49L403.21 215.49L403.22 215.5L403.23 215.52L403.24 215.54L403.25 215.55L403.27 215.57L403.27 215.58L403.28 215.59L403.29 215.6L403.3 215.62L403.32 215.65L403.32 215.65L403.33 215.66L403.35 215.7L403.37 215.73L403.4 215.77L403.41 215.79L403.43 215.82L403.44 215.84L403.45 215.86L403.47 215.89L403.48 215.91L403.49 215.91L403.5 215.92L403.5 215.93L403.51 215.94L403.51 215.95L403.52 215.96L403.56 216.02L403.58 216.05L403.59 216.07L403.6 216.09L403.62 216.11L403.63 216.12L403.63 216.13L403.65 216.15L403.66 216.17L403.67 216.19L403.67 216.2L403.69 216.22L403.7 216.24L403.7 216.24L403.71 216.25L403.72 216.27L403.73 216.29L403.74 216.31L403.75 216.32L403.76 216.34L403.76 216.35L403.77 216.38L403.78 216.4L403.8 216.42L403.82 216.46L403.85 216.53L403.86 216.55L403.88 216.58L403.89 216.61L403.9 216.62L403.91 216.65L403.93 216.68L403.94 216.7L403.95 216.71L403.97 216.76L403.98 216.77L404 216.81L404.01 216.83L404.02 216.86L404.03 216.87L404.04 216.89L404.05 216.91L404.05 216.92L404.06 216.94L404.07 216.95L404.08 216.96L404.08 216.97L404.08 216.98L404.09 217L404.1 217.02L404.11 217.03L404.11 217.05L404.12 217.06L404.12 217.07L404.13 217.09L404.13 217.1L404.14 217.11L404.14 217.13L404.15 217.16L404.16 217.16L404.16 217.17L404.18 217.21L404.2 217.27L404.21 217.3L404.22 217.32L404.22 217.34L404.23 217.36L404.25 217.4L404.26 217.43L404.27 217.46L404.3 217.53L404.31 217.56L404.33 217.59L404.33 217.6L404.33 217.61L404.34 217.63L404.35 217.66L404.36 217.68L404.37 217.7L404.38 217.72L404.38 217.73L404.39 217.75L404.39 217.76L404.4 217.78L404.4 217.79L404.41 217.81L404.41 217.83L404.42 217.84L404.42 217.86L404.43 217.87L404.43 217.89L404.43 217.9L404.44 217.92L404.45 217.95L404.46 217.98L404.46 218.01L404.48 218.08L404.49 218.11L404.5 218.13L404.5 218.16L404.51 218.17L404.51 218.18L404.51 218.2L404.52 218.24L404.53 218.25L404.53 218.26L404.54 218.3L404.55 218.34L404.56 218.37L404.57 218.4L404.58 218.44L404.59 218.46L404.59 218.48L404.6 218.5L404.6 218.51L404.61 218.53L404.61 218.54L404.61 218.56L404.62 218.58L404.62 218.6L404.63 218.61L404.63 218.63L404.63 218.65L404.64 218.67L404.64 218.68L404.73 218.69L404.82 218.7L404.91 218.71L405 218.73L405.1 218.74L405.19 218.75L405.28 218.77L405.37 218.78L405.46 218.8L405.55 218.81L405.64 218.82L405.74 218.84L405.83 218.85L405.92 218.87L406.01 218.88L406.1 218.9L406.19 218.92L406.28 218.93L406.37 218.95L406.46 218.96L406.55 218.98L406.64 219L406.73 219.02L406.82 219.03L406.91 219.05L407 219.07L407.09 219.09L407.18 219.1L407.27 219.12L407.36 219.14L407.45 219.16L407.54 219.18L407.63 219.2L407.72 219.22L407.81 219.24L407.9 219.26L407.99 219.28L408.08 219.3L408.16 219.32L408.25 219.34L408.25 195.83L408.18 192.56L407.97 189.32L407.62 186.11L407.14 182.94L406.52 179.82L405.78 176.73L404.9 173.7L403.91 170.71L402.79 167.77L401.56 164.89L400.21 162.06L398.74 159.29L397.17 156.59L395.49 153.95L393.71 151.37L391.82 148.87L389.83 146.43L387.75 144.07L385.58 141.79L383.31 139.59L380.96 137.47L378.52 135.44L375.99 133.49L373.39 131.63L370.72 129.87L367.96 128.2L365.14 126.62L362.25 125.15L359.29 123.78L356.27 122.52L353.19 121.36L350.05 120.32L346.85 119.39L343.61 118.57L340.31 117.88L336.97 117.3L333.58 116.85L330.15 116.52L326.69 116.32L323.19 116.26L315.34 116.26L315.34 116.26ZM104.41 166.48L103.09 167.28L101.85 168.19L100.72 169.21L99.68 170.31L98.76 171.51L97.96 172.78L97.29 174.13L96.75 175.54L96.36 177.01L96.12 178.53L96.03 180.1L96.12 181.66L96.36 183.18L96.75 184.65L97.29 186.06L97.96 187.41L98.76 188.68L99.68 189.88L100.72 190.99L101.85 192L103.09 192.91L104.41 193.72L105.82 194.41L107.29 194.97L107.29 165.22L105.82 165.79L104.41 166.48ZM534.38 193.74L535.91 192.53L537.31 191.33L538.57 190.15L539.71 188.98L540.7 187.82L541.57 186.68L542.3 185.55L542.9 184.43L543.37 183.33L543.7 182.24L543.9 181.16L543.97 180.1L543.89 178.53L543.64 177.01L543.25 175.54L542.71 174.13L542.04 172.78L541.24 171.51L540.32 170.31L539.29 169.21L538.15 168.19L536.92 167.28L535.59 166.48L534.19 165.79L532.71 165.22L532.71 194.97L534.38 193.74ZM182.26 51.19L178.99 51.37L175.76 51.68L172.56 52.11L169.41 52.65L166.3 53.31L163.24 54.08L160.22 54.96L157.26 55.95L154.35 57.04L151.5 58.23L148.71 59.52L145.98 60.91L143.32 62.39L140.72 63.97L138.19 65.63L135.74 67.38L133.36 69.22L131.06 71.14L128.84 73.14L126.7 75.22L124.65 77.37L122.68 79.6L120.81 81.89L119.03 84.26L117.34 86.69L115.76 89.18L114.27 91.73L112.89 94.34L111.62 97.01L110.45 99.73L109.4 102.5L108.46 105.32L107.64 108.19L106.94 111.1L106.35 114.05L105.9 117.04L105.57 120.06L105.37 123.12L105.3 126.21L105.3 147.89L105.36 147.88L105.41 147.87L105.47 147.86L105.53 147.85L105.58 147.84L105.64 147.83L105.69 147.81L105.75 147.8L105.8 147.79L105.86 147.78L105.91 147.77L105.97 147.76L106.03 147.75L106.08 147.74L106.14 147.73L106.19 147.72L106.25 147.71L106.31 147.7L106.36 147.69L106.42 147.68L106.47 147.67L106.53 147.66L106.59 147.65L106.64 147.64L106.7 147.63L106.75 147.62L106.81 147.61L106.87 147.6L106.92 147.59L106.98 147.58L107.04 147.57L107.09 147.56L107.15 147.55L107.21 147.54L107.26 147.53L107.32 147.53L107.38 147.52L107.43 147.51L107.49 147.5L107.55 147.49L107.61 147.26L107.68 147.03L107.76 146.8L107.84 146.57L107.93 146.35L108.02 146.13L108.13 145.91L108.24 145.69L108.35 145.48L108.47 145.27L108.6 145.07L108.73 144.87L108.87 144.67L109.01 144.48L109.16 144.29L109.32 144.1L109.48 143.92L109.64 143.74L109.81 143.56L109.99 143.39L110.17 143.23L110.36 143.07L110.55 142.91L110.74 142.76L110.94 142.62L111.15 142.48L111.36 142.34L111.57 142.21L111.79 142.08L112.01 141.96L112.24 141.85L112.47 141.74L112.7 141.64L112.94 141.54L113.18 141.45L113.43 141.37L113.68 141.29L113.93 141.22L114.19 141.15L114.44 141.09L116.34 140.64L118.17 140.09L119.94 139.46L121.64 138.75L123.28 137.97L124.85 137.11L126.37 136.2L127.82 135.23L129.22 134.2L130.55 133.12L131.83 132.01L133.06 130.85L134.22 129.67L135.34 128.46L136.4 127.22L137.4 125.97L138.36 124.71L139.26 123.44L140.11 122.17L140.92 120.91L141.68 119.66L142.38 118.42L143.05 117.2L143.67 116L144.24 114.84L144.77 113.71L145.26 112.63L145.7 111.59L146.11 110.6L146.47 109.67L146.8 108.8L147.09 108L147.34 107.27L147.56 106.61L147.74 106.04L147.89 105.56L148 105.17L148.08 104.88L148.13 104.7L148.15 104.62L148.22 104.37L148.29 104.13L148.37 103.89L148.45 103.65L148.54 103.42L148.64 103.19L148.75 102.96L148.86 102.74L148.98 102.52L149.11 102.3L149.24 102.09L149.38 101.88L149.52 101.68L149.67 101.48L149.82 101.28L149.99 101.09L150.15 100.91L150.33 100.72L150.5 100.55L150.69 100.37L150.88 100.21L151.07 100.04L151.27 99.89L151.47 99.73L151.68 99.59L151.89 99.45L152.11 99.31L152.33 99.18L152.55 99.06L152.78 98.94L153.02 98.82L153.25 98.72L153.49 98.62L153.74 98.52L153.99 98.43L154.24 98.35L154.49 98.28L154.75 98.21L155.01 98.15L155.28 98.1L155.54 98.05L155.81 98.01L156.07 97.98L156.34 97.95L156.6 97.93L156.87 97.92L157.13 97.92L157.4 97.93L157.66 97.94L157.92 97.95L158.18 97.98L158.44 98.01L158.7 98.05L158.96 98.1L159.21 98.15L159.46 98.21L159.71 98.27L159.96 98.34L160.21 98.42L160.45 98.51L160.69 98.6L160.93 98.7L161.17 98.8L161.4 98.91L161.63 99.03L161.85 99.15L162.07 99.28L162.29 99.41L162.51 99.55L162.72 99.7L162.92 99.85L163.12 100.01L163.32 100.18L163.51 100.35L163.7 100.52L163.88 100.7L164.06 100.89L164.23 101.08L164.4 101.28L164.56 101.48L165.88 103.13L167.23 104.73L168.63 106.28L170.06 107.8L171.53 109.26L173.03 110.68L174.57 112.06L176.14 113.4L177.73 114.69L179.36 115.95L181.01 117.16L182.69 118.33L184.39 119.47L186.11 120.56L187.85 121.62L189.6 122.64L191.38 123.63L193.16 124.58L194.96 125.49L196.77 126.37L198.59 127.21L200.42 128.03L202.26 128.8L204.09 129.55L205.93 130.27L207.78 130.95L209.62 131.61L211.45 132.24L213.29 132.83L215.11 133.41L216.93 133.95L218.74 134.47L220.54 134.96L222.33 135.42L224.1 135.86L225.86 136.28L227.6 136.67L229.31 137.04L231.01 137.39L232.69 137.72L233.44 136.79L234.21 135.87L234.99 134.96L235.79 134.06L236.59 133.16L237.41 132.28L238.23 131.4L239.07 130.54L239.92 129.68L240.78 128.84L241.65 128L242.53 127.17L243.42 126.36L244.32 125.55L245.24 124.75L246.16 123.96L247.09 123.19L248.03 122.42L248.99 121.67L249.95 120.92L250.92 120.19L251.9 119.46L252.89 118.75L253.89 118.05L254.9 117.36L255.92 116.68L256.95 116.01L257.98 115.35L259.03 114.71L260.08 114.07L261.15 113.45L262.22 112.84L263.3 112.24L264.38 111.66L265.48 111.08L266.59 110.52L267.7 109.97L268.82 109.43L269.95 108.91L271.08 108.39L271.07 108.37L271.06 108.35L271.06 108.33L271.05 108.3L271.04 108.28L271.03 108.26L271.02 108.23L271.01 108.21L271 108.19L270.99 108.17L270.99 108.14L270.98 108.12L270.97 108.1L270.96 108.08L270.95 108.05L270.94 108.03L270.93 108.01L270.93 107.98L270.92 107.96L270.91 107.94L270.9 107.92L270.89 107.89L270.89 107.87L270.88 107.85L270.87 107.82L270.86 107.8L270.86 107.78L270.85 107.75L270.84 107.73L270.83 107.71L270.83 107.68L270.82 107.66L270.81 107.64L270.81 107.61L270.8 107.59L270.79 107.57L270.79 107.54L270.78 107.52L270.77 107.5L270.77 107.47L270.04 105L269.23 102.57L268.34 100.18L267.37 97.83L266.31 95.53L265.19 93.26L263.98 91.04L262.7 88.87L261.35 86.75L259.93 84.67L258.44 82.65L256.89 80.67L255.27 78.75L253.58 76.88L251.83 75.06L250.03 73.31L248.16 71.6L246.24 69.96L244.26 68.38L242.23 66.86L240.15 65.4L238.01 64L235.83 62.67L233.61 61.4L231.33 60.21L229.02 59.08L226.66 58.02L224.26 57.03L221.83 56.11L219.36 55.26L216.85 54.49L214.31 53.8L211.74 53.18L209.14 52.64L206.52 52.19L203.86 51.81L201.18 51.51L198.48 51.3L195.76 51.17L193.02 51.13L185.57 51.13L182.26 51.19ZM444.24 51.17L441.52 51.3L438.82 51.51L436.14 51.81L433.49 52.18L430.86 52.64L428.26 53.18L425.69 53.8L423.15 54.49L420.64 55.26L418.17 56.11L415.74 57.03L413.34 58.01L410.98 59.08L408.67 60.21L406.4 61.4L404.17 62.67L401.99 64L399.85 65.4L397.77 66.86L395.74 68.38L393.76 69.96L391.84 71.6L389.97 73.31L388.17 75.06L386.42 76.88L384.74 78.75L383.11 80.67L381.56 82.65L380.07 84.67L378.65 86.75L377.3 88.87L376.02 91.04L374.82 93.26L373.69 95.53L372.64 97.83L371.66 100.18L370.77 102.57L369.96 105L369.24 107.47L369.23 107.51L369.21 107.55L369.2 107.59L369.19 107.63L369.18 107.66L369.17 107.7L369.16 107.74L369.15 107.78L369.13 107.82L369.12 107.85L369.11 107.89L369.09 107.93L369.08 107.97L369.07 108L369.06 108.04L369.04 108.08L369.03 108.12L369.01 108.15L369 108.19L368.99 108.23L368.97 108.26L368.96 108.3L368.94 108.34L368.93 108.37L368.91 108.41L368.9 108.44L368.88 108.48L368.87 108.52L368.85 108.55L368.84 108.59L368.82 108.62L368.8 108.66L368.79 108.7L368.77 108.73L368.75 108.77L368.74 108.8L368.72 108.84L368.7 108.87L368.69 108.91L368.67 108.94L369.57 109.37L370.47 109.79L371.37 110.23L372.26 110.68L373.14 111.13L374.02 111.59L374.9 112.06L375.77 112.54L376.63 113.02L377.49 113.51L378.34 114.01L379.19 114.52L380.03 115.03L380.86 115.55L381.69 116.08L382.52 116.62L383.34 117.16L384.15 117.71L384.95 118.27L385.75 118.84L386.55 119.41L387.34 119.99L388.12 120.57L388.89 121.17L389.66 121.77L390.43 122.37L391.18 122.99L391.94 123.61L392.68 124.23L393.42 124.87L394.15 125.51L394.87 126.15L395.59 126.81L396.3 127.46L397.01 128.13L397.7 128.8L398.39 129.48L399.08 130.16L399.75 130.85L400.42 131.55L401.21 130.77L401.96 129.97L402.69 129.17L403.4 128.35L404.08 127.52L404.74 126.69L405.37 125.85L405.98 125.01L406.56 124.17L407.12 123.33L407.66 122.49L408.18 121.65L408.67 120.82L409.15 120L409.6 119.18L410.03 118.38L410.44 117.58L410.82 116.8L411.19 116.04L411.54 115.3L411.87 114.57L412.18 113.86L412.46 113.18L412.73 112.52L412.99 111.89L413.22 111.28L413.43 110.71L413.63 110.16L413.81 109.65L413.98 109.18L414.12 108.73L414.25 108.33L414.37 107.97L414.46 107.65L414.55 107.37L414.61 107.13L414.67 106.95L414.7 106.81L414.73 106.72L414.74 106.68L414.8 106.44L414.87 106.2L414.95 105.96L415.04 105.72L415.13 105.49L415.23 105.26L415.33 105.03L415.45 104.81L415.56 104.59L415.69 104.37L415.82 104.16L415.96 103.95L416.1 103.75L416.25 103.55L416.41 103.35L416.57 103.16L416.74 102.97L416.91 102.79L417.09 102.61L417.27 102.44L417.46 102.27L417.65 102.11L417.85 101.95L418.05 101.8L418.26 101.65L418.47 101.51L418.69 101.38L418.91 101.25L419.14 101.12L419.37 101L419.6 100.89L419.84 100.78L420.08 100.68L420.32 100.59L420.57 100.5L420.82 100.42L421.08 100.34L421.33 100.28L421.6 100.22L421.86 100.16L422.12 100.11L422.39 100.07L422.66 100.04L422.92 100.02L423.19 100L423.45 99.99L423.72 99.99L423.98 99.99L424.24 100L424.5 100.02L424.77 100.05L425.02 100.08L425.28 100.12L425.54 100.16L425.79 100.21L426.05 100.27L426.3 100.34L426.55 100.41L426.79 100.49L427.04 100.57L427.28 100.66L427.51 100.76L427.75 100.87L427.98 100.98L428.21 101.09L428.44 101.22L428.66 101.34L428.88 101.48L429.09 101.62L429.3 101.77L429.51 101.92L429.71 102.08L429.9 102.24L430.1 102.41L430.29 102.59L430.47 102.77L430.65 102.95L430.82 103.15L430.99 103.34L431.15 103.54L433.35 106.25L435.68 108.82L438.11 111.26L440.65 113.57L443.27 115.76L445.98 117.83L448.77 119.78L451.62 121.62L454.52 123.35L457.47 124.97L460.46 126.49L463.48 127.91L466.52 129.23L469.57 130.46L472.62 131.6L475.66 132.65L478.69 133.62L481.69 134.52L484.66 135.33L487.59 136.07L490.46 136.75L493.27 137.35L496.02 137.9L498.68 138.38L501.26 138.81L503.74 139.19L506.11 139.52L508.37 139.8L510.51 140.04L512.51 140.24L514.37 140.41L516.09 140.54L517.64 140.65L519.02 140.73L520.23 140.79L521.24 140.83L522.07 140.85L522.69 140.87L523.09 140.87L523.28 140.88L523.28 140.88L523.32 140.88L523.33 140.88L523.35 140.88L523.38 140.88L523.39 140.88L523.4 140.88L523.41 140.88L523.43 140.88L523.44 140.88L523.45 140.88L523.48 140.88L523.49 140.88L523.5 140.88L523.51 140.88L523.52 140.88L523.84 140.88L524.17 140.9L524.48 140.92L524.8 140.96L525.11 141L525.42 141.06L525.72 141.13L526.03 141.2L526.32 141.28L526.61 141.38L526.9 141.48L527.18 141.59L527.46 141.71L527.74 141.83L528 141.97L528.27 142.11L528.52 142.26L528.77 142.42L529.02 142.59L529.26 142.76L529.49 142.94L529.71 143.13L529.93 143.32L530.15 143.52L530.35 143.73L530.55 143.95L530.74 144.16L530.92 144.39L531.1 144.62L531.26 144.86L531.42 145.1L531.57 145.35L531.72 145.6L531.85 145.86L531.97 146.12L532.09 146.38L532.19 146.66L532.29 146.93L532.38 147.21L532.45 147.49L532.51 147.5L532.57 147.51L532.62 147.52L532.68 147.52L532.74 147.53L532.79 147.54L532.85 147.55L532.91 147.56L532.96 147.57L533.02 147.58L533.08 147.59L533.13 147.6L533.19 147.61L533.25 147.62L533.3 147.63L533.36 147.64L533.41 147.65L533.47 147.66L533.53 147.67L533.58 147.68L533.64 147.69L533.7 147.7L533.75 147.71L533.81 147.72L533.86 147.73L533.92 147.74L533.98 147.75L534.03 147.76L534.09 147.77L534.14 147.78L534.2 147.79L534.25 147.8L534.31 147.81L534.37 147.82L534.42 147.84L534.48 147.85L534.53 147.86L534.59 147.87L534.64 147.88L534.7 147.89L534.7 126.21L534.63 123.12L534.43 120.06L534.1 117.03L533.65 114.05L533.07 111.1L532.36 108.19L531.54 105.32L530.6 102.5L529.55 99.73L528.38 97.01L527.11 94.34L525.73 91.73L524.24 89.18L522.66 86.69L520.97 84.26L519.19 81.89L517.32 79.6L515.36 77.37L513.3 75.22L511.16 73.14L508.94 71.14L506.64 69.22L504.26 67.38L501.81 65.63L499.28 63.97L496.68 62.39L494.02 60.91L491.29 59.52L488.5 58.23L485.65 57.03L482.74 55.94L479.78 54.96L476.76 54.08L473.7 53.31L470.59 52.65L467.44 52.11L464.24 51.68L461.01 51.37L457.74 51.19L454.44 51.12L446.98 51.12L444.24 51.17Z" id="a21htqrZBz"></path><path d="M306.07 97.75L331.15 95.66L351.35 102.62L368.07 108.2L378.52 110.98L401.52 131.19L411.97 145.12L426.6 172.3L436.35 254.51L429.39 271.23L409.88 292.13L401.52 296.31L398.03 305.37L388.28 320L373.65 333.93L423.11 379.92L441.23 386.89L448.89 388.98L462.13 401.52L471.19 410.57L478.16 425.2L486.52 440.53L490 456.56L622.38 454.47L625.16 374.34L618.2 331.15L606.35 307.46L560.37 285.16L529.02 258.69L579.88 228.73L584.75 178.57L568.73 79.63L539.47 38.52L464.22 18.32L382.7 30.86L341.6 88.69L297.7 88.69L288.65 60.12L225.25 19.71L122.13 28.77L81.02 79.63L54.55 150L82.42 212.01L131.72 263.57L46.19 305.37L19.02 359.02L19.02 440.53L153.48 440.53L158.36 425.2L163.93 415.45L175.08 401.52L191.8 388.98L216.89 379.92L232.21 369.47L257.99 329.06L248.93 320L240.57 307.46L232.21 294.22L220.37 285.16L209.92 273.32L205.74 266.35L201.56 254.51L191.8 232.21L202.95 189.02L220.37 156.27L225.25 147.21L232.21 137.46L242.66 122.13L270.53 108.2L288.65 102.62L306.07 97.75Z" id="a2EY7z602g"></path><path d="M7.48 2.81L632.52 2.81L632.52 532.19L7.48 532.19L7.48 2.81Z" id="a6MFTQGRi"></path></defs><g><g><g><g>
<use xlink:href="#a6MFTQGRi" opacity="0" fill="#272945" fill-opacity="1"></use><g><use xlink:href="#a6MFTQGRi" opacity="1" fill-opacity="1" stroke="#000000" stroke-width="1" stroke-opacity="1"></use></g><use xlink:href="#a21htqrZBz" opacity="1" fill="#ffffff" fill-opacity="1"></use><g><use xlink:href="#a21htqrZBz" opacity="1" fill-opacity="0" stroke="#ffffff" stroke-width="1" stroke-opacity="0"></use></g></g><g><use xlink:href="#a2EY7z602g" opacity="1" fill="#272945" fill-opacity="1"></use><g><use xlink:href="#a2EY7z602g" opacity="1" fill-opacity="0" stroke="#ffffff" stroke-width="1" stroke-opacity="1"></use></g></g></g></g></g></svg>