<?xml version="1.0" encoding="UTF-8"?>
<svg width="64px" height="64px" viewBox="0 0 64 64" version="1.1" xmlns="http://www.w3.org/2000/svg" xmlns:xlink="http://www.w3.org/1999/xlink">
    <!-- Generator: Sketch 50.2 (55047) - http://www.bohemiancoding.com/sketch -->
    <title>jkl/core/elements/icons/serach</title>
    <desc>Created with Sketch.</desc>
    <defs>
        <path d="M50.8097891,45.0652109 L37.2532266,31.5086484 C39.4617031,28.1820703 40.625,24.3298047 40.625,20.3125 C40.625,9.1121875 31.5128125,0 20.3125,0 C9.1121875,0 0,9.1121875 0,20.3125 C0,31.5128125 9.1121875,40.625 20.3125,40.625 C24.3299062,40.625 28.1821719,39.4616016 31.5086484,37.2533281 L35.2557969,41.0004766 C35.2563047,41.0009844 35.2568125,41.0014922 35.2574219,41.0021016 L45.0651094,50.8097891 C45.8327187,51.5772969 46.8527109,52 47.9375,52 C49.0222891,52 50.0422813,51.5772969 50.8094844,50.8100938 C51.5771953,50.0429922 52,49.0228984 52,47.9375 C52,46.8521016 51.5771953,45.8320078 50.8097891,45.0652109 Z M31.031,35.1128984 C31.031,35.113 31.0308984,35.113 31.0307969,35.1131016 C27.8958672,37.3901328 24.1896484,38.59375 20.3125,38.59375 C10.2322187,38.59375 2.03125,30.3927813 2.03125,20.3125 C2.03125,10.2322187 10.2322187,2.03125 20.3125,2.03125 C30.3927813,2.03125 38.59375,10.2322187 38.59375,20.3125 C38.59375,24.1896484 37.3901328,27.8958672 35.113,31.0308984 C33.9737734,32.6003438 32.6004453,33.9737734 31.031,35.1128984 Z M20.3125,4.0625 C11.3521484,4.0625 4.0625,11.3521484 4.0625,20.3125 C4.0625,29.2728516 11.3521484,36.5625 20.3125,36.5625 C29.2728516,36.5625 36.5625,29.2728516 36.5625,20.3125 C36.5625,11.3521484 29.2728516,4.0625 20.3125,4.0625 Z M20.3125,34.53125 C12.4722812,34.53125 6.09375,28.1527188 6.09375,20.3125 C6.09375,12.4722812 12.4722812,6.09375 20.3125,6.09375 C28.1527188,6.09375 34.53125,12.4722812 34.53125,20.3125 C34.53125,28.1527188 28.1527188,34.53125 20.3125,34.53125 Z M33.1617812,36.0336641 C34.2129531,35.1737344 35.1738359,34.2128516 36.0336641,33.1617812 L38.9150937,36.0432109 C38.0388125,37.0774219 37.0774219,38.0389141 36.0432109,38.9150937 L33.1617812,36.0336641 Z M49.3734922,49.3734922 C48.9895859,49.7573984 48.4796406,49.96875 47.9375,49.96875 C47.3953594,49.96875 46.8854141,49.7573984 46.5015078,49.3734922 L37.4832656,40.35525 C38.5117891,39.4725703 39.4725703,38.5118906 40.3551484,37.4833672 L49.3736953,46.5019141 C49.7573984,46.8852109 49.96875,47.3949531 49.96875,47.9375 C49.96875,48.4800469 49.7573984,48.9897891 49.3734922,49.3734922 Z M31.484375,19.296875 C32.045,19.296875 32.5,19.751875 32.5,20.3125 C32.5,20.873125 32.045,21.328125 31.484375,21.328125 C30.92375,21.328125 30.46875,20.873125 30.46875,20.3125 C30.46875,19.751875 30.92375,19.296875 31.484375,19.296875 Z M31.6941016,15.9527266 C31.8952969,16.4763828 31.633875,17.0639219 31.1103203,17.2651172 C30.9905781,17.311125 30.8673828,17.3329609 30.7463203,17.3329609 C30.3380391,17.3329609 29.9532188,17.0851484 29.7980313,16.6813359 C28.2984609,12.7783906 24.4866172,10.15625 20.3125,10.15625 C19.7516719,10.15625 19.296875,9.70145313 19.296875,9.140625 C19.296875,8.57979687 19.7516719,8.125 20.3125,8.125 C22.8232266,8.125 25.2361484,8.88570312 27.2903516,10.3248438 C29.2968203,11.7303672 30.8195469,13.6765078 31.6941016,15.9527266 Z" id="path-1"></path>
    </defs>
    <g id="jkl/core/elements/icons/serach" stroke="none" stroke-width="1" fill="none" fill-rule="evenodd">
        <g id="jkl/core/colors/primary" transform="translate(6.000000, 6.000000)">
            <mask id="mask-2" fill="white">
                <use xlink:href="#path-1"></use>
            </mask>
            <use id="Mask" fill="#000000" fill-rule="nonzero" xlink:href="#path-1"></use>
            <g mask="url(#mask-2)" fill="#ffffff" id="Rectangle-2">
                <g transform="translate(-17.000000, -15.000000)">
                    <rect x="0" y="0" width="84" height="79"></rect>
                </g>
            </g>
        </g>
    </g>
</svg>