<?xml version="1.0" encoding="UTF-8"?>
<svg width="64px" height="64px" viewBox="0 0 64 64" version="1.1" xmlns="http://www.w3.org/2000/svg" xmlns:xlink="http://www.w3.org/1999/xlink">
    <!-- Generator: Sketch 50.2 (55047) - http://www.bohemiancoding.com/sketch -->
    <title>jkl/core/elements/icons/shipping</title>
    <desc>Created with Sketch.</desc>
    <defs>
        <path d="M40.6815439,34.0672125 C39.0588382,34.0672125 37.7386667,35.3876335 37.7386667,37.0104639 C37.7386667,38.6332943 39.0587135,39.9537154 40.6815439,39.9537154 C42.3043743,39.9537154 43.6244211,38.6332943 43.6244211,37.0104639 C43.6244211,35.3876335 42.3043743,34.0672125 40.6815439,34.0672125 Z M40.6816686,37.9984094 C40.137232,37.9984094 39.6940975,37.5551501 39.6940975,37.0104639 C39.6940975,36.4657778 40.1371072,36.0225185 40.6816686,36.0225185 C41.2261053,36.0225185 41.6692398,36.4657778 41.6692398,37.0104639 C41.669115,37.5552749 41.22623,37.9984094 40.6816686,37.9984094 Z M47.3044834,34.0672125 C45.6817778,34.0672125 44.3616062,35.3876335 44.3616062,37.0104639 C44.3616062,38.6332943 45.681653,39.9537154 47.3044834,39.9537154 C48.9271891,39.9537154 50.2472359,38.6332943 50.2472359,37.0104639 C50.2472359,35.3876335 48.9271891,34.0672125 47.3044834,34.0672125 Z M47.3044834,37.9984094 C46.7600468,37.9984094 46.3169123,37.5551501 46.3169123,37.0104639 C46.3169123,36.4657778 46.7597973,36.0225185 47.3044834,36.0225185 C47.8489201,36.0225185 48.2919298,36.4657778 48.2919298,37.0104639 C48.2919298,37.5551501 47.8490448,37.9984094 47.3044834,37.9984094 Z M53.9271735,34.0672125 C52.3044678,34.0672125 50.9842963,35.3876335 50.9842963,37.0104639 C50.9842963,38.6332943 52.3045926,39.9537154 53.9271735,39.9537154 C55.5498791,39.9537154 56.8700507,38.6332943 56.8700507,37.0104639 C56.8700507,35.3876335 55.5498791,34.0672125 53.9271735,34.0672125 Z M53.9271735,37.9984094 C53.3827368,37.9984094 52.9396023,37.5551501 52.9396023,37.0104639 C52.9396023,36.4657778 53.3826121,36.0225185 53.9271735,36.0225185 C54.4717349,36.0225185 54.9147446,36.4657778 54.9147446,37.0104639 C54.9147446,37.5551501 54.4718596,37.9984094 53.9271735,37.9984094 Z M9.16435088,42.2007018 C9.3468694,42.381848 9.45116569,42.634729 9.45116569,42.8916023 C9.45116569,43.1484756 9.3468694,43.4013567 9.16435088,43.5825029 C8.98320468,43.7650214 8.73019883,43.8693177 8.47345029,43.8693177 C8.21532943,43.8693177 7.96369591,43.7650214 7.78254971,43.5825029 C7.60003119,43.4013567 7.49573489,43.1484756 7.49573489,42.8916023 C7.49573489,42.634729 7.60003119,42.381848 7.78254971,42.2007018 C7.96382066,42.0181832 8.21532943,41.9138869 8.47345029,41.9138869 C8.73032359,41.9138869 8.98320468,42.0181832 9.16435088,42.2007018 Z M15.4213801,42.2007018 C15.6038986,42.381848 15.7081949,42.634729 15.7081949,42.8916023 C15.7081949,43.1484756 15.6038986,43.4013567 15.4213801,43.5825029 C15.2401092,43.7650214 14.9873528,43.8693177 14.7304795,43.8693177 C14.4736062,43.8693177 14.2207251,43.7650214 14.0395789,43.5825029 C13.8570604,43.4013567 13.7527641,43.1484756 13.7527641,42.8916023 C13.7527641,42.634729 13.8570604,42.381848 14.0395789,42.2007018 C14.2207251,42.0181832 14.4736062,41.9138869 14.7304795,41.9138869 C14.9873528,41.9138869 15.2402339,42.0181832 15.4213801,42.2007018 Z M21.6784094,42.2007018 C21.8609279,42.381848 21.9652242,42.634729 21.9652242,42.8916023 C21.9652242,43.1484756 21.8609279,43.4013567 21.6784094,43.5825029 C21.4971384,43.7650214 21.2443821,43.8693177 20.9875088,43.8693177 C20.7306355,43.8693177 20.4777544,43.7650214 20.2966082,43.5825029 C20.1140897,43.4013567 20.0097934,43.1484756 20.0097934,42.8916023 C20.0097934,42.634729 20.1140897,42.381848 20.2966082,42.2007018 C20.4778791,42.0181832 20.7306355,41.9138869 20.9875088,41.9138869 C21.2443821,41.9138869 21.4972632,42.0181832 21.6784094,42.2007018 Z M27.9354386,42.2007018 C28.1179571,42.381848 28.2222534,42.634729 28.2222534,42.8916023 C28.2222534,43.1484756 28.1179571,43.4013567 27.9354386,43.5825029 C27.7542924,43.7650214 27.5012865,43.8693177 27.244538,43.8693177 C26.9864172,43.8693177 26.7347836,43.7650214 26.5536374,43.5825029 C26.3711189,43.4013567 26.2668226,43.1484756 26.2668226,42.8916023 C26.2668226,42.634729 26.3711189,42.381848 26.5536374,42.2007018 C26.7349084,42.0181832 26.9864172,41.9138869 27.244538,41.9138869 C27.5014113,41.9138869 27.7542924,42.0181832 27.9354386,42.2007018 Z M34.1924678,42.2007018 C34.3749864,42.381848 34.4792827,42.634729 34.4792827,42.8916023 C34.4792827,43.1497232 34.3749864,43.4013567 34.1924678,43.5825029 C34.0113216,43.7650214 33.7596881,43.8693177 33.5015673,43.8693177 C33.244694,43.8693177 32.9918129,43.7650214 32.8106667,43.5825029 C32.6281481,43.4013567 32.5238519,43.1497232 32.5238519,42.8916023 C32.5238519,42.634729 32.6281481,42.381848 32.8106667,42.2007018 C32.9919376,42.0181832 33.2448187,41.9138869 33.5015673,41.9138869 C33.7584405,41.9138869 34.0113216,42.0181832 34.1924678,42.2007018 Z M40.4494971,42.2007018 C40.6320156,42.381848 40.7363119,42.6334815 40.7363119,42.8916023 C40.7363119,43.1497232 40.6320156,43.4013567 40.4494971,43.5825029 C40.2683509,43.7650214 40.0167173,43.8693177 39.7585965,43.8693177 C39.5017232,43.8693177 39.2488421,43.7650214 39.0676959,43.5825029 C38.8851774,43.401232 38.7808811,43.1497232 38.7808811,42.8916023 C38.7808811,42.6334815 38.8851774,42.381848 39.0676959,42.2007018 C39.2489669,42.0181832 39.5004756,41.9138869 39.7585965,41.9138869 C40.0167173,41.9138869 40.2683509,42.0181832 40.4494971,42.2007018 Z M46.7065263,42.2007018 C46.8890448,42.381848 46.9933411,42.634729 46.9933411,42.8916023 C46.9933411,43.1497232 46.8890448,43.4013567 46.7065263,43.5825029 C46.5253801,43.7650214 46.2737466,43.8693177 46.0156257,43.8693177 C45.7587524,43.8693177 45.5058713,43.7650214 45.3247251,43.5825029 C45.1422066,43.4013567 45.0379103,43.1497232 45.0379103,42.8916023 C45.0379103,42.634729 45.1422066,42.381848 45.3247251,42.2007018 C45.5059961,42.0181832 45.7588772,41.9138869 46.0156257,41.9138869 C46.272499,41.9138869 46.5253801,42.0181832 46.7065263,42.2007018 Z M52.9635556,42.2007018 C53.1460741,42.381848 53.2503704,42.634729 53.2503704,42.8916023 C53.2503704,43.1484756 53.1460741,43.4013567 52.9635556,43.5825029 C52.7822846,43.7650214 52.5295283,43.8693177 52.272655,43.8693177 C52.0157817,43.8693177 51.7629006,43.7650214 51.5817544,43.5825029 C51.3992359,43.4013567 51.2949396,43.1484756 51.2949396,42.8916023 C51.2949396,42.634729 51.3992359,42.381848 51.5817544,42.2007018 C51.7630253,42.0181832 52.0159064,41.9138869 52.272655,41.9138869 C52.5307758,41.9138869 52.7824094,42.0181832 52.9635556,42.2007018 Z M52.6199766,54.4944405 C52.9739103,54.902269 52.9302456,55.5196881 52.5225419,55.8734971 C51.0339493,57.1655984 49.1282963,57.8770838 47.1566472,57.8770838 C45.1031579,57.8770838 43.1463548,57.1108304 41.6462846,55.7452476 C40.1462144,57.1108304 38.1895361,57.8770838 36.1355478,57.8770838 C34.0942846,57.8770838 32.13823,57.1208109 30.6278051,55.7474932 C30.2282105,55.3842027 30.198768,54.7660351 30.5620585,54.3664405 C30.9253489,53.9667212 31.5435166,53.9374035 31.9431111,54.300694 C33.0929903,55.346152 34.5818324,55.9217778 36.1355478,55.9217778 C37.9734581,55.9217778 39.709692,55.1149786 40.8994932,53.7083509 C41.0853801,53.4887797 41.358347,53.3620273 41.6460351,53.3620273 C41.9337232,53.3620273 42.2068148,53.488655 42.392577,53.7083509 C43.5823782,55.1149786 45.3186121,55.9217778 47.1565224,55.9217778 C48.6574659,55.9217778 50.107883,55.3803353 51.2407953,54.3968811 C51.6486238,54.0429474 52.2660429,54.0867368 52.6199766,54.4944405 Z M20.2358519,53.5933255 C20.6480468,53.9420195 20.6996959,54.5588148 20.3510019,54.9711345 C18.7889279,56.8179025 16.5083821,57.8770838 14.0940975,57.8770838 C11.6798129,57.8770838 9.39926706,56.8180273 7.83719298,54.9711345 C7.48849903,54.5588148 7.54002339,53.9420195 7.95234308,53.5933255 C8.36478752,53.2445068 8.98145809,53.2962807 9.33015205,53.7084756 C10.5199532,55.1151033 12.2561871,55.9219025 14.0940975,55.9219025 C15.9320078,55.9219025 17.6682417,55.1151033 18.8580429,53.7084756 C19.2067368,53.2962807 19.8236569,53.2447563 20.2358519,53.5933255 Z M63.6669006,31.5134503 C63.4125224,31.1157271 62.9731306,30.8877973 62.4610058,30.8877973 L61.5363119,30.8877973 L61.5363119,26.8290994 C61.5363119,25.9306043 60.8053645,25.1996569 59.9068694,25.1996569 L57.4691306,25.1996569 L57.4691306,20.5300273 C57.4691306,19.6315322 56.7381832,18.9005848 55.8396881,18.9005848 L34.6846316,18.9005848 L34.6846316,15.1107368 C34.6846316,14.1689513 33.9183782,13.4026979 32.9765926,13.4026979 L32.7270799,13.4026979 L31.5133255,11.2999298 C32.1947446,10.8127563 32.6409981,10.0169357 32.6409981,9.11731774 C32.6409981,7.98278363 31.9323821,7.01267836 30.9354542,6.62094347 L30.9354542,4.05620273 L31.5795712,3.96076413 C32.2023548,3.8685692 32.6719376,3.32438207 32.6719376,2.69473684 L32.6719376,2.03564912 C32.6719376,1.3528577 32.1163977,0.797317739 31.4336062,0.797317739 L17.4781131,0.797317739 C17.1921715,0.326362573 16.6759298,0.00998050682 16.0858324,0.00998050682 L9.38616764,0.00998050682 C8.48767251,0.00998050682 7.75672515,0.741052632 7.75672515,1.639423 L7.75672515,5.9865575 C7.75672515,6.88505263 8.48767251,7.616 9.38616764,7.616 L10.1783704,7.616 L10.1783704,29.1162573 L8.99368421,29.1162573 C8.09518908,29.1162573 7.36424172,29.8472047 7.36424172,30.7456998 L7.36424172,31.3676101 L5.13833918,31.3676101 C4.23996881,31.3676101 3.50889669,32.0985575 3.50889669,32.9970526 L3.50889669,36.7204055 L1.45266277,36.7204055 C0.96,36.7204055 0.523851852,36.9366082 0.255875244,37.3136218 C-0.0121013645,37.6907602 -0.0728576998,38.1738168 0.0892007797,38.6391579 L4.00492788,49.8802027 C3.69877583,49.9263626 3.38763353,49.9518129 3.07324756,49.9518129 C2.53330214,49.9518129 2.09553216,50.3895828 2.09553216,50.9295283 C2.09553216,51.4694737 2.53330214,51.9072437 3.07324756,51.9072437 C5.12673684,51.9072437 7.08366472,51.1408655 8.58361014,49.7754074 C10.0836803,51.1408655 12.0406082,51.9072437 14.0939727,51.9072437 C16.147462,51.9072437 18.1043899,51.1408655 19.6043353,49.7754074 C21.1044055,51.1408655 23.0613333,51.9072437 25.1148226,51.9072437 C27.1683119,51.9072437 29.1252398,51.1408655 30.6253099,49.7754074 C32.1253801,51.1408655 34.0821832,51.9072437 36.1356725,51.9072437 C38.1891618,51.9072437 40.1460897,51.1408655 41.6461598,49.7754074 C43.14623,51.1408655 45.1031579,51.9072437 47.1565224,51.9072437 C49.2100117,51.9072437 51.1669396,51.1408655 52.666885,49.7754074 C54.1669552,51.1408655 56.123883,51.9072437 58.1772476,51.9072437 C58.717193,51.9072437 59.154963,51.4694737 59.154963,50.9295283 C59.154963,50.3895828 58.717193,49.9518129 58.1772476,49.9518129 C57.4272125,49.9518129 56.694768,49.8153294 56.0087329,49.560577 L59.3861365,42.2592125 C59.6128187,41.7690448 59.3993606,41.1880546 58.9093177,40.9613723 C58.4190253,40.7345653 57.8381598,40.9481481 57.6114776,41.438191 L56.1358596,44.6282105 L17.3376374,44.6282105 C16.797692,44.6282105 16.359922,45.0659805 16.359922,45.6059259 C16.359922,46.1458713 16.797692,46.5836413 17.3376374,46.5836413 L55.2316257,46.5836413 L54.3005692,48.5963353 C53.9808187,48.3418324 53.6825263,48.0562651 53.4135517,47.7382612 C53.2277895,47.5185653 52.9546979,47.3919376 52.6670097,47.3919376 C52.3793216,47.3919376 52.10623,47.5186901 51.9204678,47.7382612 C50.7307914,49.1450136 48.9944327,49.9518129 47.1565224,49.9518129 C45.3186121,49.9518129 43.5823782,49.1450136 42.392577,47.7382612 C42.2068148,47.5185653 41.9337232,47.3919376 41.6460351,47.3919376 C41.358347,47.3919376 41.0852554,47.5186901 40.8994932,47.7382612 C39.7098168,49.1450136 37.9734581,49.9518129 36.1355478,49.9518129 C34.2976374,49.9518129 32.5614035,49.1450136 31.3716023,47.7382612 C31.1858402,47.5185653 30.9127485,47.3919376 30.6250604,47.3919376 C30.3373723,47.3919376 30.0642807,47.5186901 29.8785185,47.7382612 C28.6888421,49.1450136 26.9524834,49.9518129 25.1145731,49.9518129 C23.2766628,49.9518129 21.5404288,49.1450136 20.3506277,47.7382612 C20.1648655,47.5185653 19.8917739,47.3919376 19.6040858,47.3919376 C19.3163977,47.3919376 19.043306,47.5186901 18.8576686,47.7382612 C17.6678674,49.1450136 15.9316335,49.9518129 14.0937232,49.9518129 C12.2558129,49.9518129 10.5193294,49.1450136 9.32977778,47.7382612 C9.14401559,47.5185653 8.87092398,47.3919376 8.58323587,47.3919376 C8.29554776,47.3919376 8.02245614,47.5186901 7.83669396,47.7382612 C7.28402339,48.3917349 6.61246004,48.9138402 5.86841326,49.2874854 L4.92662768,46.5836413 L12.6443041,46.5836413 C13.1842495,46.5836413 13.6220195,46.1458713 13.6220195,45.6059259 C13.6220195,45.0659805 13.1842495,44.6282105 12.6443041,44.6282105 L4.24533333,44.6282105 L2.17175828,38.675462 L33.5562105,38.675462 C34.2986355,38.675462 35.0636413,38.1864172 35.3749084,37.5128577 L37.5126082,32.891883 C37.5304483,32.8739181 37.5652554,32.8515867 37.5889591,32.8429786 L61.5875867,32.8429786 L59.3603119,37.6579493 C59.1336296,38.148117 59.3470877,38.7291072 59.8372554,38.9557895 C60.3272982,39.1824717 60.9082885,38.9690136 61.1350955,38.478846 L63.7290292,32.8710487 C63.9441092,32.4060819 63.9214035,31.9112982 63.6669006,31.5134503 Z M7.36411696,36.7202807 L5.46420273,36.7202807 L5.46420273,33.3227914 L7.36411696,33.3227914 L7.36411696,36.7202807 Z M45.6609435,20.8558908 L55.513575,20.8558908 L55.513575,25.1995322 L45.6609435,25.1995322 L45.6609435,20.8558908 Z M32.7292008,15.3580039 L32.7292008,20.4614113 L27.1864016,20.4614113 L27.1864016,15.3580039 L32.7292008,15.3580039 Z M29.4462378,13.4026979 L29.9577388,12.5165536 L30.4692398,13.4026979 L29.4462378,13.4026979 Z M29.9578635,8.38899025 C30.3592047,8.38899025 30.6858168,8.71560234 30.6858168,9.11731774 C30.6858168,9.51890838 30.3593294,9.84576998 29.9578635,9.84576998 C29.5563977,9.84576998 29.2297856,9.51890838 29.2297856,9.11731774 C29.2299103,8.7157271 29.5565224,8.38899025 29.9578635,8.38899025 Z M17.7152749,2.75262378 L26.393575,2.75262378 L17.7152749,4.03873684 L17.7152749,2.75262378 Z M9.71203119,5.6605692 L9.71203119,1.96528655 L15.7599688,1.96528655 L15.7599688,5.6605692 L9.71203119,5.6605692 Z M12.1335517,17.4071267 L12.1335517,16.3642885 L13.3383236,16.3642885 L13.3383236,17.4071267 L12.1335517,17.4071267 Z M13.3383236,19.3624327 L13.3383236,20.2749006 L12.1335517,20.2749006 L12.1335517,19.3624327 L13.3383236,19.3624327 Z M12.1335517,14.4089825 L12.1335517,13.3661442 L13.3383236,13.3661442 L13.3383236,14.4089825 L12.1335517,14.4089825 Z M12.1335517,11.4108382 L12.1335517,10.368 L13.3383236,10.368 L13.3383236,11.4108382 L12.1335517,11.4108382 Z M12.1335517,8.41269396 L12.1335517,7.616 L13.3381988,7.616 L13.3381988,8.41269396 L12.1335517,8.41269396 Z M16.1524522,36.7201559 L9.31954776,36.7201559 L9.31954776,31.0713138 L16.1524522,31.0713138 L16.1524522,36.7201559 Z M20.1387914,36.7201559 L18.1077583,36.7201559 L18.1077583,33.3227914 L20.1387914,33.3227914 L20.1387914,36.7201559 Z M20.2207563,26.8288499 L20.2207563,31.3676101 L18.1077583,31.3676101 L18.1077583,30.7456998 C18.1077583,29.8472047 17.3768109,29.1162573 16.4783158,29.1162573 L15.2936296,29.1162573 L15.2936296,27.9010058 C15.2936296,27.3610604 14.8558596,26.9232904 14.3159142,26.9232904 C13.7759688,26.9232904 13.3381988,27.3610604 13.3381988,27.9010058 L13.3381988,29.1162573 L12.1334269,29.1162573 L12.1334269,22.2305809 L13.3380741,22.2305809 L13.3380741,23.9903938 C13.3380741,24.5303392 13.7758441,24.9681092 14.3157895,24.9681092 C14.8557349,24.9681092 15.2935049,24.5303392 15.2935049,23.9903938 L15.2935049,7.616 L16.0858324,7.616 C16.9744717,7.616 17.6980585,6.90064717 17.7137778,6.01562573 L28.9802729,4.34588694 L28.9802729,6.62069396 C27.983345,7.01267836 27.2746043,7.98265887 27.2746043,9.11706823 C27.2746043,10.0168109 27.7211072,10.8126316 28.4024016,11.2996803 L27.1886472,13.4024483 L26.9391345,13.4024483 C25.9973489,13.4024483 25.2310955,14.1687018 25.2310955,15.1104873 L25.2310955,20.7084288 C25.2310955,21.6502144 25.9973489,22.4164678 26.9391345,22.4164678 L28.3552437,22.4164678 L28.3552437,25.1992827 L21.8503236,25.1992827 C20.9517037,25.1994074 20.2207563,25.9303548 20.2207563,26.8288499 Z M35.5712749,31.498729 L32.7195945,31.498729 C32.1796491,31.498729 31.7418791,31.936499 31.7418791,32.4764444 C31.7418791,33.0163899 32.1796491,33.4541598 32.7195945,33.4541598 L35.0989474,33.4541598 L33.6106043,36.6716257 C33.5927641,36.6895906 33.5579571,36.711922 33.5342534,36.7205302 L22.0942222,36.7205302 L22.0942222,33.4541598 L28.6787368,33.4541598 C29.2186823,33.4541598 29.6564522,33.0163899 29.6564522,32.4764444 C29.6564522,31.936499 29.2186823,31.498729 28.6787368,31.498729 L22.1761871,31.498729 L22.1761871,27.1550877 L35.5712749,27.1550877 L35.5712749,31.498729 Z M30.3105497,25.1995322 L30.3105497,22.4167173 L32.9765926,22.4167173 C33.8687251,22.4168421 34.6022924,21.7289357 34.6771462,20.8558908 L43.7056374,20.8558908 L43.7056374,25.1995322 L30.3105497,25.1995322 Z M50.9216686,30.8876725 L37.5670019,30.8876725 C37.5535283,30.8876725 37.5401793,30.8889201 37.5265809,30.8894191 L37.5265809,27.1548382 L50.9216686,27.1548382 L50.9216686,30.8876725 Z M59.5808811,30.8876725 L52.8769747,30.8876725 L52.8769747,27.1548382 L59.5808811,27.1548382 L59.5808811,30.8876725 Z" id="path-1"></path>
    </defs>
    <g id="jkl/core/elements/icons/shipping" stroke="none" stroke-width="1" fill="none" fill-rule="evenodd">
        <g id="jkl/core/colors/primary" transform="translate(0.000000, 3.000000)">
            <mask id="mask-2" fill="white">
                <use xlink:href="#path-1"></use>
            </mask>
            <use id="Mask" fill="#000000" fill-rule="nonzero" xlink:href="#path-1"></use>
            <g mask="url(#mask-2)" fill="#ffffff" id="Rectangle-2">
                <g transform="translate(0.000000, -3.000000)">
                    <rect x="0" y="0" width="64" height="64"></rect>
                </g>
            </g>
        </g>
    </g>
</svg>