<?xml version="1.0" encoding="UTF-8"?>
<svg width="64px" height="64px" viewBox="0 0 64 64" version="1.1" xmlns="http://www.w3.org/2000/svg" xmlns:xlink="http://www.w3.org/1999/xlink">
    <!-- Generator: Sketch 50.2 (55047) - http://www.bohemiancoding.com/sketch -->
    <title>jkl/core/elements/icons/start</title>
    <desc>Created with Sketch.</desc>
    <defs>
        <path d="M38.7521333,21.6666667 L47.9474667,8.29053333 C48.1294667,8.02533333 48.1494,7.68126667 48.0003333,7.39613333 C47.8504,7.11186667 47.5548667,6.93333333 47.2333333,6.93333333 L21.2333333,6.93333333 L21.2333333,3.46666667 C21.2333333,2.9874 20.8459333,2.6 20.3666667,2.6 L2.16666667,2.6 L2.16666667,0.866666667 C2.16666667,0.3874 1.77926667,0 1.3,0 C0.820733333,0 0.433333333,0.3874 0.433333333,0.866666667 L0.433333333,3.46666667 L0.433333333,28.6 L0.433333333,51.1333333 C0.433333333,51.6126 0.820733333,52 1.3,52 C1.77926667,52 2.16666667,51.6126 2.16666667,51.1333333 L2.16666667,29.4666667 L11.7225333,29.4666667 C11.1722,30.1929333 10.8333333,31.0873333 10.8333333,32.0666667 C10.8333333,34.4560667 12.7772667,36.4 15.1666667,36.4 L47.2333333,36.4 C47.5548667,36.4 47.8504,36.2214667 48.0003333,35.9372 C48.1502667,35.6520667 48.1294667,35.3071333 47.9474667,35.0428 L38.7521333,21.6666667 Z M2.16666667,4.33333333 L19.5,4.33333333 L19.5,7.8 L19.5,27.7333333 L15.1666667,27.7333333 L2.16666667,27.7333333 L2.16666667,4.33333333 Z M15.1666667,34.6666667 C13.7332,34.6666667 12.5666667,33.5001333 12.5666667,32.0666667 C12.5666667,30.6332 13.7332,29.4666667 15.1666667,29.4666667 L20.3666667,29.4666667 C20.8459333,29.4666667 21.2333333,29.0792667 21.2333333,28.6 L21.2333333,8.66666667 L45.5858,8.66666667 L36.9858667,21.1761333 C36.7830667,21.4716667 36.7830667,21.8625333 36.9858667,22.1580667 L45.5858,34.6666667 L15.1666667,34.6666667 Z" id="path-1"></path>
    </defs>
    <g id="jkl/core/elements/icons/start" stroke="none" stroke-width="1" fill="none" fill-rule="evenodd">
        <g id="jkl/core/colors/primary" transform="translate(8.000000, 6.000000)">
            <mask id="mask-2" fill="white">
                <use xlink:href="#path-1"></use>
            </mask>
            <use id="Mask" fill="#000000" fill-rule="nonzero" xlink:href="#path-1"></use>
            <g mask="url(#mask-2)" fill="#ffffff" id="Rectangle-2">
                <g transform="translate(-18.000000, -15.000000)">
                    <rect x="0" y="0" width="84" height="79"></rect>
                </g>
            </g>
        </g>
        <g id="flag" transform="translate(8.000000, 6.000000)"></g>
    </g>
</svg>