<?xml version="1.0" encoding="UTF-8"?>
<svg width="64px" height="64px" viewBox="0 0 64 64" version="1.1" xmlns="http://www.w3.org/2000/svg" xmlns:xlink="http://www.w3.org/1999/xlink">
    <!-- Generator: Sketch 50.2 (55047) - http://www.bohemiancoding.com/sketch -->
    <title>jkl/core/elements/icons/storage</title>
    <desc>Created with Sketch.</desc>
    <defs>
        <path d="M49.8645536,16.6090838 L25.5946433,0.140187135 C25.3193372,-0.0468304094 24.9576686,-0.0467290448 24.6821598,0.140187135 L0.412249513,16.6090838 C0.189348928,16.7603197 0.0558518519,17.0121092 0.0558518519,17.2815361 L0.0558518519,51.0860975 C0.0558518519,51.5348382 0.419649123,51.8987368 0.868491228,51.8987368 L49.4083119,51.8987368 C49.857154,51.8987368 50.2209513,51.5349396 50.2209513,51.0860975 L50.2209513,17.2815361 C50.2209513,17.0121092 50.0875556,16.7603197 49.8645536,16.6090838 Z M19.1250526,50.2734581 L10.3489123,50.2734581 L10.3489123,41.4973177 L12.190807,41.4973177 L12.190807,45.8853879 C12.190807,46.3341287 12.5546043,46.6980273 13.0034464,46.6980273 L16.4706199,46.6980273 C16.9193606,46.6980273 17.2832593,46.33423 17.2832593,45.8853879 L17.2832593,41.4973177 L19.125154,41.4973177 L19.125154,50.2734581 L19.1250526,50.2734581 Z M28.605575,6.93424561 C29.0544172,6.93424561 29.4182144,7.29804288 29.4182144,7.74688499 C29.4182144,8.1957271 29.0544172,8.55952437 28.605575,8.55952437 L21.6713294,8.55952437 C21.2224873,8.55952437 20.8586901,8.1957271 20.8586901,7.74688499 C20.8586901,7.29804288 21.2225887,6.93424561 21.6713294,6.93424561 L28.605575,6.93424561 Z M28.605575,10.4014191 C29.0544172,10.4014191 29.4182144,10.7652164 29.4182144,11.2140585 C29.4182144,11.6629006 29.0544172,12.0266979 28.605575,12.0266979 L21.6713294,12.0266979 C21.2224873,12.0266979 20.8586901,11.6629006 20.8586901,11.2140585 C20.8586901,10.7652164 21.2225887,10.4014191 21.6713294,10.4014191 L28.605575,10.4014191 Z M28.605575,13.8684912 C29.0544172,13.8684912 29.4182144,14.2322885 29.4182144,14.6811306 C29.4182144,15.1299727 29.0544172,15.49377 28.605575,15.49377 L21.6713294,15.49377 C21.2224873,15.49377 20.8586901,15.1299727 20.8586901,14.6811306 C20.8586901,14.2322885 21.2225887,13.8684912 21.6713294,13.8684912 L28.605575,13.8684912 Z M16.4706199,37.2717349 C16.9193606,37.2717349 17.2831579,37.6355322 17.2832593,38.0843743 C17.2832593,38.5332164 16.9193606,38.8970136 16.4706199,38.8970136 L13.0034464,38.8970136 C12.5546043,38.8970136 12.190807,38.533115 12.190807,38.0843743 C12.190807,37.6355322 12.5547057,37.2717349 13.0034464,37.2717349 L16.4706199,37.2717349 Z M26.8719376,47.6730526 C27.3208811,47.6730526 27.684577,48.0369513 27.684577,48.485692 C27.684577,48.9345341 27.3207797,49.2983314 26.8719376,49.2983314 L23.4047641,49.2983314 C22.955922,49.2983314 22.5921248,48.9344327 22.5921248,48.485692 C22.5921248,48.0368499 22.9560234,47.6730526 23.4047641,47.6730526 L26.8719376,47.6730526 Z M8.61537622,20.8028382 L8.61537622,18.9609435 L41.6615283,18.9609435 L41.6615283,20.8028382 L8.61537622,20.8028382 Z M13.8160858,45.0727485 L13.8160858,41.4973177 L15.6579805,41.4973177 L15.6579805,45.0727485 L13.8160858,45.0727485 Z M19.1250526,39.872039 L16.4705185,39.872039 L13.003345,39.872039 L10.3488109,39.872039 L10.3488109,31.0958986 L12.1907057,31.0958986 L12.1907057,35.4839688 C12.1907057,35.9327096 12.5545029,36.2966082 13.003345,36.2966082 L16.4705185,36.2966082 C16.9192593,36.2966082 17.2831579,35.9328109 17.2831579,35.4839688 L17.2831579,31.0958986 L19.1250526,31.0958986 L19.1250526,39.872039 Z M13.8160858,34.6713294 L13.8160858,31.0958986 L15.6579805,31.0958986 L15.6579805,34.6713294 L13.8160858,34.6713294 Z M29.5264717,50.2734581 L20.7503314,50.2734581 L20.7503314,41.4973177 L22.5922261,41.4973177 L22.5922261,45.8853879 C22.5922261,46.3341287 22.9560234,46.6980273 23.4048655,46.6980273 L26.872039,46.6980273 C27.3208811,46.6980273 27.6846784,46.33423 27.6846784,45.8853879 L27.6846784,41.4973177 L29.5265731,41.4973177 L29.5265731,50.2734581 L29.5264717,50.2734581 Z M24.2174035,45.0727485 L24.2174035,41.4973177 L26.0592982,41.4973177 L26.0592982,45.0727485 L24.2174035,45.0727485 Z M48.5957739,50.2735595 L41.5531696,50.2734581 L41.5531696,32.8835634 C41.5531696,32.4348226 41.1894737,32.070924 40.7405302,32.070924 C40.2916881,32.070924 39.9278908,32.4347212 39.9278908,32.8835634 L39.9278908,50.2733567 L31.1517505,50.2733567 L31.1517505,40.6846784 C31.1517505,40.2359376 30.7880546,39.872039 30.3391111,39.872039 L20.7503314,39.872039 L20.7503314,30.2832593 C20.7503314,29.8345185 20.3865341,29.4706199 19.937692,29.4706199 L10.3489123,29.4706199 L10.3489123,22.4280156 L39.9278908,22.4280156 L39.9278908,29.4164912 C39.9278908,29.865232 40.2915867,30.2291306 40.7405302,30.2291306 C41.1893723,30.2291306 41.5531696,29.8653333 41.5531696,29.4164912 L41.5531696,22.4280156 L42.4741676,22.4280156 C42.9230097,22.4280156 43.286807,22.0642183 43.286807,21.6153762 L43.286807,18.1483041 C43.286807,17.6995634 42.9231111,17.3356647 42.4741676,17.3356647 L7.80273684,17.3356647 C7.3539961,17.3356647 6.99009747,17.699462 6.99009747,18.1483041 L6.99009747,21.6154776 C6.99009747,22.0642183 7.35389474,22.428117 7.80273684,22.428117 L8.72373489,22.428117 L8.72373489,50.2735595 L1.6811306,50.2735595 L1.6811306,17.7121326 L25.1384016,1.79465887 L48.5956725,17.7121326 L48.5957739,50.2735595 Z" id="path-1"></path>
    </defs>
    <g id="jkl/core/elements/icons/storage" stroke="none" stroke-width="1" fill="none" fill-rule="evenodd">
        <g id="jkl/core/colors/primary" transform="translate(7.000000, 6.000000)">
            <mask id="mask-2" fill="white">
                <use xlink:href="#path-1"></use>
            </mask>
            <use id="Mask" fill="#000000" fill-rule="nonzero" xlink:href="#path-1"></use>
            <g mask="url(#mask-2)" fill="#ffffff" id="Rectangle-2">
                <g transform="translate(-17.000000, -15.000000)">
                    <rect x="0" y="0" width="84" height="79"></rect>
                </g>
            </g>
        </g>
    </g>
</svg>