<?xml version="1.0" encoding="UTF-8"?>
<svg width="64px" height="64px" viewBox="0 0 64 64" version="1.1" xmlns="http://www.w3.org/2000/svg" xmlns:xlink="http://www.w3.org/1999/xlink">
    <!-- Generator: Sketch 50.2 (55047) - http://www.bohemiancoding.com/sketch -->
    <title>jkl/core/elements/icons/assests</title>
    <desc>Created with Sketch.</desc>
    <defs>
        <path d="M36.508875,0 L3.50675,0 C1.62114062,0 0.087140625,1.53410156 0.087140625,3.41960938 L0.087140625,7.76201563 L0.087140625,48.5803906 C0.087140625,50.466 1.62124219,52 3.50675,52 L36.508875,52 C38.3944844,52 39.9284844,50.4658984 39.9284844,48.5803906 L39.9284844,19.0522109 C39.9284844,18.6025938 39.5639766,18.2379844 39.1142578,18.2379844 C38.6646406,18.2379844 38.3000312,18.6024922 38.3000312,19.0522109 L38.3000312,48.5803906 C38.3000312,49.5680859 37.4964687,50.3716484 36.5087734,50.3716484 L3.50675,50.3716484 C2.51905469,50.3716484 1.71549219,49.5680859 1.71549219,48.5803906 L1.71549219,9.18886719 L12.6809922,15.6684531 C12.6808906,15.6746484 12.6799766,15.6806406 12.6799766,15.6868359 L12.6799766,25.5134141 C11.9032266,25.95125 11.3772344,26.7835547 11.3772344,27.7369219 L11.3772344,40.7641406 C11.3772344,41.2137578 11.7417422,41.5783672 12.1914609,41.5783672 L27.8240625,41.5783672 C28.2736797,41.5783672 28.6382891,41.2138594 28.6382891,40.7641406 L28.6382891,27.7369219 C28.6382891,26.7835547 28.1122969,25.95125 27.3355469,25.5134141 L27.3355469,15.6679453 L38.3000312,9.18886719 L38.3000312,15.5782656 C38.3000312,16.0278828 38.6645391,16.3924922 39.1142578,16.3924922 C39.563875,16.3924922 39.9284844,16.0279844 39.9284844,15.5782656 L39.9284844,7.76201562 L39.9284844,3.41960938 C39.9284844,1.53410156 38.3943828,0 36.508875,0 Z M27.0099375,39.9499141 L13.0056875,39.9499141 L13.0056875,27.7369219 C13.0056875,27.2280938 13.4196562,26.814125 13.9284844,26.814125 L26.0871406,26.814125 C26.5959687,26.814125 27.0099375,27.2280938 27.0099375,27.7369219 L27.0099375,39.9499141 Z M14.3084297,25.1857734 L14.3084297,16.6300469 L15.2854609,17.2073281 L15.2854609,25.1856719 L14.3084297,25.1856719 L14.3084297,25.1857734 Z M16.9139141,25.1857734 L16.9139141,18.1697344 L17.8263516,18.7089297 C18.4991016,19.1064453 19.2535078,19.3052031 20.0078125,19.3052031 C20.7621172,19.3052031 21.5164219,19.1064453 22.1892734,18.7089297 L23.1017109,18.1697344 L23.1017109,25.1857734 L16.9139141,25.1857734 Z M21.7447344,12.5929375 L20.0078125,12.5929375 C19.7384687,12.5929375 19.5192969,12.3737656 19.5192969,12.1044219 C19.5192969,11.8350781 19.7384687,11.6159062 20.0078125,11.6159062 L21.7447344,11.6159062 C23.9296484,11.6159062 25.7071953,13.3934531 25.7071953,15.5783672 L25.7071953,25.185875 L24.7301641,25.185875 L24.7301641,15.5783672 C24.7301641,13.9321406 23.3909609,12.5929375 21.7447344,12.5929375 Z M38.3001328,7.29736719 L27.0857031,13.9240156 C26.3787266,11.646375 24.2519062,9.98745313 21.7448359,9.98745313 L20.0078125,9.98745313 C18.8405547,9.98745313 17.8909453,10.9371641 17.8909453,12.1043203 C17.8909453,13.2714766 18.8406562,14.2211875 20.0078125,14.2211875 L21.7447344,14.2211875 C22.4930469,14.2211875 23.1017109,14.8298516 23.1017109,15.5781641 L23.1017109,16.2781328 L21.3608281,17.3068594 C20.5261875,17.7999453 19.4892344,17.7999453 18.6546953,17.3068594 L1.71549219,7.29736719 L1.71549219,3.41960938 C1.71549219,2.43191406 2.51905469,1.62835156 3.50675,1.62835156 L36.508875,1.62835156 C37.4965703,1.62835156 38.3001328,2.43191406 38.3001328,3.41960938 L38.3001328,7.29736719 Z M20.0078125,28.6597187 C18.1222031,28.6597187 16.5882031,30.1937187 16.5882031,32.0793281 C16.5882031,33.6844219 17.7000078,35.0338828 19.1935859,35.4003203 L19.1935859,37.2901953 C19.1935859,37.7398125 19.5580937,38.1044219 20.0078125,38.1044219 C20.4575312,38.1044219 20.8220391,37.7399141 20.8220391,37.2901953 L20.8220391,35.4003203 C22.3157187,35.0340859 23.4274219,33.6844219 23.4274219,32.0793281 C23.4274219,30.1937187 21.8934219,28.6597187 20.0078125,28.6597187 Z M20.0078125,33.8705859 C19.0201172,33.8705859 18.2165547,33.0670234 18.2165547,32.0793281 C18.2165547,31.0916328 19.0201172,30.2880703 20.0078125,30.2880703 C20.9955078,30.2880703 21.7990703,31.0916328 21.7990703,32.0793281 C21.7990703,33.0670234 20.9955078,33.8705859 20.0078125,33.8705859 Z" id="path-1"></path>
    </defs>
    <g id="jkl/core/elements/icons/assests" stroke="none" stroke-width="1" fill="none" fill-rule="evenodd">
        <g id="jkl/core/colors/primary" transform="translate(12.000000, 6.000000)">
            <mask id="mask-2" fill="white">
                <use xlink:href="#path-1"></use>
            </mask>
            <use id="Mask" fill="#000000" fill-rule="nonzero" xlink:href="#path-1"></use>
            <g mask="url(#mask-2)" fill="#ffffff" id="Rectangle-2">
                <g transform="translate(-22.000000, -14.000000)">
                    <rect x="0" y="0" width="84" height="79"></rect>
                </g>
            </g>
        </g>
    </g>
</svg>