<?xml version="1.0" encoding="UTF-8"?>
<svg width="100px" height="110px" viewBox="0 0 100 110" version="1.1" xmlns="http://www.w3.org/2000/svg" xmlns:xlink="http://www.w3.org/1999/xlink">
    <!-- Generator: Sketch 50.2 (55047) - http://www.bohemiancoding.com/sketch -->
    <title>Avataaar/Circle</title>
    <desc>Created with Sketch.</desc>
    <defs>
        <ellipse id="path-1" cx="50" cy="50.1428571" rx="50" ry="50.1428571"></ellipse>
        <path d="M5,66.8571429 L-3.19744231e-14,66.8571429 L-3.19744231e-14,-1.42108547e-14 L110,-1.42108547e-14 L110,66.8571429 L105,66.8571429 C105,94.5502782 82.6142375,117 55,117 C27.3857625,117 5,94.5502782 5,66.8571429 Z" id="path-3"></path>
        <path d="M31.6666667,60.4331342 C24.4669129,57.0129043 19.2965878,50.0141224 18.454249,41.7353462 C16.0302711,41.3895577 14.1666667,39.3052701 14.1666667,36.7857143 L14.1666667,30.9071429 C14.1666667,28.4296459 15.9685722,26.3730066 18.3333333,25.9762749 L18.3333333,23.3333333 C18.3333333,10.4466892 28.7800225,2.36723813e-15 41.6666667,0 C54.5533108,-2.36723813e-15 65,10.4466892 65,23.3333333 L65,25.9762749 C67.3647611,26.3730066 69.1666667,28.4296459 69.1666667,30.9071429 L69.1666667,36.7857143 C69.1666667,39.3052701 67.3030622,41.3895577 64.8790843,41.7353462 C64.0367455,50.0141224 58.8664204,57.0129043 51.6666667,60.4331342 L51.6666667,68.1797758 C69.3437315,69.303359 83.3333333,83.9965276 83.3333333,101.957143 L0,101.957143 C-2.199541e-15,83.9965276 13.9896019,69.303359 31.6666667,68.1797758 L31.6666667,60.4331342 Z" id="path-5"></path>
        <path d="M66.1897588,12.3149607 C83.3010447,14.0082935 96.6666667,28.4432926 96.6666667,46 L13.3333333,46 C13.3333333,28.4432926 26.6989553,14.0082935 43.8102412,12.3149607 C43.7704124,12.6727423 43.75,13.0358799 43.75,13.403448 C43.75,19.177334 48.7867966,23.8579935 55,23.8579935 C61.2132034,23.8579935 66.25,19.177334 66.25,13.403448 C66.25,13.0358799 66.2295876,12.6727423 66.1897588,12.3149607 Z" id="path-7"></path>
        <rect id="path-9" x="0" y="0" width="110" height="117"></rect>
        <path d="M42.2618345,41.3341342 C41.2145155,42.3000508 40.0988417,42.7344459 38.6887268,42.430679 C38.446074,42.3784559 37.456808,40.5198195 34.999931,40.5198195 C32.5430541,40.5198195 31.5539272,42.3784559 31.3111352,42.430679 C29.9010204,42.7344459 28.7853465,42.3000508 27.7380275,41.3341342 C25.7692405,39.5181491 24.1319258,37.013973 25.1157625,34.2817606 C25.6284935,32.85766 26.462395,31.2942039 27.9794274,30.8403836 C29.5993401,30.3560176 31.8737054,30.839539 33.5061476,30.5087456 C34.0350277,30.4014841 34.6127724,30.2108908 34.999931,29.8947368 C35.3870896,30.2108908 35.9649736,30.4014841 36.4935752,30.5087456 C38.1261566,30.839539 40.4005219,30.3560176 42.0204346,30.8403836 C43.537467,31.2942039 44.3713685,32.85766 44.8842388,34.2817606 C45.8680754,37.013973 44.2307607,39.5181491 42.2618345,41.3341342 M58.367097,10.9473684 C56.9461222,14.4843171 57.4949057,18.8875936 57.231944,22.6003673 C57.018349,25.6181871 56.3904667,30.1413695 53.738691,32.0903288 C52.3826503,33.0869953 49.9143167,34.7620626 48.1424459,34.2948187 C46.9227245,33.9732146 46.792576,30.4379352 45.1897019,29.1145179 C43.3715498,27.6136065 41.1012439,26.9541235 38.812145,27.0559462 C37.8243909,27.0999025 35.8267236,27.0894698 34.9999721,27.8570351 C34.1732206,27.0894698 32.1756936,27.0999025 31.1879395,27.0559462 C28.8987003,26.9541235 26.6283944,27.6136065 24.8102424,29.1145179 C23.2073683,30.4379352 23.07736,33.9732146 21.8576386,34.2948187 C20.0857678,34.7620626 17.6174342,33.0869953 16.2612532,32.0903288 C13.6093374,30.1413695 12.9817355,25.6181871 12.76786,22.6003673 C12.5050386,18.8875936 13.0538221,14.4843171 11.6328473,10.9473684 C10.9415737,10.9473684 11.3975141,17.7384713 11.3975141,17.7384713 L11.3975141,26.3095244 C11.4106973,32.7466125 15.3896229,42.3812401 24.2116715,46.0602121 C26.3692194,46.9599243 31.2563796,48.4210526 34.9999721,48.4210526 C38.7435646,48.4210526 43.6307248,47.0990264 45.7882728,46.1993141 C54.6103213,42.5203422 58.589247,32.7466125 58.6025704,26.3095244 L58.6025704,17.7384713 C58.6025704,17.7384713 59.0583706,10.9473684 58.367097,10.9473684" id="path-11"></path>
        <path d="M75.1753674,16.6810278 C74.0237327,15.5026666 72.6866026,14.5024967 71.3860413,13.4995228 C71.0990747,13.2784311 70.8075022,13.062667 70.5269561,12.8331634 C70.4631703,12.7810099 69.8098189,12.3124694 69.7316568,12.1400263 C69.5435095,11.7251815 69.6525177,12.0481969 69.6784787,11.553159 C69.7112789,10.9271766 70.9860188,9.15914417 70.0348141,8.7536926 C69.6163678,8.57536121 68.8699198,9.04993021 68.4685016,9.20667117 C67.6833913,9.51342359 66.8886503,9.77503238 66.0770207,10.0006104 C66.4658771,9.22475666 67.2073004,7.67164724 65.813782,8.08733323 C64.7281663,8.41118978 63.7165256,9.24382354 62.6256061,9.63553574 C62.9865474,9.04306052 64.4300338,7.20717247 63.1257039,7.1045478 C62.7198193,7.07258274 61.5387343,7.83497749 61.1017244,7.99760675 C59.7927885,8.48479353 58.455798,8.79967743 57.081541,9.04768705 C52.408704,9.89097583 46.9443364,9.65053688 42.6209956,11.78084 C39.2879407,13.4231151 35.9967584,15.9713473 34.071319,19.2162216 C32.2155276,22.3438907 31.5214203,25.766816 31.1329826,29.3508284 C30.8479701,31.9810763 30.8248006,34.699929 30.9580949,37.3397103 C31.0016424,38.2045895 31.0987867,42.1913897 32.3535674,40.9840077 C32.9787246,40.3824196 32.9741186,37.9532152 33.1315594,37.130956 C33.4449056,35.4949898 33.7465276,33.8517333 34.2689574,32.2680608 C35.1895952,29.4772867 36.2756295,26.504536 38.5691286,24.5824264 C40.0409487,23.3491078 41.0745028,21.6821579 42.4829558,20.4379038 C43.11565,19.8790761 42.6328595,19.9372581 43.6500833,20.0105814 C44.3334433,20.0597908 45.019874,20.0785773 45.7046298,20.0965226 C47.2886683,20.1377407 48.8752192,20.1272259 50.4596765,20.1328338 C53.6506439,20.14433 56.8266767,20.1894736 60.0145735,20.0222178 C61.4312614,19.9479131 62.8518574,19.9076764 64.2647768,19.7764514 C65.0540744,19.703128 66.4545716,19.196594 67.1042939,19.5836796 C67.6988841,19.9378189 68.3163647,21.094169 68.7433251,21.5677566 C69.7520348,22.6869543 70.954754,23.5417393 72.1343037,24.459473 C74.5938973,26.3730306 75.8356975,28.7764387 76.5827038,31.7668543 C77.3269186,34.7461942 77.1182537,37.5102627 78.0394498,40.4422158 C78.2014965,40.9577225 78.6301319,41.8462952 79.1585634,41.0498324 C79.2566848,40.9019239 79.2312821,40.088808 79.2312821,39.6209381 C79.2312821,37.7323301 79.7089083,36.3152862 79.7029066,34.4143464 C79.6794579,28.6345587 79.492846,21.0979543 75.1753674,16.6810278 Z" id="path-13"></path>
        <filter x="-1.9%" y="-5.7%" width="105.5%" height="126.0%" filterUnits="objectBoundingBox" id="filter-15">
            <feOffset dx="0" dy="2" in="SourceAlpha" result="shadowOffsetOuter1"></feOffset>
            <feColorMatrix values="0 0 0 0 0   0 0 0 0 0   0 0 0 0 0  0 0 0 0.2 0" type="matrix" in="shadowOffsetOuter1" result="shadowMatrixOuter1"></feColorMatrix>
            <feMerge>
                <feMergeNode in="shadowMatrixOuter1"></feMergeNode>
                <feMergeNode in="SourceGraphic"></feMergeNode>
            </feMerge>
        </filter>
    </defs>
    <g id="Symbols" stroke="none" stroke-width="1" fill="none" fill-rule="evenodd">
        <g id="jkl/core/login-sidebar" transform="translate(-170.000000, -239.000000)">
            <g id="Avataaar/Circle" transform="translate(165.000000, 232.000000)">
                <g id="Circle" stroke-width="1" fill-rule="evenodd" transform="translate(5.000000, 16.714286)">
                    <mask id="mask-2" fill="white">
                        <use xlink:href="#path-1"></use>
                    </mask>
                    <use id="Circle-Background" fill="#E6E6E6" xlink:href="#path-1"></use>
                    <g id="Color/Palette/Blue-03" mask="url(#mask-2)" fill="#25557C">
                        <rect id="ðŸ–Color" x="0" y="0" width="100" height="100"></rect>
                    </g>
                </g>
                <mask id="mask-4" fill="white">
                    <use xlink:href="#path-3"></use>
                </mask>
                <g id="Mask"></g>
                <g id="Avataaar" stroke-width="1" fill-rule="evenodd" mask="url(#mask-4)">
                    <g id="Body" transform="translate(13.333333, 15.042857)">
                        <mask id="mask-6" fill="white">
                            <use xlink:href="#path-5"></use>
                        </mask>
                        <use fill="#D0C6AC" xlink:href="#path-5"></use>
                        <g id="Skin/ðŸ‘¶ðŸ½-03-Brown" mask="url(#mask-6)" fill="#D08B5B">
                            <g transform="translate(-13.333333, 0.000000)" id="Color">
                                <rect x="0" y="0" width="110" height="102"></rect>
                            </g>
                        </g>
                        <path d="M65,39.3452381 L65,42.6880952 C65,55.5747394 54.5533108,66.0214286 41.6666667,66.0214286 C28.7800225,66.0214286 18.3333333,55.5747394 18.3333333,42.6880952 L18.3333333,39.3452381 C18.3333333,52.2318823 28.7800225,62.6785714 41.6666667,62.6785714 C54.5533108,62.6785714 65,52.2318823 65,39.3452381 Z" id="Neck-Shadow" fill-opacity="0.100000001" fill="#000000" mask="url(#mask-6)"></path>
                    </g>
                    <g id="Clothing/Blazer-+-Sweater" transform="translate(0.000000, 71.035714)">
                        <mask id="mask-8" fill="white">
                            <use xlink:href="#path-7"></use>
                        </mask>
                        <use id="Clothes" fill="#E6E6E6" fill-rule="evenodd" xlink:href="#path-7"></use>
                        <g id="Color/Palette/Gray-01" mask="url(#mask-8)" fill="#E6E6E6" fill-rule="evenodd">
                            <rect id="ðŸ–Color" x="0" y="0" width="110" height="46"></rect>
                        </g>
                        <g id="Blazer" stroke-width="1" fill-rule="evenodd" transform="translate(13.333333, 11.709091)">
                            <path d="M55.2057451,0.921653627 C71.1755009,3.64118551 83.3333333,17.5462403 83.3333333,34.2909091 L54.8493014,34.2909091 C56.2663578,29.2392703 57.0833333,23.2963778 57.0833333,16.9363636 C57.0833333,11.1302542 56.4024648,5.6717747 55.2057451,0.921653627 Z M28.9006986,34.2909091 L0,34.2909091 C-2.06919389e-15,17.3946587 12.3789471,3.38966633 28.5622193,0.85055378 C27.3543514,5.61727437 26.6666667,11.101264 26.6666667,16.9363636 C26.6666667,23.2963778 27.4836422,29.2392703 28.9006986,34.2909091 Z" id="Saco" fill="#3A4C5A"></path>
                            <path d="M62.0833333,24.2545455 L64.633511,22.3349572 C66.0788253,21.2470297 68.0744107,21.2645501 69.5004006,22.3776865 L70.8333333,23.4181818 L62.0833333,24.2545455 Z" id="Pocket-hanky" fill="#E6E6E6"></path>
                            <path d="M28.75,1.13686838e-13 C27.0833333,8.08484848 27.7777778,19.5151515 30.8333333,34.2909091 L24.1666667,34.2909091 L18.3333333,19.2363636 L20.8333333,15.4727273 L18.3333333,12.9636364 L26.25,0.418181818 C27.0948579,0.154408885 27.9281913,0.0150149452 28.75,1.13686838e-13 Z" id="Wing" fill="#2F4351"></path>
                            <path d="M62.9166667,1.13686838e-13 C61.25,8.08484848 61.9444444,19.5151515 65,34.2909091 L58.3333333,34.2909091 L52.5,19.2363636 L55,15.4727273 L52.5,12.9636364 L60.4166667,0.418181818 C61.2615246,0.154408885 62.0948579,0.0150149452 62.9166667,1.13686838e-13 Z" id="Wing" fill="#2F4351" transform="translate(58.750000, 17.145455) scale(-1, 1) translate(-58.750000, -17.145455) "></path>
                        </g>
                        <path d="M65,9.00722078 C67.8217997,10.9295818 69.5833333,13.6562791 69.5833333,16.6803862 C69.5833333,19.7753043 67.7383395,22.5587215 64.8000436,24.4872612 L62.3247207,22.5301698 L60.4166667,22.6687527 L60.8333333,21.351018 L60.8009288,21.3253976 C63.3427045,20.0112757 65,17.8565133 65,15.4212115 L65,9.00722078 Z M45,9.00722078 L45,15.4212115 C45,17.8565133 46.6572955,20.0112757 49.1990712,21.3253976 L49.1666667,21.351018 L49.5833333,22.6687527 L47.6752793,22.5301698 L45.1999564,24.4872612 C42.2616605,22.5587215 40.4166667,19.7753043 40.4166667,16.6803862 C40.4166667,13.6562791 42.1782003,10.9295818 45,9.00722078 Z" id="Collar" fill="#F2F2F2" fill-rule="evenodd"></path>
                    </g>
                    <g id="Face" transform="translate(31.666667, 34.264286)" fill="#000000">
                        <g id="Mouth/Default" transform="translate(0.833333, 21.728571)" fill-opacity="0.699999988">
                            <path d="M16.6666667,6.13636364 C16.6666667,9.29944902 19.278339,11.8636364 22.5,11.8636364 C25.721661,11.8636364 28.3333333,9.29944902 28.3333333,6.13636364" id="Mouth"></path>
                        </g>
                        <g id="Nose/Default" transform="translate(11.666667, 16.714286)" fill-opacity="0.16">
                            <path d="M6.57142857,3.33333333 C6.57142857,5.1742825 8.77802516,6.66666667 11.5,6.66666667 C14.2219748,6.66666667 16.4285714,5.1742825 16.4285714,3.33333333" id="Nose"></path>
                        </g>
                        <g id="Eyes/Default-ðŸ˜€" transform="translate(0.000000, 3.342857)" fill-opacity="0.599999964">
                            <ellipse id="Eye" cx="12.5892857" cy="9" rx="2.51785714" ry="2.45454545"></ellipse>
                            <ellipse id="Eye" cx="34.4107143" cy="9" rx="2.51785714" ry="2.45454545"></ellipse>
                        </g>
                        <g id="Eyebrow/Outline/Default" fill-opacity="0.599999964">
                            <g id="I-Browse" transform="translate(5.035714, 2.500000)">
                                <path d="M1.52340654,4.64940698 C3.1662704,2.35411114 7.67019845,1.0670155 11.5498416,2.01299186 C11.9999917,2.12275229 12.4545243,1.84940005 12.5650688,1.40244255 C12.6756132,0.955485043 12.4003085,0.504175983 11.9501584,0.39441555 C7.44461674,-0.704174121 2.22918466,0.7862493 0.155164893,3.68392636 C-0.113349575,4.05907621 -0.0247322358,4.57932546 0.353097261,4.84593557 C0.730926757,5.11254568 1.25489207,5.02455683 1.52340654,4.64940698 Z" id="Eyebrow" fill-rule="nonzero"></path>
                                <path d="M25.8626922,4.64940698 C27.5055561,2.35411114 32.0094842,1.0670155 35.8891273,2.01299186 C36.3392774,2.12275229 36.7938101,1.84940005 36.9043545,1.40244255 C37.0148989,0.955485043 36.7395942,0.504175983 36.2894441,0.39441555 C31.7839025,-0.704174121 26.5684704,0.7862493 24.4944506,3.68392636 C24.2259361,4.05907621 24.3145535,4.57932546 24.692383,4.84593557 C25.0702125,5.11254568 25.5941778,5.02455683 25.8626922,4.64940698 Z" id="Eyebrow" fill-rule="nonzero" transform="translate(30.633993, 2.516333) scale(-1, 1) translate(-30.633993, -2.516333) "></path>
                            </g>
                        </g>
                    </g>
                    <g id="Top">
                        <mask id="mask-10" fill="white">
                            <use xlink:href="#path-9"></use>
                        </mask>
                        <g id="Mask"></g>
                        <g id="Top/Short-Hair/Short-Flat" mask="url(#mask-10)">
                            <g transform="translate(-0.416667, 0.000000)">
                                <g id="Facial-Hair/Beard-Light" stroke="none" fill="none" transform="translate(20.447368, 30.085714)">
                                    <mask id="mask-12" fill="white">
                                        <use xlink:href="#path-11"></use>
                                    </mask>
                                    <use id="Lite-Beard" fill="#331B0C" fill-rule="evenodd" xlink:href="#path-11"></use>
                                    <g id="Color/Hair/Black" mask="url(#mask-12)" fill="#2C1B18" fill-rule="evenodd">
                                        <rect id="Color" x="0" y="0" width="70" height="64"></rect>
                                    </g>
                                </g>
                                <mask id="mask-14" fill="white">
                                    <use xlink:href="#path-13"></use>
                                </mask>
                                <use id="Short-Hair" stroke="none" fill="#1F3140" fill-rule="evenodd" xlink:href="#path-13"></use>
                                <g id="Color/Hair/Black" stroke="none" fill="none" mask="url(#mask-14)" fill-rule="evenodd">
                                    <g transform="translate(0.417293, 0.000000)" fill="#2C1B18" id="Color">
                                        <rect x="0" y="0" width="110" height="117"></rect>
                                    </g>
                                </g>
                                <g id="Top/_Resources/Prescription-02" stroke="none" fill="none" mask="url(#mask-14)" fill-rule="evenodd" stroke-width="1">
                                    <g transform="translate(25.872180, 35.517857)" id="Wayfarers">
                                        <g filter="url(#filter-15)" transform="translate(2.492958, 2.981481)">
                                            <path d="M14.1267606,17.462963 L12.9808932,17.462963 C7.19414109,17.462963 3.73943662,14.1986362 3.73943662,8.73148148 C3.73943662,4.31335185 4.49438972,0 13.5159571,0 L14.737564,0 C23.7591314,0 24.5140845,4.31335185 24.5140845,8.73148148 C24.5140845,13.8718294 20.2433466,17.462963 14.1267606,17.462963 Z M13.4558893,2.55555556 C5.40140845,2.55555556 5.40140845,5.46932159 5.40140845,9.15806753 C5.40140845,12.1695312 6.69619006,15.7592593 12.868206,15.7592593 L14.1267606,15.7592593 C19.264293,15.7592593 22.8521127,13.0448492 22.8521127,9.15806753 C22.8521127,5.46932159 22.8521127,2.55555556 14.7976319,2.55555556 L13.4558893,2.55555556 Z" id="Left" fill="#252C2F" fill-rule="nonzero"></path>
                                            <path d="M39.8873239,17.462963 L38.7414566,17.462963 C32.9547045,17.462963 29.5,14.1986362 29.5,8.73148148 C29.5,4.31335185 30.2549531,0 39.2765205,0 L40.4981274,0 C49.5196948,0 50.2746479,4.31335185 50.2746479,8.73148148 C50.2746479,13.8718294 46.00391,17.462963 39.8873239,17.462963 Z M39.2164526,2.55555556 C31.1619718,2.55555556 31.1619718,5.46932159 31.1619718,9.15806753 C31.1619718,12.1695312 32.4580952,15.7592593 38.6287694,15.7592593 L39.8873239,15.7592593 C45.0248564,15.7592593 48.6126761,13.0448492 48.6126761,9.15806753 C48.6126761,5.46932159 48.6126761,2.55555556 40.5581952,2.55555556 L39.2164526,2.55555556 Z" id="Right" fill="#252C2F" fill-rule="nonzero"></path>
                                            <path d="M1.22759283,2.45825891 C1.51484955,2.17064262 4.6574872,0 13.5035211,0 C20.920637,0 22.4907282,0.78910111 24.867348,1.98135668 L25.0413132,2.06936494 C25.2065457,2.12921178 26.0515101,2.42344603 27.0398914,2.45580165 C27.9403619,2.41618649 28.7105715,2.16600452 28.9356351,2.08584345 C31.6482613,0.733481245 34.3035544,0 40.5105634,0 C49.3565973,0 52.499235,2.17064262 52.7864917,2.45825891 C53.4653505,2.45825891 54.0140845,3.00767977 54.0140845,3.68738836 L54.0140845,4.91651782 C54.0140845,5.59622641 53.4653505,6.14564727 52.7864917,6.14564727 C52.7864917,6.14564727 49.9189848,6.14564727 49.9189848,7.37477673 C49.9189848,8.60390618 49.1037132,5.59622641 49.1037132,4.91651782 L49.1037132,3.71935662 C47.606591,3.13200435 44.9265934,2.03855617 40.5105634,2.03855617 C35.590489,2.03855617 33.1401747,2.93293791 31.0382769,3.82103416 L31.0617814,3.87913256 L31.0607439,4.72512035 L30.1395129,7.00377001 L29.0016124,6.54257791 C28.8999854,6.50138838 28.6807059,6.42738917 28.3766527,6.35051484 C27.5290144,6.1362049 26.6575747,6.07096459 25.886908,6.23313136 C25.6041678,6.29262667 25.3418415,6.38190733 25.1010983,6.50249697 L24.0032286,7.05242614 L22.9047453,4.85393836 L22.9535307,3.8766743 L22.9870732,3.79365346 C21.174374,2.92775678 19.5029336,2.03855617 13.5035211,2.03855617 C9.08772259,2.03855617 6.40778684,3.13159469 4.91037132,3.71895821 L4.91037132,4.91651782 C4.91037132,5.59622641 3.68277849,8.60390618 3.68277849,7.37477673 C3.68277849,6.14564727 1.22759283,6.14564727 1.22759283,6.14564727 C0.549961588,6.14564727 0,5.59622641 0,4.91651782 L0,3.68738836 C0,3.00767977 0.549961588,2.45825891 1.22759283,2.45825891 Z" id="Stuff" fill="#252C2F" fill-rule="nonzero"></path>
                                        </g>
                                    </g>
                                </g>
                            </g>
                        </g>
                    </g>
                </g>
            </g>
        </g>
    </g>
</svg>