<?xml version="1.0" encoding="UTF-8"?>
<svg width="64px" height="64px" viewBox="0 0 64 64" version="1.1" xmlns="http://www.w3.org/2000/svg" xmlns:xlink="http://www.w3.org/1999/xlink">
    <!-- Generator: Sketch 50.2 (55047) - http://www.bohemiancoding.com/sketch -->
    <title>jkl/core/elements/icons/collete</title>
    <desc>Created with Sketch.</desc>
    <defs>
        <path d="M49.8246667,14.3 L47.6666667,14.3 L47.6666667,6.5 L22.9796667,6.5 L18.6463333,0.433333333 L2.36773333,0.433333333 C1.06253333,0.433333333 0,1.49586667 0,2.80106667 L0,40.6631333 L0.0052,40.6631333 C0.000866666667,41.1510667 0.152533333,41.6286 0.4576,42.0281333 C0.882266667,42.5828 1.52533333,42.9 2.223,42.9 L41.0141333,42.9 C42.016,42.9 42.8982667,42.2248667 43.1374667,41.3287333 L52,17.0291333 L52,16.8757333 C52,15.3833333 51.0848,14.3 49.8246667,14.3 Z M45.9333333,8.23333333 L45.9333333,14.3 L39,14.3 L39,11.7 C39,11.2207333 38.6117333,10.8333333 38.1333333,10.8333333 C37.6549333,10.8333333 37.2666667,11.2207333 37.2666667,11.7 L37.2666667,14.3 L32.9333333,14.3 L32.9333333,11.7 C32.9333333,11.2207333 32.5450667,10.8333333 32.0666667,10.8333333 C31.5882667,10.8333333 31.2,11.2207333 31.2,11.7 L31.2,14.3 L26.8666667,14.3 L26.8666667,11.7 C26.8666667,11.2207333 26.4784,10.8333333 26,10.8333333 C25.5216,10.8333333 25.1333333,11.2207333 25.1333333,11.7 L25.1333333,14.3 L20.8,14.3 L20.8,11.7 C20.8,11.2207333 20.4117333,10.8333333 19.9333333,10.8333333 C19.4549333,10.8333333 19.0666667,11.2207333 19.0666667,11.7 L19.0666667,14.3 L14.7333333,14.3 L14.7333333,11.7 C14.7333333,11.2207333 14.3450667,10.8333333 13.8666667,10.8333333 C13.3882667,10.8333333 13,11.2207333 13,11.7 L13,14.3 L11.0335333,14.3 C10.9096,14.3 10.7874,14.3104 10.6678,14.3303333 C9.82366667,14.4707333 9.11993333,15.0860667 8.9102,15.8712667 L8.63546667,16.6252667 L4.33333333,28.4206 L4.33333333,13.4333333 L9.53333333,13.4333333 L9.53333333,8.23333333 L24.2172667,8.23333333 L45.9333333,8.23333333 Z M5.5588,11.7 L7.8,9.4588 L7.8,11.7 L5.5588,11.7 Z M1.73333333,2.80106667 C1.73333333,2.45093333 2.01846667,2.16666667 2.36773333,2.16666667 L17.7536667,2.16666667 L20.8485333,6.5 L8.30786667,6.5 L2.6,12.2078667 L2.6,33.0815333 L1.73333333,35.4458 L1.73333333,2.80106667 Z M41.4864667,40.8052667 C41.4292667,41.0176 41.2342667,41.1666667 41.0141333,41.1666667 L2.223,41.1666667 C2.0124,41.1666667 1.88933333,41.0462 1.83473333,40.9742667 C1.78013333,40.9032 1.69606667,40.7524 1.72813333,40.6206667 L2.6,38.2304 L2.6,38.2312667 L10.5386667,16.4658 L10.5612,16.3947333 C10.6184,16.1824 10.8134,16.0333333 11.0335333,16.0333333 L47.6666667,16.0333333 L49.8246667,16.0333333 C50.154,16.0333333 50.2380667,16.5065333 50.2597333,16.7431333 L41.4864667,40.8052667 Z" id="path-1"></path>
    </defs>
    <g id="jkl/core/elements/icons/collete" stroke="none" stroke-width="1" fill="none" fill-rule="evenodd">
        <g id="jkl/core/colors/primary" transform="translate(6.000000, 10.000000)">
            <mask id="mask-2" fill="white">
                <use xlink:href="#path-1"></use>
            </mask>
            <use id="Mask" fill="#000000" fill-rule="nonzero" xlink:href="#path-1"></use>
            <g mask="url(#mask-2)" fill="#ffffff" id="Rectangle-2">
                <g transform="translate(-16.000000, -19.000000)">
                    <rect x="0" y="0" width="84" height="79"></rect>
                </g>
            </g>
        </g>
    </g>
</svg>