<?xml version="1.0" encoding="UTF-8"?>
<svg width="64px" height="64px" viewBox="0 0 64 64" version="1.1" xmlns="http://www.w3.org/2000/svg" xmlns:xlink="http://www.w3.org/1999/xlink">
    <!-- Generator: Sketch 50.2 (55047) - http://www.bohemiancoding.com/sketch -->
    <title>jkl/core/elements/icons/documents</title>
    <desc>Created with Sketch.</desc>
    <defs>
        <path d="M31.7343203,28.1057969 L20.2656797,28.1057969 C19.4012812,28.1057969 18.6981641,28.8089141 18.6981641,29.6733125 L18.6981641,33.1908281 C18.6981641,34.0552266 19.4012812,34.7584453 20.2656797,34.7584453 L31.7344219,34.7584453 C32.5988203,34.7584453 33.3020391,34.0553281 33.3020391,33.1908281 L33.3020391,29.6733125 C33.3018359,28.8090156 32.5987187,28.1057969 31.7343203,28.1057969 Z M31.2864297,32.7430391 L20.7134688,32.7430391 L20.7134688,30.1213047 L31.2864297,30.1213047 L31.2864297,32.7430391 Z M51.48975,19.3941719 L51.5058984,19.3860469 L43.9491406,4.44579687 C43.3382422,3.23821875 42.1184766,2.48817969 40.7655625,2.48817969 L39.3293672,2.48817969 L39.3293672,1.0993125 C39.3293672,0.54275 38.8782266,0.091609375 38.3216641,0.091609375 L13.6784375,0.091609375 C13.121875,0.091609375 12.6707344,0.54275 12.6707344,1.0993125 L12.6707344,2.48817969 L11.2345391,2.48817969 C9.881625,2.48817969 8.66185938,3.23821875 8.05096094,4.44579687 L0.494101563,19.3860469 L0.51025,19.3941719 C0.186570313,19.9272734 0,20.5524922 0,21.2203672 L0,37.0040937 C0,38.9502344 1.58335937,40.5334922 3.5295,40.5334922 L48.4706016,40.5334922 C50.4167422,40.5334922 52,38.9501328 52,37.0040937 L52,21.2203672 C52,20.5524922 51.8134297,19.9272734 51.48975,19.3941719 Z M39.3292656,4.72753125 L40.7654609,4.72753125 C41.2691094,4.72753125 41.7231953,5.00692969 41.9507969,5.45664844 L48.139,17.6910703 L43.9311641,17.6910703 L43.9311641,13.9265547 C43.9311641,13.3699922 43.4800234,12.9188516 42.9234609,12.9188516 L41.6767813,12.9188516 L41.6767813,7.51298437 C41.6767813,6.95642187 41.2256406,6.50528125 40.6690781,6.50528125 L39.3292656,6.50528125 L39.3292656,4.72753125 Z M41.9158594,14.9341562 L41.9158594,17.6909687 L36.5981484,17.6909687 C35.6857109,17.6909687 34.8539141,18.2285391 34.4790469,19.0602344 L33.0271094,22.2807812 C33.0132969,22.3111484 32.9829297,22.3308516 32.9495156,22.3308516 L19.0505859,22.3308516 C19.0171719,22.3308516 18.9868047,22.3111484 18.9729922,22.2806797 L17.5211563,19.0603359 C17.1461875,18.2285391 16.3143906,17.6909687 15.4019531,17.6909687 L10.0842422,17.6909687 L10.0842422,14.9341562 L41.9158594,14.9341562 Z M14.6861406,2.10701562 L37.3138594,2.10701562 L37.3138594,6.50517969 L14.6861406,6.50517969 L14.6861406,2.10701562 Z M39.661375,8.52058594 L39.661375,12.91875 L12.338625,12.91875 L12.338625,8.52058594 L39.661375,8.52058594 Z M10.0492031,5.45664844 C10.2767031,5.00682812 10.7308906,4.72753125 11.2345391,4.72753125 L12.6707344,4.72753125 L12.6707344,6.50517969 L11.3309219,6.50517969 C10.7743594,6.50517969 10.3232188,6.95632031 10.3232188,7.51288281 L10.3232188,12.91875 L9.07653906,12.91875 C8.51997656,12.91875 8.06883594,13.3698906 8.06883594,13.9264531 L8.06883594,17.6909687 L3.861,17.6909687 L10.0492031,5.45664844 Z M48.4706016,38.2940391 L3.5295,38.2940391 C2.81815625,38.2940391 2.23935156,37.7152344 2.23935156,37.0040937 L2.23935156,21.2203672 C2.23935156,20.509125 2.81805469,19.9304219 3.5295,19.9304219 L15.4019531,19.9304219 C15.4352656,19.9304219 15.4658359,19.950125 15.4796484,19.9806953 L16.9314844,23.2010391 C17.3064531,24.0328359 18.1381484,24.5702031 19.0505859,24.5702031 L32.9494141,24.5702031 C33.8618516,24.5702031 34.6936484,24.0327344 35.0685156,23.2011406 L36.5204531,19.9806953 L36.5204531,19.9805937 C36.5342656,19.950125 36.5646328,19.9304219 36.5980469,19.9304219 L48.4705,19.9304219 C49.1818437,19.9304219 49.7604453,20.5092266 49.7604453,21.2203672 L49.7604453,37.0040937 L49.7605469,37.0040937 C49.7606484,37.7154375 49.1819453,38.2940391 48.4706016,38.2940391 Z" id="path-1"></path>
    </defs>
    <g id="jkl/core/elements/icons/documents" stroke="none" stroke-width="1" fill="none" fill-rule="evenodd">
        <g id="jkl/core/colors/primary" transform="translate(6.000000, 12.000000)">
            <mask id="mask-2" fill="white">
                <use xlink:href="#path-1"></use>
            </mask>
            <use id="Mask" fill="#000000" fill-rule="nonzero" xlink:href="#path-1"></use>
            <g mask="url(#mask-2)" fill="#ffffff" id="Rectangle-2">
                <g transform="translate(-17.000000, -19.000000)">
                    <rect x="0" y="0" width="84" height="79"></rect>
                </g>
            </g>
        </g>
    </g>
</svg>