<svg xmlns="http://www.w3.org/2000/svg" height="512pt" version="1.1" viewBox="-13 0 512 512.00002" width="512pt">
<g id="surface1">
<path d="M 486.238281 268.882812 C 486.238281 403.152344 377.390625 512 243.117188 512 C 108.847656 512 0 403.152344 0 268.882812 C 0 134.609375 108.847656 25.761719 243.117188 25.761719 C 377.390625 25.761719 486.238281 134.609375 486.238281 268.882812 Z M 486.238281 268.882812 " style=" stroke:none;fill-rule:nonzero;fill:rgb(100%,73.72549%,10.196078%);fill-opacity:1;" />
<path d="M 37.664062 163.605469 L 53.429688 192.792969 L 432.808594 192.792969 L 448.574219 163.605469 Z M 37.664062 163.605469 " style=" stroke:none;fill-rule:nonzero;fill:rgb(18.823529%,61.960784%,87.45098%);fill-opacity:1;" />
<path d="M 37.664062 163.605469 L 53.429688 192.792969 L 91.914062 192.792969 L 76.148438 163.605469 Z M 37.664062 163.605469 " style=" stroke:none;fill-rule:nonzero;fill:rgb(6.666667%,47.843137%,78.823529%);fill-opacity:1;" />
<path d="M 432.808594 339.082031 L 53.429688 339.082031 L 53.429688 420.9375 C 75.054688 447.878906 102.289062 470.117188 133.378906 485.867188 L 352.863281 485.867188 C 383.949219 470.117188 411.183594 447.878906 432.808594 420.9375 Z M 432.808594 339.082031 " style=" stroke:none;fill-rule:nonzero;fill:rgb(94.117647%,96.078431%,98.823529%);fill-opacity:1;" />
<path d="M 91.933594 339.082031 L 53.429688 339.082031 L 53.429688 420.9375 C 64.796875 435.097656 77.726562 447.941406 91.9375 459.242188 L 91.9375 339.082031 Z M 91.933594 339.082031 " style=" stroke:none;fill-rule:nonzero;fill:rgb(87.058824%,91.372549%,98.823529%);fill-opacity:1;" />
<path d="M 53.429688 192.792969 L 432.808594 192.792969 L 432.808594 339.085938 L 53.429688 339.085938 Z M 53.429688 192.792969 " style=" stroke:none;fill-rule:nonzero;fill:rgb(87.058824%,91.372549%,98.823529%);fill-opacity:1;" />
<path d="M 53.429688 192.792969 L 91.9375 192.792969 L 91.9375 339.085938 L 53.429688 339.085938 Z M 53.429688 192.792969 " style=" stroke:none;fill-rule:nonzero;fill:rgb(70.980392%,78.823529%,95.686275%);fill-opacity:1;" />
<path d="M 94.972656 224.941406 C 93.296875 224.941406 91.933594 226.300781 91.933594 227.976562 L 91.933594 283.359375 L 120.210938 283.359375 L 120.210938 224.941406 Z M 94.972656 224.941406 " style=" stroke:none;fill-rule:nonzero;fill:rgb(47.45098%,54.901961%,79.607843%);fill-opacity:1;" />
<path d="M 145.457031 224.941406 L 120.210938 224.941406 L 120.210938 283.359375 L 148.488281 283.359375 L 148.488281 227.972656 C 148.488281 226.296875 147.128906 224.941406 145.457031 224.941406 Z M 145.457031 224.941406 " style=" stroke:none;fill-rule:nonzero;fill:rgb(60.392157%,69.019608%,89.019608%);fill-opacity:1;" />
<path d="M 290.59375 374.921875 L 195.644531 374.921875 C 192.949219 374.921875 190.765625 377.105469 190.765625 379.800781 L 190.765625 485.867188 L 295.472656 485.867188 L 295.472656 379.800781 C 295.472656 377.105469 293.289062 374.921875 290.59375 374.921875 Z M 290.59375 374.921875 " style=" stroke:none;fill-rule:nonzero;fill:rgb(31.372549%,71.764706%,91.764706%);fill-opacity:1;" />
<path d="M 190.765625 379.800781 L 190.765625 485.867188 L 243.117188 485.867188 L 243.117188 374.921875 L 195.644531 374.921875 C 192.949219 374.921875 190.765625 377.105469 190.765625 379.800781 Z M 190.765625 379.800781 " style=" stroke:none;fill-rule:nonzero;fill:rgb(18.823529%,61.960784%,87.45098%);fill-opacity:1;" />
<path d="M 454.707031 159.507812 L 454.707031 117.59375 C 454.707031 114.203125 451.960938 111.457031 448.574219 111.457031 L 37.664062 111.457031 C 34.277344 111.457031 31.53125 114.203125 31.53125 117.59375 L 31.53125 159.507812 C 31.53125 162.894531 34.277344 165.644531 37.664062 165.644531 L 448.574219 165.644531 C 451.960938 165.644531 454.707031 162.898438 454.707031 159.507812 Z M 454.707031 159.507812 " style=" stroke:none;fill-rule:nonzero;fill:rgb(31.372549%,71.764706%,91.764706%);fill-opacity:1;" />
<path d="M 71.574219 159.507812 L 71.574219 117.59375 C 71.574219 114.203125 74.320312 111.457031 77.710938 111.457031 L 37.664062 111.457031 C 34.277344 111.457031 31.53125 114.203125 31.53125 117.59375 L 31.53125 159.507812 C 31.53125 162.894531 34.277344 165.644531 37.664062 165.644531 L 77.710938 165.644531 C 74.320312 165.644531 71.574219 162.898438 71.574219 159.507812 Z M 71.574219 159.507812 " style=" stroke:none;fill-rule:nonzero;fill:rgb(18.823529%,61.960784%,87.45098%);fill-opacity:1;" />
<path d="M 301.359375 0 L 184.878906 0 C 178.808594 0 173.84375 4.964844 173.84375 11.035156 L 173.84375 127.515625 C 173.84375 133.585938 178.808594 138.550781 184.878906 138.550781 L 301.359375 138.550781 C 307.429688 138.550781 312.394531 133.585938 312.394531 127.515625 L 312.394531 11.035156 C 312.394531 4.964844 307.429688 0 301.359375 0 Z M 301.359375 0 " style=" stroke:none;fill-rule:nonzero;fill:rgb(87.058824%,91.372549%,98.823529%);fill-opacity:1;" />
<path d="M 243.117188 127.515625 L 243.117188 11.035156 C 243.117188 4.964844 248.085938 0 254.152344 0 L 184.878906 0 C 178.808594 0 173.84375 4.964844 173.84375 11.035156 L 173.84375 127.515625 C 173.84375 133.585938 178.808594 138.550781 184.878906 138.550781 L 254.152344 138.550781 C 248.085938 138.550781 243.117188 133.585938 243.117188 127.515625 Z M 243.117188 127.515625 " style=" stroke:none;fill-rule:nonzero;fill:rgb(70.980392%,78.823529%,95.686275%);fill-opacity:1;" />
<path d="M 284.125 53.9375 L 260.960938 53.9375 C 259.578125 53.9375 258.453125 52.816406 258.453125 51.433594 L 258.453125 28.269531 C 258.453125 26.882812 257.332031 25.761719 255.949219 25.761719 L 230.289062 25.761719 C 228.90625 25.761719 227.785156 26.882812 227.785156 28.269531 L 227.785156 51.433594 C 227.785156 52.816406 226.660156 53.9375 225.277344 53.9375 L 202.113281 53.9375 C 200.726562 53.9375 199.605469 55.0625 199.605469 56.445312 L 199.605469 82.101562 C 199.605469 83.488281 200.726562 84.609375 202.113281 84.609375 L 225.277344 84.609375 C 226.660156 84.609375 227.785156 85.730469 227.785156 87.117188 L 227.785156 110.28125 C 227.785156 111.667969 228.90625 112.789062 230.289062 112.789062 L 255.949219 112.789062 C 257.332031 112.789062 258.453125 111.667969 258.453125 110.28125 L 258.453125 87.117188 C 258.453125 85.730469 259.578125 84.609375 260.960938 84.609375 L 284.125 84.609375 C 285.511719 84.609375 286.632812 83.488281 286.632812 82.101562 L 286.632812 56.445312 C 286.632812 55.0625 285.511719 53.9375 284.125 53.9375 Z M 284.125 53.9375 " style=" stroke:none;fill-rule:nonzero;fill:rgb(94.901961%,8.627451%,29.019608%);fill-opacity:1;" />
<path d="M 230.289062 25.761719 C 228.90625 25.761719 227.785156 26.882812 227.785156 28.269531 L 227.785156 51.433594 C 227.785156 52.816406 226.660156 53.9375 225.277344 53.9375 L 202.113281 53.9375 C 200.726562 53.9375 199.605469 55.0625 199.605469 56.445312 L 199.605469 82.101562 C 199.605469 83.488281 200.726562 84.609375 202.113281 84.609375 L 225.277344 84.609375 C 226.660156 84.609375 227.785156 85.730469 227.785156 87.117188 L 227.785156 110.28125 C 227.785156 111.667969 228.90625 112.789062 230.289062 112.789062 L 243.117188 112.789062 L 243.117188 25.761719 Z M 230.289062 25.761719 " style=" stroke:none;fill-rule:nonzero;fill:rgb(86.27451%,4.313725%,23.921569%);fill-opacity:1;" />
<path d="M 131.390625 484.851562 C 164.84375 502.191406 202.835938 512 243.117188 512 C 283.402344 512 321.394531 502.191406 354.847656 484.851562 Z M 131.390625 484.851562 " style=" stroke:none;fill-rule:nonzero;fill:rgb(70.980392%,78.823529%,95.686275%);fill-opacity:1;" />
<path d="M 295.472656 484.851562 L 190.765625 484.851562 L 190.765625 506.328125 C 207.628906 510.03125 225.144531 512 243.117188 512 C 261.09375 512 278.609375 510.03125 295.472656 506.328125 Z M 295.472656 484.851562 " style=" stroke:none;fill-rule:nonzero;fill:rgb(47.45098%,54.901961%,79.607843%);fill-opacity:1;" />
<path d="M 235.757812 497.664062 C 235.757812 492.183594 238.742188 487.410156 243.167969 484.851562 L 190.765625 484.851562 L 190.765625 506.328125 C 207.628906 510.03125 225.144531 512 243.117188 512 C 244.300781 512 245.476562 511.96875 246.65625 511.953125 C 240.28125 510.191406 235.757812 504.390625 235.757812 497.664062 Z M 235.757812 497.664062 " style=" stroke:none;fill-rule:nonzero;fill:rgb(38.431373%,40.784314%,70.196078%);fill-opacity:1;" />
<path d="M 151.058594 281.320312 L 89.363281 281.320312 C 87.101562 281.320312 85.265625 283.15625 85.265625 285.417969 L 85.265625 300.800781 C 85.265625 303.0625 87.101562 304.898438 89.363281 304.898438 L 151.058594 304.898438 C 153.320312 304.898438 155.15625 303.0625 155.15625 300.800781 L 155.15625 285.417969 C 155.15625 283.15625 153.320312 281.320312 151.058594 281.320312 Z M 151.058594 281.320312 " style=" stroke:none;fill-rule:nonzero;fill:rgb(70.980392%,78.823529%,95.686275%);fill-opacity:1;" />
<path d="M 115.949219 300.800781 L 115.949219 285.417969 C 115.949219 283.15625 117.785156 281.320312 120.046875 281.320312 L 89.363281 281.320312 C 87.101562 281.320312 85.265625 283.15625 85.265625 285.417969 L 85.265625 300.800781 C 85.265625 303.0625 87.101562 304.898438 89.363281 304.898438 L 120.046875 304.898438 C 117.785156 304.898438 115.949219 303.0625 115.949219 300.800781 Z M 115.949219 300.800781 " style=" stroke:none;fill-rule:nonzero;fill:rgb(60.392157%,69.019608%,89.019608%);fill-opacity:1;" />
<path d="M 220 439.128906 C 215.777344 439.128906 212.355469 435.707031 212.355469 431.484375 L 212.355469 429.308594 C 212.355469 425.085938 215.777344 421.664062 220 421.664062 C 224.21875 421.664062 227.640625 425.085938 227.640625 429.308594 L 227.640625 431.484375 C 227.640625 435.707031 224.21875 439.128906 220 439.128906 Z M 220 439.128906 " style=" stroke:none;fill-rule:nonzero;fill:rgb(38.823529%,24.313725%,36.470588%);fill-opacity:1;" />
<path d="M 266.238281 439.128906 C 262.019531 439.128906 258.597656 435.707031 258.597656 431.484375 L 258.597656 429.308594 C 258.597656 425.085938 262.019531 421.664062 266.238281 421.664062 C 270.460938 421.664062 273.882812 425.085938 273.882812 429.308594 L 273.882812 431.484375 C 273.882812 435.707031 270.460938 439.128906 266.238281 439.128906 Z M 266.238281 439.128906 " style=" stroke:none;fill-rule:nonzero;fill:rgb(38.823529%,24.313725%,36.470588%);fill-opacity:1;" />
<path d="M 217.878906 224.941406 C 216.203125 224.941406 214.84375 226.300781 214.84375 227.976562 L 214.84375 283.359375 L 243.117188 283.359375 L 243.117188 224.941406 Z M 217.878906 224.941406 " style=" stroke:none;fill-rule:nonzero;fill:rgb(47.45098%,54.901961%,79.607843%);fill-opacity:1;" />
<path d="M 268.363281 224.941406 L 243.117188 224.941406 L 243.117188 283.359375 L 271.394531 283.359375 L 271.394531 227.972656 C 271.394531 226.296875 270.039062 224.941406 268.363281 224.941406 Z M 268.363281 224.941406 " style=" stroke:none;fill-rule:nonzero;fill:rgb(60.392157%,69.019608%,89.019608%);fill-opacity:1;" />
<path d="M 273.964844 281.320312 L 212.273438 281.320312 C 210.007812 281.320312 208.175781 283.15625 208.175781 285.417969 L 208.175781 300.800781 C 208.175781 303.0625 210.011719 304.898438 212.273438 304.898438 L 273.964844 304.898438 C 276.230469 304.898438 278.066406 303.0625 278.066406 300.800781 L 278.066406 285.417969 C 278.066406 283.15625 276.230469 281.320312 273.964844 281.320312 Z M 273.964844 281.320312 " style=" stroke:none;fill-rule:nonzero;fill:rgb(70.980392%,78.823529%,95.686275%);fill-opacity:1;" />
<path d="M 238.855469 300.800781 L 238.855469 285.417969 C 238.855469 283.15625 240.691406 281.320312 242.953125 281.320312 L 212.273438 281.320312 C 210.007812 281.320312 208.171875 283.15625 208.171875 285.417969 L 208.171875 300.800781 C 208.171875 303.0625 210.007812 304.898438 212.273438 304.898438 L 242.953125 304.898438 C 240.691406 304.898438 238.855469 303.0625 238.855469 300.800781 Z M 238.855469 300.800781 " style=" stroke:none;fill-rule:nonzero;fill:rgb(60.392157%,69.019608%,89.019608%);fill-opacity:1;" />
<path d="M 340.789062 224.941406 C 339.109375 224.941406 337.75 226.300781 337.75 227.976562 L 337.75 283.359375 L 366.027344 283.359375 L 366.027344 224.941406 Z M 340.789062 224.941406 " style=" stroke:none;fill-rule:nonzero;fill:rgb(47.45098%,54.901961%,79.607843%);fill-opacity:1;" />
<path d="M 391.273438 224.941406 L 366.027344 224.941406 L 366.027344 283.359375 L 394.304688 283.359375 L 394.304688 227.972656 C 394.304688 226.296875 392.945312 224.941406 391.273438 224.941406 Z M 391.273438 224.941406 " style=" stroke:none;fill-rule:nonzero;fill:rgb(60.392157%,69.019608%,89.019608%);fill-opacity:1;" />
<path d="M 396.871094 281.320312 L 335.179688 281.320312 C 332.917969 281.320312 331.082031 283.15625 331.082031 285.417969 L 331.082031 300.800781 C 331.082031 303.0625 332.917969 304.898438 335.179688 304.898438 L 396.871094 304.898438 C 399.136719 304.898438 400.972656 303.0625 400.972656 300.800781 L 400.972656 285.417969 C 400.972656 283.15625 399.136719 281.320312 396.871094 281.320312 Z M 396.871094 281.320312 " style=" stroke:none;fill-rule:nonzero;fill:rgb(70.980392%,78.823529%,95.686275%);fill-opacity:1;" />
<path d="M 361.765625 300.800781 L 361.765625 285.417969 C 361.765625 283.15625 363.601562 281.320312 365.863281 281.320312 L 335.179688 281.320312 C 332.914062 281.320312 331.082031 283.15625 331.082031 285.417969 L 331.082031 300.800781 C 331.082031 303.0625 332.917969 304.898438 335.179688 304.898438 L 365.863281 304.898438 C 363.601562 304.898438 361.765625 303.0625 361.765625 300.800781 Z M 361.765625 300.800781 " style=" stroke:none;fill-rule:nonzero;fill:rgb(60.392157%,69.019608%,89.019608%);fill-opacity:1;" />
<path d="M 94.972656 374.921875 C 93.296875 374.921875 91.933594 376.28125 91.933594 377.960938 L 91.933594 433.339844 L 120.210938 433.339844 L 120.210938 374.921875 Z M 94.972656 374.921875 " style=" stroke:none;fill-rule:nonzero;fill:rgb(47.45098%,54.901961%,79.607843%);fill-opacity:1;" />
<path d="M 145.457031 374.921875 L 120.210938 374.921875 L 120.210938 433.339844 L 148.488281 433.339844 L 148.488281 377.953125 C 148.488281 376.28125 147.128906 374.921875 145.457031 374.921875 Z M 145.457031 374.921875 " style=" stroke:none;fill-rule:nonzero;fill:rgb(60.392157%,69.019608%,89.019608%);fill-opacity:1;" />
<path d="M 151.058594 431.300781 L 89.363281 431.300781 C 87.101562 431.300781 85.265625 433.136719 85.265625 435.402344 L 85.265625 450.78125 C 85.265625 453.046875 87.101562 454.882812 89.363281 454.882812 L 151.058594 454.882812 C 153.320312 454.882812 155.15625 453.046875 155.15625 450.78125 L 155.15625 435.402344 C 155.15625 433.136719 153.320312 431.300781 151.058594 431.300781 Z M 151.058594 431.300781 " style=" stroke:none;fill-rule:nonzero;fill:rgb(70.980392%,78.823529%,95.686275%);fill-opacity:1;" />
<path d="M 115.949219 450.78125 L 115.949219 435.402344 C 115.949219 433.136719 117.785156 431.300781 120.046875 431.300781 L 89.363281 431.300781 C 87.101562 431.300781 85.265625 433.136719 85.265625 435.402344 L 85.265625 450.78125 C 85.265625 453.046875 87.101562 454.882812 89.363281 454.882812 L 120.046875 454.882812 C 117.785156 454.882812 115.949219 453.046875 115.949219 450.78125 Z M 115.949219 450.78125 " style=" stroke:none;fill-rule:nonzero;fill:rgb(60.392157%,69.019608%,89.019608%);fill-opacity:1;" />
<path d="M 340.789062 374.921875 C 339.109375 374.921875 337.75 376.28125 337.75 377.960938 L 337.75 433.339844 L 366.027344 433.339844 L 366.027344 374.921875 Z M 340.789062 374.921875 " style=" stroke:none;fill-rule:nonzero;fill:rgb(47.45098%,54.901961%,79.607843%);fill-opacity:1;" />
<path d="M 391.273438 374.921875 L 366.027344 374.921875 L 366.027344 433.339844 L 394.304688 433.339844 L 394.304688 377.953125 C 394.304688 376.28125 392.945312 374.921875 391.273438 374.921875 Z M 391.273438 374.921875 " style=" stroke:none;fill-rule:nonzero;fill:rgb(60.392157%,69.019608%,89.019608%);fill-opacity:1;" />
<path d="M 396.871094 431.300781 L 335.179688 431.300781 C 332.917969 431.300781 331.082031 433.136719 331.082031 435.402344 L 331.082031 450.78125 C 331.082031 453.046875 332.917969 454.882812 335.179688 454.882812 L 396.871094 454.882812 C 399.136719 454.882812 400.972656 453.046875 400.972656 450.78125 L 400.972656 435.402344 C 400.972656 433.136719 399.136719 431.300781 396.871094 431.300781 Z M 396.871094 431.300781 " style=" stroke:none;fill-rule:nonzero;fill:rgb(70.980392%,78.823529%,95.686275%);fill-opacity:1;" />
<path d="M 361.765625 450.78125 L 361.765625 435.402344 C 361.765625 433.136719 363.601562 431.300781 365.863281 431.300781 L 335.179688 431.300781 C 332.914062 431.300781 331.082031 433.136719 331.082031 435.402344 L 331.082031 450.78125 C 331.082031 453.046875 332.917969 454.882812 335.179688 454.882812 L 365.863281 454.882812 C 363.601562 454.882812 361.765625 453.046875 361.765625 450.78125 Z M 361.765625 450.78125 " style=" stroke:none;fill-rule:nonzero;fill:rgb(60.392157%,69.019608%,89.019608%);fill-opacity:1;" />
</g>
</svg>