<?xml version="1.0" encoding="UTF-8"?>
<svg width="64px" height="64px" viewBox="0 0 64 64" version="1.1" xmlns="http://www.w3.org/2000/svg" xmlns:xlink="http://www.w3.org/1999/xlink">
    <!-- Generator: Sketch 50.2 (55047) - http://www.bohemiancoding.com/sketch -->
    <title>jkl/core/elements/icons/instruments</title>
    <desc>Created with Sketch.</desc>
    <defs>
        <path d="M57.8369274,56.2608306 L57.7809435,56.2608306 L57.7809435,47.239879 C57.7809435,46.7757581 57.4046774,46.3993871 56.9404516,46.3993871 L52.4019839,46.3993871 L52.4019839,37.3784355 C52.4019839,36.9143145 52.0257177,36.5379435 51.5614919,36.5379435 L48.8720645,36.5379435 C48.4079435,36.5379435 48.0315726,36.9142097 48.0315726,37.3784355 C48.0315726,37.8426613 48.4078387,38.2189274 48.8720645,38.2189274 L50.7211048,38.2189274 L50.7211048,46.3993871 L39.8511129,46.3993871 L39.8511129,38.2189274 L45.2860565,38.2189274 C45.7501774,38.2189274 46.1265484,37.8426613 46.1265484,37.3784355 C46.1265484,36.9142097 45.7502823,36.5379435 45.2860565,36.5379435 L39.010621,36.5379435 C38.5465,36.5379435 38.170129,36.9142097 38.170129,37.3784355 L38.170129,46.3993871 L31.8387097,46.3993871 C31.3745887,46.3993871 30.9982177,46.7756532 30.9982177,47.239879 L30.9982177,56.2608306 L29.9896694,56.2608306 L29.9896694,14.9102419 L42.6526129,14.9102419 L42.6526129,18.1196694 L36.729121,22.35075 C36.5111613,22.5064355 36.3771774,22.7668548 36.3771774,23.0346129 L36.3771774,32.8960565 C36.3771774,33.3601774 36.7534435,33.7365484 37.2176694,33.7365484 L49.7685403,33.7365484 C50.2326613,33.7365484 50.6090323,33.3602823 50.6090323,32.8960565 L50.6090323,23.0346129 C50.6090323,22.76675 50.4750484,22.5063306 50.2570887,22.35075 L44.3335968,18.1196694 L44.3335968,14.9102419 L47.9755887,14.9102419 C48.4397097,14.9102419 48.8160806,14.5339758 48.8160806,14.06975 C48.8160806,13.6055242 48.4398145,13.2292581 47.9755887,13.2292581 L43.6549758,13.2292581 L25.8754839,6.11741935 C25.6319435,6.0195 25.3462581,6.04445161 25.1228468,6.182 L13.6711048,13.2292581 L7.63344355,13.2292581 C7.16932258,13.2292581 6.79295161,13.6055242 6.79295161,14.06975 C6.79295161,14.5339758 7.16921774,14.9102419 7.63344355,14.9102419 L10.3789597,14.9102419 L10.3789597,19.4487097 C10.3789597,19.9128306 10.7552258,20.2892016 11.2194516,20.2892016 L16.5984113,20.2892016 C17.0625323,20.2892016 17.4389032,19.9129355 17.4389032,19.4487097 L17.4389032,14.9102419 L21.136879,14.9102419 L21.136879,56.2609355 L20.1283306,56.2609355 L20.1283306,47.2399839 C20.1283306,46.7758629 19.7520645,46.3994919 19.2878387,46.3994919 L6.73696774,46.3994919 C6.27284677,46.3994919 5.89647581,46.7757581 5.89647581,47.2399839 L5.89647581,56.2609355 L5.84049194,56.2609355 C5.37637097,56.2609355 5,56.6372016 5,57.1014274 C5,57.5655484 5.37626613,57.9419194 5.84049194,57.9419194 L57.8370323,57.9419194 C58.3011532,57.9419194 58.6775242,57.5656532 58.6775242,57.1014274 C58.6774194,56.6372016 58.3011532,56.2608306 57.8369274,56.2608306 Z M48.9281532,32.0555645 L38.0581613,32.0555645 L38.0581613,23.8751048 L48.9281532,23.8751048 L48.9281532,32.0555645 Z M47.1458952,22.1942258 L39.8403145,22.1942258 L43.4932097,19.5851048 L47.1458952,22.1942258 Z M15.7579194,18.6082177 L12.0598387,18.6082177 L12.0598387,14.9102419 L15.7578145,14.9102419 L15.7578145,18.6082177 L15.7579194,18.6082177 Z M18.4474516,56.2608306 L7.57745968,56.2608306 L7.57745968,48.080371 L18.4474516,48.080371 L18.4474516,56.2608306 Z M25.6435806,7.83509677 L27.9227742,8.74666935 L24.1621048,8.74666935 L25.6435806,7.83509677 Z M22.8177581,16.0986935 L24.3747177,17.6556532 L22.8177581,19.2125081 L22.8177581,16.0986935 Z M23.1658226,42.7573952 L25.5632742,40.3599435 L27.9607258,42.7573952 L25.5632742,45.1548468 L23.1658226,42.7573952 Z M27.9607258,49.9293065 L25.5632742,52.3267581 L23.1658226,49.9293065 L25.5632742,47.5318548 L27.9607258,49.9293065 Z M23.1658226,35.585379 L25.5632742,33.1879274 L27.9607258,35.585379 L25.5632742,37.9828306 L23.1658226,35.585379 Z M23.1658226,28.4134677 L25.5632742,26.0160161 L27.9607258,28.4134677 L25.5632742,30.8109194 L23.1658226,28.4134677 Z M23.1658226,21.2415565 L25.5632742,18.8441048 L27.9607258,21.2415565 L25.5632742,23.6390081 L23.1658226,21.2415565 Z M24.0063145,14.9101371 L27.1202339,14.9101371 L27.1202339,14.9102419 L25.5632742,16.4670968 L24.0063145,14.9101371 Z M22.8177581,23.2707097 L24.3747177,24.8276694 L22.8177581,26.3845242 L22.8177581,23.2707097 Z M22.8177581,30.442621 L24.3747177,31.9995806 L22.8177581,33.5564355 L22.8177581,30.442621 Z M22.8177581,37.6145323 L24.3747177,39.1714919 L22.8177581,40.7283468 L22.8177581,37.6145323 Z M22.8177581,44.7864435 L24.3747177,46.3434032 L22.8177581,47.9002581 L22.8177581,44.7864435 Z M21.136879,13.2292581 L16.8782258,13.2292581 L21.136879,10.6086048 L21.136879,13.2292581 Z M22.8177581,51.9583548 L24.3747177,53.5153145 L22.8177581,55.0721694 L22.8177581,51.9583548 Z M24.0064194,56.2608306 L25.5632742,54.703871 L27.1202339,56.2608306 L24.0064194,56.2608306 Z M28.3087903,55.0722742 L26.7518306,53.5153145 L28.3087903,51.9584597 L28.3087903,55.0722742 Z M28.3087903,47.9002581 L26.7518306,46.3434032 L28.3087903,44.7864435 L28.3087903,47.9002581 Z M28.3087903,40.7283468 L26.7518306,39.1714919 L28.3087903,37.6145323 L28.3087903,40.7283468 Z M28.3087903,33.5564355 L26.7518306,31.9995806 L28.3087903,30.442621 L28.3087903,33.5564355 Z M28.3087903,26.3845242 L26.7518306,24.8276694 L28.3087903,23.2707097 L28.3087903,26.3845242 Z M28.3087903,19.2126129 L26.7518306,17.6557581 L28.3087903,16.0987984 L28.3087903,19.2126129 Z M28.3087903,13.2292581 L22.8177581,13.2292581 L22.8177581,10.4277581 L28.3087903,10.4277581 L28.3087903,13.2292581 Z M39.1289839,13.2292581 L29.9896694,13.2292581 L29.9896694,9.58726613 C29.9896694,9.58254839 29.9890403,9.57793548 29.9890403,9.57321774 L39.1289839,13.2292581 Z M43.5491935,56.2608306 L32.6792016,56.2608306 L32.6792016,48.080371 L43.5491935,48.080371 L43.5491935,56.2608306 Z M56.1000645,56.2608306 L45.2300726,56.2608306 L45.2300726,48.080371 L56.1000645,48.080371 L56.1000645,56.2608306 Z M13.0124032,49.0889194 C13.4765242,49.0889194 13.8528952,49.4652903 13.8528952,49.9294113 L13.8528952,54.4118952 C13.8528952,54.876121 13.476629,55.2523871 13.0124032,55.2523871 C12.5481774,55.2523871 12.1719113,54.8760161 12.1719113,54.4118952 L12.1719113,49.9294113 C12.1719113,49.4651855 12.5482823,49.0889194 13.0124032,49.0889194 Z M15.7018306,49.0889194 C16.1660565,49.0889194 16.5423226,49.4652903 16.5423226,49.9294113 L16.5423226,54.4118952 C16.5423226,54.876121 16.1660565,55.2523871 15.7018306,55.2523871 C15.2376048,55.2523871 14.8613387,54.8760161 14.8613387,54.4118952 L14.8613387,49.9294113 C14.8613387,49.4651855 15.2377097,49.0889194 15.7018306,49.0889194 Z M10.322871,49.0889194 C10.7870968,49.0889194 11.1633629,49.4652903 11.1633629,49.9294113 L11.1633629,54.4118952 C11.1633629,54.876121 10.7870968,55.2523871 10.322871,55.2523871 C9.85864516,55.2523871 9.48237903,54.8760161 9.48237903,54.4118952 L9.48237903,49.9294113 C9.48237903,49.4651855 9.85875,49.0889194 10.322871,49.0889194 Z M45.2860565,39.2275806 C45.7502823,39.2275806 46.1265484,39.6038468 46.1265484,40.0680726 L46.1265484,44.5505565 C46.1265484,45.0147823 45.7501774,45.3910484 45.2860565,45.3910484 C44.8218306,45.3910484 44.4455645,45.0146774 44.4455645,44.5505565 L44.4455645,40.0680726 C44.4455645,39.6038468 44.8219355,39.2275806 45.2860565,39.2275806 Z M47.9755887,39.2275806 C48.4397097,39.2275806 48.8159758,39.6038468 48.8160806,40.0680726 L48.8160806,44.5505565 C48.8160806,45.0147823 48.4397097,45.3910484 47.9755887,45.3910484 C47.5113629,45.3910484 47.1350968,45.0146774 47.1350968,44.5505565 L47.1350968,40.0680726 C47.1350968,39.6038468 47.5114677,39.2275806 47.9755887,39.2275806 Z M42.596629,39.2275806 C43.06075,39.2275806 43.4370161,39.6038468 43.437121,40.0680726 L43.437121,44.5505565 C43.437121,45.0147823 43.0608548,45.3910484 42.596629,45.3910484 C42.1324032,45.3910484 41.7561371,45.0146774 41.7561371,44.5505565 L41.7561371,40.0680726 C41.7561371,39.6038468 42.1325081,39.2275806 42.596629,39.2275806 Z M38.1141452,49.0889194 C38.5782661,49.0889194 38.9546371,49.4652903 38.9546371,49.9294113 L38.9546371,54.4118952 C38.9546371,54.876121 38.578371,55.2523871 38.1141452,55.2523871 C37.6499194,55.2523871 37.2736532,54.8760161 37.2736532,54.4118952 L37.2736532,49.9294113 C37.2736532,49.4651855 37.6500242,49.0889194 38.1141452,49.0889194 Z M40.8035726,49.0889194 C41.2677984,49.0889194 41.6440645,49.4652903 41.6440645,49.9294113 L41.6440645,54.4118952 C41.6440645,54.876121 41.2677984,55.2523871 40.8035726,55.2523871 C40.3393468,55.2523871 39.9630806,54.8760161 39.9630806,54.4118952 L39.9630806,49.9294113 C39.9630806,49.4651855 40.3394516,49.0889194 40.8035726,49.0889194 Z M35.4247177,49.0889194 C35.8888387,49.0889194 36.2651048,49.4652903 36.2652097,49.9294113 L36.2652097,54.4118952 C36.2652097,54.876121 35.8889435,55.2523871 35.4247177,55.2523871 C34.9604919,55.2523871 34.5842258,54.8760161 34.5842258,54.4118952 L34.5842258,49.9294113 C34.5842258,49.4651855 34.9605968,49.0889194 35.4247177,49.0889194 Z M43.4931048,24.8836532 C43.9572258,24.8836532 44.3335968,25.2599194 44.3335968,25.7241452 L44.3335968,30.206629 C44.3335968,30.6708548 43.9572258,31.047121 43.4931048,31.047121 C43.028879,31.047121 42.6526129,30.67075 42.6526129,30.206629 L42.6526129,25.7241452 C42.6526129,25.2599194 43.0289839,24.8836532 43.4931048,24.8836532 Z M46.1825323,24.8836532 C46.6467581,24.8836532 47.0230242,25.2599194 47.0230242,25.7241452 L47.0230242,30.206629 C47.0230242,30.6708548 46.6466532,31.047121 46.1825323,31.047121 C45.7183065,31.047121 45.3420403,30.67075 45.3420403,30.206629 L45.3420403,25.7241452 C45.3420403,25.2599194 45.7184113,24.8836532 46.1825323,24.8836532 Z M40.8035726,24.8836532 C41.2677984,24.8836532 41.6440645,25.2599194 41.6440645,25.7241452 L41.6440645,30.206629 C41.6440645,30.6708548 41.2677984,31.047121 40.8035726,31.047121 C40.3393468,31.047121 39.9630806,30.67075 39.9630806,30.206629 L39.9630806,25.7241452 C39.9630806,25.2599194 40.3394516,24.8836532 40.8035726,24.8836532 Z" id="path-1"></path>
    </defs>
    <g id="jkl/core/elements/icons/instruments" stroke="none" stroke-width="1" fill="none" fill-rule="evenodd">
        <mask id="mask-2" fill="white">
            <use xlink:href="#path-1"></use>
        </mask>
        <use id="Mask" fill="#000000" fill-rule="nonzero" xlink:href="#path-1"></use>
        <g id="jkl/core/colors/primary" mask="url(#mask-2)" fill="#ffffff">
            <g transform="translate(-9.000000, -6.000000)" id="Rectangle-2">
                <rect x="0" y="0" width="84" height="79"></rect>
            </g>
        </g>
    </g>
</svg>