<?xml version="1.0" encoding="UTF-8"?>
<svg width="64px" height="64px" viewBox="0 0 64 64" version="1.1" xmlns="http://www.w3.org/2000/svg" xmlns:xlink="http://www.w3.org/1999/xlink">
    <!-- Generator: Sketch 50.2 (55047) - http://www.bohemiancoding.com/sketch -->
    <title>jkl/core/elements/icons/notifications</title>
    <desc>Created with Sketch.</desc>
    <defs>
        <path d="M45.8064771,42.5052418 C40.2804575,40.0096667 40.0702484,29.2978366 40.0661699,29.0275556 L40.0661699,21.8411895 C40.0661699,14.9246797 35.8397255,8.97722222 29.8338105,6.44485621 C29.8208954,2.88888889 26.9246993,0 23.366098,0 C19.8074118,0 16.9113007,2.88905882 16.8983007,6.44468627 C10.8926405,8.97705229 6.66611111,14.9245098 6.66611111,21.8410196 L6.66611111,29.0273856 C6.66220261,29.2976667 6.45182353,40.0094967 0.925633987,42.5050719 C0.296111111,42.7894575 -0.049875817,43.474719 0.0956732026,44.1500392 C0.241052288,44.8254444 0.838287582,45.3078039 1.52915686,45.3078039 L15.5385686,45.3078039 C15.8257582,46.8876863 16.5727908,48.357451 17.7153464,49.5479281 C19.2328627,51.129 21.2397059,51.9997451 23.3658431,51.9997451 C25.4921503,51.9997451 27.4989935,51.129 29.0163399,49.5479281 C30.1590654,48.357366 30.906098,46.8875163 31.1931176,45.3078039 L45.2025294,45.3078039 C45.8933987,45.3078039 46.490549,44.8255294 46.636098,44.1500392 C46.781817,43.474719 46.436,42.7895425 45.8064771,42.5052418 Z M38.5270719,37.3736405 C39.1079935,39.1348431 39.9305621,40.9035229 41.0969935,42.3753268 L5.63503268,42.3753268 C6.80129412,40.9036928 7.62386275,39.135098 8.20478431,37.3736405 L38.5270719,37.3736405 Z M23.366098,2.93264706 C24.9758039,2.93264706 26.3368105,4.01428105 26.7626667,5.48863399 C25.6655686,5.2610915 24.5295556,5.14111765 23.366098,5.14111765 C22.2026405,5.14111765 21.0666275,5.26100654 19.9695294,5.48863399 C20.3954706,4.01436601 21.7564771,2.93264706 23.366098,2.93264706 Z M9.59875817,29.0363922 L9.59875817,21.8409346 C9.59875817,14.2496993 15.7746928,8.07376471 23.366098,8.07376471 C30.9575033,8.07376471 37.1334379,14.2496993 37.1334379,21.8409346 L37.1334379,29.0483725 C37.1353922,29.2689477 37.169719,31.5871111 37.7539542,34.4408235 L8.97790196,34.4408235 C9.56247712,31.5843922 9.59697386,29.2621503 9.59875817,29.0363922 Z M23.366098,49.0673529 C21.1279739,49.0673529 19.1746601,47.4536536 18.5476863,45.3078889 L28.1843399,45.3078889 C27.557366,47.4536536 25.6043922,49.0673529 23.366098,49.0673529 Z M23.366098,10.1310784 C24.1759216,10.1310784 24.8324641,10.787451 24.832549,11.5973595 C24.832549,12.407183 24.1760065,13.0637255 23.366183,13.0637255 C18.6743725,13.0637255 14.8573856,16.8806275 14.8573856,21.572268 C14.8573856,22.3820915 14.2008431,23.038634 13.3910196,23.038634 C12.5811961,23.038634 11.9246536,22.3820915 11.9246536,21.572268 C11.9246536,15.2635294 17.0572745,10.1310784 23.366098,10.1310784 Z" id="path-1"></path>
    </defs>
    <g id="jkl/core/elements/icons/notifications" stroke="none" stroke-width="1" fill="none" fill-rule="evenodd">
        <g id="jkl/core/colors/primary" transform="translate(9.000000, 6.000000)">
            <mask id="mask-2" fill="white">
                <use xlink:href="#path-1"></use>
            </mask>
            <use id="Mask" fill="#000000" fill-rule="nonzero" xlink:href="#path-1"></use>
            <g mask="url(#mask-2)" fill="#ffffff" id="Rectangle-2">
                <g transform="translate(-19.000000, -16.000000)">
                    <rect x="0" y="0" width="84" height="79"></rect>
                </g>
            </g>
        </g>
    </g>
</svg>