<?xml version="1.0" encoding="UTF-8"?>
<svg width="64px" height="64px" viewBox="0 0 64 64" version="1.1" xmlns="http://www.w3.org/2000/svg" xmlns:xlink="http://www.w3.org/1999/xlink">
    <!-- Generator: Sketch 50.2 (55047) - http://www.bohemiancoding.com/sketch -->
    <title>jkl/core/elements/icons/project</title>
    <desc>Created with Sketch.</desc>
    <defs>
        <path d="M51.027027,0 L12.1081081,0 C11.6304865,0 11.2432432,0.387243243 11.2432432,0.864864865 L11.2432432,13.8378378 L12.972973,13.8378378 L12.972973,1.72972973 L50.1621622,1.72972973 L50.1621622,49.2972973 C50.1704865,49.7521081 49.8195676,50.1330811 49.3656216,50.1621622 C49.2912432,50.1621622 49.2168649,50.1561081 49.1424865,50.1543784 C48.9894054,50.1500541 48.8363243,50.1465946 48.6858378,50.131027 C48.6728649,50.131027 48.6607568,50.131027 48.6477838,50.1258378 C45.8231351,49.8170811 43.5918919,47.588 43.2804324,44.7636757 C43.2804324,44.7515676 43.2761081,44.7385946 43.2743784,44.7264865 C43.2534054,44.520973 43.243027,44.3145946 43.2432432,44.1081081 L43.2432432,42.3783784 C43.2432432,41.9007568 42.856,41.5135135 42.3783784,41.5135135 L12.972973,41.5135135 L12.972973,25.9459459 L11.2432432,25.9459459 L11.2432432,41.5135135 L4.32432432,41.5135135 C3.8467027,41.5135135 3.45945946,41.9007568 3.45945946,42.3783784 L3.45945946,44.1081081 C3.46421622,48.404973 6.94637838,51.8871351 11.2432432,51.8918919 L49.3837838,51.8918919 C50.7872432,51.8551351 51.9027027,50.7011892 51.8918919,49.2972973 L51.8918919,0.864864865 C51.8918919,0.387243243 51.5046486,0 51.027027,0 Z M11.2432432,50.1621622 C7.9012973,50.1583784 5.19297297,47.4500541 5.18918919,44.1081081 L5.18918919,43.2432432 L41.5135135,43.2432432 L41.5135135,44.1081081 C41.5147027,44.3932973 41.5311351,44.6782703 41.5628108,44.9617297 C41.5705946,45.036973 41.5852973,45.1096216 41.5956757,45.184 C41.6242162,45.3932973 41.6588108,45.6017297 41.7046486,45.8067027 C41.7202162,45.8784865 41.7401081,45.9494054 41.7582703,46.0211892 C41.811027,46.2296216 41.8707027,46.4345946 41.9398919,46.636973 C41.9597838,46.6949189 41.9805405,46.752 42.0021622,46.8099459 C42.0808649,47.0244324 42.1699459,47.2337297 42.2676757,47.4404324 C42.2884324,47.4828108 42.3074595,47.5269189 42.3282162,47.5658378 C42.4366486,47.784973 42.5556757,47.9979459 42.6854054,48.204973 C42.7027027,48.2326486 42.7182703,48.2611892 42.7355676,48.2914595 C42.8765405,48.5123243 43.0287568,48.7259459 43.1913514,48.9314595 L43.219027,48.9686486 C43.4077838,49.2057297 43.6099459,49.4317838 43.8244324,49.6458378 C44.0107027,49.8303784 44.2037838,50.0033514 44.4038919,50.1647568 L11.2432432,50.1621622 Z M22.4864865,5.18918919 L39.7837838,5.18918919 L39.7837838,6.91891892 L22.4864865,6.91891892 L22.4864865,5.18918919 Z M19.8918919,8.64864865 L42.3783784,8.64864865 L42.3783784,10.3783784 L19.8918919,10.3783784 L19.8918919,8.64864865 Z M14.7027027,26.8108108 L19.8918919,26.8108108 L19.8918919,28.5405405 L14.7027027,28.5405405 L14.7027027,26.8108108 Z M14.7027027,30.2702703 L18.1621622,30.2702703 L18.1621622,32 L14.7027027,32 L14.7027027,30.2702703 Z M28.5405405,24.2162162 C28.7699459,24.2162162 28.9898378,24.124973 29.152,23.9628108 L32.6114595,20.5033514 C32.9490811,20.1656216 32.9490811,19.6181622 32.6114595,19.2804324 L29.152,15.820973 C28.9898378,15.6588108 28.7699459,15.5675676 28.5405405,15.5675676 L4.32432432,15.5675676 C1.93610811,15.5675676 0,17.5036757 0,19.8918919 C0,22.2801081 1.93610811,24.2162162 4.32432432,24.2162162 L28.5405405,24.2162162 Z M28.3174054,17.4322162 L30.7770811,19.8918919 L28.3174054,22.3515676 L27.7024865,19.8918919 L28.3174054,17.4322162 Z M6.91891892,17.2972973 L26.5686486,17.2972973 L26.1362162,19.027027 L8.64864865,19.027027 L8.64864865,20.7567568 L26.1362162,20.7567568 L26.5686486,22.4864865 L6.91891892,22.4864865 L6.91891892,17.2972973 Z M1.72972973,19.8918919 C1.72972973,18.4589189 2.89135135,17.2972973 4.32432432,17.2972973 L5.18918919,17.2972973 L5.18918919,22.4864865 L4.32432432,22.4864865 C2.89135135,22.4864865 1.72972973,21.3248649 1.72972973,19.8918919 Z M19.8918919,37.1891892 L45.8378378,37.1891892 C46.3154595,37.1891892 46.7027027,36.8019459 46.7027027,36.3243243 L46.7027027,10.3783784 C46.7025946,9.90075676 46.3153514,9.51362162 45.8376216,9.51372973 C45.6083243,9.51372973 45.3885405,9.60486486 45.2263784,9.76691892 L19.2804324,35.7128649 C18.9427027,36.0507027 18.9428108,36.5982703 19.2806486,36.936 C19.4428108,37.0980541 19.6625946,37.1891892 19.8918919,37.1891892 Z M44.972973,12.4661622 L44.972973,14.7027027 L43.2432432,14.7027027 L43.2432432,16.4324324 L44.972973,16.4324324 L44.972973,18.1621622 L43.2432432,18.1621622 L43.2432432,19.8918919 L44.972973,19.8918919 L44.972973,21.6216216 L43.2432432,21.6216216 L43.2432432,23.3513514 L44.972973,23.3513514 L44.972973,25.0810811 L43.2432432,25.0810811 L43.2432432,26.8108108 L44.972973,26.8108108 L44.972973,28.5405405 L43.2432432,28.5405405 L43.2432432,30.2702703 L44.972973,30.2702703 L44.972973,32 L43.2432432,32 L43.2432432,33.7297297 L44.972973,33.7297297 L44.972973,35.4594595 L43.2432432,35.4594595 L43.2432432,33.7297297 L41.5135135,33.7297297 L41.5135135,35.4594595 L39.7837838,35.4594595 L39.7837838,33.7297297 L38.0540541,33.7297297 L38.0540541,35.4594595 L36.3243243,35.4594595 L36.3243243,33.7297297 L34.5945946,33.7297297 L34.5945946,35.4594595 L32.8648649,35.4594595 L32.8648649,33.7297297 L31.1351351,33.7297297 L31.1351351,35.4594595 L29.4054054,35.4594595 L29.4054054,33.7297297 L27.6756757,33.7297297 L27.6756757,35.4594595 L25.9459459,35.4594595 L25.9459459,33.7297297 L24.2162162,33.7297297 L24.2162162,35.4594595 L21.9796757,35.4594595 L44.972973,12.4661622 Z M32.4194595,32 L40.6486486,32 C41.1262703,32 41.5135135,31.6127568 41.5135135,31.1351351 L41.5135135,22.9059459 C41.5134054,22.4283243 41.1261622,22.0411892 40.6484324,22.0412973 C40.4191351,22.0412973 40.1993514,22.1324324 40.0371892,22.2944865 L31.808,30.5236757 C31.4702703,30.8615135 31.4703784,31.4090811 31.8082162,31.7468108 C31.9703784,31.9088649 32.1901622,32 32.4194595,32 Z M39.7837838,24.9945946 L39.7837838,30.2702703 L34.5081081,30.2702703 L39.7837838,24.9945946 Z" id="path-1"></path>
    </defs>
    <g id="jkl/core/elements/icons/project" stroke="none" stroke-width="1" fill="none" fill-rule="evenodd">
        <g id="jkl/core/colors/primary" transform="translate(6.000000, 6.000000)">
            <mask id="mask-2" fill="white">
                <use xlink:href="#path-1"></use>
            </mask>
            <use id="Mask" fill="#000000" fill-rule="nonzero" xlink:href="#path-1"></use>
            <g mask="url(#mask-2)" fill="#ffffff" id="Rectangle-2">
                <g transform="translate(-16.000000, -14.000000)">
                    <rect x="0" y="0" width="84" height="79"></rect>
                </g>
            </g>
        </g>
    </g>
</svg>