<?xml version="1.0" encoding="UTF-8"?>
<svg width="64px" height="64px" viewBox="0 0 64 64" version="1.1" xmlns="http://www.w3.org/2000/svg" xmlns:xlink="http://www.w3.org/1999/xlink">
  <!-- Generator: Sketch 50.2 (55047) - http://www.bohemiancoding.com/sketch -->
  <title>jkl/core/elements/icons/request</title>
  <desc>Created with Sketch.</desc>
  <defs>
    <path d="M12.5090625,16.4671289 L9.80976563,16.4671289 C9.2218457,16.4671289 8.74338867,16.9454785 8.74338867,17.5335059 L8.74338867,20.2101367 C8.74338867,20.7980566 9.22173828,21.2765137 9.80976563,21.2765137 L12.5090625,21.2765137 C13.0969824,21.2765137 13.5754395,20.7981641 13.5754395,20.2101367 L13.5754395,17.5333984 C13.5754395,16.9454785 13.0970898,16.4671289 12.5090625,16.4671289 Z M11.891709,19.5926758 L10.4271191,19.5926758 L10.4271191,18.150752 L11.891709,18.150752 L11.891709,19.5926758 Z M26.3754004,18.0299023 C26.8403223,18.0299023 27.2172656,18.4068457 27.2172656,18.8717676 C27.2172656,19.3366895 26.8403223,19.7136328 26.3754004,19.7136328 L16.0128418,19.7136328 C15.5478125,19.7136328 15.1709766,19.3366895 15.1709766,18.8717676 C15.1709766,18.4068457 15.5478125,18.0299023 16.0128418,18.0299023 L26.3754004,18.0299023 Z M12.5090625,22.5227148 L9.80976563,22.5227148 C9.2218457,22.5227148 8.74338867,23.0010645 8.74338867,23.5890918 L8.74338867,26.2657227 C8.74338867,26.8536426 9.22173828,27.3320996 9.80976563,27.3320996 L12.5090625,27.3320996 C13.0969824,27.3320996 13.5754395,26.85375 13.5754395,26.2657227 L13.5754395,23.5890918 C13.5754395,23.0010645 13.0970898,22.5227148 12.5090625,22.5227148 Z M11.891709,25.6482617 L10.4271191,25.6482617 L10.4271191,24.2064453 L11.891709,24.2064453 L11.891709,25.6482617 Z M26.3754004,24.0854883 C26.8403223,24.0854883 27.2172656,24.4624316 27.2172656,24.9273535 C27.2172656,25.3922754 26.8403223,25.7692187 26.3754004,25.7692187 L16.0128418,25.7692187 C15.5478125,25.7692187 15.1709766,25.3922754 15.1709766,24.9273535 C15.1709766,24.4624316 15.5478125,24.0854883 16.0128418,24.0854883 L26.3754004,24.0854883 Z M12.5090625,28.5783008 L9.80976563,28.5783008 C9.2218457,28.5783008 8.74338867,29.0566504 8.74338867,29.6446777 L8.74338867,32.3213086 C8.74338867,32.9092285 9.22173828,33.3876855 9.80976563,33.3876855 L12.5090625,33.3876855 C13.0969824,33.3876855 13.5754395,32.9093359 13.5754395,32.3213086 L13.5754395,29.6446777 C13.5754395,29.0567578 13.0970898,28.5783008 12.5090625,28.5783008 Z M11.891709,31.7039551 L10.4271191,31.7039551 L10.4271191,30.2620312 L11.891709,30.2620312 L11.891709,31.7039551 Z M26.3754004,30.1410742 C26.8403223,30.1410742 27.2172656,30.5180176 27.2172656,30.9829395 C27.2172656,31.4478613 26.8403223,31.8248047 26.3754004,31.8248047 L16.0128418,31.8248047 C15.5478125,31.8248047 15.1709766,31.4478613 15.1709766,30.9829395 C15.1709766,30.5180176 15.5478125,30.1410742 16.0128418,30.1410742 L26.3754004,30.1410742 Z M12.5090625,34.6341016 L9.80976563,34.6341016 C9.2218457,34.6341016 8.74338867,35.1124512 8.74338867,35.7004785 L8.74338867,38.3771094 C8.74338867,38.9650293 9.22173828,39.4434863 9.80976563,39.4434863 L12.5090625,39.4434863 C13.0969824,39.4434863 13.5754395,38.9651367 13.5754395,38.3771094 L13.5754395,35.7004785 C13.5754395,35.1123438 13.0970898,34.6341016 12.5090625,34.6341016 Z M11.891709,37.759541 L10.4271191,37.759541 L10.4271191,36.3176172 L11.891709,36.3176172 L11.891709,37.759541 Z M26.3754004,36.196875 C26.8403223,36.196875 27.2172656,36.5736035 27.2172656,37.0387402 C27.2172656,37.5036621 26.8403223,37.8806055 26.3754004,37.8806055 L16.0128418,37.8806055 C15.5478125,37.8806055 15.1709766,37.5036621 15.1709766,37.0387402 C15.1709766,36.5738184 15.5478125,36.196875 16.0128418,36.196875 L26.3754004,36.196875 Z M35.929502,40.406416 L35.929502,34.9082422 C35.929502,34.4433203 35.552666,34.066377 35.0876367,34.066377 C34.6226074,34.066377 34.2457715,34.4433203 34.2457715,34.9082422 L34.2457715,39.4751758 C33.5228223,39.1820215 32.7482031,38.990918 31.9393164,38.9200195 L31.9393164,19.9796094 C31.9393164,19.5146875 31.5624805,19.1377441 31.0974512,19.1377441 C30.6324219,19.1377441 30.2555859,19.5146875 30.2555859,19.9796094 L30.2555859,38.947627 C26.5216016,39.3995508 23.5670703,42.413916 23.2098926,46.1759375 L14.119209,46.1759375 L5.70496094,37.7613672 L5.70496094,11.7673145 L8.02108398,11.7673145 C8.07329102,12.4938086 8.67947266,13.0691602 9.41896484,13.0691602 L12.3621094,13.0691602 C12.8271387,13.0691602 13.2039746,12.6922168 13.2039746,12.2272949 C13.2039746,11.762373 12.8271387,11.3854297 12.3621094,11.3854297 L9.69944336,11.3854297 L9.69944336,7.4137207 L26.2609961,7.4137207 L26.2609961,11.3854297 L16.0662305,11.3854297 C15.6012012,11.3854297 15.2243652,11.762373 15.2243652,12.2272949 C15.2243652,12.6922168 15.6012012,13.0691602 16.0662305,13.0691602 L26.541582,13.0691602 C27.2810742,13.0691602 27.8871484,12.4938086 27.9394629,11.7673145 L30.2554785,11.7673145 L30.2554785,16.8367676 C30.2554785,17.3016895 30.6323145,17.6786328 31.0973438,17.6786328 C31.562373,17.6786328 31.939209,17.3016895 31.939209,16.8367676 L31.939209,11.4861914 C31.939209,10.7128613 31.3101465,10.0836914 30.5368164,10.0836914 L27.9446191,10.0836914 L27.9446191,8.57666992 L34.2455566,8.57666992 L34.2455566,31.5408887 C34.2455566,32.0058105 34.6223926,32.3827539 35.0874219,32.3827539 C35.5524512,32.3827539 35.9292871,32.0058105 35.9292871,31.5408887 L35.9292871,8.29597656 C35.9292871,7.52232422 35.2999023,6.89293945 34.52625,6.89293945 L27.9225977,6.89293945 C27.8080859,6.23347656 27.2332715,5.73009766 26.5416895,5.73009766 L24.1277051,5.73009766 C23.922959,2.53644531 21.2448242,0 17.9804883,0 C14.7160449,0 12.0379102,2.53644531 11.8329492,5.73009766 L9.41896484,5.73009766 C8.72738281,5.73009766 8.15246094,6.23347656 8.03794922,6.89293945 L1.43429688,6.89293945 C0.660537109,6.89293945 0.0312597656,7.52232422 0.0312597656,8.29597656 L0.0312597656,50.2983594 C0.0312597656,51.0721191 0.660644531,51.7013965 1.43429688,51.7013965 L24.7328125,51.7013965 C26.2004102,53.6997656 28.5651953,55 31.2287207,55 C32.6846094,55 34.1116016,54.6072656 35.355332,53.8642285 C35.7545117,53.625752 35.884707,53.1089453 35.6462305,52.7097656 C35.4078613,52.3106934 34.8909473,52.180498 34.4917676,52.4188672 C33.5090723,53.0060352 32.3807129,53.316377 31.2288281,53.316377 C27.7148438,53.316377 24.8562402,50.4574512 24.8562402,46.9433594 C24.8562402,43.4292676 27.7149512,40.5704492 31.2288281,40.5704492 C34.7427051,40.5704492 37.6015234,43.429375 37.6015234,46.9433594 C37.6015234,48.1302637 37.2732422,49.2880566 36.6521289,50.2916992 C36.4074219,50.6871191 36.529668,51.2059668 36.9249805,51.4506738 C37.320293,51.6952734 37.839248,51.5730273 38.0837402,51.1777148 C38.8695313,49.907666 39.2849316,48.4433984 39.2849316,46.9433594 C39.2851465,44.254375 37.9597754,41.8705762 35.929502,40.406416 Z M16.7717773,5.73009766 C16.9393555,5.22854492 17.4173828,4.86513672 17.9803809,4.86513672 C18.5433789,4.86513672 19.0211914,5.2284375 19.188877,5.73009766 L16.7717773,5.73009766 Z M17.9804883,1.68362305 C20.3158398,1.68362305 22.2381543,3.46564453 22.4397852,5.73009766 L20.9100977,5.73009766 C20.7162012,4.29333008 19.476875,3.18151367 17.9804883,3.18151367 C16.4841016,3.18151367 15.2447754,4.2934375 15.0507715,5.73009766 L13.521084,5.73009766 C13.7226074,3.46564453 15.6451367,1.68362305 17.9804883,1.68362305 Z M11.7380957,46.1758301 L5.70496094,46.1758301 L5.70496094,40.1424805 L11.7380957,46.1758301 Z M1.71499023,50.017666 L1.71499023,8.57666992 L8.01603516,8.57666992 L8.01603516,10.0836914 L5.42383789,10.0836914 C4.65050781,10.0836914 4.02133789,10.7128613 4.02133789,11.4861914 L4.02133789,38.1096289 C4.02133789,38.1098437 4.02133789,38.1099512 4.02133789,38.110166 L4.02133789,46.4569531 C4.02133789,47.2302832 4.65050781,47.8594531 5.42383789,47.8594531 L23.2261133,47.8594531 C23.3121582,48.6152734 23.5025098,49.3397266 23.7835254,50.017666 L1.71499023,50.017666 Z M35.0562695,45.036084 C35.3851953,45.3649023 35.3851953,45.8979297 35.0565918,46.2266406 L31.5747266,49.7087207 C31.3101465,49.9733008 30.9578027,50.1189648 30.5825781,50.1189648 C30.2073535,50.1189648 29.8549023,49.9731934 29.5904297,49.7086133 L27.4012793,47.5196777 C27.0724609,47.1909668 27.0724609,46.657832 27.4011719,46.3291211 C27.7298828,46.0005176 28.2629102,46.0004102 28.5916211,46.3291211 L30.5823633,48.3197559 L33.8656055,45.0361914 C34.194209,44.7075879 34.7272363,44.707373 35.0562695,45.036084 Z M19.751123,8.55776367 C20.2161523,8.55776367 20.5929883,8.93470703 20.5929883,9.39962891 C20.5929883,9.86455078 20.2161523,10.2414941 19.751123,10.2414941 L16.2094238,10.2414941 C15.744502,10.2414941 15.3675586,9.86455078 15.3675586,9.39962891 C15.3675586,8.93470703 15.7443945,8.55776367 16.2094238,8.55776367 L19.751123,8.55776367 Z" id="path-1"></path>
  </defs>
  <g id="jkl/core/elements/icons/request" stroke="none" stroke-width="1" fill="none" fill-rule="evenodd">
    <g id="jkl/core/colors/primary" transform="translate(12.000000, 5.000000)">
      <mask id="mask-2" fill="white">
        <use xlink:href="#path-1"></use>
      </mask>
      <use id="Mask" fill="#000000" fill-rule="nonzero" xlink:href="#path-1"></use>
      <g mask="url(#mask-2)" fill="#ffffff" id="Rectangle-2">
        <g transform="translate(-7.734375, 0.000000)">
          <rect x="0" y="0" width="55" height="55"></rect>
        </g>
      </g>
    </g>
  </g>
</svg>