<?xml version="1.0" encoding="UTF-8"?>
<svg width="64px" height="64px" viewBox="0 0 64 64" version="1.1" xmlns="http://www.w3.org/2000/svg" xmlns:xlink="http://www.w3.org/1999/xlink">
    <!-- Generator: Sketch 50.2 (55047) - http://www.bohemiancoding.com/sketch -->
    <title>sms</title>
    <desc>Created with Sketch.</desc>
    <defs></defs>
    <g id="Symbols" stroke="none" stroke-width="1" fill="none" fill-rule="evenodd">
        <g id="jkl/core/form/2-step-verifiction" transform="translate(-3.000000, -47.000000)" fill-rule="nonzero">
            <g id="sms" transform="translate(3.000000, 47.000000)">
                <circle id="Oval" fill="#6CADF9" cx="32" cy="32" r="32"></circle>
                <path d="M19.495,7.005 L44.495,7.005 C45.323,7.005 45.995,7.677 45.995,8.505 L45.995,55.505 C45.995,56.333 45.323,57.005 44.495,57.005 L19.495,57.005 C18.667,57.005 17.995,56.333 17.995,55.505 L17.995,8.505 C17.995,7.677 18.667,7.005 19.495,7.005 Z" id="Shape" fill="#ffffff"></path>
                <rect id="Rectangle-path" fill="#415E72" x="19.495" y="11.01" width="25" height="40"></rect>
                <path d="M28.969,8.505 L34.969,8.505 C35.245,8.505 35.469,8.729 35.469,9.005 C35.469,9.281 35.245,9.505 34.969,9.505 L28.969,9.505 C28.693,9.505 28.469,9.281 28.469,9.005 C28.469,8.729 28.693,8.505 28.969,8.505 Z" id="Shape" fill="#CFDCE5"></path>
                <path d="M28.995,53.005 L34.995,53.005 C35.271,53.005 35.495,53.229 35.495,53.505 C35.495,53.781 35.271,54.005 34.995,54.005 L28.995,54.005 C28.719,54.005 28.495,53.781 28.495,53.505 C28.495,53.229 28.719,53.005 28.995,53.005 Z" id="Shape" fill="#CFDCE5"></path>
                <path d="M13.518,15.517 L34.126,15.517 C35.161,15.517 36,16.356 36,17.391 L36,30.505 C36,31.54 35.161,32.379 34.126,32.379 L13.518,32.379 C12.483,32.379 11.644,31.54 11.644,30.505 L11.644,17.391 C11.644,16.356 12.483,15.517 13.518,15.517 Z" id="Shape" fill="#3083E4"></path>
                <polygon id="Shape" fill="#3083E4" points="30.379 38 30.379 30.506 21.011 30.506"></polygon>
                <rect id="Rectangle-path" fill="#FFFFFF" x="22.885" y="21.14" width="1.874" height="1.874"></rect>
                <rect id="Rectangle-path" fill="#FFFFFF" x="19.14" y="21.14" width="1.874" height="1.874"></rect>
                <rect id="Rectangle-path" fill="#FFFFFF" x="15.391" y="21.14" width="1.874" height="1.874"></rect>
                <rect id="Rectangle-path" fill="#FFFFFF" x="26.632" y="21.14" width="1.874" height="1.874"></rect>
                <rect id="Rectangle-path" fill="#FFFFFF" x="30.379" y="21.14" width="1.874" height="1.874"></rect>
                <rect id="Rectangle-path" fill="#FFFFFF" x="22.885" y="24.885" width="1.874" height="1.874"></rect>
                <rect id="Rectangle-path" fill="#FFFFFF" x="26.632" y="24.885" width="1.874" height="1.874"></rect>
                <rect id="Rectangle-path" fill="#FFFFFF" x="30.379" y="24.885" width="1.874" height="1.874"></rect>
                <path d="M22.049,46.81 C22.51,47.098 23.04,47.258 23.584,47.273 C24.431,47.273 24.827,46.849 24.827,46.321 C24.827,45.765 24.497,45.461 23.637,45.143 C22.486,44.733 21.944,44.098 21.944,43.331 C21.989,42.242 22.908,41.395 23.997,41.439 C24.049,41.441 24.101,41.445 24.153,41.452 C24.703,41.447 25.246,41.585 25.727,41.852 L25.436,42.699 C25.042,42.456 24.589,42.327 24.126,42.328 C23.439,42.328 23.055,42.728 23.055,43.201 C23.055,43.73 23.439,43.969 24.272,44.286 C25.383,44.71 25.953,45.265 25.953,46.218 C25.953,47.343 25.08,48.136 23.558,48.136 C22.93,48.147 22.311,47.997 21.758,47.699 L22.049,46.81 Z" id="Shape" fill="#FFFFFF"></path>
                <path d="M27.449,43.33 C27.449,42.669 27.435,42.13 27.396,41.597 L28.415,41.597 L28.468,42.629 L28.508,42.629 C28.899,41.885 29.679,41.429 30.519,41.451 C31.337,41.443 32.067,41.96 32.331,42.734 L32.357,42.734 C32.534,42.409 32.777,42.126 33.071,41.901 C33.476,41.59 33.977,41.431 34.487,41.451 C35.334,41.451 36.587,42.007 36.587,44.229 L36.587,48 L35.453,48 L35.453,44.375 C35.453,43.145 35.003,42.404 34.063,42.404 C33.427,42.431 32.876,42.854 32.687,43.462 C32.627,43.65 32.596,43.846 32.595,44.044 L32.595,48 L31.458,48 L31.458,44.163 C31.458,43.144 31.008,42.404 30.121,42.404 C29.243,42.507 28.583,43.252 28.587,44.136 L28.587,48 L27.449,48 L27.449,43.33 Z" id="Shape" fill="#FFFFFF"></path>
                <path d="M38.328,46.81 C38.789,47.098 39.319,47.258 39.863,47.273 C40.71,47.273 41.106,46.849 41.106,46.321 C41.106,45.765 40.776,45.461 39.916,45.143 C38.765,44.733 38.223,44.098 38.223,43.331 C38.268,42.242 39.187,41.395 40.276,41.439 C40.328,41.441 40.38,41.445 40.432,41.452 C40.982,41.447 41.525,41.585 42.006,41.852 L41.715,42.699 C41.321,42.456 40.868,42.327 40.405,42.328 C39.718,42.328 39.334,42.728 39.334,43.201 C39.334,43.73 39.718,43.969 40.551,44.286 C41.662,44.71 42.232,45.265 42.232,46.218 C42.232,47.343 41.359,48.136 39.837,48.136 C39.209,48.147 38.59,47.997 38.037,47.699 L38.328,46.81 Z" id="Shape" fill="#FFFFFF"></path>
            </g>
        </g>
    </g>
</svg>