<svg id="flat" height="512" viewBox="0 0 64 64" width="512" xmlns="http://www.w3.org/2000/svg"><path d="m17 32h8v9h-8z" fill="#f2cca0"/><path d="m32 9v14a11 11 0 0 1 -22 0v-14z" fill="#ffd7a8"/><circle cx="16" cy="21" fill="#8c7558" r="1"/><path d="m14 16h4v2h-4z" fill="#555"/><circle cx="26" cy="21" fill="#8c7558" r="1"/><path d="m24 16h4v2h-4z" fill="#555"/><path d="m20 22h2v4h-2z" fill="#bf9f78"/><path d="m21 30a7.98713 7.98713 0 0 1 -4.123-1.14355l1.03125-1.7129a6.10945 6.10945 0 0 0 6.1836 0l1.03125 1.7129a7.98713 7.98713 0 0 1 -4.1231 1.14355z" fill="#bf9f78"/><path d="m10 13v-4a3 3 0 0 1 3-3 1 1 0 0 1 1 1v-1a3 3 0 0 1 3-3h13a2 2 0 0 1 2 2v8l-2.26385-1.50923a2 2 0 0 0 -1.59447-.27619l-6.65661 1.66415a2 2 0 0 1 -.97014 0l-6.65661-1.66415a2 2 0 0 0 -1.59447.27619z" fill="#626262"/><path d="m3 62v-14.64639a4 4 0 0 1 2.05743-3.49661l6.94257-3.857 9 1 9-1 6.94257 3.857a4 4 0 0 1 2.05743 3.49661v14.64639z" fill="#e1e1e1"/><path d="m9.70215 41.27661-4.64472 2.58039a4 4 0 0 0 -2.05743 3.49658v14.64642h14v-3z" fill="#888"/><path d="m32.29785 41.27661 4.64472 2.58039a4 4 0 0 1 2.05743 3.49658v14.64642h-14v-3z" fill="#888"/><path d="m24 41v6a1 1 0 0 1 -1 1h-4a1 1 0 0 1 -1-1v-6z" fill="#f38262"/><path d="m16.36424 37.90949 4.63576 3.09051-2.36844 3.15792a1 1 0 0 1 -1.44019.16822l-5.19137-4.32614 1.84062-1.84062a2 2 0 0 1 2.52362-.24989z" fill="#eee"/><path d="m25.63576 37.90949-4.63576 3.09051 2.36844 3.15792a1 1 0 0 0 1.44019.16822l5.19137-4.32614-1.84062-1.84062a2 2 0 0 0 -2.52362-.24989z" fill="#eee"/><path d="m25 62v-3l-2-11h-4l-2 11v3z" fill="#e67b5d"/><path d="m6 55h7v2h-7z" fill="#7b7b7b"/><path d="m39 47h5a1 1 0 0 1 1 1v13a0 0 0 0 1 0 0h-7a0 0 0 0 1 0 0v-13a1 1 0 0 1 1-1z" fill="#ffdd6d"/><g fill="#bbb"><path d="m44 20.394h2v7.211h-2z" transform="matrix(.555 -.832 .832 .555 .069 48.129)"/><path d="m48.352 20.5h10.296v2h-10.296z" transform="matrix(.486 -.874 .874 .486 8.715 57.815)"/><path d="m59 15h3v2h-3z"/><path d="m35 20h4v2h-4z"/></g><path d="m46 42h5a1 1 0 0 1 1 1v18a0 0 0 0 1 0 0h-7a0 0 0 0 1 0 0v-18a1 1 0 0 1 1-1z" fill="#82e28c"/><path d="m53 34h5a1 1 0 0 1 1 1v26a0 0 0 0 1 0 0h-7a0 0 0 0 1 0 0v-26a1 1 0 0 1 1-1z" fill="#69aee6"/><path d="m62 62h-26a3.00328 3.00328 0 0 1 -3-3v-21h2v21a1.001 1.001 0 0 0 1 1h26z" fill="#bbb"/><circle cx="41" cy="21" fill="#eac761" r="2"/><path d="m41 24a3 3 0 1 1 3-3 3.00328 3.00328 0 0 1 -3 3zm0-4a1 1 0 1 0 1 1 1.001 1.001 0 0 0 -1-1z" fill="#ffdd6d"/><circle cx="49" cy="27" fill="#eac761" r="2"/><path d="m49 30a3 3 0 1 1 3-3 3.00328 3.00328 0 0 1 -3 3zm0-4a1 1 0 1 0 1 1 1.001 1.001 0 0 0 -1-1z" fill="#ffdd6d"/><circle cx="57" cy="16" fill="#eac761" r="2"/><path d="m57 19a3 3 0 1 1 3-3 3.00328 3.00328 0 0 1 -3 3zm0-4a1 1 0 1 0 1 1 1.001 1.001 0 0 0 -1-1z" fill="#ffdd6d"/></svg>