<?xml version="1.0" encoding="UTF-8"?>
<svg width="64px" height="64px" viewBox="0 0 64 64" version="1.1" xmlns="http://www.w3.org/2000/svg" xmlns:xlink="http://www.w3.org/1999/xlink">
    <!-- Generator: Sketch 50.2 (55047) - http://www.bohemiancoding.com/sketch -->
    <title>jkl/core/elements/icons/submit</title>
    <desc>Created with Sketch.</desc>
    <defs>
        <path d="M51.8887324,0.950268293 C51.8662187,0.826292683 51.8210858,0.702211382 51.7534392,0.600747967 C51.7421296,0.578235772 51.7309256,0.544414634 51.7196159,0.521796748 C51.7083063,0.499284553 51.6857926,0.48797561 51.663279,0.465463415 C51.6181461,0.409130081 51.5618091,0.352691057 51.5054722,0.307666667 C51.4603393,0.273845528 51.415312,0.24002439 51.3701791,0.206203252 C51.3476654,0.194894309 51.3363558,0.172382114 51.3138421,0.161073171 C51.2800188,0.149764228 51.2348859,0.127252033 51.1898586,0.115943089 C51.1335217,0.0934308943 51.0770791,0.0708130081 51.0207422,0.0596097561 C50.9530956,0.048300813 50.885449,0.037097561 50.8178024,0.037097561 C50.7614655,0.037097561 50.7050229,0.037097561 50.648686,0.037097561 C50.5697298,0.0484065041 50.4908792,0.0709186992 50.4232326,0.0934308943 C50.3894093,0.104739837 50.3442764,0.104739837 50.3104531,0.115943089 L0.680270923,21.5699593 C0.105274988,21.8180163 -0.154001671,22.4831301 0.0939653257,23.0580894 C0.206744859,23.3061463 0.398374938,23.5202764 0.646447633,23.6330488 L19.1816107,32.3475935 L19.1816107,49.6753252 C19.1816107,50.2954146 19.68896,50.8027317 20.3090889,50.8027317 C20.7036588,50.8027317 21.064511,50.5998049 21.2674507,50.2615935 L29.1031444,37.5223333 L41.2118823,43.9032195 C41.7643646,44.1963008 42.4408304,43.9821707 42.7339304,43.4297236 C42.7790633,43.3395691 42.8128866,43.2381057 42.8354002,43.1478455 L51.8775284,1.40125203 C51.8775284,1.37873984 51.8775284,1.35612195 51.8775284,1.33360976 C51.8888381,1.26596748 51.8888381,1.20963415 51.900042,1.15319512 C51.8999363,1.08555285 51.8999363,1.01791057 51.8887324,0.950268293 Z M20.0835299,30.2618862 L3.8934835,22.6409268 L45.7892305,4.55782114 L20.0835299,30.2618862 Z M21.4364615,45.673122 L21.4364615,33.4862033 L27.1074646,36.4737724 L21.4364615,45.673122 Z M40.9525,41.2087317 L30.2981635,35.6057317 L28.3815456,34.4219919 L28.3025894,34.5572764 L22.2030875,31.3442683 L48.8446363,4.68190244 L40.9525,41.2087317 Z" id="path-1"></path>
    </defs>
    <g id="jkl/core/elements/icons/submit" stroke="none" stroke-width="1" fill="none" fill-rule="evenodd">
        <g id="jkl/core/colors/primary" transform="translate(6.000000, 7.000000)">
            <mask id="mask-2" fill="white">
                <use xlink:href="#path-1"></use>
            </mask>
            <use id="Mask" fill="#000000" fill-rule="nonzero" xlink:href="#path-1"></use>
            <g mask="url(#mask-2)" fill="#ffffff" id="Rectangle-2">
                <g transform="translate(-16.000000, -16.000000)">
                    <rect x="0" y="0" width="84" height="79"></rect>
                </g>
            </g>
        </g>
    </g>
</svg>