<?xml version="1.0" encoding="UTF-8"?>
<svg width="64px" height="64px" viewBox="0 0 64 64" version="1.1" xmlns="http://www.w3.org/2000/svg" xmlns:xlink="http://www.w3.org/1999/xlink">
    <!-- Generator: Sketch 50.2 (55047) - http://www.bohemiancoding.com/sketch -->
    <title>jkl/core/elements/icons/users</title>
    <desc>Created with Sketch.</desc>
    <defs>
        <path d="M57.8316466,36.2186121 C56.6740862,35.1254914 55.5002759,34.6655603 55.2724397,34.5828534 L51.4044914,32.9711897 L48.6954483,31.1834655 L48.6954483,30.2740259 C50.7187414,29.2158707 52.1922241,27.2463707 52.5663103,24.9129828 C54.2660603,24.6869397 55.5821983,23.2286983 55.5821983,21.4679828 C55.5821983,20.5643707 55.2354569,19.7404397 54.6685,19.1215948 L54.6685,15.7888879 C54.6685,10.4265 50.3058793,6.06387931 44.9434914,6.06387931 L44.2085431,6.06387931 C39.7938103,6.06387931 35.9424483,9.02855172 34.8111121,13.2829138 C33.9621897,13.0531724 33.0702328,12.9282155 32.1495862,12.9282155 L31.3753017,12.9282155 C30.405569,12.9282155 29.4682241,13.067181 28.5789569,13.3211293 C27.4608448,9.04592241 23.5990603,6.06376724 19.1708793,6.06376724 L18.435931,6.06376724 C13.0735431,6.06376724 8.71092241,10.4263879 8.71092241,15.7887759 L8.71092241,19.1215948 C8.14385345,19.7404397 7.79711207,20.5643707 7.79711207,21.4679828 C7.79711207,23.2286983 9.11325,24.6870517 10.813,24.9129828 C11.1869741,27.2463707 12.660569,29.2158707 14.6838621,30.2740259 L14.6838621,31.1834655 L11.974931,32.9710776 L8.10687069,34.5827414 C7.87903448,34.6653362 6.70533621,35.1253793 5.54766379,36.2185 C4.38539655,37.3159914 3,39.2893017 3,42.4572672 L3,47.9636638 C3,48.4640517 3.40568966,48.8709741 3.90596552,48.8709741 L15.2826466,48.8709741 C15.1138707,49.5746552 15.013681,50.3573448 15.013681,51.2267759 L15.013681,57.0288103 C15.013681,57.5293103 15.4193707,57.9362328 15.9196466,57.9362328 L26.6839828,57.9362328 L29.0653362,57.9362328 L34.4944052,57.9362328 L34.4968707,57.9362328 L36.6953276,57.9362328 L37.2061379,57.9362328 C37.7066379,57.9362328 38.1121034,57.5307672 38.1121034,57.0302672 C38.1121034,56.5297672 37.7066379,56.1243017 37.2061379,56.1243017 L36.6953276,56.1243017 L35.266,56.1243017 L34.1720948,49.3427845 L34.59975,48.2038276 L35.2460517,48.6795603 C35.4031724,48.7953276 35.5916724,48.8559569 35.7829741,48.8559569 C35.8554828,48.8559569 35.9282155,48.8472155 35.9999397,48.8296207 C36.2609483,48.765181 36.4801552,48.5881121 36.5976034,48.3462672 L39.0581897,43.288819 L42.3410259,44.6568448 C42.36075,44.6650259 42.3806983,44.6725345 42.4009828,44.6793707 C42.4425603,44.6932672 46.5536983,46.1338017 46.5536983,51.2267759 L46.5536983,56.1243017 L42.7952414,56.1243017 L42.7952414,50.9627414 C42.7952414,50.4622414 42.3897759,50.0567759 41.8892759,50.0567759 C41.3887759,50.0567759 40.9833103,50.4622414 40.9833103,50.9627414 L40.9833103,56.1243017 L40.0250086,56.1243017 C39.5245086,56.1243017 39.1190431,56.5297672 39.1190431,57.0302672 C39.1190431,57.5307672 39.5245086,57.9362328 40.0250086,57.9362328 L47.4597759,57.9362328 C47.9602759,57.9362328 48.3657414,57.5192241 48.3657414,57.0188362 L48.3657414,51.2265517 C48.3657414,50.3571207 48.2655517,49.574431 48.0967759,48.87075 L59.473569,48.87075 C59.974069,48.87075 60.3795345,48.4543017 60.3795345,47.9540259 L60.3795345,42.4570431 C60.3793103,39.2893017 58.9939138,37.3159914 57.8316466,36.2186121 Z M50.8482931,23.7428707 C50.8482931,26.8058276 48.3563276,29.297681 45.2934828,29.297681 L43.8917241,29.297681 C43.6960517,29.297681 43.5008276,29.2858017 43.3069483,29.2656293 C43.3090776,29.2141897 43.3107586,29.1624138 43.3107586,29.1104138 C43.3107586,28.1643276 42.9449655,27.3024052 42.3478621,26.6574483 L42.3478621,23.1262672 C42.3478621,21.5144914 41.9705259,19.9894569 41.3016983,18.6330862 C43.288681,18.1524224 45.6199397,17.2327845 47.4241379,15.4693793 C47.9843707,16.664931 49.0307586,18.2221293 50.848181,18.9114655 L50.848181,23.7428707 L50.8482931,23.7428707 Z M46.8834052,30.9350086 L46.8834052,32.7868362 L44.5553966,35.2033793 L42.3002328,33.0064914 C42.300569,32.9965172 42.3018017,32.9867672 42.3018017,32.9767931 L42.3018017,31.6129138 C42.3018017,31.6125776 42.3018017,31.6123534 42.3018017,31.6119052 L42.3018017,31.6117931 C42.4750603,31.4314741 42.6299397,31.2334483 42.7629655,31.0204052 C43.1355948,31.0777845 43.5130431,31.1096121 43.8917241,31.1096121 L45.2934828,31.1096121 C45.8393707,31.1097241 46.3710259,31.0483103 46.8834052,30.9350086 Z M41.4988276,29.1105259 C41.4988276,29.5676552 41.3263534,29.9841034 41.0449483,30.3023793 C40.8761724,30.373319 40.7338448,30.4942414 40.6353362,30.6462069 C40.509819,30.7233103 40.3752241,30.7871897 40.232,30.8317931 L40.232,27.3894828 C40.9651552,27.6181034 41.4988276,28.303181 41.4988276,29.1105259 Z M53.7702672,21.4678707 C53.7702672,22.1911638 53.3056293,22.8063103 52.6602241,23.0353793 L52.6602241,19.90025 C53.3058534,20.129319 53.7702672,20.7445776 53.7702672,21.4678707 Z M36.5436983,13.8141207 C37.4413707,10.317569 40.5931983,7.87569828 44.208431,7.87569828 L44.9433793,7.87569828 C49.3066724,7.87569828 52.8564569,11.4254828 52.8564569,15.7887759 L52.8564569,18.0739741 C52.7833879,18.0578362 52.7099828,18.0431552 52.6352328,18.0317241 C52.5570086,17.7014569 52.297681,17.435181 51.9551983,17.3572931 C49.4189655,16.7803621 48.6389655,13.5434741 48.6317931,13.5132155 C48.5532328,13.1660259 48.2784397,12.8970603 47.929681,12.8257845 C47.5809224,12.7546207 47.2226379,12.8940345 47.0140776,13.1825 C45.3153362,15.5310172 42.4831293,16.5554397 40.2980086,17.0020345 C39.3088879,15.6895948 38.010681,14.6231466 36.512431,13.9110603 C36.5245345,13.8793448 36.535181,13.8472931 36.5436983,13.8141207 Z M31.3754138,14.7398103 L32.1494741,14.7398103 L32.1494741,14.7400345 C36.7737759,14.7400345 40.5360431,18.5021897 40.5360431,23.1264914 L40.5360431,25.5955948 C40.4305862,25.5704914 40.3235603,25.5495345 40.2147414,25.5338448 C40.2123879,25.5219655 40.20925,25.5105345 40.2065603,25.4987672 C40.2029741,25.4835259 40.1992759,25.4682845 40.1949052,25.4533793 C40.1905345,25.4384741 40.1853793,25.4241293 40.1803362,25.4096724 C40.1758534,25.3970086 40.1714828,25.3843448 40.1664397,25.3717931 C40.1602759,25.3564397 40.1534397,25.3415345 40.1463793,25.3267414 C40.1411121,25.3153103 40.1358448,25.3038793 40.1299052,25.2926724 C40.1222845,25.2781034 40.1142155,25.2640948 40.1059224,25.2500862 C40.0993103,25.2388793 40.0929224,25.2277845 40.08575,25.2169138 C40.0774569,25.2041379 40.0684914,25.1918103 40.0595259,25.1793707 C40.0512328,25.1679397 40.0428276,25.1563966 40.0340862,25.1453017 C40.0253448,25.134431 40.0163793,25.1240086 40.0070776,25.1134741 C39.9967672,25.1017069 39.9864569,25.0900517 39.9755862,25.0788448 C39.9667328,25.0697672 39.9575431,25.06125 39.9483534,25.0525086 C39.9361379,25.0410776 39.9240345,25.0296466 39.9112586,25.0187759 C39.9019569,25.010931 39.892319,25.0035345 39.882681,24.9959138 C39.869569,24.9856034 39.8561207,24.9752931 39.8422241,24.9657672 C39.8315776,24.9582586 39.8204828,24.9515345 39.8093879,24.9444741 C39.7960517,24.9359569 39.7826034,24.9275517 39.7687069,24.9197069 C39.7557069,24.9123103 39.7420345,24.9056983 39.7284741,24.8989741 C39.7160345,24.8928103 39.703819,24.8865345 39.6910431,24.880931 C39.674569,24.8736466 39.6577586,24.8673707 39.6407241,24.8610948 C39.6300776,24.8570603 39.6195431,24.8529138 39.6086724,24.8493276 C39.5895086,24.8430517 39.5698966,24.8378966 39.5501724,24.8328534 C39.5425517,24.8309483 39.5350431,24.8281466 39.5273103,24.8264655 C36.824431,24.211431 35.9964655,20.7718103 35.9889569,20.7395345 C35.9103966,20.3923448 35.6356034,20.1233793 35.2869569,20.0521034 C34.9380862,19.9806034 34.5799138,20.1202414 34.3713534,20.4087069 C31.2226638,24.7616897 24.3423017,24.8039397 24.2381897,24.8039397 C24.2362845,24.8040517 24.2352759,24.8039397 24.233819,24.8039397 C24.2026638,24.8039397 24.1718448,24.8055086 24.1413621,24.8086466 C24.1341897,24.809319 24.1274655,24.8108879 24.1202931,24.8117845 C24.0972069,24.8146983 24.0740086,24.8177241 24.0515948,24.822319 C24.0431897,24.824 24.0350086,24.8266897 24.0267155,24.8287069 C24.0059828,24.8335259 23.9850259,24.8383448 23.9648534,24.8445086 C23.9539828,24.8478707 23.9436724,24.8523534 23.9331379,24.8560517 C23.9159914,24.8621034 23.8986207,24.867819 23.8819224,24.8747672 C23.8684741,24.8804828 23.8558103,24.8872069 23.8428103,24.8935948 C23.8294741,24.8999828 23.8159138,24.9058103 23.8029138,24.9127586 C23.7895776,24.9200431 23.7771379,24.9283362 23.76425,24.936181 C23.7522586,24.9435776 23.739931,24.9501897 23.7283879,24.9580345 C23.7157241,24.9666638 23.7038448,24.9761897 23.6917414,24.9853793 C23.6807586,24.9935603 23.6692155,25.0012931 23.6587931,25.0100345 C23.6471379,25.0195603 23.6366034,25.0300948 23.6253966,25.040069 C23.6150862,25.0494828 23.6042155,25.0584483 23.5943534,25.0681983 C23.5840431,25.0785086 23.5747414,25.0896034 23.5649914,25.1003621 C23.5552414,25.1110086 23.5450431,25.1212069 23.5358534,25.1324138 C23.5267759,25.1433966 23.5187069,25.1551638 23.5101897,25.1664828 C23.5013362,25.1783621 23.4919224,25.189681 23.4836293,25.2020086 C23.4757845,25.2135517 23.4690603,25.2258793 23.4616638,25.2378707 C23.453819,25.2507586 23.4455259,25.2631983 23.4382414,25.2764224 C23.4315172,25.2888621 23.4258017,25.3018621 23.4196379,25.31475 C23.4131379,25.3283103 23.4059655,25.3415345 23.4000259,25.355431 C23.3944224,25.3685431 23.3901638,25.3822155 23.3851207,25.3956638 C23.3798534,25.4098966 23.3740259,25.4239052 23.369431,25.4385862 C23.3650603,25.4523707 23.3620345,25.4666034 23.3584483,25.4806121 C23.3546379,25.4955172 23.3501552,25.5100862 23.3470172,25.5252155 C23.3464569,25.5280172 23.3460086,25.530931 23.3454483,25.5336207 C23.2246379,25.5509914 23.1057328,25.5743017 22.989069,25.6034397 L22.989069,23.1262672 C22.989069,18.5019655 26.7512241,14.7398103 31.3754138,14.7398103 Z M31.7419914,43.6524828 L29.3149138,41.2886121 C29.3159224,41.2715776 29.3174914,41.2548793 29.3174914,41.2377328 L29.3174914,39.8002241 C29.3174914,39.7993276 29.3174914,39.7986552 29.3174914,39.7979828 L29.3174914,39.024819 C29.8722328,39.1520172 30.4487155,39.2215 31.0415603,39.2215 L32.5185172,39.2215 C33.0935431,39.2215 33.6534397,39.1562759 34.1928276,39.0364741 C34.2094138,39.0359138 34.2258879,39.0347931 34.2424741,39.0340086 L34.2424741,41.0568534 L31.7419914,43.6524828 Z M33.0832328,47.0878448 L32.6117586,48.3436897 L30.9235517,48.3436897 L30.3906638,47.0717069 L31.7259655,46.0888621 L33.0832328,47.0878448 Z M19.5688362,39.6745948 L18.0293448,39.6745948 L17.6053879,38.5453879 L18.8380345,37.6384138 L20.0487155,38.5294741 L19.5688362,39.6745948 Z M19.6885259,43.2746983 C19.1656121,43.5403017 18.4220345,43.9905948 17.6828276,44.6886724 C17.6725172,44.6983103 17.662319,44.7085086 17.6520086,44.7182586 L18.1733534,41.4866379 L19.4000603,41.4866379 L19.6885259,43.2746983 Z M18.8239138,35.2034914 L16.4959052,32.7869483 L16.4959052,30.9351207 C17.0082845,31.0483103 17.5399397,31.1098362 18.0859397,31.1098362 L19.4876983,31.1098362 C19.9221897,31.1098362 20.3556724,31.0716207 20.7811983,30.9964224 C20.8705172,31.1417759 20.9693621,31.2802931 21.0776207,31.4110776 L21.0776207,31.6108966 C21.0776207,31.6119052 21.0776207,31.6128017 21.0776207,31.6138103 L21.0776207,32.9770172 C21.0776207,32.9869914 21.0788534,32.9967414 21.0790776,33.0067155 L18.8239138,35.2034914 Z M22.6157672,34.0392069 C22.8261207,33.8344569 22.9145431,33.5523793 22.8821552,33.2818448 L23.6778448,33.8068879 C23.7643621,34.08325 23.8674655,34.3522155 23.9833448,34.6142328 L22.3493793,37.9730517 L20.2010172,36.3917586 L22.6157672,34.0392069 Z M22.0608017,29.1106379 C22.0608017,28.303069 22.5945862,27.6178793 23.3277414,27.3893707 L23.3277414,30.8317931 C22.5945862,30.6032845 22.0608017,29.9180948 22.0608017,29.1106379 Z M21.5502155,39.6343621 L22.1512414,40.0765862 C22.3083621,40.1923534 22.4969741,40.2529828 22.6882759,40.2529828 C22.7606724,40.2529828 22.8335172,40.2442414 22.9051293,40.2266466 C23.16625,40.1622069 23.3853448,39.9851379 23.5027931,39.7432931 L25.1121034,36.4352414 C25.7705086,37.2261121 26.5843534,37.8822759 27.5054483,38.3594655 L27.5054483,39.3025259 L24.601069,41.2191293 C24.5617328,41.2295517 24.5225086,41.2418793 24.484069,41.2577931 L21.4056466,42.5406466 L21.107319,40.6917328 L21.5502155,39.6343621 Z M27.532681,41.4554828 C27.4581552,41.7573966 27.5403017,42.089569 27.7791207,42.3222241 L30.3646638,44.8408621 L28.0078534,46.5755776 L26.0068621,42.4624224 L27.532681,41.4554828 Z M32.5186293,37.4094569 L31.0416724,37.4094569 C27.7875259,37.4094569 25.1398966,34.7620517 25.1398966,31.5077931 L25.1398966,26.5767586 C27.0833966,26.4357759 31.6810259,25.7799483 34.7790603,22.7079138 C35.3610345,23.9737328 36.4693966,25.6557759 38.4204052,26.3822069 L38.4204052,31.507681 L38.4202931,31.507681 C38.420181,34.7620517 35.7727759,37.4094569 32.5186293,37.4094569 Z M10.7189741,23.0353793 C10.0734569,22.8063103 9.6090431,22.1911638 9.6090431,21.4678707 C9.6090431,20.7445776 10.0733448,20.129431 10.7189741,19.90025 L10.7189741,23.0353793 Z M11.6490345,17.334431 C11.6476897,17.334431 11.6464569,17.334431 11.645,17.334431 C11.6416379,17.334431 11.6383879,17.3348793 11.6350259,17.3348793 C11.6316638,17.3348793 11.6284138,17.334431 11.6250517,17.334431 C11.1967241,17.334431 10.8387759,17.6319741 10.7443017,18.0316121 C10.6695517,18.0430431 10.5959224,18.0577241 10.5228534,18.0738621 L10.5228534,15.7886638 C10.5228534,11.4253707 14.0726379,7.87558621 18.435931,7.87558621 L19.1708793,7.87558621 C22.7861121,7.87558621 25.9380517,10.317569 26.8356121,13.8140086 C26.8496207,13.8683621 26.8687845,13.9198017 26.8915345,13.9691121 C25.6984483,14.555681 24.6364828,15.3686293 23.7608879,16.3516983 C22.7167414,15.2632845 22.3530776,13.7454224 22.3497155,13.7309655 C22.2710431,13.3837759 21.9963621,13.1148103 21.6476034,13.0435345 C21.299069,12.9723707 20.9405603,13.1116724 20.732,13.4001379 C17.9138017,17.2959914 11.7395862,17.334319 11.6491466,17.334319 C11.6490345,17.334431 11.6490345,17.334431 11.6490345,17.334431 Z M12.5310172,23.7428707 L12.5310172,19.1073621 C14.3133621,18.9715345 18.3616293,18.3661379 21.1459828,15.6755862 C21.4717672,16.3569655 21.9611724,17.152431 22.6693362,17.82025 C21.7231379,19.3670259 21.1768017,21.184 21.1768017,23.1262672 L21.1768017,26.6953276 C20.600319,27.3359138 20.2488707,28.1827069 20.2488707,29.1103017 C20.2488707,29.1549052 20.2506638,29.1989483 20.2522328,29.2432155 C19.9995172,29.2779569 19.744,29.297569 19.4875862,29.297569 L18.0858276,29.297569 C15.0229828,29.2977931 12.5310172,26.8058276 12.5310172,23.7428707 Z M14.7044828,33.3407931 C14.7384397,33.5009397 14.8152069,33.65425 14.93725,33.7808879 L17.4618276,36.4015086 L15.3263534,37.9729397 L13.4691466,34.1558707 L14.7044828,33.3407931 Z M15.4388707,47.058931 L10.0985603,47.058931 L10.0985603,42.206681 C10.0985603,41.706181 9.69287069,41.3007155 9.19259483,41.3007155 C8.69231897,41.3007155 8.28662931,41.706181 8.28662931,42.206681 L8.28662931,47.058931 L4.81193103,47.058931 L4.81193103,42.4572672 C4.81193103,37.6992672 8.56612931,36.3411034 8.72168103,36.2870862 C8.74185345,36.28025 8.76191379,36.2728534 8.78163793,36.2645603 L11.8569224,34.9832759 L14.1728276,39.7436293 C14.2905,39.9854741 14.5094828,40.1625431 14.7704914,40.2269828 C14.8422155,40.2445776 14.9149483,40.253319 14.9873448,40.253319 C15.1787586,40.253319 15.3672586,40.1926897 15.5243793,40.0769224 L16.0886466,39.6615948 L16.4687845,40.6740259 L15.4388707,47.058931 Z M28.2936293,56.1244138 L26.6838707,56.1244138 L22.3961121,56.1244138 L22.3961121,56.1243017 L22.3961121,50.9627414 C22.3961121,50.4622414 21.9904224,50.0567759 21.4901466,50.0567759 C20.9897586,50.0567759 20.584181,50.4623534 20.584181,50.9627414 L20.584181,56.1243017 L16.8256121,56.1244138 L16.8256121,51.2267759 C16.8256121,46.1768362 20.8126897,44.73675 20.9784397,44.6793707 C20.9986121,44.6725345 21.0186724,44.6651379 21.0383966,44.6568448 L24.38175,43.2636034 L26.8543276,48.3462672 C26.972,48.5881121 27.1909828,48.765181 27.4519914,48.8296207 C27.5237155,48.8471034 27.5964483,48.8559569 27.6688448,48.8559569 C27.8602586,48.8559569 28.0488707,48.7953276 28.2058793,48.6795603 L28.8888276,48.176931 L29.3847328,49.3610517 L28.2936293,56.1244138 Z M30.1292069,56.1243017 L31.0922155,50.1556207 L32.46775,50.1556207 L33.4306466,56.1243017 L30.1292069,56.1243017 Z M35.4439655,46.5754655 L34.7300862,46.0499741 C34.728181,46.0484052 34.7260517,46.0470603 34.7240345,46.0454914 L33.1022845,44.8518448 L35.8009052,42.050569 C35.9409914,41.9051034 36.0217931,41.7248966 36.0458879,41.5389741 L37.4449569,42.4620862 L35.4439655,46.5754655 Z M41.9738879,42.5408707 L38.9343534,41.2740431 L36.057431,39.3757069 C36.0564224,39.3751466 36.0555259,39.3745862 36.0546293,39.3740259 L36.0546293,38.3596897 C36.9230517,37.9097328 37.6949828,37.3001897 38.332319,36.5690517 L39.8767414,39.7435172 C39.9944138,39.9853621 40.2133966,40.162431 40.4744052,40.2268707 C40.5461293,40.2444655 40.6188621,40.2532069 40.6913707,40.2532069 C40.8826724,40.2532069 41.0712845,40.1925776 41.2282931,40.0768103 L41.829319,39.6345862 L42.2723276,40.692069 L41.9738879,42.5408707 Z M41.0300431,37.9728276 L39.4895431,34.806431 C39.6640345,34.4392931 39.8090517,34.0559052 39.9243707,33.6598534 L40.4971552,33.2818448 C40.4646552,33.5523793 40.5533017,33.8343448 40.7635431,34.0392069 L43.1784052,36.3917586 L41.0300431,37.9728276 Z M45.6964828,44.6886724 C44.9571638,43.9905948 44.2136983,43.5401897 43.6907845,43.2745862 L43.9793621,41.4866379 L45.206069,41.4866379 L45.7273017,44.7182586 C45.7169914,44.7083966 45.706681,44.6983103 45.6964828,44.6886724 Z M45.3499655,39.6745948 L43.8105862,39.6745948 L43.3307069,38.5293621 L44.5413879,37.6384138 L45.7740345,38.5455 L45.3499655,39.6745948 Z M45.9172586,36.4013966 L48.4418362,33.7807759 C48.5638793,33.6541379 48.6407586,33.5010517 48.6747155,33.340681 L49.9097155,34.1557586 L48.0527328,37.9728276 L45.9172586,36.4013966 Z M55.092681,47.058931 L55.092681,42.206681 C55.092681,41.706181 54.6871034,41.3007155 54.1867155,41.3007155 C53.6862155,41.3007155 53.28075,41.7062931 53.28075,42.206681 L53.28075,47.058931 L47.9402155,47.058931 L46.9103017,40.6740259 L47.2903276,39.6615948 L47.8547069,40.0769224 C48.0118276,40.1926897 48.2003276,40.253319 48.3916293,40.253319 C48.4641379,40.253319 48.5368707,40.2445776 48.6085948,40.2269828 C48.8696034,40.1626552 49.0888103,39.9854741 49.2062586,39.7436293 L51.5221638,34.9832759 L54.5974483,36.2645603 C54.6171724,36.2727414 54.6372328,36.28025 54.6574052,36.2870862 C54.6964052,36.3000862 58.5671552,37.6562328 58.5671552,42.4572672 L58.5671552,47.058931 L55.092681,47.058931 Z" id="path-1"></path>
    </defs>
    <g id="jkl/core/elements/icons/users" stroke="none" stroke-width="1" fill="none" fill-rule="evenodd">
        <mask id="mask-2" fill="white">
            <use xlink:href="#path-1"></use>
        </mask>
        <use id="Mask" fill="#000000" fill-rule="nonzero" xlink:href="#path-1"></use>
        <g id="jkl/core/colors/primary" mask="url(#mask-2)" fill="#ffffff">
            <rect id="Rectangle-2" x="0" y="0" width="64" height="63"></rect>
        </g>
    </g>
</svg>