<?xml version="1.0" encoding="UTF-8"?>
<svg width="64px" height="64px" viewBox="0 0 64 64" version="1.1" xmlns="http://www.w3.org/2000/svg" xmlns:xlink="http://www.w3.org/1999/xlink">
    <!-- Generator: Sketch 50.2 (55047) - http://www.bohemiancoding.com/sketch -->
    <title>jkl/core/elements/icons/vendors</title>
    <desc>Created with Sketch.</desc>
    <defs>
        <path d="M39.0478359,29.5281797 L32.9142734,29.5281797 L32.9142734,28.0944219 C34.9262266,27.5463906 36.788375,26.5162422 38.3443125,25.0641016 C39.0224453,24.4311641 39.6248125,23.7350547 40.1455234,22.9883672 C40.6128125,23.2183047 41.1265156,23.3402812 41.6534219,23.3402812 C43.5390313,23.3402812 45.0730313,21.8061797 45.0730313,19.9206719 C45.0730313,18.3095859 43.974125,16.9453984 42.4282422,16.5899297 C42.4295625,16.5732734 42.4312891,16.5567187 42.4325078,16.5400625 C42.4343359,16.5157891 42.4345391,16.4916172 42.4341328,16.4676484 C42.9987188,15.741375 43.3361094,14.8302578 43.3361094,13.8412422 L43.3361094,7.76201563 C43.3360078,3.48207031 39.8539375,0 35.5739922,0 L23.4153359,0 C19.1353906,0 15.6533203,3.48207031 15.6533203,7.76201563 L15.6533203,13.8413437 C15.6533203,14.8305625 15.9908125,15.7417812 16.5557031,16.4680547 C16.5551953,16.4936484 16.5556016,16.5196484 16.5575313,16.5456484 C16.5586484,16.5604766 16.5601719,16.5752031 16.5612891,16.5900312 C15.0151016,16.9455 13.9162969,18.3092813 13.9162969,19.9206719 C13.9162969,21.8062812 15.4503984,23.3402813 17.3359063,23.3402813 C17.8665703,23.3402813 18.3780391,23.2187109 18.8441094,22.9886719 C19.3653281,23.7359688 19.9681016,24.4325859 20.6468438,25.0658281 C22.202375,26.5170547 24.0638125,27.5464922 26.0749531,28.0943203 L26.0749531,29.5281797 L20.7555156,29.5281797 L20.7555156,26.8684609 C20.7555156,26.4187422 20.3911094,26.0542344 19.9412891,26.0542344 L0.834945313,26.0542344 C0.385226563,26.0542344 0.02071875,26.4186406 0.02071875,26.8684609 L0.02071875,51.1857734 C0.02071875,51.6354922 0.385125,52 0.834945313,52 L44.2587031,52 C44.7084219,52 45.0729297,51.6355938 45.0729297,51.1857734 L45.0729297,35.5532734 C45.0729297,32.2309609 42.3701484,29.5281797 39.0478359,29.5281797 Z M43.4444766,19.9206719 C43.4444766,20.9083672 42.6409141,21.7119297 41.6532188,21.7119297 C41.4259219,21.7119297 41.2032969,21.6686641 40.9955,21.5865 C41.5495234,20.5276094 41.9550625,19.3942734 42.1983047,18.2147266 C42.9337188,18.4466953 43.4444766,19.1255391 43.4444766,19.9206719 Z M17.2816719,10.3131641 L33.0046641,10.3131641 C33.4543828,10.3131641 33.8188906,9.94875781 33.8188906,9.4989375 C33.8188906,9.04911719 33.4544844,8.68471094 33.0046641,8.68471094 L17.2816719,8.68471094 L17.2816719,7.76191406 C17.2816719,4.37988281 20.0332031,1.62825 23.4152344,1.62825 L35.5738906,1.62825 C38.9559219,1.62825 41.7075547,4.37978125 41.7075547,7.76191406 L41.7075547,8.68471094 L36.4424531,8.68471094 C35.9927344,8.68471094 35.6282266,9.04911719 35.6282266,9.4989375 C35.6282266,9.94875781 35.9926328,10.3131641 36.4424531,10.3131641 L41.7075547,10.3131641 L41.7075547,12.1586563 L17.2816719,12.1586563 L17.2816719,10.3131641 Z M17.3360078,21.7119297 C16.3483125,21.7119297 15.54475,20.9083672 15.54475,19.9206719 C15.54475,19.1255391 16.0554063,18.4466953 16.7909219,18.2147266 C17.0342656,19.3940703 17.4398047,20.5276094 17.9938281,21.5865 C17.7863359,21.6684609 17.564625,21.7119297 17.3360078,21.7119297 Z M17.2816719,13.8413437 L17.2816719,13.7871094 L41.7075547,13.7871094 L41.7075547,13.8413437 C41.7075547,15.3080078 40.5145,16.5010625 39.0478359,16.5010625 L19.9413906,16.5010625 C18.4747266,16.5010625 17.2816719,15.3080078 17.2816719,13.8413437 Z M18.3751953,17.8319375 C18.8607656,18.0231797 19.3886875,18.1294141 19.9413906,18.1294141 L39.0478359,18.1294141 C39.6005391,18.1294141 40.1284609,18.0231797 40.6140313,17.8319375 C39.5603203,23.0302109 34.9254141,26.9226953 29.4945625,26.9226953 C24.0647266,26.9227969 19.4290078,23.0299062 18.3751953,17.8319375 Z M31.2858203,28.5511484 L31.2858203,29.5281797 L27.7034063,29.5281797 L27.7034063,28.5511484 L31.2858203,28.5511484 Z M8.59696094,27.6826875 L12.179375,27.6826875 L12.179375,29.4739453 C12.179375,29.5038047 12.155,29.5281797 12.1251406,29.5281797 L8.65119531,29.5281797 C8.62133594,29.5281797 8.59696094,29.5037031 8.59696094,29.4739453 L8.59696094,27.6826875 Z M8.65119531,31.1565312 L12.1251406,31.1565312 C12.7576719,31.1565312 13.3092578,30.8053281 13.5966797,30.2880703 L16.5217813,30.2880703 L16.5217813,47.7661641 L4.25455469,47.7661641 L4.25455469,30.2880703 L7.17965625,30.2880703 C7.46707813,30.8054297 8.01866406,31.1565312 8.65119531,31.1565312 Z M19.9413906,36.512125 C19.4916719,36.512125 19.1271641,36.8765313 19.1271641,37.3263516 L19.1271641,50.3716484 L1.64907031,50.3716484 L1.64907031,27.6826875 L6.96850781,27.6826875 L6.96850781,28.6597187 L3.44032813,28.6597187 C2.99060938,28.6597187 2.62610156,29.024125 2.62610156,29.4739453 L2.62610156,48.5803906 C2.62610156,49.0301094 2.99050781,49.3946172 3.44032813,49.3946172 L17.3359063,49.3946172 C17.785625,49.3946172 18.1501328,49.0302109 18.1501328,48.5803906 L18.1501328,29.4739453 C18.1501328,29.0242266 17.7857266,28.6597187 17.3359063,28.6597187 L13.8077266,28.6597187 L13.8077266,27.6826875 L19.1271641,27.6826875 L19.1271641,33.81625 C19.1271641,34.2659687 19.4915703,34.6304766 19.9413906,34.6304766 C20.3912109,34.6304766 20.7556172,34.2660703 20.7556172,33.81625 L20.7556172,31.1565313 L32.4178359,31.1565313 L20.7556172,46.4873906 L20.7556172,37.3263516 C20.7556172,36.8765312 20.3911094,36.512125 19.9413906,36.512125 Z M20.7556172,50.3716484 L20.7556172,49.1769688 L34.4637109,31.1566328 L36.7825859,31.1566328 L22.1657109,50.3716484 L20.7556172,50.3716484 Z M43.4444766,50.3716484 L24.2115859,50.3716484 L38.8284609,31.1566328 L39.0478359,31.1566328 C41.4722344,31.1566328 43.4444766,33.1289766 43.4444766,35.5532734 L43.4444766,50.3716484 Z M32.7515703,22.0376406 C33.0212188,22.397375 32.9481953,22.9078281 32.5884609,23.1774766 C32.0748594,23.5625 30.9898672,24.2086406 29.4946641,24.2086406 C28.8527891,24.2086406 27.5971719,24.0746797 26.4007656,23.177375 C26.0411328,22.907625 25.9682109,22.3971719 26.2379609,22.0375391 C26.5077109,21.6779063 27.0181641,21.6049844 27.3777969,21.8747344 C28.1962891,22.4886797 29.0554063,22.5803906 29.4946641,22.5803906 C30.5178047,22.5803906 31.2602266,22.1381875 31.6117344,21.8746328 C31.9713672,21.6051875 32.4819219,21.6778047 32.7515703,22.0376406 Z M25.0360703,18.9577578 C25.1838438,19.3279531 25.0462266,19.7617266 24.7021328,19.9678984 C24.3910469,20.1543672 23.9806328,20.1073437 23.7199219,19.8557734 C23.4808438,19.6253281 23.4056875,19.2651875 23.5314219,18.9577578 C23.8015781,18.2972969 24.7628672,18.3083672 25.0360703,18.9577578 Z M35.2808828,18.6938984 C35.5423047,18.9533906 35.5921719,19.3693906 35.4046875,19.68525 C35.2340625,19.9724688 34.8949453,20.128875 34.5658828,20.0708828 C34.2149844,20.0089297 33.9431016,19.7214063 33.8979063,19.3687813 C33.852,19.0109766 34.0609141,18.6539844 34.3939375,18.516875 C34.6935469,18.3934766 35.0517578,18.4647734 35.2808828,18.6938984 Z M29.0763281,32.2492422 C29.7184062,31.8643203 30.5098828,32.5171641 30.2608516,33.2222109 C30.1538047,33.5250703 29.8652656,33.7400781 29.5453437,33.7601875 C29.2003359,33.7819219 28.8763516,33.5758516 28.7421875,33.2593828 C28.5944141,32.8890859 28.7323359,32.4555156 29.0763281,32.2492422 Z M12.9936016,33.8705859 C13.4433203,33.8705859 13.8078281,34.2349922 13.8078281,34.6848125 C13.8078281,35.1346328 13.4433203,35.4990391 12.9936016,35.4990391 L7.78273437,35.4990391 C7.33291406,35.4990391 6.96850781,35.1345312 6.96850781,34.6848125 C6.96850781,34.2349922 7.33301562,33.8705859 7.78273437,33.8705859 L12.9936016,33.8705859 Z M12.9936016,38.2129922 C13.4433203,38.2129922 13.8078281,38.5773984 13.8078281,39.0272187 C13.8078281,39.4770391 13.4433203,39.8414453 12.9936016,39.8414453 L7.78273437,39.8414453 C7.33291406,39.8414453 6.96850781,39.4769375 6.96850781,39.0272187 C6.96850781,38.5773984 7.33301562,38.2129922 7.78273437,38.2129922 L12.9936016,38.2129922 Z M12.9936016,42.5552969 C13.4433203,42.5552969 13.8078281,42.9198047 13.8078281,43.3695234 C13.8078281,43.8193438 13.4433203,44.18375 12.9936016,44.18375 L7.78273437,44.18375 C7.33291406,44.18375 6.96850781,43.8192422 6.96850781,43.3695234 C6.96850781,42.9197031 7.33301562,42.5552969 7.78273437,42.5552969 L12.9936016,42.5552969 Z" id="path-1"></path>
    </defs>
    <g id="jkl/core/elements/icons/vendors" stroke="none" stroke-width="1" fill="none" fill-rule="evenodd">
        <g id="jkl/core/colors/primary" transform="translate(9.000000, 6.000000)">
            <mask id="mask-2" fill="white">
                <use xlink:href="#path-1"></use>
            </mask>
            <use id="Mask" fill="#000000" fill-rule="nonzero" xlink:href="#path-1"></use>
            <g mask="url(#mask-2)" fill="#ffffff" id="Rectangle-2">
                <g transform="translate(-19.000000, -14.000000)">
                    <rect x="0" y="0" width="84" height="79"></rect>
                </g>
            </g>
        </g>
    </g>
</svg>