<?xml version="1.0" encoding="UTF-8"?>
<svg width="64px" height="64px" viewBox="0 0 64 64" version="1.1" xmlns="http://www.w3.org/2000/svg" xmlns:xlink="http://www.w3.org/1999/xlink">
    <!-- Generator: Sketch 50.2 (55047) - http://www.bohemiancoding.com/sketch -->
    <title>jkl/core/elements/icons/verified</title>
    <desc>Created with Sketch.</desc>
    <defs>
        <path d="M20.2509932,35.4443673 C20.6062381,35.7997007 21.088034,35.9991224 21.5904354,35.9991224 C22.0929252,35.9991224 22.5746327,35.7996122 22.9298776,35.4443673 L39.1476871,19.2266463 C39.887449,18.4868844 39.887449,17.2875238 39.1476871,16.5477619 C38.4079252,15.808 37.2084762,15.8079116 36.4687143,16.5477619 L21.5904354,31.4261293 L15.5232381,25.3588435 C14.7834762,24.6189932 13.5841156,24.6189932 12.8443537,25.3588435 C12.1045918,26.0986054 12.1045918,27.297966 12.8443537,28.0377279 L20.2509932,35.4443673 Z M21.5904354,36.0433401 C21.0726463,36.0433401 20.5858095,35.8417075 20.2196871,35.475585 L12.8130476,28.0689456 C12.0572789,27.3130884 12.0572789,26.0833061 12.8130476,25.327449 C13.1791701,24.9612381 13.6660068,24.7596054 14.1837959,24.7596054 C14.701585,24.7596054 15.1883333,24.9612381 15.5545442,25.327449 L21.5905238,31.3634286 L36.4374966,16.5163673 C36.803619,16.1501565 37.2904558,15.9486122 37.8082449,15.9486122 C38.3259456,15.9486122 38.8127823,16.1502449 39.1789932,16.5163673 C39.5452041,16.8824898 39.7468367,17.3693265 39.7468367,17.8871156 C39.7468367,18.4049048 39.5452041,18.8916531 39.1789932,19.2578639 L22.9611837,35.475585 C22.5951497,35.8417075 22.1083129,36.0433401 21.5904354,36.0433401 Z M14.1837959,24.8481293 C13.689619,24.8481293 13.225068,25.0405646 12.8756599,25.3900612 C12.154381,26.1114286 12.154381,27.2850544 12.8756599,28.0064218 L20.2822993,35.4130612 C20.6317075,35.7624694 21.0962585,35.9549048 21.5904354,35.9549048 C22.0847007,35.9549048 22.5492517,35.7624694 22.8986599,35.4130612 L39.116381,19.1953401 C39.4657891,18.845932 39.6583129,18.3812925 39.6583129,17.8872041 C39.6583129,17.3931156 39.4657891,16.9283878 39.116381,16.5789796 C38.7669728,16.229483 38.3023333,16.0371361 37.8081565,16.0371361 C37.3139796,16.0371361 36.8493401,16.2295714 36.499932,16.5789796 L21.5904354,31.4885646 L15.491932,25.3900612 C15.1425238,25.0405646 14.6779728,24.8481293 14.1837959,24.8481293 Z M7.64532653,44.3468027 C10.0275102,46.728898 12.8024354,48.599483 15.8932517,49.9068231 C19.0952313,51.2611224 22.4942449,51.9477347 25.9960204,51.9477347 C29.4977075,51.9477347 32.8968095,51.2611224 36.0987891,49.9068231 C39.189517,48.599483 41.9645306,46.7288095 44.3468027,44.3468027 C46.728898,41.9645306 48.5996599,39.1896054 49.9068231,36.0987891 C51.2611224,32.8968095 51.9479116,29.4977075 51.9479116,25.9961088 C51.9479116,22.4942449 51.2611224,19.0952313 49.9068231,15.8933401 C48.5996599,12.8025238 46.7288095,10.0275986 44.3468027,7.64541497 C41.9645306,5.26323129 39.1896054,3.39255782 36.0987891,2.08530612 C32.8967211,0.730918367 29.4977075,0.0443061224 25.9960204,0.0443061224 C22.4942449,0.0443061224 19.0952313,0.731006803 15.8932517,2.08530612 C12.8024354,3.39255782 10.0275102,5.26331973 7.64532653,7.64541497 C5.26314286,10.0275102 3.39246939,12.8025238 2.08512925,15.8932517 C0.730918367,19.0952313 0.0442176871,22.4942449 0.0442176871,25.9961088 C0.0442176871,29.4977959 0.730918367,32.8968095 2.08521769,36.0987891 C3.39246939,39.1896054 5.26323129,41.9645306 7.64532653,44.3468027 Z M25.9960204,51.9919524 C22.4880544,51.9919524 19.0832925,51.304102 15.8760068,49.9475918 C12.7798844,48.6379524 10.0001837,46.7640952 7.61410884,44.3780204 C5.22785714,41.9916803 3.354,39.2118912 2.04453741,36.1159456 C0.68785034,32.908483 0,29.5036327 0,25.9961088 C0,22.4884966 0.68785034,19.0835578 2.04444898,15.8760068 C3.35391156,12.7800612 5.22785714,10.0003605 7.61402041,7.61410884 C10.0001837,5.22785714 12.7799728,3.354 15.8759184,2.04453741 C19.0834694,0.687938776 22.4883197,8.84353742e-05 25.995932,8.84353742e-05 C29.5038095,8.84353742e-05 32.9086599,0.687938776 36.1158571,2.04462585 C39.2118912,3.35408844 41.9915918,5.22803401 44.377932,7.61419728 C46.7642721,10.0006259 48.6381293,12.7803265 49.9475034,15.8760952 C51.3041905,19.0836463 51.9920408,22.4884966 51.9920408,25.9961088 C51.9920408,29.5036327 51.3041905,32.908483 49.9475034,36.116034 C48.6381293,39.2118912 46.7643605,41.9915918 44.377932,44.3781088 C41.9917687,46.7640952 39.2119796,48.6379524 36.1158571,49.9476803 C32.9086599,51.304102 29.5038095,51.9919524 25.9960204,51.9919524 Z M25.9960204,3.83287755 C38.236449,3.83287755 48.1591633,13.7556803 48.1591633,25.9961088 C48.1591633,38.236449 38.236449,48.1591633 25.9960204,48.1591633 C13.7555918,48.1591633 3.83278912,38.236449 3.83278912,25.9961088 C3.83278912,13.7556803 13.7555918,3.83287755 25.9960204,3.83287755 Z M25.9960204,0.0885238095 C22.5002585,0.0885238095 19.1070816,0.773986395 15.9104966,2.12598639 C12.8250748,3.43102721 10.0547483,5.29851701 7.67663265,7.67663265 C5.29842857,10.0548367 3.43093878,12.8250748 2.12589796,15.9104082 C0.773897959,19.1070816 0.0884353741,22.5003469 0.0884353741,25.9961088 C0.0884353741,29.4916939 0.773897959,32.8850476 2.12589796,36.0816327 C3.43093878,39.1670544 5.29842857,41.9372925 7.67663265,44.3154966 C10.0546599,46.6934354 12.824898,48.5609252 15.9104966,49.8661429 C19.1067279,51.2180544 22.4999932,51.903517 25.9960204,51.903517 C29.4920476,51.903517 32.8852245,51.2180544 36.0815442,49.8660544 C39.1670544,48.5609252 41.937381,46.6934354 44.3154082,44.3154966 C46.6937007,41.9370272 48.561102,39.1667891 49.865966,36.0816327 C51.2180544,32.8850476 51.9036054,29.4917823 51.9036054,25.9961088 C51.9036054,22.5003469 51.2180544,19.1070816 49.865966,15.910585 C48.5611905,12.8253401 46.6937007,10.055102 44.3154082,7.67672109 C41.9372041,5.29860544 39.1668776,3.43111565 36.0815442,2.12607483 C32.8851361,0.773986395 29.4918707,0.0885238095 25.9960204,0.0885238095 Z M25.9960204,48.203381 C20.0642177,48.203381 14.4873946,45.893449 10.2929932,41.6990476 C6.09859184,37.5045578 3.78857143,31.9279116 3.78857143,25.9961088 C3.78857143,20.0643061 6.0985034,14.487483 10.2929932,10.2930816 C14.4873946,6.09868027 20.0642177,3.78865986 25.9960204,3.78865986 C31.9278231,3.78865986 37.5045578,6.09868027 41.6989592,10.2930816 C45.893449,14.4875714 48.203381,20.0643061 48.203381,25.9961088 C48.203381,31.9279116 45.893449,37.5046463 41.6989592,41.6990476 C37.5045578,45.893449 31.9277347,48.203381 25.9960204,48.203381 Z M25.9960204,3.87709524 C20.0878299,3.87709524 14.5332925,6.17791837 10.355517,10.3556054 C6.17782993,14.533381 3.8770068,20.0879184 3.8770068,25.9961088 C3.8770068,31.9042993 6.17782993,37.4588367 10.355517,41.6364354 C14.5332041,45.8141224 20.0878299,48.1149456 25.9960204,48.1149456 C31.9042109,48.1149456 37.4587483,45.8141224 41.6364354,41.6364354 C45.8141224,37.4588367 48.1149456,31.9042109 48.1149456,25.9961088 C48.1149456,20.0879184 45.8141224,14.5332925 41.6364354,10.3556054 C37.4586599,6.17782993 31.9042109,3.87709524 25.9960204,3.87709524 Z" id="path-1"></path>
    </defs>
    <g id="jkl/core/elements/icons/verified" stroke="none" stroke-width="1" fill="none" fill-rule="evenodd">
        <g id="jkl/core/colors/primary" transform="translate(6.000000, 6.000000)">
            <mask id="mask-2" fill="white">
                <use xlink:href="#path-1"></use>
            </mask>
            <use id="Mask" fill="#000000" fill-rule="nonzero" xlink:href="#path-1"></use>
            <g mask="url(#mask-2)" fill="#ffffff" id="Rectangle-2">
                <g transform="translate(-16.000000, -15.000000)">
                    <rect x="0" y="0" width="84" height="79"></rect>
                </g>
            </g>
        </g>
    </g>
</svg>