<svg id="Gradient" height="512" viewBox="0 0 64 64" width="512" xmlns="http://www.w3.org/2000/svg" xmlns:xlink="http://www.w3.org/1999/xlink"><linearGradient id="New_Gradient_Swatch_5" gradientUnits="userSpaceOnUse" x1="5.293" x2="58.707" y1="5.293" y2="58.707"><stop offset="0" stop-color="#662d91"/><stop offset=".437" stop-color="#3873b3"/><stop offset="1" stop-color="#00c9dd"/></linearGradient><path d="m55 2h-46a1 1 0 0 0 -1 1v58a1 1 0 0 0 1 1h46a1 1 0 0 0 1-1v-58a1 1 0 0 0 -1-1zm-45 2h2v1h2v-1h2v1h2v-1h2v1h2v-1h32v3h-44zm0 56v-51h44v51zm42-50h-26a1 1 0 0 0 -1 1v30a1 1 0 0 0 1 1h26a1 1 0 0 0 1-1v-30a1 1 0 0 0 -1-1zm-1 30h-24v-28h24zm-22-21h20a1 1 0 0 0 1-1v-4a1 1 0 0 0 -1-1h-20a1 1 0 0 0 -1 1v4a1 1 0 0 0 1 1zm1-4h18v2h-18zm-1 11h20a1 1 0 0 0 1-1v-4a1 1 0 0 0 -1-1h-20a1 1 0 0 0 -1 1v4a1 1 0 0 0 1 1zm1-4h18v2h-18zm-1 11h20a1 1 0 0 0 1-1v-4a1 1 0 0 0 -1-1h-20a1 1 0 0 0 -1 1v4a1 1 0 0 0 1 1zm1-4h18v2h-18zm14 5h-10a1 1 0 0 0 -1 1v3a1 1 0 0 0 1 1h10a1 1 0 0 0 1-1v-3a1 1 0 0 0 -1-1zm-1 3h-8v-1h8zm-20-24h-11v-2h11zm0 4h-11v-2h11zm-3 4h-8v-2h8zm-5 4h-3v-2h3zm8 7h-11v-2h11zm-2 4h-7v-2h7zm-7 2h7v2h-7zm9 6h-10a1 1 0 0 0 -1 1v10a1 1 0 0 0 1 1h10a1 1 0 0 0 1-1v-10a1 1 0 0 0 -1-1zm-1 10h-8v-8h8zm15-10h-10a1 1 0 0 0 -1 1v10a1 1 0 0 0 1 1h10a1 1 0 0 0 1-1v-10a1 1 0 0 0 -1-1zm-1 10h-8v-8h8zm15-10h-10a1 1 0 0 0 -1 1v10a1 1 0 0 0 1 1h10a1 1 0 0 0 1-1v-10a1 1 0 0 0 -1-1zm-1 10h-8v-8h8zm-36 3h8v2h-8zm14 0h8v2h-8zm14 0h8v2h-8z" fill="url(#New_Gradient_Swatch_5)"/></svg>