<?xml version="1.0"?>
<svg xmlns="http://www.w3.org/2000/svg" xmlns:xlink="http://www.w3.org/1999/xlink" id="Gradient" viewBox="0 0 64 64" width="512" height="512"><defs><linearGradient id="New_Gradient_Swatch_5" x1="10.32" y1="10.613" x2="45.498" y2="45.791" gradientUnits="userSpaceOnUse"><stop offset="0" stop-color="#662d91"/><stop offset="0.437" stop-color="#3873b3"/><stop offset="1" stop-color="#00c9dd"/></linearGradient></defs><path d="M18,25H16V23h2Zm6-2H22v2h2Zm-7.707,6.707L18.586,32H22V30H19.414l-1.707-1.707ZM62,3V21a1,1,0,0,1-1,1H42.333L34.6,27.8a1,1,0,0,1-1.5-1.247L35.382,22H34a1,1,0,0,1-1-1V3a1,1,0,0,1,1-1H61A1,1,0,0,1,62,3ZM60,4H35V20h2a1,1,0,0,1,.9,1.447l-1.106,2.211L41.4,20.2A1,1,0,0,1,42,20H60ZM50.281,35.136l-.062,5.531a1,1,0,0,1-.553.884l-3.788,1.894a.991.991,0,0,1-.138.228l-8.556,9.411A5.838,5.838,0,0,1,29,53.542V61a1,1,0,0,1-1,1H21a2.981,2.981,0,0,1-2-.78A2.981,2.981,0,0,1,17,62H2V39.547A5.553,5.553,0,0,1,7.547,34h6.12a7.906,7.906,0,0,1-2.627-5.116,3.989,3.989,0,0,1-2.309-6.176A3,3,0,0,1,7,20V16a5.006,5.006,0,0,1,5-5h2a1.983,1.983,0,0,1,1.324.513A2.982,2.982,0,0,1,17,11H31v6a3,3,0,0,1-3,3v8.084A7.887,7.887,0,0,1,25.325,34h4.128A5.553,5.553,0,0,1,35,39.547v4.791l5.248-6a1,1,0,0,1,.251-.19l1.4-6.366A1,1,0,0,1,42.875,31H45a1,1,0,0,1,1,1v2.029l3.311.1A1,1,0,0,1,50.281,35.136ZM8,36H7.547A3.551,3.551,0,0,0,4,39.547V60H8Zm15.458.956L21.914,38.5l1.853-.308ZM15.2,36.845l-.7,1.391,2.086.348Zm6.576-1.03A7.949,7.949,0,0,1,20.084,36H18.916a7.891,7.891,0,0,1-2.057-.277l2.224,2.78ZM18,42.414l-1.66,1.66L18,46.149Zm2,3.735,1.66-2.075L20,42.414ZM16,14v4H28a1,1,0,0,0,1-1V13H17A1,1,0,0,0,16,14ZM9,20a1,1,0,0,0,1,1h1.586L14,18.586V13H12a3,3,0,0,0-3,3Zm9.916,14h1.168A5.923,5.923,0,0,0,26,28.084V20H15.414l-3,3H12a2,2,0,0,0,0,4h1v1A5.941,5.941,0,0,0,18.916,34ZM18,59V49.35l-3.781-4.725a1,1,0,0,1,.074-1.332l2.626-2.626-4.084-.681a1,1,0,0,1-.73-1.433L13.382,36H10V60h7A1,1,0,0,0,18,59Zm9-9.853V36H25.281l.689,2.757a1,1,0,0,1-.8,1.229l-4.084.681,2.626,2.626a1,1,0,0,1,.074,1.332L20,49.35V59a1,1,0,0,0,1,1h6Zm16.619-6.114-2.57-2.57-6.3,7.2A1,1,0,0,1,33,47V39.547A3.551,3.551,0,0,0,29.453,36H29V49.147a3.854,3.854,0,0,0,6.7,2.592ZM48.27,36.1l-3.3-.1A1,1,0,0,1,44,35V33h-.321l-1.3,5.933,2.669,2.692,3.182-1.59ZM58,12H37v2H58Zm-7,4H37v2H51ZM38.807,10l1.306-.944,1.3.944-.5-1.528,1.306-.944H40.611L40.113,6l-.5,1.528H38l1.306.944Zm7.387,0L47.5,9.056,48.806,10l-.5-1.528,1.306-.944H48L47.5,6,47,7.528H45.387l1.306.944Zm7.388,0,1.3-.944L56.193,10l-.5-1.528L57,7.528H55.386L54.887,6l-.5,1.528H52.775l1.306.944Z" style="fill:url(#New_Gradient_Swatch_5)"/></svg>
