<svg height="512pt" viewBox="0 0 512 512.00057" width="512pt" xmlns="http://www.w3.org/2000/svg" xmlns:xlink="http://www.w3.org/1999/xlink"><linearGradient id="a"><stop offset="0" stop-color="#662d91"/><stop offset=".437" stop-color="#3873b3"/><stop offset="1" stop-color="#00c9dd"/></linearGradient><linearGradient id="b" gradientTransform="matrix(1.099713 0 0 -1.099713 -.001914 504.198093)" gradientUnits="userSpaceOnUse" x1="-76.297" x2="296.2994" xlink:href="#a" y1="309.7497" y2="-62.8467"/><linearGradient id="c" gradientTransform="matrix(1.099713 0 0 -1.099713 -.001914 504.198093)" gradientUnits="userSpaceOnUse" x1="98.3001" x2="470.8965" xlink:href="#a" y1="484.3468" y2="111.7504"/><linearGradient id="d" gradientTransform="matrix(1.099713 0 0 -1.099713 -.001914 504.198093)" gradientUnits="userSpaceOnUse" x1="-6.4443" x2="366.152" xlink:href="#a" y1="379.6023" y2="7.006"/><linearGradient id="e" gradientTransform="matrix(1.099713 0 0 -1.099713 -.001914 504.198093)" gradientUnits="userSpaceOnUse" x1="-14.2209" x2="358.3755" xlink:href="#a" y1="371.8258" y2="-.7706"/><linearGradient id="f" gradientTransform="matrix(1.099713 0 0 -1.099713 -.001914 504.198093)" gradientUnits="userSpaceOnUse" x1="16.8172" x2="389.4136" xlink:href="#a" y1="402.8639" y2="30.2675"/><linearGradient id="g" gradientTransform="matrix(1.099713 0 0 -1.099713 -.001914 504.198093)" gradientUnits="userSpaceOnUse" x1="-17.5211" x2="355.0753" xlink:href="#a" y1="368.5333" y2="-4.0709"/><path d="m0 494.933594h511.996094v17.066406h-511.996094zm0 0" fill="url(#b)"/><path d="m264.652344 273.660156c.039062.671875.167968 1.339844.382812 1.976563.082032.316406.191406.628906.316406.933593.394532.898438.941407 1.726563 1.621094 2.4375l.058594.09375 28.097656 28.101563-96.363281 96.363281c-3.332031 3.332032-3.332031 8.734375 0 12.066406l51.199219 51.199219c3.332031 3.332031 8.734375 3.332031 12.066406 0l102.398438-102.398437c1.304687-1.304688 2.152343-2.996094 2.414062-4.820313l17.066406-119.464843c.011719-.238282.011719-.472657 0-.707032.03125-.367187.03125-.730468 0-1.09375-.039062-.671875-.171875-1.339844-.382812-1.980468-.085938-.316407-.191406-.625-.316406-.929688-.394532-.898438-.945313-1.726562-1.621094-2.441406l-.058594-.089844-28.136719-28.101562 90.335938-90.332032 19.566406 19.566406c3.320313 3.34375 8.722656 3.363282 12.066406.046876 1.324219-1.316407 2.179688-3.023438 2.441407-4.867188l17.0625-119.46875c.671874-4.664062-2.5625-8.992188-7.226563-9.6640625-.816406-.1171875-1.644531-.1132813-2.457031.0039063l-119.464844 17.0664062c-4.667969.660156-7.917969 4.972656-7.261719 9.640625.261719 1.847656 1.117188 3.554687 2.441407 4.867187l19.566406 19.542969-96.367188 96.363281c-1.304687 1.304688-2.152344 2.996094-2.414062 4.820313l-17.066406 119.464844c-.015626.238281-.015626.476562 0 .710937-.019532.363282-.007813.730469.035156 1.09375zm85.699218 80.714844-94.351562 94.359375-39.136719-39.132813 96.367188-96.367187 50.167969-50.164063zm13.046876-115.4375-56.199219 56.199219-22.070313-22.066407 56.203125-56.199218zm-65.222657-81.304688 100.386719-100.394531c3.332031-3.332031 3.332031-8.734375 0-12.066406l-13.535156-13.535156 91.308594-13.039063-13.039063 91.308594-13.535156-13.535156c-3.332031-3.332032-8.734375-3.332032-12.066407 0l-152.566406 152.566406zm0 0" fill="url(#c)"/><path d="m128 332.800781c61.265625 0 110.929688-49.664062 110.929688-110.929687s-49.664063-110.933594-110.929688-110.933594-110.933594 49.667969-110.933594 110.933594c.070313 61.234375 49.695313 110.859375 110.933594 110.929687zm0-204.796875c51.839844 0 93.863281 42.027344 93.863281 93.867188s-42.023437 93.863281-93.863281 93.863281-93.867188-42.023437-93.867188-93.863281c.0625-51.816406 42.050782-93.804688 93.867188-93.867188zm0 0" fill="url(#d)"/><path d="m85.332031 196.269531h17.066407v17.066407h-17.066407zm0 0" fill="url(#e)"/><path d="m153.597656 196.269531h17.066406v17.066407h-17.066406zm0 0" fill="url(#f)"/><path d="m194.371094 254.109375 7.929687-7.921875-12.066406-12.066406-7.929687 7.921875c-30.007813 29.949219-78.601563 29.949219-108.609376 0l-7.929687-7.921875-12.066406 12.066406 7.929687 7.921875c36.675782 36.601563 96.0625 36.601563 132.742188 0zm0 0" fill="url(#g)"/></svg>