<svg height="512pt" viewBox="0 0 512 512.00013" width="512pt" xmlns="http://www.w3.org/2000/svg" xmlns:xlink="http://www.w3.org/1999/xlink"><linearGradient id="a"><stop offset="0" stop-color="#662d91"/><stop offset=".437" stop-color="#3873b3"/><stop offset="1" stop-color="#00c9dd"/></linearGradient><linearGradient id="b" gradientTransform="matrix(1.099725 0 0 -1.099725 -.081267 504.203077)" gradientUnits="userSpaceOnUse" x1="-48.7403" x2="373.3617" xlink:href="#a" y1="363.2574" y2="-58.8524"/><linearGradient id="c" gradientTransform="matrix(1.099725 0 0 -1.099725 -.081267 504.203077)" gradientUnits="userSpaceOnUse" x1="107.7535" x2="529.8633" xlink:href="#a" y1="519.7512" y2="97.6491"/><linearGradient id="d" gradientTransform="matrix(1.099725 0 0 -1.099725 -.081267 504.203077)" gradientUnits="userSpaceOnUse" x1="21.2647" x2="443.3745" xlink:href="#a" y1="433.2624" y2="11.1526"/><linearGradient id="e" gradientTransform="matrix(1.099725 0 0 -1.099725 -.081267 504.203077)" gradientUnits="userSpaceOnUse" x1="5.7457" x2="427.8555" xlink:href="#a" y1="417.7434" y2="-4.3664"/><linearGradient id="f" gradientTransform="matrix(1.099725 0 0 -1.099725 -.081267 504.203077)" gradientUnits="userSpaceOnUse" x1="54.6754" x2="476.7853" xlink:href="#a" y1="466.6732" y2="44.5634"/><linearGradient id="g" gradientTransform="matrix(1.099725 0 0 -1.099725 -.081267 504.203077)" gradientUnits="userSpaceOnUse" x1="44.5432" x2="466.653" xlink:href="#a" y1="456.541" y2="34.4311"/><linearGradient id="h" gradientTransform="matrix(1.099725 0 0 -1.099725 -.081267 504.203077)" gradientUnits="userSpaceOnUse" x1="29.0242" x2="451.134" xlink:href="#a" y1="441.0219" y2="18.9121"/><linearGradient id="i" gradientTransform="matrix(1.099725 0 0 -1.099725 -.081267 504.203077)" gradientUnits="userSpaceOnUse" x1="1.8659" x2="423.9757" xlink:href="#a" y1="413.8636" y2="-8.2462"/><linearGradient id="j" gradientTransform="matrix(1.099725 0 0 -1.099725 -.081267 504.203077)" gradientUnits="userSpaceOnUse" x1="234.6513" x2="656.7612" xlink:href="#a" y1="646.649" y2="224.5393"/><linearGradient id="k" gradientTransform="matrix(1.099725 0 0 -1.099725 -.081267 504.203077)" gradientUnits="userSpaceOnUse" x1="219.1323" x2="641.2421" xlink:href="#a" y1="631.1301" y2="209.0202"/><linearGradient id="l" gradientTransform="matrix(1.099725 0 0 -1.099725 -.081267 504.203077)" gradientUnits="userSpaceOnUse" x1="195.8537" x2="617.9636" xlink:href="#a" y1="607.8515" y2="185.7417"/><path d="m204.636719 312.199219v-184.199219c0-4.710938-3.820313-8.535156-8.535157-8.535156-58.230468-.003906-113.453124 25.894531-150.679687 70.675781l-11.453125-13.988281v-56.683594h-17.066406v59.734375c0 1.96875.683594 3.875 1.929687 5.398437l15.992188 19.507813c-61.617188 89.144531-39.304688 211.359375 49.839843 272.976563 77.921876 53.859374 183.191407 44.363281 250.21875-22.566407 3.328126-3.332031 3.328126-8.734375 0-12.066406zm-8.53125 182.734375c-98.917969.050781-179.148438-80.09375-179.203125-179.011719-.019532-34.820313 10.113281-68.894531 29.160156-98.046875l49.570312 60.585938 13.210938-10.804688-52.386719-64c32.082031-40.078125 79.832031-64.453125 131.113281-66.925781v179.003906c0 2.261719.898438 4.433594 2.5 6.03125l126.566407 126.574219c-32.917969 30.089844-75.933594 46.71875-120.53125 46.59375zm0 0" fill="url(#b)"/><path d="m226.96875 263.882812c1.035156.433594 2.148438.652344 3.269531.652344 2.261719 0 4.433594-.902344 6.03125-2.503906l132.746094-132.75c3.332031-3.335938 3.332031-8.734375 0-12.066406-15.636719-15.570313-33.78125-28.390625-53.675781-37.933594l31.105468-62.214844h62.992188v-17.066406h-68.265625c-3.25-.015625-6.230469 1.8125-7.679687 4.71875l-33.851563 67.816406c-22.171875-8.429687-45.683594-12.765625-69.402344-12.800781-4.714843 0-8.535156 3.820313-8.535156 8.535156v187.730469c0 3.453125 2.078125 6.5625 5.265625 7.882812zm11.800781-186.886718c18.183594.882812 36.125 4.539062 53.207031 10.84375l-18.21875 36.34375 15.273438 7.628906 18.664062-37.324219c15.671876 7.492188 30.171876 17.226563 43.03125 28.902344l-111.957031 112.011719zm0 0" fill="url(#c)"/><path d="m417.96875 460.800781h93.867188v17.066407h-93.867188zm0 0" fill="url(#d)"/><path d="m417.96875 494.933594h93.867188v17.066406h-93.867188zm0 0" fill="url(#e)"/><path d="m452.105469 356.164062v79.035157h17.066406v-85.332031c0-3.746094-2.445313-7.054688-6.027344-8.160157l-30.582031-9.382812c1.574219-9.878907 2.402344-19.863281 2.472656-29.867188.144532-52.078125-20.554687-102.050781-57.488281-138.769531-3.332031-3.332031-8.734375-3.332031-12.066406 0l-132.742188 132.726562c-3.332031 3.332032-3.332031 8.734376 0 12.066407l132.742188 132.753906c3.332031 3.332031 8.734375 3.332031 12.066406 0 25.382813-25.355469 43.273437-57.226563 51.695313-92.101563zm-80.726563 66.824219-120.542968-120.539062 120.542968-120.535157c30.089844 32.917969 46.71875 75.9375 46.589844 120.535157-.0625 8.28125-.6875 16.546875-1.875 24.746093l-63.882812-19.628906-5.015626 16.316406 65.707032 20.222657c-6.910156 29.398437-21.199219 56.546875-41.523438 78.882812zm0 0" fill="url(#f)"/><path d="m8.371094 8.535156h110.933594v17.066406h-110.933594zm0 0" fill="url(#g)"/><path d="m8.371094 42.667969h110.933594v17.066406h-110.933594zm0 0" fill="url(#h)"/><path d="m8.371094 76.800781h59.734375v17.066407h-59.734375zm0 0" fill="url(#i)"/><path d="m435.035156 0h76.800782v17.066406h-76.800782zm0 0" fill="url(#j)"/><path d="m435.035156 34.132812h76.800782v17.066407h-76.800782zm0 0" fill="url(#k)"/><path d="m435.035156 68.265625h42.667969v17.066406h-42.667969zm0 0" fill="url(#l)"/></svg>